<svg xmlns="http://www.w3.org/2000/svg" viewBox="0 0 61.67 54.55"><defs><style>.cls-1{fill:#ffffff;}</style></defs><title>Asset 6</title><g id="Layer_2" data-name="Layer 2"><g id="Layer_1-2" data-name="Layer 1"><path class="cls-1" d="M61.11,48.27,34.46,2.09a4.19,4.19,0,0,0-7.25,0L.56,48.27a4.19,4.19,0,0,0,3.63,6.28H57.48A4.19,4.19,0,0,0,61.11,48.27Zm-32.3-31a3.77,3.77,0,0,1,2.3-.7,3,3,0,0,1,2,.7A2.11,2.11,0,0,1,33.9,19c0,1.6-.07,4.39-.14,8.3s-.14,6.63-.14,8.23a1.51,1.51,0,0,1-.84,1.33,3.86,3.86,0,0,1-1.74.49c-1.74,0-2.58-.56-2.58-1.74,0-1.6-.07-4.32-.28-8.23s-.28-6.7-.28-8.3A2.09,2.09,0,0,1,28.81,17.23Zm4.39,28.18a2.65,2.65,0,0,1-2.09.91,3.37,3.37,0,0,1-2.37-.91,3,3,0,0,1-1-2.16,3.22,3.22,0,0,1,3.35-3.14,2.86,2.86,0,0,1,2.09.91,3.19,3.19,0,0,1,.91,2.16A3.57,3.57,0,0,1,33.21,45.41Z"/></g></g></svg>
