<svg xmlns="http://www.w3.org/2000/svg" viewBox="0 0 109.93 97.23"><defs><style>.cls-1{fill:#d53f38;}</style></defs><title>Asset 61</title><g id="Layer_2" data-name="Layer 2"><g id="Layer_1-2" data-name="Layer 1"><path class="cls-1" d="M108.92,86,61.43,3.73a7.47,7.47,0,0,0-12.93,0L1,86A7.47,7.47,0,0,0,7.47,97.23h95A7.47,7.47,0,0,0,108.92,86ZM51.36,30.71a6.71,6.71,0,0,1,4.1-1.24,5.31,5.31,0,0,1,3.61,1.24,3.76,3.76,0,0,1,1.37,3.23c0,2.86-.12,7.83-.25,14.8s-.25,11.81-.25,14.67a2.69,2.69,0,0,1-1.49,2.36,6.87,6.87,0,0,1-3.11.87c-3.11,0-4.6-1-4.6-3.11,0-2.86-.12-7.71-.5-14.67s-.5-11.94-.5-14.8A3.72,3.72,0,0,1,51.36,30.71Zm7.83,50.23a4.73,4.73,0,0,1-3.73,1.62,6,6,0,0,1-4.23-1.62,5.3,5.3,0,0,1-1.74-3.85,5.74,5.74,0,0,1,6-5.6,5.1,5.1,0,0,1,3.73,1.62A5.68,5.68,0,0,1,60.81,77,6.37,6.37,0,0,1,59.19,80.94Z"/></g></g></svg>