<?xml version="1.0" encoding="utf-8"?>
<!-- Generator: Adobe Illustrator 22.0.1, SVG Export Plug-In . SVG Version: 6.00 Build 0)  -->
<svg version="1.1" id="Layer_1" xmlns="http://www.w3.org/2000/svg" xmlns:xlink="http://www.w3.org/1999/xlink" x="0px" y="0px"
	 viewBox="0 0 112.2 112.2" style="enable-background:new 0 0 112.2 112.2;" xml:space="preserve">
<style type="text/css">
	.st0{fill:#FF842C;}
	.st1{fill:#FFFFFF;}
</style>
<circle class="st0" cx="56.1" cy="56.1" r="54.9"/>
<title>Asset 19</title>
<g>
	<path class="st1" d="M57.34,81.76c0.72,0,1.46,0.01,2.21,0.04c0.64-7,0.64-14.05,0-21.06c-0.75,0-1.49,0.01-2.21,0.04L57.34,81.76
		L57.34,81.76z"/>
	<path class="st1" d="M52.65,81.83l2.21-0.07V60.83l-2.21-0.05C52.01,67.78,52.01,74.83,52.65,81.83z"/>
	<path class="st1" d="M45.61,54.84h20.99c0-0.77,0-1.51,0.05-2.21c-7.01-0.64-14.07-0.64-21.08,0
		C45.58,53.34,45.6,54.07,45.61,54.84z"/>
	<path class="st1" d="M54.86,30.4l-2.21-0.05c-0.64,7.01-0.64,14.07,0,21.08l2.21-0.06V30.4z"/>
	<path class="st1" d="M60.83,39.66h20.93c0-0.77,0-1.51,0.05-2.21c-7.01-0.64-14.07-0.64-21.08,0
		C60.77,38.15,60.79,38.89,60.83,39.66z"/>
	<path class="st1" d="M30.44,70.06h20.93c0-0.77,0-1.51,0.05-2.21c-7.01-0.64-14.07-0.64-21.08,0
		C30.39,68.55,30.41,69.29,30.44,70.06z"/>
	<path class="st1" d="M75.96,29.15c1.47,0.14,5.45,0.47,10.53,0.49v-2.7H76C76,27.66,75.98,28.39,75.96,29.15z"/>
	<path class="st1" d="M42.15,66.59c0.72,0,1.46,0.01,2.21,0.04c0.64-7.01,0.64-14.06,0-21.07l-2.21,0.05L42.15,66.59L42.15,66.59z"
		/>
	<path class="st1" d="M75.96,59.54c1.47,0.14,5.45,0.47,10.53,0.49v-2.7H76C76,58.05,75.98,58.79,75.96,59.54z"/>
	<path class="st1" d="M30.44,42.14c0,0.72-0.01,1.46-0.04,2.21c7,0.64,14.05,0.64,21.06,0c0-0.76-0.01-1.49-0.04-2.21H30.44z"/>
	<path class="st1" d="M39.66,66.59V45.61c-0.72,0-1.46-0.01-2.21-0.04c-0.64,7.01-0.64,14.06,0,21.07L39.66,66.59z"/>
	<path class="st1" d="M67.07,45.53c-3.04-0.11-5.31-0.3-6.33-0.41c-0.07,2.03-0.2,4.16-0.42,6.31c2.03,0.07,4.17,0.2,6.34,0.42
		C66.78,48.82,66.97,46.54,67.07,45.53z"/>
	<path class="st1" d="M59.55,30.37c-0.75,0-1.49,0.01-2.21,0.04v20.97c0.72,0,1.46,0.01,2.21,0.04
		C60.19,44.41,60.19,37.37,59.55,30.37z"/>
	<path class="st1" d="M45.13,45.53c0.09,1.01,0.29,3.28,0.41,6.33c1.01-0.09,3.29-0.3,6.34-0.41c-0.22-2.16-0.35-4.29-0.42-6.33
		C50.44,45.23,48.17,45.42,45.13,45.53z"/>
	<path class="st1" d="M75.99,54.84h10.49v-2.7c-5.09,0-9.09,0.34-10.54,0.49C75.97,53.34,75.99,54.07,75.99,54.84z"/>
	<path class="st1" d="M76,85.29h10.49v-2.7c-5.08,0-9.06,0.34-10.53,0.49C75.98,83.83,76,84.57,76,85.29z"/>
	<path class="st1" d="M39.66,36.19V25.71h-2.7c-0.02,3.51,0.14,7.02,0.48,10.51C38.2,36.21,38.94,36.2,39.66,36.19z"/>
	<path class="st1" d="M36.25,52.64c-3.5-0.34-7.02-0.5-10.54-0.49v2.7h10.49C36.21,54.07,36.23,53.34,36.25,52.64z"/>
	<path class="st1" d="M36.2,26.93H25.71v2.7c5.08,0,9.06-0.34,10.53-0.49C36.22,28.39,36.2,27.66,36.2,26.93z"/>
	<path class="st1" d="M74.75,36.23c0.34-3.49,0.5-7,0.48-10.51h-2.7v10.48C73.25,36.2,73.99,36.21,74.75,36.23z"/>
	<path class="st1" d="M70.05,36.19V25.71h-2.7c-0.02,3.52,0.14,7.03,0.48,10.53L70.05,36.19z"/>
	<path class="st1" d="M44.36,36.24c0.34-3.5,0.5-7.01,0.49-10.53h-2.7v10.48L44.36,36.24z"/>
	<path class="st1" d="M67.84,75.96c-0.34,3.5-0.5,7.01-0.49,10.53h2.7V76.01L67.84,75.96z"/>
	<path class="st1" d="M42.15,76.01v10.48h2.7c0-5.07-0.34-9.06-0.48-10.51C43.61,75.99,42.87,76,42.15,76.01z"/>
	<path class="st1" d="M72.54,76.01v10.48h2.7c0.02-3.51-0.15-7.02-0.49-10.51C73.99,75.99,73.26,76,72.54,76.01z"/>
	<path class="st1" d="M37.46,75.96c-0.14,1.45-0.47,5.44-0.49,10.53h2.7V76.01L37.46,75.96z"/>
	<path class="st1" d="M36.2,57.34H25.71v2.7c3.52,0.02,7.03-0.15,10.53-0.49C36.22,58.79,36.2,58.06,36.2,57.34z"/>
	<path class="st1" d="M36.25,83.03c-3.5-0.34-7.02-0.5-10.54-0.48v2.7h10.49C36.21,84.46,36.23,83.73,36.25,83.03z"/>
	<path class="st1" d="M66.59,57.34H45.61c0,0.72-0.01,1.46-0.04,2.21c7,0.64,14.05,0.64,21.06,0
		C66.61,58.79,66.59,58.06,66.59,57.34z"/>
	<path class="st1" d="M45.56,83.03c0,0.68,0.04,1.45,0.05,2.21h20.98c0-0.72,0.01-1.46,0.04-2.21
		C59.62,82.39,52.57,82.39,45.56,83.03z"/>
	<path class="st1" d="M81.76,72.54H60.83c0,0.72-0.01,1.46-0.04,2.21c7,0.64,14.05,0.64,21.06,0
		C81.79,74.02,81.76,73.29,81.76,72.54z"/>
	<path class="st1" d="M26.96,60.83v20.93c0.72,0,1.46,0.01,2.21,0.04c0.64-7,0.64-14.05,0-21.06C28.41,60.78,27.68,60.8,26.96,60.83
		z"/>
	<path class="st1" d="M51.88,60.72c-3.04-0.11-5.31-0.3-6.33-0.41c-0.07,2.03-0.2,4.17-0.42,6.33c2.03,0.07,4.17,0.2,6.34,0.42
		C51.58,64.01,51.78,61.73,51.88,60.72z"/>
	<path class="st1" d="M51.37,72.54H30.44c0,0.72-0.01,1.46-0.04,2.21c7,0.64,14.05,0.64,21.06,0C51.4,74.02,51.37,73.29,51.37,72.54
		z"/>
	<path class="st1" d="M36.69,66.67c-0.22-2.17-0.35-4.31-0.42-6.35c-2.16,0.22-4.29,0.35-6.33,0.42c0.1,1.02,0.29,3.3,0.41,6.33
		C31.35,66.97,33.63,66.78,36.69,66.67z"/>
	<path class="st1" d="M29.94,81.84c2.03,0.07,4.17,0.2,6.34,0.42c0.11-3.05,0.31-5.32,0.41-6.33c-3.04-0.11-5.31-0.3-6.33-0.41
		C30.28,77.56,30.16,79.69,29.94,81.84z"/>
	<path class="st1" d="M60.33,81.84c2.03,0.07,4.17,0.2,6.33,0.42c0.07-2.03,0.2-4.17,0.42-6.33c-3.04-0.11-5.31-0.3-6.33-0.41
		C60.67,77.56,60.54,79.69,60.33,81.84z"/>
	<path class="st1" d="M85.24,51.37V30.4l-2.21-0.05c-0.64,7.01-0.64,14.07,0,21.08L85.24,51.37z"/>
	<path class="st1" d="M75.51,45.55c0.1,1.01,0.29,3.28,0.41,6.31c1.01-0.09,3.29-0.3,6.34-0.41c-0.22-2.16-0.35-4.29-0.42-6.33
		C79.69,45.34,77.55,45.48,75.51,45.55z"/>
	<path class="st1" d="M85.24,81.82V60.83l-2.21-0.05c-0.64,7.03-0.64,14.1,0,21.12L85.24,81.82z"/>
	<path class="st1" d="M75.52,36.25c2.03,0.07,4.17,0.2,6.34,0.42c0.11-3.06,0.31-5.34,0.41-6.35c-3.04-0.11-5.31-0.3-6.33-0.41
		C75.87,31.96,75.74,34.09,75.52,36.25z"/>
	<path class="st1" d="M75.52,66.65c2.03,0.07,4.17,0.2,6.34,0.42c0.11-3.06,0.31-5.34,0.41-6.35c-3.04-0.11-5.31-0.3-6.33-0.41
		C75.87,62.35,75.74,64.49,75.52,66.65z"/>
	<path class="st1" d="M75.51,75.95c0.22,2.17,0.35,4.31,0.42,6.35c1.02-0.1,3.29-0.29,6.33-0.41c-0.22-2.17-0.35-4.32-0.43-6.37
		C79.69,75.74,77.55,75.88,75.51,75.95z"/>
	<path class="st1" d="M51.45,75.53c-2.16,0.22-4.29,0.35-6.33,0.42c0.1,1.01,0.29,3.28,0.41,6.31c1.01-0.09,3.29-0.3,6.34-0.41
		C51.66,79.69,51.53,77.56,51.45,75.53z"/>
	<path class="st1" d="M60.73,36.67c1.01-0.09,3.29-0.3,6.34-0.41c-0.22-2.17-0.35-4.31-0.42-6.35c-2.16,0.22-4.29,0.35-6.33,0.42
		C60.42,31.36,60.62,33.63,60.73,36.67z"/>
	<path class="st1" d="M72.54,45.61v20.97c0.72,0,1.46,0.01,2.21,0.04c0.64-7,0.64-14.05,0-21.06
		C73.99,45.59,73.26,45.61,72.54,45.61z"/>
	<path class="st1" d="M81.76,42.14H60.83c0,0.72-0.01,1.46-0.04,2.21c7,0.64,14.05,0.64,21.06,0
		C81.79,43.61,81.76,42.87,81.76,42.14z"/>
	<path class="st1" d="M70.05,45.61l-2.21-0.05c-0.64,7.01-0.64,14.07,0,21.08l2.21-0.05L70.05,45.61L70.05,45.61z"/>
	<path class="st1" d="M67.07,66.67c-0.22-2.17-0.35-4.31-0.42-6.35c-2.16,0.22-4.29,0.35-6.33,0.42c0.1,1.02,0.29,3.3,0.41,6.33
		C61.74,66.97,64.01,66.78,67.07,66.67z"/>
	<path class="st1" d="M36.69,45.55c-2.03-0.07-4.17-0.2-6.33-0.42c-0.07,2.03-0.2,4.16-0.42,6.31c2.03,0.07,4.17,0.2,6.34,0.42
		C36.39,48.83,36.58,46.57,36.69,45.55z"/>
	<path class="st1" d="M81.76,70.06c0-0.77,0-1.51,0.05-2.21c-7.01-0.64-14.07-0.64-21.08,0c0,0.68,0.04,1.45,0.05,2.21H81.76z"/>
	<path class="st1" d="M26.96,30.4v20.97c0.72,0,1.46,0.01,2.21,0.04c0.64-7.01,0.64-14.06,0-21.07L26.96,30.4z"/>
	<path class="st1" d="M66.63,29.15c0-0.75-0.01-1.49-0.04-2.21H45.61c0,0.72-0.01,1.46-0.04,2.21
		C52.58,29.79,59.62,29.79,66.63,29.15z"/>
	<path class="st1" d="M30.44,39.66h20.93c0-0.77,0-1.51,0.05-2.21c-7.01-0.64-14.07-0.64-21.08,0
		C30.39,38.15,30.41,38.89,30.44,39.66z"/>
	<path class="st1" d="M36.68,36.25c-0.22-2.16-0.35-4.29-0.42-6.33c-1.02,0.1-3.29,0.29-6.33,0.41c0.09,1.01,0.29,3.3,0.41,6.35
		C32.51,36.46,34.64,36.33,36.68,36.25z"/>
	<path class="st1" d="M51.88,30.32c-3.04-0.11-5.31-0.3-6.33-0.41c-0.07,2.03-0.2,4.18-0.42,6.35c3.05,0.11,5.33,0.31,6.34,0.41
		C51.58,33.62,51.78,31.34,51.88,30.32z"/>
</g>
</svg>
