<svg xmlns="http://www.w3.org/2000/svg" viewBox="0 0 51.07 32.87"><defs><style>.cls-1{fill:#fff;}</style></defs><title>Asset 36</title><g id="Layer_2" data-name="Layer 2"><g id="Layer_1-2" data-name="Layer 1"><path class="cls-1" d="M5.62,18.29a9.2,9.2,0,0,1-1.49-4.11,1.7,1.7,0,0,1-1,0,2.23,2.23,0,0,1-1.67-2,2.15,2.15,0,0,1,1-1.91L8.56,6A9.1,9.1,0,0,1,13,4.69l15.3,0L39.48,3V2.11a2.08,2.08,0,1,1,4.16,0,2,2,0,0,1-.07.54l1.07.14a2.69,2.69,0,0,1,2.17,2.64,1.44,1.44,0,0,1,0,.23l3.42,1.85a1.35,1.35,0,0,1,.85,1.25,1.3,1.3,0,0,1-.11.53l-.85,1.93a2.68,2.68,0,0,1-2,1.26l-7.86.94L33.19,21.7l4,7,2.66,1.24A1.61,1.61,0,0,1,39,32.86H33.86a3.44,3.44,0,0,1-3-1.82l-4.38-7.92H17l3.37,5.18,2.49,1.13A1.55,1.55,0,0,1,22,32.35H17S14.73,32,14.15,31L9.43,23.51l-3.29,3.2L5.86,28.8,7,29.53a1.55,1.55,0,0,1,.26,2.61,1.87,1.87,0,0,1-1,.21H4.44a2.2,2.2,0,0,1-1.5-.85L.38,27.11a3.33,3.33,0,0,1,.47-3.77Z"/></g></g></svg>