<svg xmlns="http://www.w3.org/2000/svg" viewBox="0 0 46.92 61.57"><defs><style>.cls-1{fill:#fff;}</style></defs><title>Asset 24</title><g id="Layer_2" data-name="Layer 2"><g id="Layer_1-2" data-name="Layer 1"><path class="cls-1" d="M46.92,34.78a6.52,6.52,0,0,0-6.52-6.52h-.24a6.51,6.51,0,1,0-11.06-6.87,6.53,6.53,0,0,0-3.59-2.93c.23-2.2,1.44-7.86,7.75-8.24L33,6.31a11.43,11.43,0,0,0-7.36,3,9.2,9.2,0,0,0-.94-2.86C22.06,1.38,14.86.26,14.56.21L13.13,0,12.5,1.31c-.13.28-3.25,6.87-.56,11.93,1.85,3.49,5.85,5.11,8.25,5.79a6.56,6.56,0,0,0-2.37,2.39A6.51,6.51,0,1,0,6.75,28.28H6.52a6.52,6.52,0,1,0,0,13h.24a6.52,6.52,0,0,0,5.41,10.15h.24A6.51,6.51,0,1,0,23.46,58.3a6.51,6.51,0,1,0,11.06-6.87h.24a6.52,6.52,0,0,0,5.41-10.15h.24A6.52,6.52,0,0,0,46.92,34.78ZM32,25.93h.5a2,2,0,0,1,2,1.74,1.91,1.91,0,0,1-1.9,2.08h-.5a2,2,0,0,1-2-1.74A1.91,1.91,0,0,1,32,25.93Zm-3.94,8.4h.5a2,2,0,0,1,2,1.74,1.91,1.91,0,0,1-1.9,2.08h-.5a2,2,0,0,1-2-1.74A1.91,1.91,0,0,1,28.06,34.32ZM15.41,11.39c-1.1-2.07-.55-5,.07-6.93,1.77.51,4.62,1.63,5.78,3.82s.55,5-.07,6.93C19.42,14.7,16.57,13.58,15.41,11.39ZM19.2,34.32h.5a2,2,0,0,1,2,1.74,1.91,1.91,0,0,1-1.9,2.08h-.5a2,2,0,0,1-2-1.73A1.91,1.91,0,0,1,19.2,34.32Zm-7.57,3.82h-.5a2,2,0,0,1-2-1.73A1.91,1.91,0,0,1,11,34.32h.5a2,2,0,0,1,2,1.74A1.91,1.91,0,0,1,11.64,38.14Zm3.28,8.4h-.5a2,2,0,0,1-2-1.73,1.91,1.91,0,0,1,1.9-2.08h.5a2,2,0,0,1,2,1.74A1.91,1.91,0,0,1,14.92,46.54Zm0-16.79h-.5a2,2,0,0,1-2-1.74,1.91,1.91,0,0,1,1.9-2.08h.5a2,2,0,0,1,2,1.74A1.91,1.91,0,0,1,14.92,29.75Zm4.92,24.43h-.5a2,2,0,0,1-2-1.73,1.91,1.91,0,0,1,1.9-2.08h.5a2,2,0,0,1,2,1.74A1.91,1.91,0,0,1,19.84,54.17Zm3.94-7.63h-.5a2,2,0,0,1-2-1.73,1.91,1.91,0,0,1,1.9-2.08h.5a2,2,0,0,1,2,1.74A1.91,1.91,0,0,1,23.78,46.54Zm0-16.79h-.5a2,2,0,0,1-2-1.74,1.91,1.91,0,0,1,1.9-2.08h.5a2,2,0,0,1,2,1.74A1.91,1.91,0,0,1,23.78,29.75ZM28.7,54.17h-.5a2,2,0,0,1-2-1.73,1.91,1.91,0,0,1,1.9-2.08h.5a2,2,0,0,1,2,1.74A1.91,1.91,0,0,1,28.7,54.17Zm3.94-7.63h-.5a2,2,0,0,1-2-1.73A1.91,1.91,0,0,1,32,42.72h.5a2,2,0,0,1,2,1.74A1.91,1.91,0,0,1,32.64,46.54Zm4.29-8.4h-.5a2,2,0,0,1-2-1.73,1.91,1.91,0,0,1,1.9-2.08h.5a2,2,0,0,1,2,1.74A1.91,1.91,0,0,1,36.93,38.14Z"/></g></g></svg>