<svg xmlns="http://www.w3.org/2000/svg" viewBox="0 0 112.2 112.2"><defs><style>.cls-1{fill:#9e005d;}.cls-2{fill:#fff;}</style></defs><title>Asset 20</title><g id="Layer_2" data-name="Layer 2"><g id="Layer_1-2" data-name="Layer 1"><circle class="cls-1" cx="56.1" cy="56.1" r="56.1"/><path class="cls-2" d="M79.94,58.47A6.52,6.52,0,0,0,73.43,52h-.24a6.51,6.51,0,1,0-11.06-6.87,6.53,6.53,0,0,0-3.59-2.93C58.78,40,60,34.3,66.3,33.93L66.06,30a11.43,11.43,0,0,0-7.36,3,9.2,9.2,0,0,0-.94-2.86c-2.68-5.06-9.88-6.18-10.18-6.23l-1.43-.21L45.52,25c-.13.28-3.25,6.87-.56,11.93,1.85,3.49,5.85,5.11,8.25,5.79a6.56,6.56,0,0,0-2.37,2.39A6.51,6.51,0,1,0,39.78,52h-.24a6.52,6.52,0,1,0,0,13h.24a6.52,6.52,0,0,0,5.41,10.15h.24A6.51,6.51,0,1,0,56.49,82a6.51,6.51,0,1,0,11.06-6.87h.24A6.52,6.52,0,0,0,73.19,65h.24A6.52,6.52,0,0,0,79.94,58.47ZM65,49.61h.5a2,2,0,0,1,2,1.74,1.91,1.91,0,0,1-1.9,2.08h-.5a2,2,0,0,1-2-1.74A1.91,1.91,0,0,1,65,49.61ZM61.09,58h.5a2,2,0,0,1,2,1.74,1.91,1.91,0,0,1-1.9,2.08h-.5a2,2,0,0,1-2-1.74A1.91,1.91,0,0,1,61.09,58ZM48.43,35.07c-1.1-2.07-.55-5,.07-6.93,1.77.51,4.62,1.63,5.78,3.82s.55,5-.07,6.93C52.44,38.39,49.59,37.26,48.43,35.07ZM52.23,58h.5a2,2,0,0,1,2,1.74,1.91,1.91,0,0,1-1.9,2.08h-.5a2,2,0,0,1-2-1.73A1.91,1.91,0,0,1,52.23,58Zm-7.57,3.82h-.5a2,2,0,0,1-2-1.73A1.91,1.91,0,0,1,44,58h.5a2,2,0,0,1,2,1.74A1.91,1.91,0,0,1,44.66,61.83Zm3.28,8.4h-.5a2,2,0,0,1-2-1.73,1.91,1.91,0,0,1,1.9-2.08h.5a2,2,0,0,1,2,1.74A1.91,1.91,0,0,1,47.94,70.22Zm0-16.79h-.5a2,2,0,0,1-2-1.74,1.91,1.91,0,0,1,1.9-2.08h.5a2,2,0,0,1,2,1.74A1.91,1.91,0,0,1,47.94,53.43Zm4.92,24.43h-.5a2,2,0,0,1-2-1.73A1.91,1.91,0,0,1,52.23,74h.5a2,2,0,0,1,2,1.74A1.91,1.91,0,0,1,52.86,77.86Zm3.94-7.63h-.5a2,2,0,0,1-2-1.73,1.91,1.91,0,0,1,1.9-2.08h.5a2,2,0,0,1,2,1.74A1.91,1.91,0,0,1,56.8,70.22Zm0-16.79h-.5a2,2,0,0,1-2-1.74,1.91,1.91,0,0,1,1.9-2.08h.5a2,2,0,0,1,2,1.74A1.91,1.91,0,0,1,56.8,53.43Zm4.92,24.43h-.5a2,2,0,0,1-2-1.73A1.91,1.91,0,0,1,61.09,74h.5a2,2,0,0,1,2,1.74A1.91,1.91,0,0,1,61.72,77.86Zm3.94-7.63h-.5a2,2,0,0,1-2-1.73A1.91,1.91,0,0,1,65,66.41h.5a2,2,0,0,1,2,1.74A1.91,1.91,0,0,1,65.66,70.22ZM70,61.83h-.5a2,2,0,0,1-2-1.73A1.91,1.91,0,0,1,69.32,58h.5a2,2,0,0,1,2,1.74A1.91,1.91,0,0,1,70,61.83Z"/></g></g></svg>