<svg xmlns="http://www.w3.org/2000/svg" viewBox="0 0 72.68 72.68"><defs><style>.cls-1{fill:#d53f38;}.cls-2{fill:#fff;}</style></defs><title>Asset 35</title><g id="Layer_2" data-name="Layer 2"><g id="Layer_1-2" data-name="Layer 1"><circle class="cls-1" cx="36.34" cy="36.34" r="36.34"/><path class="cls-2" d="M17.75,35.43a9.2,9.2,0,0,1-1.49-4.11,1.7,1.7,0,0,1-1,0,2.23,2.23,0,0,1-1.67-2,2.15,2.15,0,0,1,1-1.91l6.16-4.29a9.1,9.1,0,0,1,4.44-1.34l15.3,0L51.62,20.1v-.84a2.08,2.08,0,1,1,4.16,0,2,2,0,0,1-.07.54l1.07.14A2.69,2.69,0,0,1,59,22.56a1.44,1.44,0,0,1,0,.23l3.42,1.85a1.35,1.35,0,0,1,.85,1.25,1.3,1.3,0,0,1-.11.53l-.85,1.93a2.68,2.68,0,0,1-2,1.26l-7.86.94-7.08,8.31,4,7L52,47.07A1.61,1.61,0,0,1,51.13,50H46a3.44,3.44,0,0,1-3-1.82l-4.38-7.92H29.11l3.37,5.18L35,46.61a1.55,1.55,0,0,1-.79,2.89h-5s-2.31-.36-2.89-1.35l-4.72-7.49-3.29,3.2L18,46l1.11.73a1.55,1.55,0,0,1,.26,2.61,1.87,1.87,0,0,1-1,.21H16.58a2.2,2.2,0,0,1-1.5-.85l-2.55-4.4A3.33,3.33,0,0,1,13,40.48Z"/></g></g></svg>