<svg xmlns="http://www.w3.org/2000/svg" viewBox="0 0 50.85 55.15"><defs><style>.cls-1{fill:#2b384a;}</style></defs><title>Asset 15</title><g id="Layer_2" data-name="Layer 2"><g id="Layer_1-2" data-name="Layer 1"><path class="cls-1" d="M46,16h0l-.55-7.1a2.74,2.74,0,0,0-1.89-2.35,2.6,2.6,0,0,0-.83-.14H32.29a2.66,2.66,0,0,0-.84.14A2.78,2.78,0,0,0,29.52,9L29,15.63H21.88L21.36,9a2.78,2.78,0,0,0-1.92-2.39,2.66,2.66,0,0,0-.84-.14H8.22a2.6,2.6,0,0,0-.83.14A2.74,2.74,0,0,0,5.51,8.93L5,16H5A18.34,18.34,0,0,0,1.55,26.69v3.23a.88.88,0,0,0,.87.88h46a.88.88,0,0,0,.87-.88V26.64A18.12,18.12,0,0,0,46,16ZM27.54,25.74H23.15a2.47,2.47,0,0,1-2.29-1.47,2.53,2.53,0,0,1,2.32-3.59h4.43a2.51,2.51,0,0,1,2.08,4A2.6,2.6,0,0,1,27.54,25.74Z"/><path class="cls-1" d="M28.5,52.26a2.67,2.67,0,0,0,2.66,2.89h17a2.71,2.71,0,0,0,2-.87,2.55,2.55,0,0,0,.69-2L49.28,32.63H30.06Z"/><path class="cls-1" d="M0,52.26a2.72,2.72,0,0,0,.69,2,2.71,2.71,0,0,0,2,.87h17a2.71,2.71,0,0,0,2-.87,2.55,2.55,0,0,0,.69-2L20.83,32.63H1.52Z"/><path class="cls-1" d="M43,5.06h.84V2.81A2.79,2.79,0,0,0,41.06,0H34.13a2.71,2.71,0,0,0-2.71,2.71V5.06H43Z"/><path class="cls-1" d="M18.63,5.06h.84V2.81A2.79,2.79,0,0,0,16.71,0H9.82A2.79,2.79,0,0,0,7.06,2.81V5.06H18.63Z"/></g></g></svg>