<svg xmlns="http://www.w3.org/2000/svg" viewBox="0 0 48 48"><defs><style>.cls-1{fill:#2b384a;}</style></defs><title>Asset 9</title><g id="Layer_2" data-name="Layer 2"><g id="Layer_1-2" data-name="Layer 1"><path class="cls-1" d="M43.5,6h-3V3.75a3.75,3.75,0,0,0-7.5,0V6H15V3.75a3.75,3.75,0,0,0-7.5,0V6h-3A4.5,4.5,0,0,0,0,10.5H0v33A4.5,4.5,0,0,0,4.5,48h39A4.5,4.5,0,0,0,48,43.5v-33A4.5,4.5,0,0,0,43.5,6ZM42,42H6V16.5H42ZM10.5,25.5v-3A1.5,1.5,0,0,1,12,21h3a1.5,1.5,0,0,1,1.5,1.5v3A1.5,1.5,0,0,1,15,27H12A1.5,1.5,0,0,1,10.5,25.5Zm10.5,0v-3A1.5,1.5,0,0,1,22.5,21h3A1.5,1.5,0,0,1,27,22.5v3A1.5,1.5,0,0,1,25.5,27h-3A1.5,1.5,0,0,1,21,25.5Zm10.5,0v-3A1.5,1.5,0,0,1,33,21h3a1.5,1.5,0,0,1,1.5,1.5v3A1.5,1.5,0,0,1,36,27H33A1.5,1.5,0,0,1,31.5,25.5ZM10.5,36V33A1.5,1.5,0,0,1,12,31.5h3A1.5,1.5,0,0,1,16.5,33v3A1.5,1.5,0,0,1,15,37.5H12A1.5,1.5,0,0,1,10.5,36ZM21,36V33a1.5,1.5,0,0,1,1.5-1.5h3A1.5,1.5,0,0,1,27,33v3a1.5,1.5,0,0,1-1.5,1.5h-3A1.5,1.5,0,0,1,21,36Z"/></g></g></svg>