<svg xmlns="http://www.w3.org/2000/svg" viewBox="0 0 62.31 64.31"><defs><style>.cls-1{fill:#ffffff;}</style></defs><title>Asset 7</title><g id="Layer_2" data-name="Layer 2"><g id="Layer_1-2" data-name="Layer 1"><path class="cls-1" d="M47,59.38A10.41,10.41,0,1,1,57.38,49,10.42,10.42,0,0,1,47,59.38Zm0-14.81A4.41,4.41,0,1,0,51.38,49,4.41,4.41,0,0,0,47,44.56Z"/><path class="cls-1" d="M59.31,64.31a3,3,0,0,1-2.12-.88l-7.11-7.11a3,3,0,1,1,4.24-4.24l7.11,7.11a3,3,0,0,1-2.12,5.12Z"/><path class="cls-1" d="M17.39,51.35a3,3,0,0,1-1.8-.6l-4.52-3.38a3,3,0,0,1,3.6-4.8L16.61,44l3.62-5.61a3,3,0,0,1,5,3.25L19.91,50a3,3,0,0,1-2.52,1.38Z"/><path class="cls-1" d="M45,33.16H30.16a3,3,0,0,1,0-6H45a3,3,0,0,1,0,6Z"/><path class="cls-1" d="M17.39,36.54a3,3,0,0,1-1.8-.6l-4.52-3.38a3,3,0,0,1,3.6-4.8l1.94,1.45,3.62-5.61a3,3,0,0,1,5,3.25l-5.36,8.32a3,3,0,0,1-2.52,1.38Z"/><path class="cls-1" d="M45,18.34H30.16a3,3,0,0,1,0-6H45a3,3,0,0,1,0,6Z"/><path class="cls-1" d="M17.39,21.73a3,3,0,0,1-1.8-.6l-4.52-3.38a3,3,0,0,1,3.6-4.8l1.94,1.45,3.62-5.61a3,3,0,0,1,5,3.25l-5.36,8.32a3,3,0,0,1-2.52,1.38Z"/><path class="cls-1" d="M30.16,60.31H10.41A10.42,10.42,0,0,1,0,49.91V10.42A10.43,10.43,0,0,1,10.42,0h37A10.43,10.43,0,0,1,57.84,10.42V30.16a3,3,0,0,1-6,0V10.42A4.42,4.42,0,0,0,47.43,6h-37A4.42,4.42,0,0,0,6,10.42V49.91a4.41,4.41,0,0,0,4.41,4.41H30.16a3,3,0,0,1,0,6Z"/></g></g></svg>
