<svg xmlns="http://www.w3.org/2000/svg" viewBox="0 0 97.76 133.3"><defs><style>.cls-1{fill:#57a6a2;}</style></defs><title>Asset 59</title><g id="Layer_2" data-name="Layer 2"><g id="Layer_1-2" data-name="Layer 1"><path class="cls-1" d="M78.1,17h-.7A9.76,9.76,0,0,0,67.7,8.15h-6A14.05,14.05,0,0,0,48.88,0,14.21,14.21,0,0,0,36.1,8.15h-6A9.76,9.76,0,0,0,20.37,17h-.7C8.85,17,0,24.86,0,34.41v81.47c0,9.69,8.85,17.42,19.66,17.42H78.1c10.82,0,19.66-7.87,19.66-17.42V34.41C97.76,24.72,88.91,17,78.1,17ZM32,19.81h8.71a5.94,5.94,0,0,0,5.9-5.9,2.25,2.25,0,1,1,4.49,0,5.94,5.94,0,0,0,5.9,5.9h8.71v6H32ZM86,115.88c0,3.09-3.65,5.76-8,5.76H19.66c-4.35,0-8-2.67-8-5.76V34.41c0-3.09,3.65-5.76,8-5.76h.7a9.76,9.76,0,0,0,9.69,8.85H67.7a9.76,9.76,0,0,0,9.69-8.85h.7c4.35,0,8,2.67,8,5.76v81.47Z"/><path class="cls-1" d="M59.84,87.93,46.63,101l-3.37-3.23A5.86,5.86,0,0,0,35,106.05l7.44,7.44a5.63,5.63,0,0,0,4.07,1.69,5.4,5.4,0,0,0,4.07-1.69L67.84,96.22a5.94,5.94,0,0,0,0-8.29A5.6,5.6,0,0,0,59.84,87.93Z"/><path class="cls-1" d="M37.08,75.29A5.86,5.86,0,0,0,41.16,77a5.63,5.63,0,0,0,4.07-1.69l4.35-4.35,4.35,4.35A5.86,5.86,0,0,0,58,77a5.63,5.63,0,0,0,4.07-1.69,5.94,5.94,0,0,0,0-8.29L58,62.65l4.35-4.35A5.86,5.86,0,0,0,54.08,50l-4.35,4.35L45.37,50a5.86,5.86,0,1,0-8.29,8.29l4.35,4.35L37.08,67A5.94,5.94,0,0,0,37.08,75.29Z"/></g></g></svg>