<svg xmlns="http://www.w3.org/2000/svg" viewBox="0 0 41.02 43.35"><defs><style>.cls-1{fill:#2b384a;}</style></defs><title>Asset 25</title><g id="Layer_2" data-name="Layer 2"><g id="Layer_1-2" data-name="Layer 1"><path class="cls-1" d="M37.17,0H3.84C1.62,0,0,1.17,0,2.78v26c0,1.61,1.62,2.78,3.84,2.78H13.7l.13.22,6.68,11.56,6.68-11.56.13-.22h9.86c2.23,0,3.84-1.17,3.84-2.78v-26C41,1.17,39.4,0,37.17,0ZM37,27.73H29.52l0,.06,0-.06H24.85l-4.34,7.51-4.34-7.51H11.49l0,.06,0-.06H4.05V3.83H37V27.73Z"/><rect class="cls-1" x="7.93" y="17.55" width="25.15" height="3.54"/><rect class="cls-1" x="7.93" y="9.62" width="25.15" height="3.54"/></g></g></svg>