<svg xmlns="http://www.w3.org/2000/svg" viewBox="0 0 43.24 38.72"><defs><style>.cls-1{fill:#fff;opacity:0.9;isolation:isolate;}</style></defs><title>Asset 41</title><g id="Layer_2" data-name="Layer 2"><g id="Layer_1-2" data-name="Layer 1"><path class="cls-1" d="M41.74,24a9.46,9.46,0,0,1-8.92,2.21c.23-.63.42-1.25.58-1.85.26,0,.51,0,.78,0a9.18,9.18,0,0,0,9-6.14.82.82,0,0,0-.48-1.08.88.88,0,0,0-1.12.46,7.61,7.61,0,0,1-7.81,5.11c.08-.47.14-.93.18-1.35,1.54-.37,9.88-5.74,9.3-13.37-.35-4.6-4.92-9.3-10.42-7.77.49.24,5.38,2.3,4.15,9.19,0,0-5.06-1.9-5.65-5.86,0,0-4.46,5.86,4.5,12.33,0,0-3.16,2.86-7.93-.31a11.66,11.66,0,0,0-1.06-.86V12.5h-3v1.95c-.68-.49-1.8.31-3,.31s-2.28-.8-3-.31V12.5H16.44v2.28a11.49,11.49,0,0,0-1.06.86c-4.77,3.17-7.93.31-7.93.31,9-6.47,4.5-12.33,4.5-12.33-.59,4-5.65,5.86-5.65,5.86C5.07,2.59,10,.54,10.44.3,4.95-1.24.38,3.46,0,8.06c-.58,7.63,7.76,13,9.3,13.37,0,.42.1.88.18,1.35a7.61,7.61,0,0,1-7.81-5.11.88.88,0,0,0-1.12-.46A.82.82,0,0,0,.09,18.3a9.18,9.18,0,0,0,9,6.14c.27,0,.53,0,.78,0,.16.6.35,1.23.58,1.85A9.46,9.46,0,0,1,1.5,24,.89.89,0,0,0,.28,24a.8.8,0,0,0,0,1.17,10.57,10.57,0,0,0,7.53,3,14,14,0,0,0,3.25-.4c.13.27.26.54.4.81-3,1.3-6.25,3.63-6.25,7.65a.86.86,0,0,0,1.73,0c0-3.15,2.77-5.06,5.34-6.17a4.38,4.38,0,0,0,.61.75c.16.2.33.4.49.59a5,5,0,0,0-2.78,2.67c-.43,1.37.17,2.85,1.77,4.39a.89.89,0,0,0,1.22,0,.81.81,0,0,0,0-1.17c-1.12-1.08-1.57-2-1.34-2.74s1.33-1.46,2.38-1.88a10.42,10.42,0,0,0,7,2.56,10.42,10.42,0,0,0,7-2.56c1.05.43,2.12,1.06,2.38,1.88s-.22,1.66-1.34,2.74a.81.81,0,0,0,0,1.17.89.89,0,0,0,1.22,0c1.61-1.54,2.21-3,1.77-4.39a5,5,0,0,0-2.78-2.67c.17-.19.34-.39.49-.59a4.46,4.46,0,0,0,.61-.75c2.57,1.1,5.34,3,5.34,6.17a.87.87,0,0,0,1.73,0c0-4-3.26-6.35-6.25-7.65.14-.27.27-.53.4-.81a14.06,14.06,0,0,0,3.25.4,10.57,10.57,0,0,0,7.53-3A.8.8,0,0,0,43,24,.88.88,0,0,0,41.74,24Z"/></g></g></svg>