<svg xmlns="http://www.w3.org/2000/svg" viewBox="0 0 112.2 112.2"><defs><style>.cls-1{fill:#57a6a2;}.cls-2{fill:#fff;}</style></defs><title>Asset 17</title><g id="Layer_2" data-name="Layer 2"><g id="Layer_1-2" data-name="Layer 1"><circle class="cls-1" cx="56.1" cy="56.1" r="56.1"/><path class="cls-2" d="M73,26h6.94a1.59,1.59,0,0,1,1.62,1.32A1.53,1.53,0,0,1,80,29h-7a1.61,1.61,0,0,0-1.49,2.29,7.67,7.67,0,0,0,1,1.53l4.11,0a2.2,2.2,0,0,1,.87.23l9,4.83a2.63,2.63,0,0,1-1.38,4.88H78.71l-8,20.54-5.11,5.37V88.31a3.44,3.44,0,1,1-6.87,0V67.17H44.21l-3,4.8,7.48,13.51a3.57,3.57,0,0,1-1.28,4.76,3.31,3.31,0,0,1-4.59-1.33L35.1,75.26V69.2l-3.82,5.31V86.92a3.57,3.57,0,0,1-3.1,3.61,3.43,3.43,0,0,1-3.77-3.41l0-13.82,3.07-4.87V62.1l-2.31,4a.39.39,0,0,1-.75-.15V52.17a5,5,0,0,1,5.11-4.84H63.9l5.46-8.5-4.53-4.51a.68.68,0,0,1-.24-.51c0-.4.69-.22.69-.22l3.08,0A13.44,13.44,0,0,1,80.5,14.31a1.68,1.68,0,0,1,1.42.75,1.77,1.77,0,0,1-1.45,2.75,9.92,9.92,0,0,0-9.85,8.75A4.73,4.73,0,0,1,73,26Z"/></g></g></svg>