<svg xmlns="http://www.w3.org/2000/svg" viewBox="0 0 63.41 77.61"><defs><style>.cls-1{fill:#fff;}</style></defs><title>Asset 23</title><g id="Layer_2" data-name="Layer 2"><g id="Layer_1-2" data-name="Layer 1"><path class="cls-1" d="M48.59,11.65h6.94A1.59,1.59,0,0,1,57.15,13a1.53,1.53,0,0,1-1.51,1.74h-7A1.61,1.61,0,0,0,47.2,17a7.67,7.67,0,0,0,1,1.53l4.11,0a2.2,2.2,0,0,1,.87.23l9,4.83a2.63,2.63,0,0,1-1.38,4.88H54.31L46.35,49l-5.11,5.37V74a3.44,3.44,0,1,1-6.87,0V52.86H19.81l-3,4.8,7.48,13.51A3.57,3.57,0,0,1,23,75.94a3.31,3.31,0,0,1-4.59-1.33L10.7,61V54.89L6.89,60.2V72.61a3.57,3.57,0,0,1-3.1,3.61A3.43,3.43,0,0,1,0,72.81L0,59l3.07-4.87V47.79l-2.31,4A.38.38,0,0,1,.4,52,.39.39,0,0,1,0,51.61V37.86A5,5,0,0,1,5.13,33H39.5L45,24.51,40.44,20a.68.68,0,0,1-.24-.51c0-.4.69-.22.69-.22l3.08,0A13.44,13.44,0,0,1,56.1,0a1.68,1.68,0,0,1,1.42.75A1.77,1.77,0,0,1,56.07,3.5a9.92,9.92,0,0,0-9.85,8.75A4.73,4.73,0,0,1,48.59,11.65Z"/></g></g></svg>