<svg xmlns="http://www.w3.org/2000/svg" viewBox="0 0 112.2 112.2"><defs><style>.cls-1{fill:#5d85b7;}.cls-2{fill:#fff;}</style></defs><title>Asset 19</title><g id="Layer_2" data-name="Layer 2"><g id="Layer_1-2" data-name="Layer 1"><circle class="cls-1" cx="56.1" cy="56.1" r="56.1"/><path class="cls-2" d="M101.63,54.86C101,54.25,85.73,40,66.51,40,51,40,38.08,49.26,33.32,53.17L22.58,42.43a2.63,2.63,0,0,0-4.49,1.86v25a2.63,2.63,0,0,0,4.49,1.86L33.32,60.36C38.08,64.27,51,73.55,66.51,73.55c19.23,0,34.48-14.27,35.12-14.87a2.63,2.63,0,0,0,0-3.82ZM84,57A3.09,3.09,0,1,1,87,53.89,3.09,3.09,0,0,1,84,57Z"/></g></g></svg>