<svg xmlns="http://www.w3.org/2000/svg" viewBox="0 0 84.36 33.57"><defs><style>.cls-1{fill:#fff;}</style></defs><title>Asset 22</title><g id="Layer_2" data-name="Layer 2"><g id="Layer_1-2" data-name="Layer 1"><path class="cls-1" d="M83.54,14.87C82.9,14.27,67.65,0,48.42,0,32.91,0,20,9.28,15.24,13.19L4.49,2.44A2.63,2.63,0,0,0,0,4.3v25a2.63,2.63,0,0,0,4.49,1.86L15.24,20.38C20,24.29,32.91,33.57,48.42,33.57c19.23,0,34.48-14.27,35.12-14.87a2.63,2.63,0,0,0,0-3.82ZM65.87,17A3.09,3.09,0,1,1,69,13.91,3.09,3.09,0,0,1,65.87,17Z"/></g></g></svg>