<svg xmlns="http://www.w3.org/2000/svg" viewBox="0 0 43.14 42.79"><defs><style>.cls-1{fill:#fff;}</style></defs><title>Asset 47</title><g id="Layer_2" data-name="Layer 2"><g id="Layer_1-2" data-name="Layer 1"><path class="cls-1" d="M42.4,30.74c-1.19.92-4.86-1.28-9.18-1.1-4.31-.18-8.08,2-9.18,1.1-1.38-.73,2-7.89,9.18-7.89S43.78,30,42.4,30.74Z"/><path class="cls-1" d="M33.68,31.55h-.92a7,7,0,0,0-1.38.09,15.72,15.72,0,0,1-2,7.53c-.64,1,0,2.29,1.47,2.66a2.71,2.71,0,0,0,3.21-1.28c.83-2.2,1.93-5.87,1.38-8.81A10.16,10.16,0,0,0,33.68,31.55Z"/><path class="cls-1" d="M42.49,17.89c-2.66,2-11.1-2.94-20.92-2.57C11.75,15,3.31,19.91.65,17.89-2.38,16.15,5.33.09,21.57,0,37.81.09,45.52,16.15,42.49,17.89Z"/><path class="cls-1" d="M24.87,32.56a2.83,2.83,0,0,1-2.75-3.95A11.33,11.33,0,0,1,27,22.47a34,34,0,0,0-.09-5.32,31.57,31.57,0,0,0-4.22-.28H20.74c-1.1,0-2.2.09-3.21.18-.28,5-1.19,12.94-4.59,18.72-1.56,2.66.09,5.87,3.4,6.79,3.12.83,6.42-.64,7.34-3.4a68.57,68.57,0,0,0,1.84-6.7A2.42,2.42,0,0,1,24.87,32.56Z"/></g></g></svg>