<svg xmlns="http://www.w3.org/2000/svg" viewBox="0 0 72.68 72.68"><defs><style>.cls-1{fill:#b3b3b3;}.cls-2{fill:#fff;}</style></defs><title>Asset 46</title><g id="Layer_2" data-name="Layer 2"><g id="Layer_1-2" data-name="Layer 1"><circle class="cls-1" cx="36.34" cy="36.34" r="36.34"/><path class="cls-2" d="M56.61,46.36c-1.19.92-4.86-1.28-9.18-1.1-4.31-.18-8.08,2-9.18,1.1-1.38-.73,2-7.89,9.18-7.89S58,45.63,56.61,46.36Z"/><path class="cls-2" d="M47.89,47.17H47a7,7,0,0,0-1.38.09,15.72,15.72,0,0,1-2,7.53c-.64,1,0,2.29,1.47,2.66a2.71,2.71,0,0,0,3.21-1.28c.83-2.2,1.93-5.87,1.38-8.81A10.16,10.16,0,0,0,47.89,47.17Z"/><path class="cls-2" d="M56.7,33.51c-2.66,2-11.1-2.94-20.92-2.57-9.82-.37-18.26,4.59-20.92,2.57-3-1.74,4.68-17.8,20.92-17.89C52,15.71,59.73,31.77,56.7,33.51Z"/><path class="cls-2" d="M39.08,48.18a2.83,2.83,0,0,1-2.75-3.95,11.33,11.33,0,0,1,4.86-6.15,34,34,0,0,0-.09-5.32,31.57,31.57,0,0,0-4.22-.28H35c-1.1,0-2.2.09-3.21.18-.28,5-1.19,12.94-4.59,18.72-1.56,2.66.09,5.87,3.4,6.79,3.12.83,6.42-.64,7.34-3.4a68.57,68.57,0,0,0,1.84-6.7A2.42,2.42,0,0,1,39.08,48.18Z"/></g></g></svg>