<svg xmlns="http://www.w3.org/2000/svg" viewBox="0 0 72.68 72.68"><defs><style>.cls-1{fill:#a67c52;}.cls-2{fill:#fff;}</style></defs><title>Asset 42</title><g id="Layer_2" data-name="Layer 2"><g id="Layer_1-2" data-name="Layer 1"><circle class="cls-1" cx="36.34" cy="36.34" r="36.34"/><path class="cls-2" d="M58.54,22.76h-.08l-.38,0-1.49.14c-3.48.34-11.66,1.13-12.91,1.06h0a8.65,8.65,0,0,1,.76-2c.21-.44.42-.9.58-1.32a1.76,1.76,0,0,0-1-2.3c-1.13-.55-3.27-.63-3.88.4A35.84,35.84,0,0,1,35,24.35c-.8.67-5.56,1.4-9.75,2-5.37.82-11.46,1.75-15.23,3.16l-.07,0c-2.61,1.3-4.27,4.53-4.15,8,.07,2.17,1,7.53,8,10.46l.22.09.23,0c12-2.57,34.07-2.57,43.47-2.56h.79c3.15,0,5.61-5,5.61-11.39S61.69,22.76,58.54,22.76Zm0,1.5c1.95,0,4.12,4.06,4.12,9.9a17.8,17.8,0,0,1-1.33,7.13L61,40.53a16.38,16.38,0,0,0,1.14-6.38c0-5.48-2.12-9-3.58-9-.87,0-2,1.17-2.69,3.26l-.37-.76C56.29,25.53,57.45,24.26,58.54,24.26ZM43.16,43.19c-6.29.63-14.24,1.43-20.63,1.94l-8.85.41c6.49-.75,24.41-2.19,39.14-3.29C50.57,42.46,47.47,42.76,43.16,43.19Zm-1-19-.56,0,.56-.09S42.19,24.14,42.19,24.15Zm11.18,2.41,1,0-.1.22-1.66.14c-3.08.24-7.1.48-11.29.71l3.93-.41C48.27,26.94,51.11,26.72,53.37,26.56Zm-3.85,1.51c1.63-.09,3.08-.16,4.32-.19q-.08.24-.15.5c-3.55.44-9.82,1-20.85,1.59-3.36.19-6.72.35-9.81.5,3.22-.22,7.29-.55,12.45-1C40.47,29,45.46,28.49,49.51,28.08ZM53,36.28v.14l-12.43,1h.11Zm-7-5.56-8.31.6-4.43.32,5.15-.53L40.63,31l.42,0Zm-28.51,1.8c-3.18.3-5.88.49-7.62.5.46-.08,1-.16,1.68-.24C13,32.75,14.89,32.67,17.56,32.51Zm20.25-.45c5.39-.38,10.48-.75,14.27-1l-.71.08c-4.72.52-11.07,1.23-17.52,1.87L16.12,34.21l-7.58.31-.46-.06C11.82,33.92,26.66,32.86,37.81,32.06ZM18,36.11l-10.09.78C9.62,36.58,13.43,36.33,18,36.11ZM8,38.22c2.28,0,7-.33,15.6-1.11L26,37c-8.35.84-16.38,1.56-18.55,1.34Q7.67,38.29,8,38.22Zm6.92.67L12,39.15l-1.7,0Zm.31,3.71,2.52-.12c-3.41.28-6.21.46-7.77.47C11.13,42.9,12.8,42.79,15.25,42.6Zm23.65-1-6.41.57c-3.53.25-7.18.48-10.77.7,3.43-.31,7.64-.71,12.76-1.2l2.58-.25c7.19-.44,12-.82,15.16-1.14l1.54-.11,0,.14C50.89,40.55,46.27,41,38.9,41.62Zm16.26-13,.44.57c-.06.23-.12.46-.18.7l-.47-.48Q55,29,55.16,28.64Zm4.25,8.89c-.28.58-.6.9-.86.9-.6,0-1.52-1.71-1.52-4.28s.91-4.28,1.52-4.28,1.52,1.71,1.52,4.28a8.19,8.19,0,0,1-.59,3.24l-.16-.33Zm.9-3.38c0-2.67-.93-4.53-1.77-4.53-.47,0-1,.6-1.33,1.61l-.29-.6c.45-1.42,1.11-2.25,1.62-2.25.84,0,2.12,2.3,2.12,5.76a11,11,0,0,1-.74,4.18l-.31-.64A8.15,8.15,0,0,0,60.31,34.15ZM57.2,31.29a9.14,9.14,0,0,0-.42,2.86c0,2.67.93,4.53,1.77,4.53.32,0,.65-.27.94-.76l.19.92c-.37.69-.79,1.08-1.13,1.08-.84,0-2.12-2.3-2.12-5.76a12,12,0,0,1,.44-3.3Zm-1,2.86c0,3.44,1.25,6,2.37,6,.41,0,.83-.34,1.21-.95l.19.93c-.46.81-1,1.25-1.4,1.25-1.08,0-2.72-2.89-2.72-7.24a15.41,15.41,0,0,1,.35-3.34l.15,0-.12-.12c0-.18.09-.36.14-.54l.34.44A12.18,12.18,0,0,0,56.17,34.15ZM56,30.48l-.34-.34q.08-.34.16-.66l.33.43Q56.05,30.19,56,30.48Zm-.07.3a16,16,0,0,0-.34,3.37c0,4.64,1.73,7.49,3,7.49.46,0,1-.4,1.48-1.14l.19.93c-.56.93-1.16,1.44-1.67,1.44-1.32,0-3.33-3.48-3.33-8.73a18.69,18.69,0,0,1,.3-3.41Zm4.15,7.85a11.09,11.09,0,0,0,.85-4.48c0-3.44-1.25-6-2.37-6-.63,0-1.31.83-1.78,2.17l-.29-.6c.58-1.77,1.42-2.8,2.07-2.8,1.08,0,2.72,2.89,2.72,7.24a13.71,13.71,0,0,1-.9,5.11Zm1.45-4.48c0-4.64-1.73-7.49-3-7.49-.73,0-1.62,1-2.24,2.71L56,28.78c.7-2.11,1.73-3.35,2.52-3.35,1.32,0,3.33,3.48,3.33,8.73a16.46,16.46,0,0,1-1.05,6.05l-.3-.62A13.58,13.58,0,0,0,61.52,34.15Zm-26-8.34,3.26-.36,3.08-.34.71-.09a1.27,1.27,0,0,0,.29.25l-2.69.24L35.25,26h-.11ZM58.54,44.05c-1.95,0-4.12-4.06-4.12-9.9a21.47,21.47,0,0,1,.28-3.5l.55.06A19.65,19.65,0,0,0,55,34.15c0,5.56,2.08,9,3.58,9,.55,0,1.17-.46,1.75-1.32l.2,1A2.63,2.63,0,0,1,58.54,44.05Z"/><path class="cls-2" d="M58.54,31.11c-.63,0-1.16,1.39-1.16,3s.53,3,1.16,3,1.16-1.39,1.16-3S59.17,31.11,58.54,31.11Zm0,5.84c-.36,0-.91-1.11-.91-2.79s.55-2.79.91-2.79.91,1.11.91,2.79S58.91,36.95,58.54,36.95Z"/><path class="cls-2" d="M58.54,32.59c-.39,0-.56.81-.56,1.56s.18,1.56.56,1.56.56-.81.56-1.56S58.93,32.59,58.54,32.59Z"/></g></g></svg>