<svg xmlns="http://www.w3.org/2000/svg" viewBox="0 0 55 50.98"><defs><style>.cls-1{fill:#2b384a;}</style></defs><title>Asset 14</title><g id="Layer_2" data-name="Layer 2"><g id="Layer_1-2" data-name="Layer 1"><path class="cls-1" d="M11.4,0a2.18,2.18,0,0,0-2,2v11.4H2a2.22,2.22,0,0,0-2,2V44.27A6.72,6.72,0,0,0,6.48,51l.23,0H48.29A6.74,6.74,0,0,0,55,44.27V2a2.09,2.09,0,0,0-2-2H11.4Zm2,4H51V44.27A2.63,2.63,0,0,1,48.29,47H12.83a6.56,6.56,0,0,0,.59-2.68V4Zm4.7,2.68a2.27,2.27,0,0,0-2,2v9.39a2.09,2.09,0,0,0,2,2H31.52a2.09,2.09,0,0,0,2-2V8.72a2.09,2.09,0,0,0-2-2ZM38.23,8a2,2,0,0,0,0,4h8a2,2,0,1,0,0-4ZM20.12,10.73h9.39V16.1H20.12Zm18.11,4a2,2,0,0,0,0,4h8a2,2,0,1,0,0-4ZM4,17.44H9.39V44.27A2.63,2.63,0,0,1,6.71,47,2.63,2.63,0,0,1,4,44.27V17.44Zm14.09,5.37a2,2,0,0,0,0,4H46.28a2,2,0,1,0,0-4Zm0,7.38a2,2,0,0,0,0,4H46.28a2,2,0,1,0,0-4Zm0,7.38a2,2,0,1,0,0,4H46.28a2,2,0,1,0,0-4H18.11Z"/></g></g></svg>
