<svg xmlns="http://www.w3.org/2000/svg" viewBox="0 0 55.18 55.02"><defs><style>.cls-1{fill:#5d85b7;}</style></defs><title>Asset 39</title><g id="Layer_2" data-name="Layer 2"><g id="Layer_1-2" data-name="Layer 1"><path class="cls-1" d="M53.85,12.34a4.5,4.5,0,0,0,0-6.39L49.23,1.33a4.5,4.5,0,0,0-6.39,0L40.54,3.64,51.72,14.82Z"/><rect class="cls-1" x="40.79" y="4.54" width="3.73" height="15.62" transform="translate(3.76 33.78) rotate(-45)"/><path class="cls-1" d="M.07,53.25a1.38,1.38,0,0,0,.35,1.42,1.36,1.36,0,0,0,.89.35h.53l13.31-4.79L4.86,39.93Z"/><rect class="cls-1" x="2.95" y="22.85" width="38.87" height="6.57" transform="translate(-11.92 23.48) rotate(-45)"/><rect class="cls-1" x="9.54" y="29.22" width="38.87" height="6.57" transform="translate(-14.49 30.01) rotate(-45)"/></g></g></svg>