<svg xmlns="http://www.w3.org/2000/svg" viewBox="0 0 72.68 72.68"><defs><style>.cls-1{fill:#8cc63f;}.cls-2{fill:#fff;}</style></defs><title>Asset 44</title><g id="Layer_2" data-name="Layer 2"><g id="Layer_1-2" data-name="Layer 1"><circle class="cls-1" cx="36.34" cy="36.34" r="36.34"/><path class="cls-2" d="M47.46,30.19c-7.72.47-11.57,5.92-15.13,11.74-3.74-4.23-3.25-10.06,1.11-13.79C38,24.23,43.38,23.44,49.16,24a53.8,53.8,0,0,0,7.9.18,20,20,0,0,0,4.15-1.1c0,8.41-1.86,16.14-8.74,21.7-4.33,3.49-9.29,3.9-14.45,1.66a2.37,2.37,0,0,0-2,0c-4.61,3.49-7.92,7.84-8.67,13.85-.77-1.74-.47-5,1-7.53A31,31,0,0,1,32.59,47a20.63,20.63,0,0,0,3.36-4.86,66.39,66.39,0,0,1,3.71-6.19A14.62,14.62,0,0,1,47.46,30.19Z"/><path class="cls-2" d="M30.15,42.57a11.4,11.4,0,0,0-4-6.07,2.24,2.24,0,0,0-1.82-.28,6.88,6.88,0,0,1-7.76-1.75,12.84,12.84,0,0,1-3.45-9.62c2.49,0,4.87.06,7.25,0a9.2,9.2,0,0,1,6.13,1.75c2.52,1.93,2.93,4.36,1.08,7.18-1.87-2.62-3.53-5.49-7.22-5.76,2.88,1.23,4.27,3.74,5.59,6.33a9.3,9.3,0,0,0,1.43,2C29,38.07,30.31,40,30.15,42.57Z"/></g></g></svg>