<svg xmlns="http://www.w3.org/2000/svg" viewBox="0 0 48.06 37.22"><defs><style>.cls-1{fill:#fff;}</style></defs><title>Asset 45</title><g id="Layer_2" data-name="Layer 2"><g id="Layer_1-2" data-name="Layer 1"><path class="cls-1" d="M34.31,7.08C26.59,7.54,22.74,13,19.19,18.82,15.44,14.59,15.94,8.76,20.29,5,24.87,1.11,30.23.33,36,.92a53.8,53.8,0,0,0,7.9.18A20,20,0,0,0,48.06,0c0,8.41-1.86,16.14-8.74,21.7C35,25.19,30,25.6,24.87,23.36a2.37,2.37,0,0,0-2,0c-4.61,3.49-7.92,7.84-8.67,13.85-.77-1.74-.47-5,1-7.53a31,31,0,0,1,4.21-5.83A20.63,20.63,0,0,0,22.8,19a66.39,66.39,0,0,1,3.71-6.19A14.62,14.62,0,0,1,34.31,7.08Z"/><path class="cls-1" d="M17,19.46a11.4,11.4,0,0,0-4-6.07,2.24,2.24,0,0,0-1.82-.28,6.88,6.88,0,0,1-7.76-1.75A12.84,12.84,0,0,1,0,1.73c2.49,0,4.87.06,7.25,0a9.2,9.2,0,0,1,6.13,1.75c2.52,1.93,2.93,4.36,1.08,7.18C12.59,8,10.94,5.16,7.24,4.89c2.88,1.23,4.27,3.74,5.59,6.33a9.3,9.3,0,0,0,1.43,2C15.88,15,17.16,16.87,17,19.46Z"/></g></g></svg>