<svg xmlns="http://www.w3.org/2000/svg" viewBox="0 0 86.5 108.13"><defs><style>.cls-1{fill:#4d4d4d;}</style></defs><title>Asset 60</title><g id="Layer_2" data-name="Layer 2"><g id="Layer_1-2" data-name="Layer 1"><polygon class="cls-1" points="59.47 108.13 86.5 81.09 59.47 81.09 59.47 108.13"/><path class="cls-1" d="M0,0V108.13H48.66V70.28H86.5V0ZM29.73,10.81a8.31,8.31,0,0,1,8.11,8.11A8.31,8.31,0,0,1,29.73,27a8.31,8.31,0,0,1-8.11-8.11A8.31,8.31,0,0,1,29.73,10.81Zm8.11,86.5h-27V86.5h27Zm0-21.62h-27V64.88h27Zm-27-21.62A19.16,19.16,0,0,1,29.73,35.14,19.16,19.16,0,0,1,48.66,54.06Zm64.88-5.41H54.06V37.84H75.69Zm0-21.62H54.06V16.22H75.69Z"/></g></g></svg>