<svg xmlns="http://www.w3.org/2000/svg" viewBox="0 0 72.78 66.51"><defs><style>.cls-1{fill:#2b384a;}</style></defs><title>Asset 8</title><g id="Layer_2" data-name="Layer 2"><g id="Layer_1-2" data-name="Layer 1"><path class="cls-1" d="M32.3,64c-.8-1.62-.07-5.51.39-7.49a1,1,0,0,1,1.48-.74c1.86.83,5.4,2.59,6.21,4.22a4.49,4.49,0,0,1-8,4Zm-8.84,2a4.45,4.45,0,0,0,2.06-6l0-.08c-.8-1.62-4.35-3.38-6.21-4.22a1,1,0,0,0-1.48.74c-.46,2-1.2,5.87-.39,7.49a4.45,4.45,0,0,0,5.95,2.08Zm29.69,0a4.45,4.45,0,0,0,2.1-5.94l0-.1c-.8-1.62-4.35-3.38-6.21-4.22a1,1,0,0,0-1.48.74c-.46,2-1.2,5.87-.39,7.49a4.45,4.45,0,0,0,5.95,2.07l.11-.05Zm9.36-47.86a11.64,11.64,0,0,0,.06-1.22A11.4,11.4,0,0,0,47.29,6.19a16.92,16.92,0,0,0-28.73,4.28,18.07,18.07,0,0,1,9.27,3A15.09,15.09,0,0,1,41.57,24a17.81,17.81,0,0,1,2.2,25.1l-.51.59H56.39a16.38,16.38,0,0,0,6.15-31.57ZM0,37.7A12,12,0,0,1,5.47,27.61,12.32,12.32,0,0,1,26,19.38a9.11,9.11,0,0,1,1.2-.08,9.28,9.28,0,0,1,9.19,8.14,12,12,0,0,1-6.29,22.27H12A12,12,0,0,1,0,37.7Zm5.8,0A6.23,6.23,0,0,0,12,43.92h18a6.21,6.21,0,0,0,2.33-12l-2-.82L30.6,29v-.37A3.44,3.44,0,0,0,26,25.32L24.06,26l-1.3-1.57a6.52,6.52,0,0,0-11.55,4.13v.53l.17,2.06L9.48,32A6.22,6.22,0,0,0,5.8,37.7Z"/></g></g></svg>
