<?xml version="1.0" encoding="utf-8"?>
<!-- Generator: Adobe Illustrator 22.0.1, SVG Export Plug-In . SVG Version: 6.00 Build 0)  -->
<svg version="1.1" id="Layer_1" xmlns="http://www.w3.org/2000/svg" xmlns:xlink="http://www.w3.org/1999/xlink" x="0px" y="0px"
	 viewBox="0 0 112.2 112.2" style="enable-background:new 0 0 112.2 112.2;" xml:space="preserve">
<style type="text/css">
	.st0{fill:#009836;}
	.st1{fill:#FFFFFF;}
	.st2{fill:#5D85B7;}
</style>
<circle class="st0" cx="56.1" cy="56.1" r="56.1"/>
<title>Asset 19</title>
<g>
	<path class="st1" d="M36.85,70.55c-0.75,1.2-3.7-2.31-6.38-5.44c-2.14-0.43-4.32-0.82-7.02-1.16c2.41-0.71,4.34-1.65,6.48-2.9
		c3.52-2.07,2.21-6.89-1.45-9.96c-0.56-0.47-0.93,0.11-0.39,0.59c0.93,0.82,2.68,2.53,2.49,4.22c-0.68,6.12-5.48,6.45-9.35,7.79
		c-3.2-0.36-7.96-0.91-9.14-2.07c-1.66-1.62-3.81-1.73-6.94-3.3c-0.95-0.48-1.45-2.06,0.12-2.11c2.55-0.08,0.67,1.48,1.84,1.53
		c1.43,0.06,3.69-0.14,6.77,0.13c-0.65-1.08-3.63-1.99-4.17-3.24c-0.3-0.7-1.59-0.5-1.84-1.01c-0.56-1.16-1.88-1.05-1.95-0.5
		c-0.18,1.5-1.27,1.31-1.65,0.84c-0.87-1.07,1.02-2.58,1.91-2.68c2.17-0.94,5.14-0.63,7.6-1.53c1.31-0.4,9.86-2.62,11.57-4.11
		c8.21-6.18,11.15-5.49,24.91-4.01l8.46-4.54c1.62-0.87,3.17,1.99,4.9,4.65c1.63,2.51,4.03,4.69,3.89,4.71l-3.54,0.58
		c1.8,0.41,9.42,3.58,11.18,3.99c1.18,0.07,3.19-0.81,3.54-1.04c2.72-1.23,6.03-0.3,5.61,2.6c1.71,0.13,5.47-0.14,6.93-0.01
		c5.62-3.22,9.79-7.04,13.56-7.77c1.17-0.22,3.72,0.3,3.01,2.1c-0.79,2.01-2.51,2.57-2.41,4.04c0.03,0.41-0.02,3.4-0.24,4.88
		c-0.31,2.1-1.51,1.13-4.23,1.64c3.34,0.22,4.9,0.27,4.98,3.28c-0.05,1.86,1.82,2.44,2.04,3.61c0.82,4.35-1.27,4.63-4.6,3.36
		c-4.71-1.8-8.27-5.46-12.48-7.21c-1.73-0.05-6.9-0.9-7.67,0.32c-0.3,0.48,2.79,0.9,2.23,1.66c-1.8,2.47-5.07,6.91-5.92,7.79
		c-0.94,0.97-6.12-3.43-9.39-4.26c-0.81,0.2-3.95,1.69-10,1.24c0.57,5.42,0.81,5.11-8.76,0.29c-5.61-0.15-9.35-0.48-13.25-0.87
		C37.74,68.91,37.23,69.95,36.85,70.55L36.85,70.55z"/>
	<path class="st2" d="M15.24,51.58c0.94,0,1.7,0.76,1.7,1.7s-0.76,1.69-1.7,1.69c-0.94,0-1.69-0.76-1.69-1.69
		C13.55,52.34,14.31,51.58,15.24,51.58z"/>
	<path class="st1" d="M15.24,52.4c1.15,0,1.15,1.75,0,1.75S14.09,52.4,15.24,52.4z"/>
</g>
</svg>
