<svg xmlns="http://www.w3.org/2000/svg" viewBox="0 0 72.68 72.68"><defs><style>.cls-1{fill:#edb69a;}.cls-2{fill:#fff;}</style></defs><title>Asset 50</title><g id="Layer_2" data-name="Layer 2"><g id="Layer_1-2" data-name="Layer 1"><circle class="cls-1" cx="36.34" cy="36.34" r="36.34"/><path class="cls-2" d="M34.27,37.57a1.3,1.3,0,0,0,.41.07A17.24,17.24,0,0,1,42.19,39a11,11,0,0,0,10.14-12.5,13.42,13.42,0,0,0-6.15-1.63H24.81a4.32,4.32,0,0,1-2.51-2.32,5.73,5.73,0,0,1,.44-4.1,1.32,1.32,0,0,0-2.33-1.26,8.8,8.8,0,0,0-.86,5.3c-2.29-2.76-1.79-6.94-1.78-7a1.32,1.32,0,0,0-2.62-.35c0,.22-.69,5.53,2.52,9.21a9.62,9.62,0,0,0,5.77,3.08A11.42,11.42,0,0,0,34.27,37.57Zm.51-2.63a8.77,8.77,0,0,1-8.63-7.29,1.31,1.31,0,0,0,.55-.15H43.44A8.77,8.77,0,0,1,34.78,34.94Z"/><circle class="cls-2" cx="34.71" cy="30.53" r="1.77"/><path class="cls-2" d="M44.82,41.25l.1.14a6.76,6.76,0,0,1,.86,3.41,10.61,10.61,0,0,0,13.66-7.14,14.63,14.63,0,0,0-4.35-9.16A13.62,13.62,0,0,1,44.82,41.25Z"/><path class="cls-2" d="M54,47.11a13.21,13.21,0,0,1-8.57.37,18.92,18.92,0,0,1-1.09,3.34C43.1,49.07,40.14,47,33.23,47a1.32,1.32,0,0,0-1.32,1.32c0,3,2.35,4.82,4.3,5.83a7,7,0,0,0-2.75,5.49A1.32,1.32,0,0,0,34.78,61c6.1,0,10-3.49,10.5-7A14.61,14.61,0,0,0,58.83,43.87,13.26,13.26,0,0,1,54,47.11ZM36.36,58.26a6.22,6.22,0,0,1,3.24-3.09,1.32,1.32,0,0,0-.14-2.51s-3.38-1-4.53-2.94c7.14.41,7.72,3.39,7.75,3.64C42.65,55.2,40.42,57.72,36.36,58.26Z"/></g></g></svg>