<svg xmlns="http://www.w3.org/2000/svg" viewBox="0 0 72.68 72.68"><defs><style>.cls-1{fill:#4d4d4d;}.cls-2{fill:#fff;}</style></defs><title>Asset 48</title><g id="Layer_2" data-name="Layer 2"><g id="Layer_1-2" data-name="Layer 1"><circle class="cls-1" cx="36.34" cy="36.34" r="36.34"/><path class="cls-2" d="M45.75,51.68l-3.59,4.07a3.69,3.69,0,0,1-5.21.32l-5.87-5.18C37,49.43,45.75,51.68,45.75,51.68ZM53.38,43,57,39a3.69,3.69,0,0,0-.32-5.21l-5.87-5.18C50.07,34.68,53.38,43,53.38,43Zm-2.3-22.64C47.34,32.54,52.48,43.67,52.61,44a5.06,5.06,0,0,1-.89,5.29l0,0,0,0a5.06,5.06,0,0,1-5.14,1.54c.11,0-11.93-3.88-23.55,1.39-3.93,1.83-6.56-2.46-6.78-6a6.38,6.38,0,0,1,2.35-5.36,6.39,6.39,0,0,1,3.68-10.54,6.4,6.4,0,0,1,7-7.94,6.39,6.39,0,0,1,10-5,6.38,6.38,0,0,1,5-3C47.82,14.2,52.34,16.7,51.08,20.41ZM40.62,44,22.43,41.44a.48.48,0,0,0-.14,1L40.48,45a.48.48,0,0,0,.43-.16.47.47,0,0,0,.11-.25A.48.48,0,0,0,40.62,44Zm0-3.33L25.4,31.8a.48.48,0,1,0-.49.83l15.18,8.92a.48.48,0,0,0,.6-.1l.05-.07A.48.48,0,0,0,40.58,40.72Zm-8.7-16a.48.48,0,0,0-.73.63L42.51,38.57a.48.48,0,0,0,.68.05l0,0a.48.48,0,0,0,0-.63Zm8.77-4.12a.48.48,0,0,0-.32.6l5.12,16.69a.48.48,0,0,0,.92-.28L41.25,20.9A.48.48,0,0,0,40.65,20.58Z"/></g></g></svg>