<svg xmlns="http://www.w3.org/2000/svg" viewBox="0 0 41.69 42.59"><defs><style>.cls-1{fill:#fff;}</style></defs><title>Asset 49</title><g id="Layer_2" data-name="Layer 2"><g id="Layer_1-2" data-name="Layer 1"><path class="cls-1" d="M29.54,37.28,26,41.35a3.69,3.69,0,0,1-5.21.32l-5.87-5.18C20.83,35,29.54,37.28,29.54,37.28Zm7.63-8.64,3.59-4.07a3.69,3.69,0,0,0-.32-5.21l-5.87-5.18C33.86,20.27,37.17,28.64,37.17,28.64ZM34.87,6c-3.73,12.13,1.4,23.26,1.54,23.54a5.06,5.06,0,0,1-.89,5.29l0,0,0,0a5.06,5.06,0,0,1-5.14,1.54c.11,0-11.93-3.88-23.55,1.39C2.87,39.63.23,35.33,0,31.81a6.38,6.38,0,0,1,2.35-5.36A6.39,6.39,0,0,1,6,15.91a6.4,6.4,0,0,1,7-7.94,6.39,6.39,0,0,1,10-5,6.38,6.38,0,0,1,5-3C31.61-.21,36.13,2.29,34.87,6ZM24.41,29.64,6.22,27a.48.48,0,0,0-.14,1l18.19,2.61a.48.48,0,0,0,.43-.16.47.47,0,0,0,.11-.25A.48.48,0,0,0,24.41,29.64Zm0-3.33L9.19,17.4a.48.48,0,1,0-.49.83l15.18,8.92a.48.48,0,0,0,.6-.1l.05-.07A.48.48,0,0,0,24.37,26.32Zm-8.7-16a.48.48,0,0,0-.73.63L26.3,24.16a.48.48,0,0,0,.68.05l0,0a.48.48,0,0,0,0-.63Zm8.77-4.12a.48.48,0,0,0-.32.6l5.12,16.69a.48.48,0,0,0,.92-.28L25,6.5A.48.48,0,0,0,24.44,6.18Z"/></g></g></svg>