<svg xmlns="http://www.w3.org/2000/svg" viewBox="0 0 44.35 47"><defs><style>.cls-1{fill:#fff;}</style></defs><title>Asset 51</title><g id="Layer_2" data-name="Layer 2"><g id="Layer_1-2" data-name="Layer 1"><path class="cls-1" d="M19.2,23.57a1.3,1.3,0,0,0,.41.07A17.24,17.24,0,0,1,27.12,25a11,11,0,0,0,10.14-12.5,13.42,13.42,0,0,0-6.15-1.63H9.73A4.32,4.32,0,0,1,7.22,8.53a5.73,5.73,0,0,1,.44-4.1A1.32,1.32,0,0,0,5.34,3.18a8.8,8.8,0,0,0-.86,5.3c-2.29-2.76-1.79-6.94-1.78-7A1.32,1.32,0,0,0,.08,1.15c0,.22-.69,5.53,2.52,9.21a9.62,9.62,0,0,0,5.77,3.08A11.42,11.42,0,0,0,19.2,23.57Zm.51-2.63a8.77,8.77,0,0,1-8.63-7.29,1.31,1.31,0,0,0,.55-.15H28.36A8.77,8.77,0,0,1,19.7,20.94Z"/><circle class="cls-1" cx="19.64" cy="16.53" r="1.77"/><path class="cls-1" d="M29.74,27.25l.1.14a6.76,6.76,0,0,1,.86,3.41,10.61,10.61,0,0,0,13.66-7.14A14.63,14.63,0,0,0,40,14.5,13.62,13.62,0,0,1,29.74,27.25Z"/><path class="cls-1" d="M39,33.12a13.21,13.21,0,0,1-8.57.37,18.92,18.92,0,0,1-1.09,3.34C28,35.07,25.06,33,18.15,33a1.32,1.32,0,0,0-1.32,1.32c0,3,2.35,4.82,4.3,5.83a7,7,0,0,0-2.75,5.49A1.32,1.32,0,0,0,19.7,47c6.1,0,10-3.49,10.5-7A14.61,14.61,0,0,0,43.76,29.87,13.26,13.26,0,0,1,39,33.12ZM21.29,44.26a6.22,6.22,0,0,1,3.24-3.09,1.32,1.32,0,0,0-.14-2.51s-3.38-1-4.53-2.94c7.14.41,7.72,3.39,7.75,3.64C27.58,41.2,25.34,43.73,21.29,44.26Z"/></g></g></svg>