<?xml version="1.0" encoding="utf-8"?>
<!-- Generator: Adobe Illustrator 21.0.0, SVG Export Plug-In . SVG Version: 6.00 Build 0)  -->
<svg version="1.1" id="Layer_1" xmlns="http://www.w3.org/2000/svg" xmlns:xlink="http://www.w3.org/1999/xlink" x="0px" y="0px"
	 viewBox="0 0 192 192" style="enable-background:new 0 0 192 192;" xml:space="preserve">
<rect x="-21.23" y="-10.18" style="fill:#E4EFEE;" width="229.59" height="214.77"/>
<path style="fill:#9E005D;" d="M56.9,46.41c1.97,2.27,4.47,4.01,7.28,5.07c3.21,1.21,6.56,1.99,9.97,2.32
	c3.95,0.42,7.93,0.42,11.88,0c4.36-0.45,8.69-1.14,12.97-2.07c10.77-16.89,19.9-23.09,27.38-18.59c1.35,0.82,2.34,2.13,2.77,3.65
	c0.5,1.79,0.5,3.68,0,5.46c-0.69,2.38-1.81,4.61-3.32,6.58c-1.96,2.61-4.25,4.95-6.81,6.97c-2.96,2.43-6.18,4.86-9.65,7.28
	c-2.43,4.43-4.83,9.18-7.21,14.25c-2.37,5.07-4.77,10.29-7.21,15.67c3.59,1.48,7.08,3.17,10.46,5.07c3.4,1.92,6.66,4.08,9.76,6.46
	c2.87-6.87,6.31-13.49,10.3-19.78c4.08-6.49,8.69-12.63,13.78-18.36c4.93-5.59,10.37-10.71,16.27-15.27
	c5.57-4.32,11.73-7.81,18.29-10.37c1.45-0.69,3.07-0.91,4.65-0.63c0.95,0.2,1.76,0.81,2.23,1.65c0.41,0.79,0.41,1.72,0,2.51
	c-0.55,1.02-1.49,1.76-2.6,2.07c-2.95,1.14-5.73,2.71-8.23,4.65c-3.06,2.29-5.92,4.84-8.55,7.6c-2.99,3.12-5.77,6.42-8.32,9.9
	c-2.76,3.74-5.32,7.62-7.67,11.62c-4.25,7.09-7.63,14.67-10.06,22.57c-2.24,7.04-3.62,14.32-4.11,21.69
	c-0.45,5.88,0.34,11.79,2.32,17.34c1.35,4.46,4.84,7.95,9.3,9.3c2.11,0.64,2.98,1.53,2.6,2.7c-0.67,1.48-1.89,2.64-3.39,3.25
	c-2.33,1.15-4.81,1.98-7.37,2.46c-3.06,0.65-6.2,0.76-9.3,0.33c-3.13-0.43-6.13-1.54-8.79-3.25c-2.91-1.95-5.09-4.83-6.18-8.16
	c-1.75-4.83-2.48-9.98-2.14-15.11c0.35-6.1,1.44-12.13,3.25-17.97c-3.52-2.48-7.29-4.57-11.25-6.25c-3.43-1.44-6.97-2.58-10.6-3.39
	c-3.27,7.28-6.52,14.17-9.74,20.66c-2.76,5.67-5.96,11.11-9.58,16.27c-3.68,5.32-8.49,9.75-14.09,12.99
	c-4.73,2.68-10.01,4.27-15.43,4.65c-4.91,0.37-9.84-0.39-14.41-2.21c-4.22-1.64-7.91-4.38-10.69-7.95
	c-2.76-3.61-4.38-7.97-4.65-12.51c-0.2-5.56,1.21-11.05,4.04-15.83c1.14-2.25,2.72-4.24,4.65-5.86c1.34-1.17,2.93-2.01,4.65-2.46
	c1.07-0.34,2.24-0.03,3,0.79c0.64,0.79,0.53,2.14-0.33,4.04c-1.01,2.27-1.3,4.79-0.84,7.23c0.39,2.4,1.34,4.68,2.77,6.65
	c1.45,1.94,3.32,3.52,5.46,4.65c2.26,1.23,4.8,1.8,7.37,1.67c2.96-0.19,5.82-1.12,8.32-2.7c3.3-2.13,6.1-4.93,8.23-8.23
	c2.18-3.2,4.18-6.5,6.02-9.9c2.11-3.86,4.32-8.05,6.65-12.57c-3.16,0.56-6.23,1.57-9.11,3c-2.53,1.29-4.92,2.85-7.11,4.65
	c-1.92,1.54-3.61,3.36-5,5.39c-1.17,1.71-1.96,3.65-2.32,5.69c-0.53,2.32-1.39,3.64-2.6,3.95c-1.41,0.27-2.86-0.18-3.88-1.19
	c-1.59-1.38-2.91-3.04-3.88-4.9c-1.26-2.3-2.14-4.79-2.6-7.37c-0.53-2.8-0.53-5.67,0-8.46c0.55-3.04,1.89-5.87,3.88-8.23
	c2.09-2.46,4.64-4.48,7.51-5.95c3.06-1.62,6.34-2.8,9.74-3.49c3.75-0.75,7.57-1.1,11.39-1.02c4.18,0.07,8.34,0.52,12.44,1.35
	l7.11-14.25c-3.78,1.06-7.69,1.62-11.62,1.67c-4.02,0.04-8.02-0.53-11.88-1.67c-3-0.77-5.72-2.38-7.83-4.65
	c-1.89-2.11-3.36-4.55-4.35-7.21c-0.92-2.45-1.4-5.05-1.42-7.67c-0.03-2.22,0.33-4.42,1.07-6.51c0.38-1.44,1.36-2.65,2.7-3.32
	C54.31,44.33,55.54,44.86,56.9,46.41z"/>
</svg>
