<svg xmlns="http://www.w3.org/2000/svg" viewBox="0 0 319.27 121.29"><defs><style>.cls-1{fill:#fff;}.cls-2{fill:#49a942;}.cls-3{fill:#231f20;}.cls-4{fill:#808285;}</style></defs><title>Asset 26</title><g id="Layer_2" data-name="Layer 2"><g id="Layer_1-2" data-name="Layer 1"><path class="cls-1" d="M281.66,13c-.26,1.53-.37,5.28,1.83,4.8,2.92-.63,2.54-.93,4.15-2.33,1.07-.94,3.69,1.62,0,5.69-2,2.23-2.43,2.91-1.36,4.2s4,1.85,4,6c0,3.62,4.64,1,5.77-.42s1.91-7.67,5-3.09c2.22,3.26-1.57,10.23,3,10.92,3.75.56,4.4,4.84,4.51,5.92,0,.15,0,.25,0,.25,9.58-9.2,3.2-21.11,3-22.55-.41-2.58,1-1.64,2.69-.05A42,42,0,0,0,269.12.79c8.27.17,14,3.48,12.53,12.17Z"/><path class="cls-1" d="M303.67,63.57c-2.58,1-3.69-.62-5.61,1.25-2.1,2.05,4.62,6.08-7.75,3.26-5.53-1.26-4.77,4.75-11,1.59-1.72-4.09-1.77-6.5-.3-9.06,1.71-3,2.33-2,1.28-5.29-.41-1.29,0-1.86.67-3.66s-.19-4.28-2.72-4.14c-3.36.19-3,1.71-5,3.11-1.39.93-3.74-3.8,1.18-8.06,2.69-2.32,3.33-3.07,2.44-4.86s-2.63-1.19-3.32-3.33c-.53-1.64.29-4.73-2.07-5.47-2.68-.84-4.82,3-6.37,4.5-1.8,1.75-3.77,4.87-4.74,2.38-1.72-4.43,6.19-11,1.31-12.79-4.59-1.65-6.08-6.47-6.08-6.47-12.6,9.35-6.63,17.57-7.68,19s-3.07-1.77-4.77-.23c-1.31,1.19-2.48,8.83,5.59,13.68,3.06,1.84,4.06,2.31,3.33,3.42-.59.88-3,.14-3,2.16.08,4,6.58,2.84,7.76,7.91,1.11,4.74,21.26,7.57,21.26,7.57s.09,0,.26.06l1,.53a8.92,8.92,0,0,0,4.3,5.55c4.64,2.39-.28,1.24.35,2.92.32.86,3.61,3.08,9.46,1.73a42.15,42.15,0,0,0,19.48-16.57c-5-3.91-5.38-3.1-9.18-.71Z"/><path class="cls-2" d="M278.31,70.12c-.17,0-.28-.08-.26-.06s-20.15-2.83-21.26-7.57c-1.18-5.07-7.68-3.86-7.76-7.91,0-2,2.41-1.28,3-2.16.73-1.11-.27-1.58-3.33-3.42-8.07-4.85-6.9-12.49-5.59-13.68,1.7-1.54,3.72,1.68,4.77.23s-4.92-9.68,7.68-19c0,0,1.49,4.82,6.08,6.47,4.88,1.75-3,8.36-1.31,12.79,1,2.49,2.94-.63,4.74-2.38,1.55-1.5,3.68-5.33,6.37-4.5,2.36.74,1.54,3.83,2.07,5.47.69,2.14,2.39,1.47,3.32,3.33s.26,2.54-2.44,4.86c-4.92,4.26-2.57,9-1.18,8.06,2.08-1.39,1.68-2.92,5-3.11,2.53-.14,3.4,2.35,2.72,4.14s-1.08,2.37-.67,3.66c1,3.3.43,2.29-1.28,5.29-1.47,2.56-1.41,5,.3,9.06,6.2,3.15,5.45-2.85,11-1.59,12.37,2.82,5.65-1.21,7.75-3.26,1.91-1.87,3-.22,5.61-1.25,3.82-2.39,4.18-3.21,9.21.73a42,42,0,0,0,1.49-42c-1.75-1.63-3.2-2.65-2.78,0,.24,1.45,6.62,13.35-3,22.55,0,0,0-.1,0-.25-.11-1.09-.76-5.36-4.51-5.92-4.57-.68-.77-7.66-3-10.92-3.13-4.58-3.94,1.71-5,3.09s-5.77,4-5.77.42c0-4.12-2.89-4.63-4-6s-.63-2,1.36-4.2c3.65-4.07,1-6.63,0-5.69-1.6,1.4-1.22,1.7-4.15,2.33-2.19.48-2.09-3.27-1.83-4.8,1.51-8.7-4.27-12-12.56-12.17a42,42,0,1,0,24.3,80.06c-5.86,1.36-9.16-.87-9.48-1.72-.63-1.68,4.29-.53-.35-2.92a8.92,8.92,0,0,1-4.3-5.55l-1-.53Z"/><path class="cls-2" d="M280.68,71.4S253,60.68,252.08,33.48c0,0,2.67,20.67,28.6,37.92Z"/><path class="cls-2" d="M280.47.06A32.88,32.88,0,0,1,293.5,5c2.33,2.19,5.64,7.56.54,18.56,0,0,6.54-8.83,4.89-14.19,5.49,5.5,10.1,14.23,10.27,28.06,0,0,6.1-34.64-28.73-37.32Z"/><path class="cls-2" d="M308.09,68.78c-2.11,1.28-5.53,4.29-11.12,2.53a9.55,9.55,0,0,0,5.71,1.59c-4.49,2.32-9.35,2.87-17.05.94,0,0,15.59,9.19,26.48-8.4a38.41,38.41,0,0,1-4,3.33Z"/><path class="cls-3" d="M13.47,31.61c0,3,.63,3.87,3,3.87v.75h-9v-.75c1.89,0,3-.53,3-4V12.23H6.79c-3.38.07-4.92,1-5.14,4H.47v-6h.76a3.35,3.35,0,0,0,1.4.76,10.21,10.21,0,0,0,2.47.24H18.58c2.24,0,3.28-.29,4.09-1h.81v6h-.54c-.49-2.43-5.32-4-5.32-4H13.47V31.61Z"/><path class="cls-3" d="M41.47,32.53c-.5,2.38-.06,3,2,3v.71h-8v-.71c2,0,3-2.51,3-2.51V25.4c0-2.17-1.29-3.54-3.26-3.54s-3.18.87-4.74,3.08v8.48a3,3,0,0,0,3,2.11v.71h-9v-.76c2.52,0,3-.49,3-3V11.89c0-2.05-.62-2.36-3-2.36V8.77l5.42-.54h.58V23c2-2.29,3.55-3.12,5.63-3.12a5.12,5.12,0,0,1,5.37,5.4v7.28Z"/><path class="cls-3" d="M56.73,26.23c.13-3.43-2.2-4.84-4.18-4.84-2.59,0-4.13,1.93-4.31,4.84Zm-9,1c-.08,7,4.09,8.75,6.2,8.75s3.25-.75,5.5-3.25v1.15c-1.89,2.42-3.7,3.33-6.42,3.33-4.88,0-8.4-3.38-8.4-8.09s3.43-8.39,7.83-8.39c3.61,0,6.95,2.9,6.73,6.51Z"/><path class="cls-3" d="M100.47,46.23H97.53l-26.93-35h-.13V39.49c0,4.08,1.53,5.55,5,5.55v1.2h-12V45c3.38,0,5-1,5-6.83V14.8c0-4.46-1.2-7-6-7.39V6.23H72.75l25.58,31h.14V13.95c0-5.21-1.43-6.53-5-6.53V6.23h12V7.42c-3.78,0-5,1.61-5,6.28V46.23Z"/><path class="cls-3" d="M136.47,21.23h9v2h-8V39.13c0,3.41,1.84,5.16,4.71,5.16A6.14,6.14,0,0,0,147,41.91l.81.91c-2.28,2.72-4.92,4.11-7.87,4.11-4.41,0-7.5-2.93-7.5-7.18V23.23h-5V22.06c3.2-1.65,5.86-4.62,7.87-8.83h1.13v8Z"/><path class="cls-3" d="M173.47,40.93c0,2.72.85,3.49,4,3.49v.86l-9,.49V41.23H166.7c-2.22,3.16-4.82,4.73-7.87,4.73-4.44,0-7.36-3.63-7.36-8.16V25.38c0-2.33-.76-3.23-4-3.23V21l7.23-.75h1.77V37.87c0,3.49,2.39,5.58,6,5.58,2.54,0,4.85-1.32,7-4V26.09c0-3.42-.58-3.83-5-3.9V21l8.69-.77h.31v20.7Z"/><path class="cls-3" d="M189.47,40.63c0,2.68.81,3.43,4,3.43v1.17h-13V44c3.6,0,4-1,4-4.74V26.23c0-3.62-.89-4-5-4V21l8.49-.77h1.51v5.29c4.48-3.91,6.58-5.29,8.21-5.29a7.46,7.46,0,0,1,4.41,1.92l-1.83,4.33c-2-1.1-4.07-2.13-5.7-2.13s-2.92.82-5.09,3V40.63Z"/><path class="cls-3" d="M220.71,29.23c.21-5.44-3.49-7.67-6.62-7.67-4.11,0-6.55,3.07-6.83,7.67Zm-13.77,1c-.14,11.08,6.48,13.87,9.83,13.87s5.16-1.19,8.71-5.16v1.81c-3,3.83-5.86,5.29-10.18,5.29C207.56,46,202,40.69,202,33.23s5.44-13.31,12.41-13.31c5.72,0,11,4.6,10.66,10.32Z"/><path class="cls-3" d="M25.58,55.23c-1.47-5.68-4.58-8.16-9.79-8.16-7.26,0-11.16,5.84-11.16,13.58,0,9,4.69,15,11.47,15,4.74,0,8.27-2.21,10.53-6.63l.79.74c-2,4.79-6.79,7.79-12.58,7.79C7.58,77.54,0,72.59,0,62.55,0,53,6.58,45.92,15.58,45.92c3.79,0,6.63,1.26,8.42,1.26a1.66,1.66,0,0,0,1.63-.95h.84v9Z"/><path class="cls-3" d="M39.56,59c-3.91,0-6.26,3.44-6.26,8.76,0,4.75,2,8.72,6.26,8.72s6.26-4.23,6.26-8.72c0-4.64-2-8.76-6.26-8.76Zm0,18.52c-5.79,0-10.12-4.17-10.12-9.76s4.33-9.81,10.12-9.81,10.12,4.17,10.12,9.81-4.33,9.76-10.12,9.76Z"/><path class="cls-3" d="M71.47,73.21c0,2.4.5,3.13,3,3.13v.89h-10v-.89c2.36,0,3-.57,3-2.29V64a3.8,3.8,0,0,0-4-4c-1.75,0-3.3,1.1-5,3.45V72.8c0,2.82.35,3.55,3,3.55v.89h-10v-.89c2.39,0,3-.21,3-3.55V62.41c0-2.24-.56-2.71-3-2.71v-.89l5.6-.58h1.4v3.7c2.2-2.5,4.35-3.7,6.71-3.7a6.22,6.22,0,0,1,6.29,6.63v8.36Z"/><path class="cls-3" d="M86.4,63.23c-.38-3.13-2.47-4.72-4.73-4.72-1.88,0-3.18,1-3.18,2.54,0,4.77,10,3.5,10,10.5a6,6,0,0,1-6,5.78c-2.1,0-3.93-1.38-4.84-1.38a1.29,1.29,0,0,0-1.24,1.27h-.91v-6h.91a6.29,6.29,0,0,0,6.14,5.32,3.18,3.18,0,0,0,3.34-3.15c0-5.1-10.12-3.71-10.12-9.9,0-2.84,2.64-5.26,5.81-5.26,2,0,2.59.88,3.88.88a1.2,1.2,0,0,0,1.13-.88h.92v5Z"/><path class="cls-3" d="M104.17,65.23c.15-4.07-2.61-5.73-5-5.73-3.08,0-4.9,2.29-5.12,5.73Zm-9.58,0c-.1,8.3,4.85,10.38,7.36,10.38s3.86-.89,6.52-3.86v1.35c-2.24,2.87-4.38,4-7.62,4-5.79,0-10-4-10-9.6s4.07-10,9.29-10c4.28,0,8.25,3.45,8,7.72Z"/><path class="cls-3" d="M116.47,73.74c0,2,.61,2.61,3,2.61v.89h-9v-.89c2.7,0,3-.73,3-3.55V62.72c0-2.71-.71-3-4-3v-.89l6.8-.58h.2v4c3.35-3,4.93-4,6.15-4a5.55,5.55,0,0,1,3.3,1.46L124.55,63a10.16,10.16,0,0,0-4.27-1.61c-1.17,0-2.18.63-3.81,2.24V73.74Z"/><path class="cls-3" d="M138.88,72.42l3.6-9.34c.89-2.4.89-3.49-2-3.7V58.23h7v.89c-2.12.21-2.64.68-3.52,2.68l-5.89,15.42h-.87L131.35,62.6c-1.24-3-1.71-3.37-3.88-3.47v-.89h9v1.15c-2.08.16-2.55,1.15-1.71,3.18l4.12,9.86Z"/><path class="cls-3" d="M184.47,73.21c0,2.4.5,3.13,3,3.13v.89h-10v-.89c2.36,0,3-.57,3-2.29V64a3.79,3.79,0,0,0-4-4c-1.75,0-3.3,1.1-5,3.45V72.8c0,2.82.35,3.55,3,3.55v.89h-10v-.89c2.39,0,3-.21,3-3.55V62.41c0-2.24-.56-2.71-3-2.71v-.89l5.59-.58h1.41v3.7c2.2-2.5,4.35-3.7,6.71-3.7a6.22,6.22,0,0,1,6.29,6.63v8.36Z"/><path class="cls-3" d="M204.47,64.23h-.55c-.79-3.13-3.13-5.27-6.21-5.27-3.65,0-6.21,3.13-6.21,7.67,0,5.06,3.18,9.29,6.94,9.29a9.25,9.25,0,0,0,7-3.86v1.36a10.13,10.13,0,0,1-8.28,4.07c-5.48,0-9.29-3.81-9.29-9.34,0-5.69,4.28-10.23,9.55-10.23,2.77,0,4.28,1,5.22,1,.47,0,.94-.36,1.25-1.73h.55v7Z"/><path class="cls-3" d="M217.66,72.37l3.3-9.76c.74-2.19.58-3.39-1.49-3.49v-.89h7v.89c-2,0-3.14,1.25-4.16,4.33l-7.25,21.76c-1.44,4.28-3.81,6.73-6,6.73a3.93,3.93,0,0,1-2.26-.78L208,88a3.85,3.85,0,0,0,1.75.42c2.21,0,3.5-1.3,4.63-4.54l2.37-6.68-6.53-15.29c-.93-2.14-1.6-2.71-3.7-2.76v-.89h8v.89c-1.43.21-2,1.25-1.32,2.82l4.51,10.43Z"/><path class="cls-3" d="M119.47,40.7a6.19,6.19,0,0,1-5.09,3.14c-2,0-3.77-2-3.77-4.53,0-5,4.18-4.94,8.85-7V40.7Zm5,.09V29.67c0-7.07-5.08-9.58-9.44-9.58a9.83,9.83,0,0,0-9.65,8l1.33.37c1.27-4.31,4.86-6.1,8.23-5.48a5.68,5.68,0,0,1,4.52,5.64V30.8s-13.7,2.09-13.7,9.13a6.84,6.84,0,0,0,7,6.55c2.58,0,4.47-1,6.92-3.67h.74v3.42h8V45c-3.33,0-4-1-4-4.23Z"/><path class="cls-3" d="M157.47,73.13a4.59,4.59,0,0,1-3.77,2.33,3.14,3.14,0,0,1-2.79-3.36c0-3.72,3.1-3.67,6.56-5.17v6.2Zm4,.07V64.76S157.33,58,154.28,58a6.89,6.89,0,0,0-6.77,5.63l.93.26A5.05,5.05,0,0,1,153.3,60c2.58,0,4.18,4.45,4.18,4.45v1.34s-10.22,1.55-10.22,6.77a5.07,5.07,0,0,0,5.22,4.86c1.91,0,3.32-.76,5.13-2.72h.88v2.54h6v-.89c-2.5,0-3-.73-3-3.14Z"/><polygon class="cls-4" points="84.47 116.23 84.47 99.23 94.47 99.23 94.47 102.23 87.47 102.23 87.47 106.23 93.1 106.23 93.58 109.23 87.47 109.23 87.47 114.23 94.47 114.23 94.47 116.23 84.47 116.23 84.47 116.23"/><path class="cls-4" d="M111.47,116.23v-7.9c0-1.05-.36-1.78-1.42-1.78a3.81,3.81,0,0,0-2.58,1.5v8.17h-3v-7.9c0-1.05-.38-1.78-1.44-1.78a3.78,3.78,0,0,0-2.56,1.5v8.17h-3v-12H100l.27,1.69a5.6,5.6,0,0,1,3.9-1.94,2.91,2.91,0,0,1,3,1.94,5.61,5.61,0,0,1,3.95-1.94c2.23,0,3.34,1.37,3.34,3.6v8.65Z"/><path class="cls-4" d="M119.81,109.23h4.82c-.2-1.87-.95-2.92-2.4-2.92-1.2,0-2.2,1-2.42,2.92Zm2.9,7.7c-3.37,0-5.9-1.92-5.9-6.27,0-3.92,2.35-6.3,5.5-6.3,3.62,0,5.25,2.72,5.25,6.15,0,.25,0,.55,0,.73h-7.77c.15,2.37,1.42,3.37,3.27,3.37a7,7,0,0,0,4.15-1.5l.35,2.35a8.25,8.25,0,0,1-4.82,1.47Z"/><path class="cls-4" d="M133.47,109.35v6.88h-3v-12H133l.38,2.41a4.71,4.71,0,0,1,3.88-2.66l.48,3a5.56,5.56,0,0,0-4.28,2.41Z"/><path class="cls-4" d="M145.47,110.72c-3.47.42-4.3,1.45-4.3,2.6a1.32,1.32,0,0,0,1.47,1.4,4,4,0,0,0,2.82-1.3v-2.7Zm.43,6.52-.25-1.57a5.33,5.33,0,0,1-4,1.82,3.16,3.16,0,0,1-3.43-3.35c0-2.92,2.4-4.2,7.28-4.67v-.35c0-1.3-.75-1.8-2.07-1.8a9.94,9.94,0,0,0-4,1l-.38-2.4a12.5,12.5,0,0,1,4.8-1c3.13,0,4.67,1.15,4.67,4v8.27Z"/><polygon class="cls-4" points="151.47 117.23 151.47 99.66 154.47 99.19 154.47 117.23 151.47 117.23 151.47 117.23"/><path class="cls-4" d="M165.47,107.47a4.86,4.86,0,0,0-2.35-.53c-1.57,0-2.73,1.28-2.73,3.92,0,2.35,1,3.45,2.32,3.45a3.56,3.56,0,0,0,2.75-1.65v-5.2Zm.43,9.76-.25-1.67a4.72,4.72,0,0,1-3.7,1.92c-2.52,0-4.55-1.87-4.55-5.95,0-4.5,2.48-6.5,5.27-6.5a8.49,8.49,0,0,1,2.8.45V99.66l3-.48v18Z"/><polygon class="cls-4" points="176.47 116.23 176.47 99.23 186.47 99.23 186.47 102.23 179.47 102.23 179.47 106.23 185.1 106.23 185.58 109.23 180.47 109.23 180.47 114.23 186.47 114.23 186.47 116.23 176.47 116.23 176.47 116.23"/><path class="cls-4" d="M196.47,107.47a4.86,4.86,0,0,0-2.35-.53c-1.57,0-2.73,1.28-2.73,3.92,0,2.35,1,3.45,2.32,3.45a3.56,3.56,0,0,0,2.75-1.65v-5.2Zm.43,9.76-.25-1.67a4.73,4.73,0,0,1-3.7,1.92c-2.53,0-4.55-1.87-4.55-5.95,0-4.5,2.48-6.5,5.27-6.5a8.5,8.5,0,0,1,2.8.45V99.66l3-.48v18Z"/><path class="cls-4" d="M207.21,106.34a2.12,2.12,0,0,0-2.1,2.35,2,2,0,0,0,2.1,2.2,2.09,2.09,0,0,0,2.13-2.27,2.12,2.12,0,0,0-2.13-2.27Zm-1.82,9.82c-.87.6-1.27,1.17-1.27,1.8,0,.9,1.07,1.55,3.35,1.55s3.37-.73,3.37-1.62c0-.65-.52-1-2-1.25l-1.62-.2a17.5,17.5,0,0,1-1.8-.27Zm1.87,5.12c-3.27,0-5.75-1-5.75-3,0-1.15.77-2,2.27-2.82a1.65,1.65,0,0,1-.7-1.33c0-.68.52-1.33,1.53-1.9a3.8,3.8,0,0,1-2.27-3.55c0-2.62,2.15-4.27,4.85-4.27a5.27,5.27,0,0,1,3.42,1.13l2.95-1,.4,2.4-2.2.15a4.12,4.12,0,0,1,.32,1.57c0,2.6-2.22,4.15-4.82,4.15a6.23,6.23,0,0,1-1-.05c-.3.2-.48.43-.48.63,0,.4.38.5,2.25.77l1.55.15c2.47.35,4,1.13,4,3,0,2.6-2.85,4-6.35,4Z"/><path class="cls-4" d="M217.88,109.23h4.82c-.2-1.87-.95-2.92-2.4-2.92-1.2,0-2.2,1-2.42,2.92Zm2.9,7.7c-3.37,0-5.9-1.92-5.9-6.27,0-3.92,2.35-6.3,5.5-6.3,3.62,0,5.25,2.72,5.25,6.15,0,.25,0,.55,0,.73h-7.77c.15,2.37,1.43,3.37,3.27,3.37a7,7,0,0,0,4.15-1.5l.35,2.35a8.25,8.25,0,0,1-4.82,1.47Z"/></g></g></svg>