<svg xmlns="http://www.w3.org/2000/svg" viewBox="0 0 484.47 58.97"><defs><style>.cls-1{fill:#2b384a;}</style></defs><title>Asset 3</title><g id="Layer_2" data-name="Layer 2"><g id="Layer_1-2" data-name="Layer 1"><path class="cls-1" d="M19.74,10a7.79,7.79,0,0,0,3.13,2.18,16.9,16.9,0,0,0,4.29,1,24,24,0,0,0,5.11,0,50.64,50.64,0,0,0,5.58-.89q6.95-10.9,11.78-8a2.69,2.69,0,0,1,1.19,1.57,4.37,4.37,0,0,1,0,2.35,8.53,8.53,0,0,1-1.43,2.83,16.37,16.37,0,0,1-2.93,3q-1.91,1.57-4.15,3.13-1.57,2.86-3.1,6.13t-3.1,6.74a41.19,41.19,0,0,1,4.5,2.18A35.75,35.75,0,0,1,44.81,35a56.48,56.48,0,0,1,4.43-8.51,59.78,59.78,0,0,1,5.93-7.9,50.57,50.57,0,0,1,7-6.57,31.49,31.49,0,0,1,7.87-4.46,3.28,3.28,0,0,1,2-.27A1.45,1.45,0,0,1,73,8,1.18,1.18,0,0,1,73,9.08a1.82,1.82,0,0,1-1.12.89,14,14,0,0,0-3.54,2,29.86,29.86,0,0,0-3.68,3.27,42.61,42.61,0,0,0-3.58,4.26,57.71,57.71,0,0,0-3.3,5,44.39,44.39,0,0,0-4.33,9.71,39.44,39.44,0,0,0-1.77,9.33,18.11,18.11,0,0,0,1,7.46,6,6,0,0,0,4,4q1.36.41,1.12,1.16a2.74,2.74,0,0,1-1.46,1.4,12.3,12.3,0,0,1-3.17,1.06,11.54,11.54,0,0,1-4,.14,9.33,9.33,0,0,1-3.78-1.4,6.76,6.76,0,0,1-2.66-3.51,16,16,0,0,1-.92-6.5,32.17,32.17,0,0,1,1.4-7.73,26,26,0,0,0-4.84-2.69,27.24,27.24,0,0,0-4.56-1.46q-2.11,4.7-4.19,8.89a51.9,51.9,0,0,1-4.12,7,18.88,18.88,0,0,1-6.06,5.59,15.73,15.73,0,0,1-6.64,2A13.93,13.93,0,0,1,6.6,58,10.79,10.79,0,0,1,2,54.58a9.8,9.8,0,0,1-2-5.38,12.46,12.46,0,0,1,1.74-6.81,8,8,0,0,1,2-2.52,4.94,4.94,0,0,1,2-1.06,1.24,1.24,0,0,1,1.29.34q.41.51-.14,1.74A5.22,5.22,0,0,0,6.53,44a6.68,6.68,0,0,0,1.19,2.86,7,7,0,0,0,2.35,2,6,6,0,0,0,3.17.72,7.62,7.62,0,0,0,3.58-1.16,11.88,11.88,0,0,0,3.54-3.54,48.42,48.42,0,0,0,2.59-4.26q1.36-2.49,2.86-5.41a14.45,14.45,0,0,0-3.92,1.29,17,17,0,0,0-3.06,2,10.7,10.7,0,0,0-2.15,2.32,6.29,6.29,0,0,0-1,2.45q-.34,1.5-1.12,1.7a1.88,1.88,0,0,1-1.67-.51,7.19,7.19,0,0,1-1.67-2.11,10.42,10.42,0,0,1-1.12-3.17,9.81,9.81,0,0,1,0-3.64A7.54,7.54,0,0,1,11.77,32,10.57,10.57,0,0,1,15,29.44a15.56,15.56,0,0,1,4.19-1.5,22.58,22.58,0,0,1,4.9-.44,29.28,29.28,0,0,1,5.35.58l3.06-6.13a19.46,19.46,0,0,1-5,.72,17.4,17.4,0,0,1-5.11-.72,7,7,0,0,1-3.37-2,9.74,9.74,0,0,1-1.87-3.1,9.53,9.53,0,0,1-.61-3.3A8.12,8.12,0,0,1,17,10.75a2.24,2.24,0,0,1,1.16-1.43Q18.86,9,19.74,10Z"/><path class="cls-1" d="M76.82,22.9a8.36,8.36,0,0,1,4.19,1,6.8,6.8,0,0,1,2.66,2.66,8.91,8.91,0,0,1,1,4A14.07,14.07,0,0,1,84,35.37a6.76,6.76,0,0,0,1.63.68,5.59,5.59,0,0,0,1.94.2,5.16,5.16,0,0,0,1.91-.51A3.74,3.74,0,0,0,91,34.35a3.42,3.42,0,0,1,1.5-1.43,1.54,1.54,0,0,1,1.33-.07,1.15,1.15,0,0,1,.54,1.06,3.11,3.11,0,0,1-.78,1.87,9.78,9.78,0,0,1-2.69,2.62,9.54,9.54,0,0,1-3,1.26,8.53,8.53,0,0,1-2.93.17A7.31,7.31,0,0,1,82.41,39a21.4,21.4,0,0,1-2.72,3.88A19.58,19.58,0,0,1,76.28,46a15.61,15.61,0,0,1-3.92,2,12.8,12.8,0,0,1-4.19.72,8.45,8.45,0,0,1-4.29-1,6.82,6.82,0,0,1-2.69-2.76,9,9,0,0,1-1-4.12,15.27,15.27,0,0,1,.85-5,20.2,20.2,0,0,1,2.49-5,19.36,19.36,0,0,1,3.71-4.09,18.34,18.34,0,0,1,4.53-2.76A12.73,12.73,0,0,1,76.82,22.9Zm-5,18.66A7.09,7.09,0,0,0,76.24,40a10.74,10.74,0,0,0,3.17-3.92,7.76,7.76,0,0,1-1.33-2.42,9.47,9.47,0,0,1-.44-2.28,6.31,6.31,0,0,1,.17-2q.24-.92.51-1.67a3.63,3.63,0,0,0-.78-.2,6.13,6.13,0,0,0-.92-.07,7.15,7.15,0,0,0-5,2,12.21,12.21,0,0,0-3.2,5,7.34,7.34,0,0,0-.14,5Q69.06,41.57,71.85,41.57Z"/><path class="cls-1" d="M106.11,22.9a8.35,8.35,0,0,1,4.19,1A6.79,6.79,0,0,1,113,26.55a8.9,8.9,0,0,1,1,4,14.07,14.07,0,0,1-.71,4.87,6.76,6.76,0,0,0,1.63.68,5.59,5.59,0,0,0,1.94.2,5.16,5.16,0,0,0,1.91-.51,3.74,3.74,0,0,0,1.53-1.4,3.42,3.42,0,0,1,1.5-1.43,1.54,1.54,0,0,1,1.33-.07,1.15,1.15,0,0,1,.54,1.06,3.11,3.11,0,0,1-.78,1.87,9.76,9.76,0,0,1-2.69,2.62,9.55,9.55,0,0,1-3,1.26,8.53,8.53,0,0,1-2.93.17,7.31,7.31,0,0,1-2.59-.78A21.3,21.3,0,0,1,109,42.93,19.6,19.6,0,0,1,105.56,46a15.61,15.61,0,0,1-3.92,2,12.79,12.79,0,0,1-4.19.72,8.45,8.45,0,0,1-4.29-1,6.83,6.83,0,0,1-2.69-2.76,9,9,0,0,1-1-4.12,15.32,15.32,0,0,1,.85-5,20.21,20.21,0,0,1,2.49-5,19.35,19.35,0,0,1,3.71-4.09,18.34,18.34,0,0,1,4.53-2.76A12.74,12.74,0,0,1,106.11,22.9Zm-5,18.66A7.09,7.09,0,0,0,105.53,40a10.75,10.75,0,0,0,3.17-3.92,7.74,7.74,0,0,1-1.33-2.42,9.52,9.52,0,0,1-.44-2.28,6.37,6.37,0,0,1,.17-2q.24-.92.51-1.67a3.64,3.64,0,0,0-.78-.2,6.15,6.15,0,0,0-.92-.07,7.15,7.15,0,0,0-5,2,12.22,12.22,0,0,0-3.2,5,7.33,7.33,0,0,0-.14,5Q98.34,41.57,101.14,41.57Z"/><path class="cls-1" d="M140.91,36.32q-.68,1-1.4,2.15a12.31,12.31,0,0,0-1.09,2.08,3.43,3.43,0,0,0-.31,1.57c0,.41.34.61.88.61a7,7,0,0,0,2.83-.68,16.51,16.51,0,0,0,3.1-1.84,23.23,23.23,0,0,0,3-2.66,18.09,18.09,0,0,0,2.45-3.2,4,4,0,0,1,1.4-1.46,1.21,1.21,0,0,1,1.19-.1,1.25,1.25,0,0,1,.54,1.06,3.46,3.46,0,0,1-.61,1.94,21.44,21.44,0,0,1-3.34,4.39,39.85,39.85,0,0,1-4.63,4.15,31.59,31.59,0,0,1-4.87,3.1,9.37,9.37,0,0,1-4,1.23,9,9,0,0,1-3-.48,4.39,4.39,0,0,1-2.15-1.53,4.5,4.5,0,0,1-.82-2.66,9.14,9.14,0,0,1,1-3.85q.82-1.7,2.11-3.85t2.25-4a10.05,10.05,0,0,0,1.12-3.06q.17-1.23-1.26-1.16-1.16.07-3,1.91a40.33,40.33,0,0,0-3.85,4.56,66.86,66.86,0,0,0-3.81,5.79,51.26,51.26,0,0,0-2.9,5.59A13.56,13.56,0,0,1,120.65,48a1.34,1.34,0,0,1-1.12.61h-1.7a3.6,3.6,0,0,1-2.28-.54q-.65-.54-.1-2.11l1-2.93q.48-1.36,1.16-2.93,1-2.25,1.77-4.05t1.53-3.34q.71-1.53,1.4-2.86t1.29-2.62a9.07,9.07,0,0,1,1.26-2,5.66,5.66,0,0,1,1.4-1.19,5.09,5.09,0,0,1,1.6-.61q.85-.17,2-.31,1.77-.14,1.87.75a6.93,6.93,0,0,1-.92,3.06,21.49,21.49,0,0,1,4-3A8.34,8.34,0,0,1,139,22.77a6.51,6.51,0,0,1,4,1,3.93,3.93,0,0,1,1.57,2.83,9.53,9.53,0,0,1-.72,4.29A26,26,0,0,1,140.91,36.32Z"/><path class="cls-1" d="M179.81,25.83q-.68,1.29-1.53,2.76l-1.7,2.93-1.63,2.83q-.78,1.36-1.4,2.38t-1.16,2.15a12.48,12.48,0,0,0-.82,1.91,2.61,2.61,0,0,0-.14,1.4q.13.55,1,.54a7.13,7.13,0,0,0,2.79-.68,16,16,0,0,0,3.13-1.84,21.64,21.64,0,0,0,3-2.66,19.17,19.17,0,0,0,2.42-3.2,4,4,0,0,1,1.4-1.46,1.21,1.21,0,0,1,1.19-.1,1.25,1.25,0,0,1,.54,1.06,3.67,3.67,0,0,1-.54,1.94A20.92,20.92,0,0,1,183,40.17a42.08,42.08,0,0,1-4.67,4.15,31.59,31.59,0,0,1-4.87,3.1,9.37,9.37,0,0,1-4,1.23,7.2,7.2,0,0,1-3.81-1,3.72,3.72,0,0,1-1.77-3,16,16,0,0,1-3.54,2.76,9,9,0,0,1-4.63,1.19,6.71,6.71,0,0,1-4.43-1.46,7.15,7.15,0,0,1-2.38-3.85,11.39,11.39,0,0,1,.07-5.38,16.56,16.56,0,0,1,2.93-6.06,20.93,20.93,0,0,1,4.77-4.73A17.53,17.53,0,0,1,162,24.54a11.27,11.27,0,0,1,5.11-.31,7.81,7.81,0,0,1,4.22,2.21,14,14,0,0,1,1-1.53,3.75,3.75,0,0,1,1-.92,4.19,4.19,0,0,1,1.26-.51q.71-.17,1.74-.37t2-.2a3.26,3.26,0,0,1,1.5.17,1,1,0,0,1,.61.89A3.59,3.59,0,0,1,179.81,25.83ZM158.21,42.11q2.86,0,5.65-3A31.26,31.26,0,0,0,169,31a3.39,3.39,0,0,0-1.7-1.29,5.38,5.38,0,0,0-2.66-.17,9.68,9.68,0,0,0-3,1.06,14.18,14.18,0,0,0-3,2.15,13.84,13.84,0,0,0-2.45,3,7.58,7.58,0,0,0-.92,2.32,4.77,4.77,0,0,0,0,2,2.37,2.37,0,0,0,1,1.43A3.28,3.28,0,0,0,158.21,42.11Z"/><path class="cls-1" d="M180.55,48.65a11.53,11.53,0,0,1-1.94-.14,1.44,1.44,0,0,1-1.09-.68,2.29,2.29,0,0,1,0-1.63,15.74,15.74,0,0,1,1.29-3.06q1.5-2.86,4.16-7.49t5.89-9.74q3.23-5.11,6.64-10a95.25,95.25,0,0,1,6.4-8.28,9.24,9.24,0,0,1,3.34-2.55A4.61,4.61,0,0,1,208,4.75a3,3,0,0,1,1.87,1.4,4.22,4.22,0,0,1,.54,2.66,8,8,0,0,1-1.87,4.33,41,41,0,0,1-3.92,4.19l-4.6,4.33a22.1,22.1,0,0,0-3.92,4.87,22.12,22.12,0,0,1,4.22-2.72,9.49,9.49,0,0,1,4.16-1,5,5,0,0,1,3.68,1.12,3.9,3.9,0,0,1,1,3.07A13.25,13.25,0,0,1,208,31.42a35.14,35.14,0,0,1-2.93,5.31,19.54,19.54,0,0,0-1.23,2.11,9.34,9.34,0,0,0-.75,1.94,2.19,2.19,0,0,0,0,1.4q.24.55,1.12.54a7,7,0,0,0,2.83-.68,16.52,16.52,0,0,0,3.1-1.84,21.64,21.64,0,0,0,3-2.66,19.17,19.17,0,0,0,2.42-3.2,4,4,0,0,1,1.4-1.46,1.21,1.21,0,0,1,1.19-.1,1.25,1.25,0,0,1,.54,1.06,3.67,3.67,0,0,1-.54,1.94A24.83,24.83,0,0,1,215,40.17a31,31,0,0,1-4.46,4.15,27.1,27.1,0,0,1-5.11,3.1,12.31,12.31,0,0,1-5.18,1.23,6.37,6.37,0,0,1-3.34-.78A4.58,4.58,0,0,1,195,45.79a5.69,5.69,0,0,1-.37-3,10.32,10.32,0,0,1,1.23-3.64,29.15,29.15,0,0,1,2.28-3.75q1.4-2,2.38-3.61a8.12,8.12,0,0,0,1.16-2.69q.17-1.06-1.26-1a5.54,5.54,0,0,0-2.38.89A15.24,15.24,0,0,0,195,31.59a39.71,39.71,0,0,0-3.71,4.73q-2,2.93-4.39,7.15l-.27.68-1.26,2.62a3.57,3.57,0,0,1-1,1.33,2.62,2.62,0,0,1-1.4.48Q182.12,48.65,180.55,48.65Z"/><path class="cls-1" d="M249.14,36.12A6,6,0,0,0,245.7,38a8,8,0,0,0-1.8,3.41,9.9,9.9,0,0,0-.14,4,9.07,9.07,0,0,0,1.5,3.78,8,8,0,0,0,3.1,2.62,7.79,7.79,0,0,0,4.67.54,11.88,11.88,0,0,0,5.38-2.11,9.43,9.43,0,0,0,3.34-4,10.43,10.43,0,0,0,.78-3.44,10.93,10.93,0,0,0-.41-3.61,12.55,12.55,0,0,0-1.67-3.54,13,13,0,0,0-3.06-3.17,15.12,15.12,0,0,1-3.07-3,14.57,14.57,0,0,1-2-3.54,13.43,13.43,0,0,1-.92-3.88,11.27,11.27,0,0,1,.38-4,13.91,13.91,0,0,1-3.61-4,7.56,7.56,0,0,1-1.36-4.43,10.88,10.88,0,0,1,.92-4.15,11.7,11.7,0,0,1,2.21-3.34,8.52,8.52,0,0,1,2.59-2,2.11,2.11,0,0,1,2-.07q.78.48.44,2.38a11.9,11.9,0,0,0,0,4.12,11.24,11.24,0,0,0,1.33,3.58A26.07,26.07,0,0,1,264,5.13a21.18,21.18,0,0,1,9.33-1.84,12.2,12.2,0,0,1,6.16,1.53A8.88,8.88,0,0,1,283,8.4a7.91,7.91,0,0,1,.75,4.6,9.31,9.31,0,0,1-2,4.63A13.53,13.53,0,0,1,277,21.3,17.88,17.88,0,0,1,269.51,23a34.66,34.66,0,0,1-9.6-1,18.37,18.37,0,0,0,1.84,2.11,18.16,18.16,0,0,0,2.45,2,19.68,19.68,0,0,1,4.46,4.73A17,17,0,0,1,270.9,36a14.84,14.84,0,0,1,.37,5.18,20.35,20.35,0,0,1-1.16,5,16.2,16.2,0,0,1-2.59,4.32,19.54,19.54,0,0,1-4,3.64,20.54,20.54,0,0,1-5,2.52,18.12,18.12,0,0,1-5.58,1,19.31,19.31,0,0,1-8.89-1.77A18.65,18.65,0,0,1,237.6,51a13.65,13.65,0,0,1-3.06-6.74,10.69,10.69,0,0,1,1.53-7.29,10.51,10.51,0,0,1,3.51-3.81,9.48,9.48,0,0,1,3.85-1.36,8,8,0,0,1,3.54.37,8.62,8.62,0,0,1,2.59,1.36,2.13,2.13,0,0,1,1,1.57Q250.5,35.85,249.14,36.12Zm11.92-20.91a18.65,18.65,0,0,0,5.42,2.28,14.06,14.06,0,0,0,5.55.31,7.62,7.62,0,0,0,4.33-2,4.9,4.9,0,0,0,1.57-3.1,3.64,3.64,0,0,0-1.12-2.86,4.92,4.92,0,0,0-3.68-1.26,12.67,12.67,0,0,0-3.06.41,16.1,16.1,0,0,0-3.17,1.16A18.22,18.22,0,0,0,264,11.9a10.22,10.22,0,0,0-2.21,2.21Z"/><path class="cls-1" d="M300.7,12.14q3.47-.48,6.44-.85t4.39-.72q1.09-.2,1.4.17a1.12,1.12,0,0,1,0,1.12,5.58,5.58,0,0,1-1,1.63,13.84,13.84,0,0,1-1.74,1.7,11.42,11.42,0,0,1-2,1.36,4.28,4.28,0,0,1-1.94.54h-9.4q-1.7,2.39-3.44,4.94t-3.1,4.6a33.64,33.64,0,0,0-2.66,4.8,37.11,37.11,0,0,0-1.81,4.73,17.53,17.53,0,0,0-.75,3.78q-.1,1.6.51,2a2.75,2.75,0,0,0,2.15.27A9.24,9.24,0,0,0,290.65,41,20.26,20.26,0,0,0,294,38.33a27.44,27.44,0,0,0,3.37-4,3.57,3.57,0,0,1,1.43-1.43,1.42,1.42,0,0,1,1.23-.1,1.09,1.09,0,0,1,.51,1,3.76,3.76,0,0,1-.65,1.94,32.6,32.6,0,0,1-3.71,5.14A29,29,0,0,1,291.81,45a21.68,21.68,0,0,1-4.67,2.69,12.06,12.06,0,0,1-4.63,1A4.87,4.87,0,0,1,278.67,47,7,7,0,0,1,277.31,42a25.52,25.52,0,0,1,2-8.14,59,59,0,0,1,6.33-11.34q.75-1.09,1.67-2.52t2-2.93H283q-.82,0-.85-.48a1.79,1.79,0,0,1,.38-1.09,4.07,4.07,0,0,1,1.19-1.12,3.51,3.51,0,0,1,1.67-.58,27.88,27.88,0,0,0,5.42-1.16q2.83-.88,4.6-1.63,1.5-.61,3.1-1.19a11.42,11.42,0,0,1,2.66-.68q1.06-.1,1.19.44T301,11.8Z"/><path class="cls-1" d="M315.28,34.62a18.81,18.81,0,0,1-5.28,3.3,25.54,25.54,0,0,1-6.23,1.8,3.75,3.75,0,0,0,1.4,2.28,5.23,5.23,0,0,0,2.28,1,8.84,8.84,0,0,0,4-.24A19.54,19.54,0,0,0,315.75,41a25.12,25.12,0,0,0,4.19-2.89,21.82,21.82,0,0,0,3.51-3.75,4.46,4.46,0,0,1,1.6-1.36,1.39,1.39,0,0,1,1.26-.07,1.08,1.08,0,0,1,.48,1,3.48,3.48,0,0,1-.75,1.84,36.52,36.52,0,0,1-4.5,5.31,31,31,0,0,1-5.11,4.05A24.56,24.56,0,0,1,311,47.73a17.88,17.88,0,0,1-5.55.92,10.45,10.45,0,0,1-5.31-1.26,7.7,7.7,0,0,1-3.2-3.41,9.79,9.79,0,0,1-.78-5.07,16.42,16.42,0,0,1,1.94-6.2,22.76,22.76,0,0,1,3-4.46,18,18,0,0,1,4-3.58,13.18,13.18,0,0,1,4.67-1.91,8.36,8.36,0,0,1,4.9.54,6.81,6.81,0,0,1,2.79,2.11,5.11,5.11,0,0,1,1,2.86,6.9,6.9,0,0,1-.72,3.24A9.53,9.53,0,0,1,315.28,34.62Zm-11.17,1.09a21.13,21.13,0,0,0,4.67-1.46A10.39,10.39,0,0,0,313,30.8q1.23-1.63.65-2.62a1.89,1.89,0,0,0-2-.82,6.93,6.93,0,0,0-3.41,1.8,14.18,14.18,0,0,0-3.51,5.18Z"/><path class="cls-1" d="M366.36,35.78A9.53,9.53,0,0,1,363.43,39a7.45,7.45,0,0,1-3.3,1.23A7.38,7.38,0,0,1,357,39.9a8.3,8.3,0,0,1-2.59-1.4A42.66,42.66,0,0,1,351,42.83a27.4,27.4,0,0,1-3.47,3.3,13.43,13.43,0,0,1-3.54,2,7.76,7.76,0,0,1-3.64.48,5.18,5.18,0,0,1-3.81-1.8A6.9,6.9,0,0,1,335.23,43a18.52,18.52,0,0,1-5.18,4.26,10.65,10.65,0,0,1-4.9,1.4q-3.27,0-4.19-2.32t.24-6.2A37.29,37.29,0,0,1,324,33a48,48,0,0,1,3.51-5.76q.82-1.16,1.46-1.91a6.4,6.4,0,0,1,1.33-1.19,5.06,5.06,0,0,1,1.43-.65q.75-.2,1.91-.41t2-.17a2.59,2.59,0,0,1,1.36.24.83.83,0,0,1,.41.89,4.46,4.46,0,0,1-.89,1.77q-3.61,5-5.48,8.24a30,30,0,0,0-2.49,5,3.47,3.47,0,0,0-.24,2.49,1.32,1.32,0,0,0,1.26.68,3.82,3.82,0,0,0,2.11-.61A8.25,8.25,0,0,0,333.53,40a18.8,18.8,0,0,0,1.7-2.42l1.7-2.86a37.85,37.85,0,0,1,1.87-3.88A37.41,37.41,0,0,1,341,27.26q.82-1.16,1.46-1.91a6.4,6.4,0,0,1,1.33-1.19,5.05,5.05,0,0,1,1.43-.65q.75-.2,1.91-.41c.73-.09,1.4-.15,2-.17a2.49,2.49,0,0,1,1.36.24.84.84,0,0,1,.38.89,4.46,4.46,0,0,1-.89,1.77A65.19,65.19,0,0,0,344.84,34,19.34,19.34,0,0,0,343,38.94a2.91,2.91,0,0,0,.34,2.49,2.58,2.58,0,0,0,1.46.82q1.7.34,3.64-1.63a27.34,27.34,0,0,0,3.85-5.18,8.46,8.46,0,0,1-.75-3.44,10,10,0,0,1,.54-3.3A10.32,10.32,0,0,1,354.88,24,4,4,0,0,1,358,22.73q1.4.24,1.91,2.15t-.78,5.38A24,24,0,0,1,358,32.88q-.68,1.33-1.43,2.49a4,4,0,0,0,1.67,1,5.48,5.48,0,0,0,2,.24,4.54,4.54,0,0,0,2-.61,4.7,4.7,0,0,0,1.63-1.63,3.56,3.56,0,0,1,1.43-1.43,1.42,1.42,0,0,1,1.23-.1,1.09,1.09,0,0,1,.51,1A3.74,3.74,0,0,1,366.36,35.78Z"/><path class="cls-1" d="M393.27,25.83q-.68,1.29-1.53,2.76L390,31.52l-1.63,2.83q-.78,1.36-1.4,2.38t-1.16,2.15a12.48,12.48,0,0,0-.82,1.91,2.61,2.61,0,0,0-.14,1.4q.13.55,1,.54A7.13,7.13,0,0,0,388.7,42a16,16,0,0,0,3.13-1.84,21.64,21.64,0,0,0,3-2.66,19.17,19.17,0,0,0,2.42-3.2,4,4,0,0,1,1.4-1.46,1.21,1.21,0,0,1,1.19-.1,1.25,1.25,0,0,1,.54,1.06,3.67,3.67,0,0,1-.54,1.94,20.92,20.92,0,0,1-3.37,4.39,42.08,42.08,0,0,1-4.67,4.15,31.59,31.59,0,0,1-4.87,3.1,9.37,9.37,0,0,1-4,1.23,7.2,7.2,0,0,1-3.81-1,3.72,3.72,0,0,1-1.77-3,16,16,0,0,1-3.54,2.76,9,9,0,0,1-4.63,1.19,6.71,6.71,0,0,1-4.43-1.46,7.15,7.15,0,0,1-2.38-3.85,11.39,11.39,0,0,1,.07-5.38,16.56,16.56,0,0,1,2.93-6.06,20.93,20.93,0,0,1,4.77-4.73,17.53,17.53,0,0,1,5.31-2.62,11.27,11.27,0,0,1,5.11-.31,7.81,7.81,0,0,1,4.22,2.21,14,14,0,0,1,1-1.53,3.75,3.75,0,0,1,1-.92,4.19,4.19,0,0,1,1.26-.51q.71-.17,1.74-.37t2-.2a3.26,3.26,0,0,1,1.5.17,1,1,0,0,1,.61.89A3.59,3.59,0,0,1,393.27,25.83ZM371.67,42.11q2.86,0,5.65-3A31.26,31.26,0,0,0,382.5,31a3.39,3.39,0,0,0-1.7-1.29,5.38,5.38,0,0,0-2.66-.17,9.68,9.68,0,0,0-3,1.06,14.18,14.18,0,0,0-3,2.15,13.84,13.84,0,0,0-2.45,3,7.58,7.58,0,0,0-.92,2.32,4.77,4.77,0,0,0,0,2,2.37,2.37,0,0,0,1,1.43A3.28,3.28,0,0,0,371.67,42.11Z"/><path class="cls-1" d="M406,24.4a6.81,6.81,0,0,0,2.49.31,4.54,4.54,0,0,0,1.87-.58,5.55,5.55,0,0,0,1.43-1.19,16,16,0,0,0,1.16-1.53,1.47,1.47,0,0,1,1.46-.68,2.53,2.53,0,0,1,1.5.85,3.86,3.86,0,0,1,.89,1.8,3,3,0,0,1-.37,2.18.2.2,0,0,0-.07.14q-.41.68-1.26,2.25t-1.8,3.27q-1,1.7-1.77,3.27t-1.16,2.25l-1.09,2.18a18.26,18.26,0,0,0-.85,1.94,2.37,2.37,0,0,0-.17,1.36q.14.51,1,.51A7,7,0,0,0,412.1,42a16.51,16.51,0,0,0,3.1-1.84,21.58,21.58,0,0,0,3-2.66,19.06,19.06,0,0,0,2.42-3.2,4,4,0,0,1,1.4-1.46,1.21,1.21,0,0,1,1.19-.1,1.24,1.24,0,0,1,.54,1.06,3.67,3.67,0,0,1-.54,1.94,24,24,0,0,1-3.2,4.39,34.71,34.71,0,0,1-4.43,4.15,28.39,28.39,0,0,1-4.84,3.1,10.07,10.07,0,0,1-4.43,1.23q-3.27,0-3.75-2.86t2.18-7.7q1.16-2,2.32-3.78t2.25-3.37a10.82,10.82,0,0,1-3.71,1.57,7.91,7.91,0,0,1-3.58,0,17.07,17.07,0,0,1-2.18,3.27,5.48,5.48,0,0,1-1.8,1.46,1.41,1.41,0,0,1-1.29.1,1,1,0,0,1-.37-1.06,4.31,4.31,0,0,1,.89-1.94q.54-.75,1.06-1.6t1-1.74A4.24,4.24,0,0,1,398,28.42a8.54,8.54,0,0,1,.24-3.1,11.25,11.25,0,0,1,1.33-3.1,12.5,12.5,0,0,1,2.08-2.59,6.88,6.88,0,0,1,2.42-1.53,3.11,3.11,0,0,1,2.35,0,1.42,1.42,0,0,1,1,1,3.91,3.91,0,0,1,0,1.53,9.13,9.13,0,0,1-.58,1.8Q406.34,23.45,406,24.4Z"/><path class="cls-1" d="M458.58,35.78a28.73,28.73,0,0,1-3.64,4.84,33.71,33.71,0,0,1-4.56,4.12,23.71,23.71,0,0,1-4.9,2.86,11.84,11.84,0,0,1-4.6,1.06A4.38,4.38,0,0,1,437.19,47a7.2,7.2,0,0,1-1.43-4.12,25.44,25.44,0,0,1-1.7,1.94,16.19,16.19,0,0,1-2.18,1.87,11.09,11.09,0,0,1-2.72,1.43,9.28,9.28,0,0,1-3.2.54,6.71,6.71,0,0,1-4.43-1.46,7.16,7.16,0,0,1-2.38-3.85,11.66,11.66,0,0,1,0-5.38,16.1,16.1,0,0,1,2.89-6.06,20.85,20.85,0,0,1,4.39-4.43,19.47,19.47,0,0,1,4.87-2.66,11.91,11.91,0,0,1,4.77-.75,8.63,8.63,0,0,1,4.16,1.29q.68-1.63,1.53-3.54t1.67-3.68l1.53-3.3q.71-1.53,1.12-2.49.68-1.5,1.12-2.42a7.47,7.47,0,0,1,.92-1.5,3.54,3.54,0,0,1,1.16-.92,11.11,11.11,0,0,1,1.91-.68l2.42-.65a7.13,7.13,0,0,1,2-.27,1.27,1.27,0,0,1,1.12.54q.31.51-.24,1.8l-1.23,2.66L453.44,15l-2.25,4.84q-1.19,2.55-2.25,4.9T447,29q-.92,2-1.4,3.06-.75,1.63-1.4,3.37a13.82,13.82,0,0,0-.82,3.2,4.33,4.33,0,0,0,.27,2.38,1.93,1.93,0,0,0,1.94.92,9.21,9.21,0,0,0,5.72-2.11,18.79,18.79,0,0,0,4.7-5.52,4,4,0,0,1,1.4-1.46,1.28,1.28,0,0,1,1.23-.1,1.22,1.22,0,0,1,.58,1.06A3.46,3.46,0,0,1,458.58,35.78Zm-30.11,6.33q2.86,0,5.11-3.24A49.93,49.93,0,0,0,438.22,30l-.68-.27a5.26,5.26,0,0,0-2.62-.17,9.7,9.7,0,0,0-3,1.06,14.16,14.16,0,0,0-3,2.15,13.79,13.79,0,0,0-2.45,3,7.6,7.6,0,0,0-.92,2.32,4.79,4.79,0,0,0,0,2,2.37,2.37,0,0,0,1,1.43A3.28,3.28,0,0,0,428.48,42.11Z"/><path class="cls-1" d="M470.36,23a23.65,23.65,0,0,1,2.49.1,3.93,3.93,0,0,1,1.36.34,1.17,1.17,0,0,1,.58.61,2.49,2.49,0,0,1,.14.85q0,1-.48,1.29a7,7,0,0,1-1,.48,2.13,2.13,0,0,0-1,.75,3.3,3.3,0,0,0-.27,2.11,31.19,31.19,0,0,1,0,6.5,20.37,20.37,0,0,1-1.43,5.69,12.9,12.9,0,0,0,2.93-1,20.66,20.66,0,0,0,2.93-1.63,17.35,17.35,0,0,0,2.66-2.18,13.44,13.44,0,0,0,2-2.59,4,4,0,0,1,1.4-1.46,1.21,1.21,0,0,1,1.19-.1,1.25,1.25,0,0,1,.54,1.06,3.46,3.46,0,0,1-.61,1.94,17.4,17.4,0,0,1-3.47,4.46,25,25,0,0,1-4.33,3.2,23.56,23.56,0,0,1-4.6,2.08,25.13,25.13,0,0,1-4.29,1,11.48,11.48,0,0,1-7,2.11,7.34,7.34,0,0,1-4.26-1.19,6.21,6.21,0,0,1-2.42-3.17,8.51,8.51,0,0,1-.14-4.56A13.82,13.82,0,0,1,456,34.35q2.25-3,3.71-5t2.49-3.27a13.76,13.76,0,0,1,1.8-1.91,4.93,4.93,0,0,1,1.63-.92,6.39,6.39,0,0,1,1.94-.27ZM462.53,42a6.53,6.53,0,0,0,1.74-3.24,21.09,21.09,0,0,0,.51-4q.07-2,0-3.88a8.67,8.67,0,0,1,.38-3q-.89,1-1.84,2.18-.82,1-1.77,2.21l-1.84,2.42a9.31,9.31,0,0,0-2.11,4.5,3.82,3.82,0,0,0,.61,2.76,2.59,2.59,0,0,0,2,1A3,3,0,0,0,462.53,42Z"/></g></g></svg>