<?xml version="1.0" encoding="utf-8"?>
<!-- Generator: Adobe Illustrator 21.0.0, SVG Export Plug-In . SVG Version: 6.00 Build 0)  -->
<svg version="1.1" id="Layer_1" xmlns="http://www.w3.org/2000/svg" xmlns:xlink="http://www.w3.org/1999/xlink" x="0px" y="0px"
	 viewBox="0 0 299.3 332.2" style="enable-background:new 0 0 299.3 332.2;" xml:space="preserve">
<g>
	<polygon style="fill:#FFCB05;" points="149.2,332.2 148.9,332.2 146.4,327.8 143.7,323.9 140.9,320.6 137.8,317.8 134.5,315.4 
		131.1,313.5 127.5,311.9 123.8,310.5 119.9,309.5 116,308.6 111.9,307.9 107.8,307.3 103.5,306.7 99.2,306.2 94.9,305.6 
		90.5,304.9 85.9,304.3 81.6,303.7 77.5,303.1 73.6,302.5 69.9,301.9 66.5,301.4 63.3,300.9 60.3,300.4 57.6,299.9 55.1,299.4 
		52.8,299 50.8,298.6 48.9,298.2 47.3,297.8 46,297.3 44.8,297 40.5,295.3 36.3,293.4 32.3,291.1 28.5,288.6 24.9,285.8 21.5,282.9 
		18.4,279.7 15.4,276.3 12.7,272.8 10.3,269.1 8.1,265.3 6.2,261.3 4.5,257.3 3.1,253.1 2,248.9 1.3,244.6 1,243 0.9,241.3 
		0.8,239.5 0.7,237.6 0.8,235.7 0.8,233.7 1,231.7 1.1,229.6 1.3,227.4 1.6,225.2 2,222.8 2.3,220.5 2.8,218.1 3.3,215.6 3.8,213 
		4.4,210.4 6.6,201.7 8.9,192.7 11.4,183.6 13.8,174.4 16,165.1 18.1,155.7 19.7,146.3 20.9,136.9 21.5,127.6 21.4,118.3 
		20.5,109.2 18.7,100.3 15.9,91.5 11.8,83.1 6.6,74.8 0,66.9 46.4,0 59.7,4.7 73.3,8.7 87.1,12 100.9,14.5 114.8,16.4 128.7,17.7 
		142.5,18.3 156.1,18.4 169.6,17.9 182.8,16.9 195.7,15.3 208.3,13.2 220.5,10.7 232.1,7.7 243.3,4.3 253.8,0.5 299.3,67.5 
		292.4,75.3 287.1,83.4 283.1,91.8 280.3,100.4 278.6,109.2 277.8,118.2 278,127.4 278.8,136.7 280.2,146.1 282.1,155.6 
		284.3,165.1 286.8,174.7 289.2,184.2 291.7,193.7 294.1,203 296.1,212.3 296.6,214.3 297,216.2 297.4,217.7 297.8,219.2 298,220.5 
		298.3,221.6 298.5,222.8 298.6,223.8 298.8,224.7 298.9,225.7 299,226.7 299,227.8 299.1,228.9 299.2,230.1 299.2,231.3 
		299.2,232.8 299.2,236 299,239.2 298.7,242.3 298.3,245.5 297.6,248.4 296.9,251.5 296,254.4 294.9,257.3 293.8,260.2 292.4,263 
		290.9,265.8 289.3,268.5 287.5,271.2 285.6,273.8 283.5,276.4 281.3,278.9 279.3,281 277.2,282.9 275.1,284.8 272.8,286.5 
		270.6,288.2 268.1,289.7 265.6,291.2 263,292.6 260.2,293.8 257.5,295 254.5,296.1 251.6,297 248.4,297.9 245.2,298.6 242,299.2 
		238.6,299.8 229,301.5 220.1,302.9 211.9,304.1 204.4,305.1 197.4,306.1 191,306.9 185.2,307.9 179.8,309 174.9,310.3 170.3,311.9 
		166.1,313.9 162.3,316.4 158.7,319.4 155.4,323 152.2,327.2 149.2,332.2 	"/>
	<polygon style="fill:#00783C;" points="179.7,294.4 182,294.1 184.2,293.7 186.3,293.4 188.3,293.1 190.1,292.8 191.9,292.6 
		193.7,292.4 195.4,292.1 197.1,291.9 198.8,291.7 200.5,291.5 202.2,291.3 203.9,291.1 205.7,290.8 207.5,290.6 209.5,290.3 
		210.2,290.2 211.6,290 213.7,289.7 216.2,289.3 219,288.8 222.2,288.3 225.7,287.8 229.2,287.2 232.8,286.6 236.2,286 239.6,285.4 
		242.7,284.9 245.5,284.3 247.9,283.8 249.7,283.4 250.9,283 255.2,281.2 259.1,279.1 262.8,276.8 266.2,274.1 269.3,271.4 
		272.1,268.3 274.7,265.2 277,261.9 279,258.4 280.7,254.8 282.1,251.1 283.3,247.4 284.1,243.7 284.7,239.9 285,236.2 285,232.4 
		284.8,230.8 284.6,228.8 284.2,226.3 283.6,223.3 283,219.9 282.2,216 281.2,211.6 280.2,206.8 279,201.5 277.6,195.7 276.1,189.5 
		274.5,182.8 272.8,175.7 270.9,168.1 268.9,160 266.7,151.5 265.4,146.1 264.4,140.6 263.7,135.1 263.3,129.7 263.1,124.3 
		263.2,118.8 263.6,113.4 264.3,108 265.3,102.7 266.7,97.4 268.3,92.2 270.4,87 272.6,81.9 275.3,76.8 278.4,71.9 281.8,67 
		247.5,17.2 236.8,21.1 225.5,24.4 213.5,27.1 201,29.3 188.1,30.8 175,31.8 161.7,32.3 148.4,32.3 135.1,31.8 121.9,30.9 
		108.9,29.5 96.4,27.7 84.2,25.5 72.7,23 61.8,20.1 51.6,16.9 17.2,67 18.3,68.4 19.7,70.3 21.1,72.6 22.7,75.2 24.3,78.2 
		25.9,81.5 27.6,85.1 29.1,89 30.6,93.1 32,97.5 33.2,101.9 34.2,106.6 35,111.5 35.5,116.5 35.8,121.5 35.7,126.6 35.6,128.8 
		35.4,130.8 35.3,132.6 35.2,134.3 35,135.9 34.8,137.5 34.6,139 34.4,140.5 34.2,142 33.8,143.6 33.5,145.3 33,147.2 32.6,149.2 
		32.1,151.4 31.5,153.8 30.8,156.5 29.8,160.4 28.9,164.3 28,168.1 27,171.9 26.1,175.7 25.2,179.5 24.3,183.2 23.5,186.9 
		22.6,190.5 21.7,194.2 20.9,197.8 20.1,201.4 19.3,205 18.5,208.5 17.7,212 16.9,215.4 16.3,218.3 15.7,221.1 15.2,223.9 
		14.7,226.8 14.4,229.6 14.1,232.5 14,235.5 14.1,238.4 14.3,241.4 14.8,244.5 15.5,247.6 16.5,250.9 17.7,254.1 19.3,257.5 
		21.1,261 23.3,264.5 24.2,265.9 25.4,267.4 26.7,268.9 28.2,270.5 29.8,272.1 31.6,273.7 33.5,275.3 35.6,277 37.9,278.5 
		40.2,279.9 42.8,281.3 45.4,282.6 48.3,283.7 51.3,284.7 54.4,285.5 57.6,286 62.8,286.9 67.9,287.6 72.7,288.4 77.2,289.1 
		81.6,289.7 85.7,290.3 89.7,290.9 93.4,291.5 96.9,291.9 100.2,292.4 103.2,292.9 106,293.2 108.7,293.6 111.1,293.9 113.3,294.2 
		115.2,294.4 117.1,294.6 119,294.9 120.8,295.3 122.7,295.6 124.6,296.1 126.5,296.5 128.5,297.2 130.5,297.9 132.5,298.7 
		134.6,299.7 136.8,300.9 139,302.1 141.3,303.6 143.6,305.2 146.1,307 148.6,309 150,307.5 151.5,306.1 153.1,304.8 154.9,303.5 
		156.6,302.3 158.5,301.3 160.5,300.2 162.5,299.3 164.6,298.5 166.7,297.8 168.8,297 171,296.4 173.2,295.8 175.4,295.3 
		177.6,294.8 179.7,294.4 	"/>
	<polygon style="fill:#FFCB05;" points="168.6,189 168.3,189.1 168.1,189.1 167.7,189 167.3,188.8 166.9,188.7 166.5,188.5 
		166,188.2 165.5,188 164.9,187.7 164.4,187.5 163.8,187.2 163.2,187 162.5,186.8 161.9,186.7 161.2,186.6 160.6,186.6 160.5,186.5 
		160.4,186.5 160.2,186.4 160.1,186.2 160,186 159.8,185.7 159.6,185.5 159.4,185.1 159.2,184.7 158.9,184.4 158.7,183.9 
		158.5,183.4 158.2,182.9 157.9,182.3 157.6,181.7 157.3,181 156.4,180.9 156.2,182.3 156,183.8 155.8,185.2 155.7,186.6 
		155.6,188.1 155.4,189.5 155.4,191 155.3,192.5 155.2,194 155.2,195.4 155.2,197 155.2,198.5 155.2,200 155.3,201.5 155.3,203.1 
		155.4,204.7 155.4,206.2 155.5,207.5 155.6,208.8 155.6,210 155.6,211 155.6,211.9 155.7,212.8 155.8,213.5 155.8,214.2 156,214.8 
		156.1,215.3 156.3,215.8 156.5,216.2 156.8,216.5 157.1,216.8 157.5,217 170.4,222.9 171.6,223.4 172.7,223.9 173.8,224.4 
		174.8,224.8 175.7,225.3 176.6,225.7 177.3,226.1 178,226.4 178.6,226.8 179.1,227.1 179.5,227.4 179.9,227.7 180.2,228 
		180.4,228.2 180.5,228.4 180.6,228.6 180.6,228.9 180.6,229 180.5,229.1 180.5,229.2 180.4,229.3 180.3,229.4 180.3,229.5 
		180.1,229.5 180,229.6 179.8,229.6 179.7,229.6 179.5,229.6 179.3,229.6 179,229.6 178.8,229.5 178.6,229.4 178.2,229.4 
		177.9,229.3 177.6,229.2 177.2,229.2 176.9,229.1 176.6,229.1 176.3,229.1 175.9,229 175.6,229 175.3,229 175.1,229 174.7,229 
		174.4,229 174.2,229.1 173.9,229.1 173.6,229.1 173.2,229.1 172.8,229.2 172.5,229.3 172.1,229.3 171.8,229.3 171.4,229.4 
		171,229.4 170.7,229.4 170.3,229.4 170,229.4 169.6,229.3 169.3,229.3 168.9,229.2 168.5,229.1 168.1,229 167.8,228.8 167.5,228.8 
		167.2,228.7 166.9,228.6 166.6,228.6 166.2,228.6 165.8,228.6 165.4,228.6 164.9,228.6 164.4,228.7 163.9,228.7 163.3,228.8 
		162.7,228.9 162.1,228.9 161.5,229 160.8,229.1 160.1,229.2 159.2,229.3 158.3,229.5 157.5,229.6 156.6,229.7 155.8,229.9 
		155,230.1 154.1,230.2 153.4,230.3 152.6,230.4 151.8,230.5 151.1,230.6 150.4,230.6 149.6,230.6 149,230.5 148.3,230.3 
		147.7,230.1 146.7,229.9 145.7,229.7 144.8,229.5 143.8,229.4 142.9,229.2 142,229.1 141.1,229 140.2,228.9 139.4,228.9 
		138.5,228.8 137.7,228.8 136.9,228.8 136.1,228.8 135.3,228.9 134.5,228.9 133.8,229 132.8,229.1 131.8,229.3 130.9,229.4 
		130,229.5 129.2,229.6 128.4,229.6 127.6,229.7 127,229.7 126.3,229.7 125.7,229.8 125.1,229.7 124.6,229.7 124.1,229.7 
		123.7,229.7 123.3,229.6 123,229.5 122.7,229.5 122.4,229.4 122.1,229.4 121.8,229.4 121.4,229.4 121.1,229.4 120.7,229.4 
		120.3,229.4 119.9,229.4 119.4,229.4 118.9,229.5 118.4,229.5 117.9,229.6 117.4,229.7 116.8,229.8 116.3,229.9 116.1,229.9 
		116,229.9 115.8,229.9 115.8,229.9 115.6,229.8 115.5,229.7 115.5,229.6 115.4,229.5 115.3,229.4 115.3,229.3 115.3,229.2 
		115.3,229.1 115.3,229 115.4,228.9 115.5,228.8 115.6,228.6 116,228.4 116.4,228.2 116.7,227.9 117,227.7 117.5,227.5 118,227.3 
		118.6,227 119.4,226.7 120.4,226.3 121.7,225.7 123.2,225.1 125.1,224.4 127.4,223.5 130.1,222.4 133.2,221.1 136.8,219.6 
		137.6,219.3 138.4,218.9 139,218.6 139.7,218.2 140.3,217.9 140.9,217.5 141.3,217.2 141.8,216.8 142.2,216.4 142.5,216.1 
		142.8,215.7 143,215.4 143.2,215 143.4,214.7 143.4,214.3 143.4,213.9 143.4,191.9 143.4,191.9 143.4,191.7 143.4,191.5 
		143.4,191.3 143.5,191 143.5,190.7 143.5,190.3 143.6,189.9 143.6,189.4 143.6,188.9 143.6,188.4 143.7,187.8 143.7,187.1 
		143.8,186.4 143.8,185.7 143.9,184.9 143.9,184.7 143.9,184.4 143.9,184.2 143.9,184 143.9,183.9 143.9,183.7 143.9,183.5 
		143.8,183.4 143.8,183.3 143.8,183.2 143.7,183.1 143.6,183 143.6,183 143.6,182.9 143.5,182.9 143.4,182.9 142.7,182.9 
		142.3,183.4 141.8,183.9 141.3,184.5 140.7,185 140.1,185.6 139.5,186.1 138.9,186.5 138.3,187 137.6,187.4 137,187.7 136.5,188 
		136.1,188.2 135.7,188.3 135.4,188.3 135.2,188.2 135.2,188 135.2,187.9 135.2,187.8 135.3,187.7 135.3,187.6 135.3,187.4 
		135.4,187.3 135.5,187.1 135.6,187 135.6,186.9 135.7,186.8 135.7,186.7 135.7,186.6 135.7,186.5 135.7,186.5 135.7,186.4 
		135.6,186.4 135.2,186.5 134.8,186.6 134.5,186.7 134.2,186.9 133.9,187 133.6,187.2 133.4,187.4 133.2,187.6 133,187.8 132.8,188 
		132.6,188.3 132.4,188.5 132.2,188.8 132,189 131.8,189.2 131.6,189.4 131.3,189.8 131,190 130.7,190.3 130.5,190.5 130.2,190.7 
		129.9,190.9 129.6,191.1 129.3,191.2 129,191.3 128.8,191.4 128.5,191.5 128.2,191.5 128,191.5 127.7,191.5 127.4,191.5 
		127.1,191.5 127,191.1 127,190.8 126.9,190.5 126.8,190.3 126.8,190.2 126.7,190.1 126.5,190 126.5,190 126.3,190 126.2,190 
		126.1,190.1 126,190.3 125.8,190.4 125.7,190.5 125.5,190.7 125.3,190.9 124.8,191.3 124.3,191.6 123.9,191.8 123.6,191.9 
		123.4,192 123.2,192 123,192 122.9,191.9 122.8,191.8 122.8,191.7 122.7,191.6 122.6,191.5 122.6,191.4 122.5,191.3 122.4,191.3 
		122.3,191.3 122.2,191.5 122.1,191.5 122.1,191.7 122,191.7 121.9,191.8 121.9,191.9 121.8,192 121.8,192 121.7,192.1 121.6,192.1 
		121.6,192.1 121.6,192.2 121.6,192.2 121.5,192.2 121.4,192.2 121.2,192.2 121,192.3 120.8,192.3 120.6,192.4 120.4,192.5 
		120.2,192.5 119.9,192.6 119.7,192.7 119.5,192.7 119.4,192.7 119.2,192.7 119,192.7 118.8,192.7 118.7,192.6 118.5,192.4 
		118.4,192.2 118.2,192 118.2,191.9 118,191.8 117.9,191.8 117.8,191.7 117.6,191.7 117.5,191.7 117.4,191.8 117.2,191.8 
		117.1,191.9 117,192 116.9,192 116.8,192.1 116.6,192.2 116.5,192.3 116.4,192.4 116.2,192.5 116.1,192.5 116,192.6 115.8,192.7 
		115.6,192.7 115.4,192.7 115.3,192.8 115.1,192.8 114.9,192.9 114.8,192.9 114.6,192.9 114.4,193 114.3,193 114.1,193 114,193 
		113.9,193 113.6,193.1 113.4,193.2 113.2,193.3 113,193.4 112.8,193.4 112.6,193.5 112.3,193.5 112.1,193.5 111.8,193.5 
		111.6,193.5 111.2,193.5 110.9,193.4 110.6,193.2 110.2,193.1 109.7,193 109.3,192.7 109.3,192.5 109.3,192.2 109.3,191.9 
		109.3,191.7 109.3,191.5 109.3,191.3 109.4,191.1 109.4,190.9 109.5,190.7 109.5,190.5 109.6,190.4 109.7,190.3 109.7,190.1 
		109.9,190 109.9,189.8 110.1,189.8 110.2,189.7 110.2,189.6 110.4,189.6 110.5,189.5 110.6,189.4 110.7,189.3 110.8,189.2 
		110.9,189.2 111,189.1 111.1,189 111.2,188.9 111.2,188.8 111.2,188.8 111.2,188.7 111.2,188.6 111.1,188.6 111,188.5 110.9,188.5 
		110.9,188.4 110.8,188.4 110.7,188.3 110.7,188.2 110.6,188.2 110.5,188.1 110.5,188 110.4,187.9 110.4,187.8 110.4,187.7 
		110.3,187.6 110.3,187.4 110.2,187.3 110.2,187.1 110.2,186.9 110.2,186.6 110.2,186.3 110.2,186 110.4,185.7 110.4,185.4 
		110.6,185.1 110.8,184.8 111,184.4 111.2,184.2 111.5,183.8 111.8,183.5 112.1,183.2 112.4,182.9 112.9,182.6 113.3,182.3 
		115.3,180.9 115.3,180.4 114.4,180.4 114.3,180.4 114.3,180.4 114.2,180.4 114.2,180.3 114.1,180.3 114.1,180.3 114.1,180.3 
		114.1,180.2 114.1,180.1 114.1,180 114.1,180 114.1,179.9 114.1,179.8 114.1,179.7 114.2,179.6 114.3,179.5 115,178.8 115.8,178.1 
		116.5,177.4 117.2,176.7 117.9,176 118.5,175.3 119.1,174.7 119.7,174 120.2,173.4 120.7,172.8 121.2,172.2 121.6,171.6 122,171 
		122.4,170.5 122.7,170 123,169.5 123,169.3 123,169.3 123,169.2 122.9,169.1 122.9,169 122.9,169 122.8,169 122.7,169 122.6,169 
		122.6,169 122.5,169 122.4,169 122.4,169.1 122.3,169.1 122.2,169.2 122.2,169.2 121.5,169.9 121.4,170 121.3,170.1 121.2,170.2 
		121.1,170.3 120.9,170.3 120.9,170.3 120.7,170.4 120.6,170.5 120.5,170.5 120.3,170.5 120.2,170.5 120.1,170.5 119.9,170.6 
		119.8,170.6 119.6,170.6 119.5,170.6 119.4,170.5 119.3,170.5 119.3,170.4 119.2,170.4 119.2,170.3 119.2,170.3 119.1,170.2 
		119.1,170.1 119.1,170.1 119.1,170.1 119.1,170 119.1,170 119.1,169.9 119.1,169.9 119.1,169.9 119.2,169.8 119.2,169.7 
		119.2,169.7 119.3,169.6 119.3,169.5 119.3,169.5 119.4,169.5 119.4,169.4 119.4,169.3 119.4,169.3 119.4,169.3 119.4,169.3 
		119.3,169.3 119.2,169.3 119.2,169.3 119,169.5 118.9,169.5 118.8,169.6 118.7,169.7 118.7,169.7 118.5,169.8 118.5,169.9 
		118.4,169.9 118.3,170 118.2,170 118.2,170.1 118.1,170.1 118,170.2 118,170.3 117.9,170.3 117.9,170.3 116.7,171.4 116.3,171.6 
		116,171.8 115.6,171.8 115.3,171.9 115.1,171.8 114.8,171.8 114.5,171.6 114.3,171.5 114.1,171.3 113.9,171.1 113.7,170.9 
		113.6,170.6 113.5,170.3 113.5,170.1 113.5,169.8 113.5,169.5 113.8,169.3 114.1,169 114.4,168.8 114.7,168.5 115,168.3 
		115.3,167.9 115.6,167.6 115.9,167.3 116.2,167 116.5,166.6 116.8,166.2 117.2,165.8 117.5,165.4 117.8,165 118.1,164.6 
		118.4,164.1 118.7,163.7 118.9,163.4 119.1,163.1 119.3,162.7 119.5,162.4 119.7,162.1 119.9,161.8 120.1,161.6 120.3,161.4 
		120.4,161.2 120.6,160.9 120.7,160.7 120.9,160.6 120.9,160.4 121.1,160.2 121.2,160.1 121.5,159.8 121.8,159.4 122.1,159.1 
		122.4,158.8 122.6,158.5 122.8,158.2 123,157.9 123.2,157.7 123.4,157.5 123.6,157.3 123.7,157.1 123.8,156.9 124,156.8 
		124.1,156.6 124.2,156.5 124.3,156.4 124.6,155.9 124.9,155.5 125.2,155.1 125.5,154.6 125.8,154.2 126.1,153.9 126.4,153.5 
		126.7,153.1 127,152.7 127.3,152.4 127.5,152.1 127.8,151.7 128,151.4 128.3,151.2 128.6,150.9 128.8,150.6 128.8,150.6 
		128.8,150.6 128.8,150.6 128.8,150.5 128.8,150.5 128.7,150.5 128.7,150.4 128.7,150.4 128.7,150.4 128.7,150.3 128.8,150.3 
		128.6,150.4 128.4,150.5 128.2,150.6 128,150.8 127.6,150.9 127.4,151.1 127,151.3 126.6,151.5 126.3,151.7 125.8,152 125.4,152.2 
		124.9,152.5 124.4,152.8 123.8,153.1 123.3,153.4 122.8,153.8 120.7,155 120.6,155 120.4,155.1 120.3,155 120.2,155 120.1,155 
		120,154.9 120,154.8 119.9,154.7 119.9,154.6 119.9,154.5 119.9,154.4 119.9,154.2 119.9,154.1 120,154 120.1,153.9 120.1,153.8 
		120.2,153.7 120.2,153.6 120.3,153.5 120.4,153.4 120.4,153.2 120.5,153.1 120.5,153 120.6,152.9 120.6,152.8 120.6,152.7 
		120.6,152.5 120.6,152.4 120.5,152.3 120.4,152.2 120.3,152.2 120.2,152.1 120.3,151.9 120.4,151.7 120.5,151.4 120.6,151.2 
		120.7,151 120.9,150.8 120.9,150.6 121.1,150.4 121.2,150.2 121.3,150 121.4,149.8 121.6,149.6 121.6,149.5 121.8,149.2 
		121.9,149.1 122.1,148.9 122.2,148.7 122.4,148.5 122.5,148.3 122.6,148.1 122.7,148 122.8,147.8 122.9,147.7 123,147.5 
		123.1,147.5 123.1,147.3 123.2,147.3 123.2,147.1 123.2,147.1 123.3,147 123.3,147 123.3,146.9 123.2,146.9 123,146.9 122.9,146.9 
		122.9,146.8 122.8,146.8 122.8,146.7 122.8,146.6 122.7,146.5 122.7,146.5 122.7,146.3 122.7,146.3 122.8,146.2 122.8,146.1 
		122.8,146.1 122.8,146.1 122.8,146 123,145.9 123.1,145.8 123.2,145.8 123.4,145.7 123.4,145.6 123.6,145.5 123.6,145.4 
		123.7,145.3 123.8,145.2 123.8,145.1 123.8,145 123.8,144.8 123.9,144.7 123.9,144.6 123.9,144.4 123.9,144.3 123.5,144.5 
		123.1,144.7 122.8,144.8 122.4,144.9 122.1,145 121.7,145.1 121.4,145.2 121.1,145.3 120.8,145.3 120.4,145.3 120.1,145.4 
		119.8,145.4 119.5,145.4 119.2,145.4 118.9,145.4 118.5,145.4 118.4,145.4 118.3,145.4 118.2,145.3 118,145.3 117.9,145.2 
		117.8,145.1 117.7,145.1 117.6,145 117.6,144.9 117.5,144.8 117.5,144.7 117.5,144.6 117.5,144.5 117.6,144.4 117.6,144.3 
		117.8,144.2 118.3,143.8 118.8,143.4 119.3,143 119.8,142.6 120.3,142.2 120.7,141.8 121.2,141.4 121.7,141 122.2,140.6 
		122.6,140.2 123,139.8 123.5,139.4 123.9,139 124.3,138.6 124.7,138.2 125.1,137.7 125.3,137.5 125.6,137.2 125.9,136.8 
		126.2,136.5 126.5,136 127,135.5 127.4,135 127.8,134.4 128.3,133.8 128.8,133.1 129.4,132.4 130,131.5 130.6,130.7 131.2,129.8 
		131.9,128.9 132.6,127.9 132.8,127.7 133,127.4 133.1,127.2 133.2,127 133.4,126.8 133.5,126.7 133.6,126.5 133.7,126.3 
		133.8,126.2 133.8,126.1 133.9,126 133.9,125.9 134,125.8 134,125.7 134,125.6 134,125.6 133.6,125.6 132.4,126.7 131.9,127.2 
		131.3,127.7 130.8,128 130.3,128.3 129.7,128.6 129.2,128.7 128.7,128.8 128.2,128.8 127.8,128.7 127.4,128.5 127.1,128.2 
		126.8,128 126.7,127.5 126.6,127 126.7,126.5 126.8,125.8 126.9,125.8 126.9,125.7 127,125.6 127.1,125.6 127.2,125.4 127.3,125.3 
		127.5,125.1 127.6,125 127.8,124.8 128,124.6 128.2,124.4 128.4,124.2 128.7,123.9 128.9,123.6 129.2,123.4 129.2,123.3 
		129.2,123.3 129.2,123.2 129.2,123.2 129.2,123.2 129.2,123.1 129.2,123.1 129.2,123.1 129.2,123 129.1,123 129.1,123 129.1,122.9 
		129,122.9 129,122.9 129,122.8 129,122.8 128.9,122.8 128.9,122.7 128.8,122.6 128.8,122.6 128.8,122.6 128.8,122.6 128.7,122.5 
		128.7,122.5 128.7,122.4 128.7,122.4 128.7,122.4 128.7,122.4 128.7,122.3 128.8,122.2 129,122 129.2,121.9 129.4,121.7 
		129.5,121.4 129.7,121.2 129.8,120.9 130,120.7 130.1,120.4 130.2,120.1 130.3,119.9 130.4,119.6 130.5,119.3 130.6,119 
		130.7,118.7 130.8,118.5 130.8,118.4 130.9,118.2 130.9,118.2 131,118.1 131.1,118 131.1,117.9 131.2,117.8 131.3,117.7 
		131.4,117.7 131.5,117.6 131.7,117.5 131.8,117.4 132,117.3 132.2,117.2 132.3,117.1 132.5,117 132.5,116.8 132.5,116.7 
		132.5,116.6 132.4,116.6 132.4,116.6 132.2,116.6 132.1,116.7 132,116.8 131.9,116.8 131.7,116.9 131.5,117 131.4,117 131.3,117 
		131.2,117 131.1,117 131,117 130.9,117 130.9,116.9 130.9,116.9 130.9,116.8 130.8,116.8 130.8,116.8 130.7,116.8 130.7,116.7 
		130.7,116.7 130.7,116.6 130.8,116.3 130.8,116.1 130.8,115.9 130.7,115.8 130.7,115.7 130.5,115.7 130.4,115.6 130.3,115.7 
		130.1,115.7 129.9,115.8 129.8,115.8 129.7,115.8 129.5,115.8 129.5,115.8 129.5,115.7 129.5,115.5 129.5,115.4 129.5,115.2 
		129.6,115 129.7,114.8 129.7,114.7 129.7,114.5 129.8,114.3 129.9,114.2 129.9,114.1 130,113.9 130,113.8 130.1,113.7 130.2,113.6 
		130.2,113.5 130.3,113.4 130.4,113.3 131.8,111.3 131.9,111.1 132,111 132.2,110.8 132.3,110.6 132.4,110.4 132.6,110.2 
		132.7,109.9 132.9,109.7 133,109.4 133.2,109.1 133.4,108.7 133.6,108.5 133.8,108.1 134,107.7 134.1,107.4 134.4,107 134.8,106.2 
		135.1,105.5 135.5,104.8 135.8,104.2 136.1,103.6 136.4,103.1 136.7,102.6 136.9,102.1 137.1,101.8 137.3,101.4 137.5,101.1 
		137.6,100.9 137.8,100.6 137.8,100.5 137.9,100.4 138,100.3 138.3,99.8 138.6,99.2 138.9,98.7 139.2,98.2 139.4,97.8 139.6,97.4 
		139.8,97 140,96.7 140.1,96.4 140.2,96.2 140.2,95.9 140.2,95.8 140.2,95.6 140.2,95.5 140.1,95.5 140,95.4 139.9,95.5 139.7,95.5 
		139.6,95.5 139.5,95.6 139.4,95.6 139.3,95.7 139.2,95.8 139.1,95.9 139,96 139,96.1 138.9,96.2 138.8,96.3 138.7,96.4 138.6,96.5 
		138.5,96.6 138.5,96.7 138.1,96.9 137.8,97.2 137.5,97.4 137.3,97.6 137,97.8 136.8,97.9 136.5,98.1 136.3,98.2 136.1,98.2 
		135.9,98.3 135.7,98.3 135.5,98.3 135.4,98.3 135.2,98.2 135.1,98.2 135,98.1 135.1,96.5 135.4,93.3 135.3,93.4 135.3,93.5 
		135.2,93.6 135.1,93.7 134.9,93.8 134.8,93.8 134.7,93.9 134.6,93.9 134.4,94 134.3,94 134.2,94 134.1,94 134,94 133.9,94 
		133.8,94 133.8,94 133.8,94 133.7,93.8 133.7,93.7 133.7,93.5 133.8,93.3 133.9,93.1 134,92.8 134.2,92.6 134.4,92.3 134.6,91.9 
		134.8,91.5 135.2,91.1 135.5,90.7 135.9,90.2 136.3,89.8 136.7,89.2 137,88.9 137.3,88.5 137.6,88.1 137.9,87.7 138.2,87.3 
		138.5,87 138.7,86.6 139,86.2 139.2,85.9 139.5,85.5 139.7,85.1 140,84.7 140.2,84.4 140.4,84 140.7,83.6 140.9,83.2 141.3,82.5 
		141.7,81.7 142,81 142.4,80.4 142.7,79.8 142.9,79.3 143.2,78.8 143.4,78.4 143.6,78 143.8,77.7 144,77.4 144.1,77.2 144.2,76.9 
		144.3,76.8 144.4,76.7 144.4,76.7 144.7,76.1 145,75.5 145.3,74.9 145.6,74.3 146,73.6 146.3,73 146.6,72.3 146.9,71.6 147.1,70.8 
		147.5,70.1 147.7,69.4 148,68.6 148.3,67.8 148.6,67.1 149,66.3 149.3,65.5 149.3,65.5 149.4,65.5 149.4,65.5 149.4,65.5 
		149.5,65.5 149.5,65.5 149.5,65.5 149.6,65.5 149.6,65.5 149.7,65.5 149.7,65.5 149.7,65.5 149.8,65.5 149.8,65.5 149.8,65.5 
		149.9,65.5 150.2,65.9 150.6,66.4 151,66.8 151.3,67.2 151.6,67.7 151.9,68.2 152.2,68.6 152.5,69.1 152.8,69.7 153.1,70.2 
		153.4,70.7 153.6,71.3 153.9,71.8 154.1,72.4 154.4,73 154.6,73.5 154.9,74.5 155.3,75.3 155.6,76.1 156,76.9 156.3,77.7 
		156.6,78.4 157,79.2 157.3,79.9 157.7,80.5 158,81.1 158.3,81.6 158.7,82.1 159,82.6 159.3,83.1 159.7,83.5 160,83.9 160.1,84 
		160.2,84.2 160.4,84.3 160.6,84.5 160.8,84.6 160.9,84.8 161.1,85 161.2,85.1 161.4,85.3 161.5,85.5 161.6,85.6 161.7,85.7 
		161.7,85.9 161.7,86 161.6,86.1 161.6,86.2 161.2,86.3 160.9,86.4 160.6,86.4 160.3,86.4 160,86.3 159.8,86.3 159.5,86.2 
		159.3,86.1 159,86 158.8,85.9 158.6,85.7 158.4,85.7 158.1,85.6 157.9,85.5 157.7,85.5 157.4,85.5 157.3,85.5 157.2,85.7 157.1,86 
		157.2,86.3 157.3,86.8 157.6,87.4 157.8,88.1 158.2,88.9 158.6,89.8 159.1,90.9 159.7,92 160.4,93.3 161.1,94.6 161.9,96 
		162.7,97.6 163.7,99.3 163.9,99.7 164.1,100.1 164.3,100.5 164.5,100.9 164.7,101.3 164.9,101.7 165.1,102.1 165.2,102.5 
		165.4,102.9 165.6,103.3 165.9,103.7 166.1,104.1 166.4,104.5 166.6,104.8 167,105.2 167.3,105.5 167.6,105.8 167.8,106.1 
		168.1,106.4 168.3,106.7 168.5,107 168.6,107.2 168.7,107.5 168.8,107.7 168.7,107.8 168.7,108 168.5,108 168.3,108.1 168,108 
		167.6,107.9 167.1,107.7 166.6,107.5 166.4,107.5 166.2,107.3 166,107.2 165.8,107.2 165.6,107.1 165.4,107 165.1,107 164.9,106.8 
		164.7,106.8 164.5,106.7 164.3,106.7 164.2,106.6 163.9,106.6 163.7,106.5 163.6,106.5 163.4,106.4 163.3,106.4 163.2,106.5 
		163.1,106.7 163.2,106.9 163.2,107.2 163.3,107.5 163.4,107.9 163.5,108.2 163.7,108.7 163.9,109.1 164.1,109.5 164.4,109.9 
		164.6,110.3 164.9,110.6 165.1,111 165.5,111.2 169.2,115.1 170.9,117.1 171,117.4 170.9,117.7 170.7,117.9 170.6,118 170.3,118.1 
		170,118.1 169.7,118.1 169.4,118 169,118 168.6,117.8 168.2,117.7 167.8,117.5 167.4,117.4 167.1,117.2 166.7,117 166.4,116.8 
		166.4,116.9 166.4,117 166.4,117.1 166.5,117.2 166.5,117.3 166.6,117.4 166.6,117.5 166.7,117.6 166.8,117.7 166.9,117.8 167,118 
		167.1,118.1 167.3,118.2 167.4,118.3 167.6,118.5 167.8,118.5 167.9,118.7 168.1,118.8 168.3,118.9 168.5,119 168.7,119.2 
		168.8,119.3 169,119.4 169.1,119.5 169.3,119.7 169.5,119.8 169.7,119.9 169.8,120.1 170,120.3 170.1,120.5 170.3,120.7 170.5,121 
		170.4,121.1 170.4,121.2 170.4,121.2 170.4,121.3 170.3,121.4 170.3,121.4 170.3,121.5 170.2,121.5 170.1,121.6 170,121.6 
		169.9,121.6 169.9,121.6 169.8,121.6 169.7,121.6 169.5,121.6 169.5,121.6 169.7,122 169.9,122.3 170.1,122.6 170.3,123 
		170.6,123.3 170.9,123.7 171.1,124.1 171.4,124.5 171.7,124.9 172,125.3 172.2,125.7 172.5,126.2 172.8,126.6 173.1,127.1 
		173.4,127.6 173.7,128 173.9,128.3 174.1,128.6 174.2,128.9 174.4,129.1 174.6,129.4 174.8,129.7 175,129.9 175.2,130.1 
		175.4,130.4 175.6,130.6 175.8,130.9 176,131.1 176.2,131.3 176.5,131.5 176.7,131.8 176.9,132 177.1,132.2 177.3,132.4 
		177.5,132.6 177.7,132.8 177.8,133 178,133.2 178.1,133.4 178.2,133.6 178.3,133.7 178.4,133.9 178.4,134 178.5,134.1 178.6,134.3 
		178.6,134.4 178.6,134.5 178.6,134.6 178.5,134.7 178.4,134.8 178.3,134.8 178.2,134.9 178.1,134.9 177.9,134.9 177.8,134.9 
		177.6,134.9 177.4,134.8 177.2,134.8 177,134.7 176.8,134.6 176.5,134.6 176.3,134.4 176,134.3 175.7,134.1 175.6,134.2 
		175.6,134.3 175.6,134.3 175.6,134.4 175.6,134.5 175.6,134.6 175.6,134.7 175.6,134.8 175.6,134.9 175.6,135.1 175.7,135.1 
		175.7,135.2 175.7,135.3 175.7,135.3 175.7,135.4 175.5,135.6 175.3,135.7 175.1,135.7 174.9,135.7 174.6,135.6 174.4,135.5 
		174.1,135.3 173.9,135.1 173.6,134.8 173.3,134.6 173,134.3 172.7,134 172.4,133.7 172.2,133.4 171.8,133.1 171.6,132.9 
		171.5,132.8 171.4,132.8 171.4,132.8 171.3,132.8 171.2,132.8 171.2,132.8 171.2,132.9 171.1,132.9 171.1,133 171,133 171,133.1 
		171,133.1 171,133.2 171,133.3 171,133.4 171.1,133.4 171.8,134.5 172.4,135.5 173,136.4 173.7,137.3 174.2,138.2 174.8,139 
		175.4,139.7 175.9,140.5 176.6,141.2 177.2,142 177.8,142.7 178.4,143.6 179.1,144.4 179.9,145.2 180.7,146.2 181.5,147.1 
		181.7,147.3 182,147.5 182.3,147.8 182.7,147.9 183.1,148.1 183.4,148.3 183.9,148.5 184.2,148.7 184.7,148.9 185,149.1 
		185.3,149.2 185.5,149.5 185.7,149.7 185.9,149.9 185.9,150.1 185.9,150.3 185.7,150.4 185.5,150.5 185.3,150.6 185.1,150.7 
		184.9,150.8 184.7,150.8 184.5,150.8 184.3,150.9 184.1,150.9 183.9,150.9 183.7,150.8 183.4,150.8 183.2,150.7 183,150.7 
		182.8,150.6 182.5,150.5 182.3,150.4 182.2,150.3 182,150.2 181.8,150.2 181.7,150.1 181.5,150 181.4,150 181.2,150 181.1,149.9 
		181,149.8 180.9,149.8 180.9,149.8 180.8,149.7 180.7,149.7 180.7,149.7 180.6,149.7 180.8,150.2 180.9,150.7 180.9,151.1 
		180.9,151.4 180.7,151.7 180.5,151.8 180.3,151.9 179.9,151.9 179.6,151.9 179.3,151.8 178.9,151.7 178.6,151.6 178.2,151.4 
		177.8,151.3 177.6,151.2 177.3,151 177.2,151 177.1,150.9 177,150.8 177,150.7 176.9,150.7 176.8,150.6 176.7,150.5 176.6,150.4 
		176.5,150.4 176.4,150.3 176.3,150.3 176.2,150.3 176.1,150.3 176,150.3 175.9,150.4 175.9,150.4 175.8,150.5 175.7,150.6 
		175.7,150.7 175.7,150.8 175.7,151 175.7,151.1 175.7,151.3 175.8,151.4 175.9,151.7 175.9,151.8 176.1,152 176.2,152.2 
		176.4,152.5 176.5,152.7 176.7,152.9 176.9,153.2 177.1,153.5 177.3,153.7 177.4,153.9 177.6,154.2 177.8,154.5 178,154.7 
		178.2,155 178.3,155.2 178.5,155.5 178.7,155.8 178.8,156 179,156.3 179.2,156.6 179.3,156.8 179.5,157.1 179.7,157.4 180.1,158.1 
		180.5,158.8 180.9,159.4 181.3,160 181.7,160.6 182.2,161.1 182.6,161.6 183,162.1 183.4,162.6 183.9,163 184.3,163.4 184.7,163.7 
		185.2,164 185.6,164.3 186,164.5 186.4,164.7 186.5,164.9 186.5,165.1 186.5,165.1 186.4,165.3 186.3,165.4 186.1,165.4 
		185.9,165.5 185.8,165.6 185.6,165.6 185.4,165.6 185.2,165.6 184.9,165.6 184.7,165.6 184.6,165.6 184.4,165.6 184.3,165.5 
		184.1,165.6 184,165.7 184.1,166 184.2,166.2 184.4,166.6 184.7,167 185.1,167.4 185.4,167.9 185.9,168.4 186.3,169 186.7,169.5 
		187.1,170 187.5,170.6 187.8,171.1 188.2,171.6 188.4,172.1 189.2,173.1 189.8,174 190.3,174.7 190.7,175.4 191,175.9 191.1,176.4 
		191.1,176.7 191,176.9 190.8,177 190.5,177.1 190.1,177 189.6,176.9 189,176.7 188.3,176.4 187.4,176 186.6,175.6 186.4,175.5 
		186.3,175.5 186.2,175.5 186.1,175.4 186,175.4 185.9,175.3 185.8,175.3 185.7,175.2 185.6,175.2 185.5,175.1 185.4,175.1 
		185.3,175.1 185.2,175 185.1,175 185,174.9 184.9,174.9 184.9,175 184.9,175.1 185,175.2 185.1,175.4 185.2,175.7 185.4,175.9 
		185.5,176.3 185.7,176.6 185.9,177 186.1,177.5 186.4,178 186.7,178.5 187,179 187.3,179.7 187.6,180.3 188,181 188.2,181.2 
		188.3,181.5 188.5,181.7 188.6,182 188.8,182.2 189,182.4 189.1,182.7 189.3,182.9 189.5,183.1 189.7,183.3 189.9,183.5 
		190.1,183.7 190.3,183.9 190.5,184.2 190.7,184.4 190.9,184.5 191.2,184.9 191.4,185.2 191.6,185.4 191.8,185.7 192,186 
		192.1,186.2 192.1,186.5 192.2,186.7 192.2,186.9 192.2,187.2 192.1,187.4 192,187.6 191.9,187.8 191.7,188.1 191.5,188.2 
		191.3,188.4 191.3,188.8 191.3,189 191.2,189.3 191.1,189.5 191,189.7 190.9,189.8 190.7,190 190.6,190.1 190.5,190.3 190.4,190.4 
		190.3,190.5 190.2,190.6 190.2,190.7 190.2,190.9 190.2,191 190.3,191.2 190.5,191.7 190.7,192.1 190.8,192.5 190.8,192.7 
		190.7,193 190.6,193.1 190.4,193.2 190.2,193.2 189.9,193.2 189.7,193.2 189.4,193.1 189.1,193 188.8,192.9 188.6,192.7 
		188.3,192.6 188.2,192.4 188,192.3 187.8,192.1 187.7,191.9 187.6,191.8 187.5,191.6 187.4,191.5 187.3,191.3 187.1,191.1 
		187.1,191 187,190.8 187,190.7 186.9,190.5 186.9,190.3 186.9,190.1 186.9,190 186.9,189.8 186.7,189.7 186.5,189.6 186.2,189.6 
		185.9,189.6 185.7,189.7 185.4,189.8 185.1,189.9 184.9,190 184.5,190.1 184.2,190.3 183.9,190.4 183.6,190.5 183.3,190.6 
		183,190.7 182.7,190.8 182.5,190.8 180.6,190.7 180.7,190.9 180.8,191 181,191.2 181.1,191.3 181.2,191.5 181.3,191.5 181.5,191.7 
		181.6,191.8 181.7,191.9 181.8,192 181.9,192.2 182,192.3 182,192.4 182,192.5 182,192.7 182,192.8 181.8,193 181.6,193.1 
		181.3,193.1 181,193.1 180.6,193 180.1,192.9 179.6,192.7 179.1,192.4 178.6,192.1 177.9,191.7 177.3,191.3 176.7,190.8 
		176.1,190.2 175.4,189.5 174.8,188.8 174.2,188 174,188.1 173.8,188.1 173.7,188.1 173.4,188.1 173.3,188.1 173.2,188.1 173,188.1 
		172.8,188.2 172.7,188.2 172.5,188.2 172.4,188.2 172.2,188.3 172.1,188.3 172,188.3 171.8,188.4 171.7,188.4 171.6,188.4 
		171.5,188.4 171.4,188.3 171.3,188.3 171.2,188.2 171.2,188.2 171.1,188.1 171,188 171,187.9 170.9,187.8 170.8,187.7 170.7,187.6 
		170.7,187.5 170.5,187.4 170.4,187.3 170.3,187.1 170.3,187.3 170.2,187.4 170.2,187.5 170.1,187.6 170,187.7 170,187.8 
		169.9,187.8 169.8,187.8 169.8,187.9 169.7,187.9 169.6,188 169.5,188 169.4,188 169.3,188 169.2,188 169.1,187.9 169,187.8 
		168.9,187.7 168.9,187.6 168.8,187.6 168.7,187.4 168.6,187.4 168.6,187.3 168.5,187.2 168.4,187.1 168.3,187.1 168.2,187 
		168.1,186.9 168.1,186.9 167.9,186.8 167.8,186.8 167.8,186.7 167.7,186.8 167.7,186.8 167.7,186.9 167.7,186.9 167.7,186.9 
		167.7,186.9 167.7,187 167.7,187 167.7,187.1 167.7,187.1 167.7,187.1 167.7,187.2 167.7,187.2 167.7,187.3 167.7,187.3 
		167.8,187.4 167.9,187.4 168.1,187.5 168.2,187.6 168.3,187.6 168.3,187.8 168.4,187.8 168.5,188 168.5,188.1 168.6,188.2 
		168.6,188.3 168.6,188.4 168.6,188.6 168.6,188.7 168.6,188.8 168.6,189 	"/>
	<polygon style="fill:#FFCB05;" points="111.8,109.6 107.4,109.6 107.3,109.6 107.2,109.6 107.2,109.7 107,109.7 106.9,109.8 
		106.7,109.9 106.5,109.9 106.3,110 106.2,110.2 106,110.3 105.8,110.4 105.7,110.5 105.6,110.7 105.5,110.8 105.4,111 105.4,111.1 
		105.4,181.7 105.4,182.2 105.4,182.7 105.3,183.2 105.3,183.7 105.2,184.2 105.1,184.8 105,185.4 104.9,185.9 104.8,186.5 
		104.5,187 104.4,187.6 104.2,188.2 104,188.8 103.8,189.4 103.6,190 103.3,190.6 102.6,192.2 101.9,193.7 101,195 100.2,196.4 
		99.2,197.6 98.1,198.7 97.1,199.8 95.9,200.8 94.7,201.7 93.4,202.5 92.1,203.1 90.6,203.8 89.2,204.4 87.6,204.8 86,205.2 
		84.3,205.4 79.9,205.9 75.9,205.9 72.2,205.4 68.9,204.6 65.8,203.5 63.1,202 60.7,200.3 58.6,198.4 56.7,196.4 55.2,194.3 
		53.8,192.1 52.8,189.9 52,187.7 51.4,185.6 51.1,183.6 51,181.8 50.8,112 50.8,111.9 50.8,111.8 50.8,111.6 50.7,111.5 50.6,111.4 
		50.6,111.3 50.6,111.1 50.5,111 50.4,110.9 50.3,110.8 50.3,110.7 50.2,110.7 50.1,110.6 50,110.6 50,110.5 49.9,110.5 48.4,110.5 
		48.3,110.5 48.3,110.5 48.3,110.5 48.2,110.4 48.2,110.4 48.1,110.4 48.1,110.4 48.1,110.4 48.1,110.4 48.1,110.3 48.1,110.2 
		48.1,110.2 48.1,110.2 48.1,110.1 48.1,110 48.1,103.3 69.1,102.8 69.6,103.3 69.6,109.9 67.4,110.7 67.4,110.7 67.3,110.8 
		67.2,110.9 67.1,110.9 67,111 67,111 66.9,111.1 66.9,111.1 66.9,111.2 66.8,111.2 66.8,111.3 66.8,111.4 66.7,111.4 66.7,111.5 
		66.7,111.6 66.7,111.6 66.7,178.8 66.9,182.1 67.7,185.1 69,187.7 70.6,189.9 72.6,191.8 74.8,193.3 77.2,194.4 79.7,195 
		82.3,195.2 84.8,195 87.3,194.2 89.6,193 91.7,191.2 93.5,188.8 95,185.9 96,182.5 96,182 96.1,181.5 96.2,180.9 96.2,180.1 
		96.3,179.3 96.4,178.4 96.4,177.3 96.5,176.1 96.5,174.9 96.5,173.5 96.5,172.1 96.6,170.5 96.6,168.8 96.6,167.1 96.6,165.1 
		96.6,163.2 96.6,113.9 96.6,113.4 96.6,112.9 96.5,112.5 96.5,112.1 96.4,111.8 96.3,111.4 96.2,111.2 96,110.9 95.9,110.7 
		95.8,110.5 95.6,110.3 95.4,110.2 95.2,110.1 95,109.9 94.8,109.9 94.5,109.9 90.2,109.9 90.2,103.7 90.2,103.7 90.2,103.6 
		90.2,103.6 90.2,103.5 90.2,103.4 90.2,103.3 90.2,103.3 90.2,103.2 90.2,103.2 90.2,103.1 90.2,103.1 90.2,103 90.2,103 
		90.2,102.9 90.3,102.9 90.3,102.8 111.5,102.2 111.5,102.2 111.6,102.3 111.6,102.3 111.6,102.3 111.6,102.3 111.6,102.3 
		111.6,102.4 111.7,102.4 111.7,102.5 111.7,102.5 111.7,102.5 111.8,102.6 111.8,102.6 111.8,102.6 111.8,109.6 	"/>
	<polygon style="fill:#FFCB05;" points="258.2,179.6 258,180.7 257.7,181.9 257.5,183 257,184.2 256.6,185.5 256,186.7 255.5,187.9 
		254.8,189.2 254.2,190.4 253.5,191.5 252.7,192.7 252,193.8 251.2,194.9 250.4,195.9 249.5,196.8 248.7,197.6 247.3,198.8 
		245.9,199.9 244.5,200.9 243.1,201.8 241.7,202.7 240.2,203.4 238.8,204 237.3,204.6 235.8,205.1 234.3,205.5 232.8,205.8 
		231.2,206 229.6,206.2 228,206.2 226.4,206.2 224.8,206 223.9,206 223,205.8 222.1,205.7 221.2,205.5 220.3,205.3 219.5,205.1 
		218.6,204.8 217.7,204.6 216.9,204.3 216,204 215.2,203.6 214.3,203.2 213.5,202.8 212.6,202.5 211.8,202 210.9,201.5 210.7,201.4 
		210.5,201.3 210.3,201.2 210.1,201 209.9,201 209.7,200.8 209.6,200.8 209.3,200.6 209.1,200.5 208.9,200.5 208.7,200.4 
		208.5,200.3 208.3,200.3 208.1,200.3 207.8,200.2 207.6,200.2 207.3,200.3 207.1,200.3 206.9,200.4 206.7,200.5 206.4,200.6 
		206.4,200.8 206.2,201 206.2,201.3 206.2,201.5 206.1,201.8 206.2,202.1 206.2,202.4 206.3,202.7 206.4,203.1 206.5,203.5 
		206.7,204 206.7,204 206.7,204.1 206.7,204.2 206.7,204.2 206.7,204.3 206.7,204.4 206.7,204.5 206.7,204.6 206.7,204.6 
		206.7,204.7 206.6,204.8 206.6,204.8 206.6,204.9 206.5,204.9 206.5,205 198.7,205 198.6,204.9 198.6,204.9 198.6,204.8 
		198.6,204.8 198.5,204.7 198.5,204.7 198.4,204.6 198.4,204.6 198.4,204.5 198.4,204.4 198.3,204.3 198.3,204.2 198.3,204.2 
		198.3,204.1 198.3,204 198.3,203.9 198.3,178.8 206.2,178.8 206.2,179.4 206.2,180 206.2,180.5 206.3,180.9 206.3,181.4 
		206.4,181.8 206.4,182.2 206.6,182.7 206.7,183.1 206.8,183.5 206.9,183.9 207,184.3 207.1,184.7 207.3,185.1 207.4,185.5 
		207.6,185.9 208.5,187.9 209.6,189.7 211,191.3 212.5,192.6 214.1,193.7 215.9,194.7 217.8,195.4 219.7,196 221.6,196.4 
		223.6,196.7 225.5,196.9 227.4,196.9 229.1,196.9 230.7,196.7 232.2,196.5 233.4,196.1 234.7,195.7 235.9,195 237.2,194.2 
		238.6,193.1 239.8,191.8 241,190.4 242.1,188.8 243,187.1 243.7,185.2 244.2,183.2 244.4,181.1 244.3,178.8 243.9,176.4 
		243.1,173.9 241.9,171.4 240.2,168.7 238.9,167.1 237.6,165.6 236.2,164.2 234.8,162.9 233.4,161.6 232,160.4 230.7,159.2 
		229.3,158.1 227.8,156.9 226.4,155.8 224.9,154.8 223.5,153.7 222,152.7 220.6,151.6 219.1,150.5 217.6,149.4 215.2,147.6 
		213.1,146 211.1,144.5 209.3,143 207.7,141.7 206.2,140.4 204.8,139.1 203.6,137.9 202.5,136.7 201.6,135.5 200.7,134.3 200,133.1 
		199.3,131.9 198.8,130.5 198.3,129.2 197.9,127.7 197.5,126 197.4,124.3 197.4,122.4 197.6,120.5 198.1,118.7 198.7,116.8 
		199.5,114.9 200.6,113.1 201.9,111.3 203.3,109.6 205.1,108 207,106.6 209.2,105.3 211.7,104.1 214.3,103.2 217.3,102.5 
		218.3,102.3 219.3,102.2 220.3,102.1 221.5,102.1 222.6,102.1 223.8,102.1 225,102.1 226.2,102.3 227.5,102.4 228.8,102.6 
		230.1,102.8 231.5,103.1 232.9,103.4 234.4,103.8 235.9,104.1 237.4,104.5 237.5,104.6 237.7,104.7 237.8,104.7 238,104.8 
		238.2,104.8 238.3,104.8 238.4,104.9 238.6,105 238.8,105 238.9,105 239.1,105.1 239.2,105.1 239.4,105.2 239.6,105.2 239.7,105.2 
		239.9,105.3 240,103.3 248.2,103.3 248.2,125.1 240.8,125.4 240.6,122.7 240.5,121.9 240.4,121 240.3,120.2 240.1,119.5 
		239.9,118.7 239.6,118 239.3,117.3 238.9,116.7 238.5,116 238,115.4 237.5,114.8 236.9,114.3 236.4,113.8 235.7,113.3 235,112.8 
		234.3,112.3 232.2,111.3 230.1,110.6 227.9,110.2 225.9,110.2 223.9,110.4 222,110.8 220.2,111.4 218.6,112.3 217.1,113.3 
		215.9,114.6 214.9,116 214.1,117.5 213.6,119.2 213.5,120.9 213.6,122.8 214.2,124.6 214.5,125.3 214.8,125.9 215.3,126.6 
		215.8,127.4 216.4,128.1 217.2,128.9 218,129.7 218.9,130.6 219.9,131.5 221,132.5 222.2,133.4 223.4,134.4 224.7,135.5 
		226.2,136.6 227.7,137.7 229.4,138.8 231.1,140 232.6,141.2 234.2,142.3 235.7,143.4 237.1,144.4 238.4,145.4 239.7,146.4 
		240.9,147.3 242,148.2 243.1,149 244,149.8 245,150.5 245.8,151.2 246.6,151.9 247.3,152.5 247.9,153.1 248.6,153.8 249.3,154.6 
		250,155.4 250.8,156.3 251.6,157.3 252.3,158.3 253.1,159.3 253.8,160.4 254.5,161.4 255.1,162.4 255.7,163.3 256.2,164.2 
		256.7,165.1 257,165.8 257.2,166.4 257.3,166.9 257.5,167.4 257.7,168 257.9,168.5 258.1,169 258.2,169.5 258.4,170.1 258.5,170.7 
		258.7,171.4 258.7,172.1 258.8,172.9 258.8,173.7 258.8,174.7 258.7,175.8 258.6,177 258.4,178.2 258.2,179.6 	"/>
	<polygon style="fill:#FFCB05;" points="250.6,244.1 250.7,243.9 250.9,243.6 251.1,243.4 251.3,243.1 251.4,242.8 251.6,242.6 
		251.8,242.3 251.9,242.1 252.1,241.8 252.2,241.6 252.3,241.3 252.5,241.1 252.6,240.9 252.7,240.6 252.8,240.4 252.9,240.2 
		253,240.4 253.1,240.5 253.2,240.6 253.3,240.8 253.4,240.9 253.6,241 253.7,241.1 253.8,241.3 254,241.3 254.1,241.5 254.3,241.6 
		254.4,241.6 254.6,241.7 254.8,241.8 254.9,241.9 255.1,241.9 264.4,245.5 265.7,246.1 266.9,246.5 268,246.7 268.9,246.7 
		269.7,246.6 270.4,246.4 270.9,246 271.2,245.6 271.4,245.1 271.4,244.6 271.2,244 270.9,243.5 270.4,243 269.7,242.6 268.7,242.1 
		267.7,241.8 256.2,239.2 256.1,239.2 256,239.1 255.8,239.1 255.7,239 255.6,239 255.5,239 255.4,238.9 255.2,238.9 255.1,238.9 
		254.9,238.9 254.8,238.9 254.5,238.9 254.3,238.9 254,239 253.8,239 253.4,239.1 254,234.3 254.1,234.5 254.3,234.5 254.4,234.7 
		254.6,234.7 254.8,234.8 255,234.9 255.2,234.9 255.4,235 255.6,235 255.8,235.1 256,235.1 256.1,235.1 256.2,235.2 256.4,235.2 
		256.5,235.2 256.6,235.2 259,235.8 260.2,236.1 261.3,236.4 262.4,236.6 263.4,236.9 264.3,237.1 265.2,237.3 266,237.6 
		266.8,237.7 267.5,237.9 268.2,238.1 268.8,238.2 269.3,238.4 269.7,238.6 270.2,238.7 270.5,238.8 270.8,238.9 272.5,239.6 
		273.9,240.6 274.9,241.7 275.6,242.8 276,244 276,245.3 275.8,246.5 275.4,247.6 274.7,248.6 273.7,249.5 272.6,250.2 271.2,250.6 
		269.6,250.9 267.9,250.8 266,250.3 264,249.5 262.5,248.9 261,248.4 259.7,247.8 258.4,247.2 257.2,246.7 256.2,246.3 255.2,245.9 
		254.2,245.5 253.4,245.2 252.7,244.8 252.1,244.6 251.5,244.4 251.1,244.3 250.9,244.2 250.6,244.1 250.6,244.1 	"/>
	<polygon style="fill:#FFCB05;" points="31.9,229.5 31.9,229.3 32,229.1 32,228.9 32.1,228.6 32.1,228.4 32.1,228.2 32.2,227.9 
		32.2,227.7 32.2,227.4 32.3,227.1 32.3,226.8 32.3,226.5 32.3,226.2 32.3,225.9 32.3,225.6 32.2,225.2 24.7,225.7 24.7,225.8 
		24.7,226 24.7,226.3 24.7,226.7 24.7,227.2 24.7,227.7 24.7,228.2 24.8,228.9 24.8,229.5 24.9,230.1 24.9,230.8 25,231.3 25.1,232 
		25.1,232.4 25.2,232.9 25.3,233.2 25.1,233.3 24.9,233.3 24.7,233.4 24.5,233.4 24.2,233.4 24,233.4 23.7,233.4 23.4,233.3 
		23.1,233.3 22.8,233.3 22.5,233.2 22.2,233.1 22,233 21.7,233 21.5,232.9 21.3,232.8 20.9,221.5 20.9,221.6 21,221.6 21.1,221.6 
		21.3,221.6 21.5,221.6 21.7,221.7 21.9,221.7 22.1,221.8 22.3,221.8 22.5,221.8 22.7,221.8 23,221.8 23.1,221.8 23.3,221.8 
		23.5,221.9 23.6,221.8 43.5,220.8 43.5,220.8 43.7,220.8 43.8,220.7 44,220.6 44.2,220.6 44.3,220.5 44.5,220.3 44.7,220.3 
		44.8,220.2 45,220.1 45.2,220 45.3,219.9 45.4,219.9 45.5,219.9 45.6,219.8 45.6,219.8 46.1,230.3 45.7,230.4 45.4,230.5 45,230.6 
		44.7,230.7 44.4,230.7 44.2,230.8 43.9,230.8 43.6,230.9 43.3,230.9 43.1,231 42.9,231 42.6,231.1 42.4,231.1 42.2,231.1 42,231.2 
		41.8,231.2 41.8,231.1 41.9,231.1 41.9,230.9 42,230.9 42,230.8 42,230.7 42.1,230.6 42.1,230.5 42.1,230.5 42.1,230.3 42.1,230.3 
		42.1,230.2 42.1,230.1 42.1,230.1 42.1,229.9 42.2,229.9 42.1,224.9 36.2,224.9 36.1,225.3 36.1,225.6 36.1,225.9 36.1,226.2 
		36.1,226.5 36.1,226.8 36.1,227 36.1,227.3 36.2,227.5 36.2,227.8 36.2,228 36.3,228.2 36.3,228.4 36.3,228.6 36.4,228.8 
		36.4,228.9 36.3,229 36.2,229 36.1,229 35.9,229 35.7,229.1 35.4,229.1 35.2,229.1 34.9,229.2 34.6,229.3 34.3,229.3 34,229.3 
		33.6,229.4 33.2,229.4 32.7,229.5 32.3,229.5 31.9,229.5 	"/>
	<polygon style="fill:#FFCB05;" points="262.3,214.2 262.3,213.9 262.2,213.5 262.1,213.2 262.1,213 262.1,212.7 262,212.5 
		262,212.3 261.9,212 261.9,211.8 261.9,211.5 261.9,211.3 261.8,211 261.8,210.8 261.8,210.5 261.8,210.2 261.9,209.9 262.2,209.8 
		262.6,209.6 262.9,209.5 263.2,209.4 263.5,209.3 263.8,209.3 264,209.2 264.2,209.2 264.5,209.2 264.7,209.1 264.9,209.2 
		265,209.2 265.3,209.2 265.5,209.2 265.7,209.3 265.9,209.3 265.8,209.6 265.8,209.9 265.7,210.2 265.6,210.5 265.6,210.8 
		265.5,211.1 265.5,211.4 265.5,211.7 265.5,212 265.5,212.3 265.5,212.6 265.6,212.9 265.6,213.2 265.7,213.5 265.8,213.9 
		266,214.2 266.4,214.2 266.9,214.2 267.5,214.2 268.1,214.1 268.7,214.1 269.3,214.1 269.9,214 270.6,214 271.2,213.9 271.8,213.9 
		272.3,213.8 272.8,213.7 273.3,213.6 273.7,213.5 274,213.4 274.3,213.3 274.2,212.7 274.1,212 274.1,211.5 274.1,210.9 274,210.4 
		273.9,209.9 273.9,209.5 273.8,209.1 273.7,208.7 273.7,208.4 273.6,208 273.6,207.7 273.5,207.5 273.5,207.3 273.4,207.1 
		273.3,206.9 273.5,206.9 273.7,206.9 273.9,206.9 274.2,206.9 274.5,207 274.7,207 275,207.1 275.4,207.1 275.7,207.2 276,207.3 
		276.4,207.3 276.7,207.4 277,207.5 277.3,207.6 277.5,207.8 277.8,207.9 277.7,218.9 277.6,218.7 277.4,218.5 277.2,218.4 
		277.1,218.2 277,218.1 276.8,217.9 276.7,217.9 276.6,217.7 276.4,217.6 276.2,217.6 276,217.5 275.9,217.4 275.7,217.4 
		275.5,217.3 275.2,217.3 275,217.2 257,218 256.8,218.1 256.6,218.1 256.4,218.1 256.2,218.2 256,218.2 255.8,218.3 255.6,218.4 
		255.4,218.5 255.2,218.6 255,218.7 254.8,218.9 254.6,218.9 254.5,219.1 254.3,219.2 254.1,219.4 254,219.5 253.3,206.8 
		253.6,206.8 253.8,206.7 254.1,206.7 254.4,206.6 254.7,206.5 255,206.4 255.3,206.4 255.7,206.3 256,206.2 256.3,206.2 
		256.7,206.2 257,206.1 257.3,206.1 257.6,206.1 257.9,206 258.1,206 258.1,206.2 258,206.3 257.9,206.4 257.9,206.5 257.8,206.7 
		257.7,206.7 257.7,206.9 257.7,206.9 257.6,207.1 257.6,207.1 257.5,207.2 257.5,207.3 257.5,207.4 257.4,207.5 257.4,207.6 
		257.4,207.7 257.3,208 257.2,208.3 257.2,208.6 257.1,209 257.1,209.3 257.1,209.7 257.1,210.1 257.2,210.5 257.2,210.9 
		257.3,211.3 257.3,211.7 257.4,212.2 257.5,212.7 257.7,213.1 257.8,213.7 257.9,214.2 262.3,214.2 	"/>
	<polygon style="fill:#FFCB05;" points="250.2,244.5 250.5,244.7 250.8,244.8 251,245 251.2,245 251.5,245.2 251.7,245.3 
		251.9,245.4 252.1,245.5 252.3,245.6 252.4,245.7 252.6,245.9 252.7,246 252.9,246.1 253.1,246.2 253.2,246.4 253.4,246.5 
		253.3,246.7 253.1,246.8 253,247 252.9,247.1 252.7,247.3 252.6,247.4 252.4,247.6 252.3,247.8 252.2,248 252.1,248.2 251.9,248.4 
		251.8,248.6 251.7,248.8 251.7,249 251.6,249.2 251.6,249.4 252.8,250.4 254,251.4 255.1,252.3 256.3,253.3 257.5,254.2 
		258.6,255.2 259.7,256 260.8,256.9 261.9,257.7 262.8,258.4 263.8,259.2 264.7,259.8 265.5,260.4 266.3,260.8 267,261.2 
		267.6,261.6 264.8,265.6 264.7,265.3 264.5,265 264.3,264.8 264.1,264.4 263.8,264.1 263.6,263.8 263.3,263.4 262.9,263.1 
		262.6,262.7 262.3,262.3 261.9,261.9 261.4,261.5 261,261.1 260.5,260.7 260,260.3 259.5,259.9 251.6,253.4 249.6,251.6 
		249.2,251.8 249,252.1 248.7,252.3 248.5,252.6 248.3,252.8 248.1,253.1 247.9,253.3 247.7,253.5 247.6,253.7 247.4,253.9 
		247.3,254.1 247.2,254.3 247.1,254.5 247,254.7 246.9,254.9 246.8,255 246.5,254.8 246.3,254.5 246.1,254.3 245.9,254 245.7,253.8 
		245.5,253.5 245.4,253.3 245.2,253.1 245,252.9 245,252.7 244.8,252.6 244.8,252.4 244.7,252.3 244.6,252.2 244.6,252.1 244.6,252 
		244.7,251.9 244.9,251.7 245.1,251.4 245.4,251.1 245.7,250.6 246,250.2 246.4,249.7 246.8,249.2 247.2,248.7 247.6,248.1 
		248.1,247.5 248.5,246.9 248.9,246.3 249.4,245.7 249.8,245.1 250.2,244.5 	"/>
	<polygon style="fill:#FFCB05;" points="249.4,268.4 242.8,257.3 242.7,257.2 242.6,257.1 242.5,257 242.3,256.8 242.2,256.7 
		242,256.5 241.8,256.3 241.6,256.1 241.4,256 241.2,255.8 241,255.6 240.8,255.4 240.6,255.3 240.4,255.2 240.1,255.1 240,255 
		240.2,254.8 240.4,254.6 240.6,254.4 240.9,254.2 241.1,254 241.4,253.8 241.7,253.5 241.9,253.3 242.2,253.1 242.5,252.9 
		242.8,252.7 243,252.6 243.3,252.4 243.5,252.3 243.7,252.1 244,252.1 244,252.3 244,252.5 244.1,252.7 244.2,252.9 244.3,253.1 
		244.4,253.4 244.5,253.7 244.6,254 244.8,254.2 244.9,254.5 245.1,254.8 245.2,255.1 245.5,255.5 245.7,255.8 245.9,256.1 
		246.1,256.5 254.1,269 258.3,266.1 258.4,266 258.5,266 258.6,265.9 258.7,265.8 258.7,265.7 258.8,265.6 258.9,265.5 259,265.4 
		259.1,265.3 259.2,265.1 259.3,265 259.4,264.8 259.4,264.6 259.5,264.5 259.6,264.3 259.7,264.1 259.9,264.3 260.2,264.6 
		260.4,264.8 260.6,265.1 260.7,265.4 260.9,265.6 261,265.9 261.1,266.2 261.2,266.4 261.3,266.7 261.4,267 261.4,267.2 
		261.5,267.5 261.5,267.8 261.5,268.1 261.5,268.3 260.5,269.1 259.6,269.9 258.7,270.6 257.9,271.2 257.2,271.8 256.5,272.3 
		255.8,272.8 255.2,273.3 254.7,273.6 254.2,274 253.8,274.3 253.4,274.5 253.1,274.7 252.9,274.8 252.7,274.9 252.5,274.9 
		249.4,268.4 	"/>
	<polygon style="fill:#FFCB05;" points="205.1,43.4 205.4,43.3 205.7,43.3 206.1,43.3 206.4,43.4 206.9,43.5 207.4,43.5 207.8,43.7 
		208.3,43.8 208.7,44 209.2,44.2 209.6,44.5 210,44.8 210.4,45.1 210.7,45.4 211,45.8 211.2,46.2 216.6,61.3 220.4,51.3 220.4,51.2 
		220.5,51.1 220.5,51 220.6,50.9 220.6,50.8 220.6,50.8 220.6,50.6 220.6,50.6 220.6,50.5 220.7,50.4 220.7,50.3 220.7,50.2 
		220.7,50.1 220.7,50 220.7,49.9 220.8,49.8 220.8,47.5 224.9,49.1 218.5,71.4 218.3,71.4 218.2,71.3 218,71.3 217.9,71.3 
		217.6,71.3 217.4,71.2 217.2,71.1 217,71.1 216.8,71.1 216.6,70.9 216.3,70.9 216.1,70.8 215.8,70.7 215.5,70.6 215.2,70.4 
		215,70.3 206.9,46.4 206.9,46.4 206.9,46.2 206.8,46.1 206.8,45.9 206.7,45.8 206.7,45.6 206.5,45.4 206.4,45.2 206.3,44.9 
		206.2,44.7 206,44.5 205.9,44.2 205.7,44 205.5,43.8 205.3,43.6 205.1,43.4 	"/>
	<polygon style="fill:#FFCB05;" points="86.7,283.9 81.6,283 81.7,282.9 81.8,282.7 81.9,282.6 82.1,282.4 82.2,282.3 82.3,282.1 
		82.4,282 82.5,281.8 82.6,281.6 82.6,281.4 82.7,281.3 82.8,281.1 82.8,280.9 82.8,280.7 82.9,280.6 82.9,280.4 83.9,272 
		79.1,282.2 77.2,271.1 76.1,279.4 76.1,279.6 76,279.8 76,280 76,280.2 76,280.3 76,280.5 76,280.7 76.1,280.9 76.1,281 
		76.1,281.2 76.2,281.4 76.2,281.6 76.3,281.7 76.3,281.9 76.4,282 76.5,282.1 71.5,281.4 71.6,281.3 71.7,281.1 71.8,281 
		71.9,280.9 72,280.7 72,280.5 72.1,280.4 72.2,280.2 72.2,280 72.2,279.8 72.3,279.6 72.3,279.4 72.3,279.2 72.4,279.1 72.4,278.9 
		72.4,278.7 72.5,278.5 72.6,278.1 72.6,277.7 72.7,277.2 72.8,276.7 72.9,276 73,275.2 73.2,274.3 73.4,273.4 73.5,272.3 
		73.8,271.1 74,269.8 74.2,268.4 74.4,266.9 74.7,265.3 74.9,263.5 75,262.9 75.1,262.4 75.1,261.9 75.2,261.5 75.2,261.1 
		75.2,260.7 75.2,260.3 75.2,260 75.1,259.7 75.1,259.4 75,259.2 75,258.9 74.9,258.7 74.8,258.5 74.7,258.3 74.7,258.1 79.1,259 
		80.5,269.3 84.7,259.8 89.8,260.3 89.7,260.4 89.6,260.6 89.5,260.8 89.4,260.9 89.3,261.1 89.2,261.3 89.1,261.4 89,261.6 
		88.9,261.8 88.8,261.9 88.7,262.1 88.7,262.3 88.6,262.4 88.6,262.6 88.5,262.7 88.5,262.8 87.5,272.5 87.3,273.7 87.2,274.9 
		87,276 86.9,277 86.9,278 86.7,278.9 86.7,279.7 86.7,280.4 86.6,281.1 86.6,281.8 86.5,282.3 86.5,282.8 86.5,283.1 86.6,283.5 
		86.6,283.7 86.7,283.9 	"/>
	<polygon style="fill:#FFCB05;" points="162.2,61.8 161.5,61.8 160.9,61.8 160.2,61.7 159.5,61.6 158.8,61.4 158.2,61.2 157.5,61 
		156.8,60.7 156.1,60.3 155.5,59.9 154.8,59.5 154.1,59.1 153.5,58.5 152.8,57.9 152.1,57.3 151.4,56.6 151.5,56.2 151.6,55.9 
		151.7,55.6 151.7,55.3 151.9,55 152,54.7 152.1,54.5 152.3,54.3 152.5,54.1 152.7,53.9 152.9,53.7 153.2,53.5 153.4,53.4 
		153.7,53.3 154,53.1 154.3,53.1 154.6,53 154.7,53.6 154.9,54.1 155.1,54.6 155.3,55.1 155.6,55.5 155.8,55.9 156.2,56.2 
		156.6,56.6 156.9,56.8 157.3,57.1 157.7,57.3 158.1,57.4 158.5,57.6 159,57.7 159.5,57.8 159.9,57.8 160.5,57.9 161.1,58 
		161.7,57.9 162.2,57.9 162.8,57.7 163.3,57.5 163.7,57.2 164.2,57 164.6,56.7 164.9,56.4 165.3,56 165.6,55.7 165.8,55.4 166,55.1 
		166.1,54.7 166.2,54.5 166.3,53.9 166.4,53.4 166.4,52.9 166.4,52.4 166.3,51.9 166.2,51.5 166,51.1 165.8,50.7 165.5,50.4 
		165.1,50.1 164.7,49.8 164.3,49.5 163.9,49.3 163.3,49.1 162.7,48.9 162.1,48.7 159.8,48.3 159.3,48.2 158.9,48.1 158.5,48 
		158,47.9 157.7,47.9 157.3,47.7 157,47.7 156.7,47.6 156.4,47.5 156.2,47.5 155.9,47.4 155.7,47.3 155.6,47.3 155.4,47.2 
		155.3,47.1 155.2,47.1 154.7,46.8 154.3,46.4 153.9,46.2 153.6,45.8 153.3,45.4 153,45.1 152.8,44.7 152.7,44.3 152.5,43.9 
		152.4,43.5 152.4,43 152.4,42.5 152.5,42.1 152.5,41.5 152.7,41 152.9,40.5 153.3,39.4 154,38.5 154.8,37.7 155.6,37.1 156.6,36.7 
		157.6,36.5 158.7,36.4 159.8,36.4 160.9,36.5 162,36.7 163.1,37 164.2,37.4 165.1,37.9 166,38.5 166.8,39.1 167.4,39.8 167.6,40 
		167.8,40.3 167.8,40.5 167.8,40.8 167.7,41 167.6,41.3 167.3,41.5 167.1,41.8 166.8,42 166.6,42.3 166.3,42.5 166,42.6 165.7,42.8 
		165.5,42.9 165.3,43 165.1,43.1 164.7,42.3 164.3,41.7 163.7,41.1 163,40.6 162.2,40.3 161.5,40.1 160.7,39.9 159.9,39.8 
		159.1,39.9 158.4,40 157.8,40.3 157.2,40.6 156.8,41 156.4,41.5 156.3,42.1 156.3,42.8 156.4,43 156.6,43.1 156.8,43.3 157,43.5 
		157.2,43.6 157.4,43.7 157.6,43.9 157.9,44 158.1,44.2 158.4,44.2 158.7,44.4 159,44.5 159.3,44.6 159.6,44.6 160,44.7 160.3,44.8 
		162.6,45.2 164.6,45.8 166.3,46.5 167.6,47.5 168.6,48.7 169.4,49.9 169.8,51.3 170,52.7 169.9,54.1 169.7,55.5 169.1,56.9 
		168.4,58.1 167.5,59.3 166.4,60.2 165.1,61 163.7,61.5 162.2,61.8 	"/>
	<polygon style="fill:#FFCB05;" points="118.2,64 117.5,64.1 116.8,64.1 116.1,64.1 115.5,64.1 114.8,64 114.1,63.9 113.3,63.7 
		112.6,63.5 112,63.2 111.2,62.8 110.5,62.5 109.8,62 109.1,61.6 108.4,61.1 107.7,60.6 106.9,59.9 106.9,59.5 106.9,59.2 107,58.9 
		107,58.6 107.1,58.4 107.2,58.1 107.4,57.8 107.5,57.6 107.7,57.3 107.9,57.1 108.1,56.9 108.3,56.7 108.6,56.5 108.8,56.4 
		109.1,56.2 109.4,56.1 109.7,56 109.9,56.6 110.1,57.2 110.3,57.6 110.6,58.1 110.9,58.5 111.2,58.8 111.6,59.1 111.9,59.4 
		112.4,59.6 112.8,59.8 113.2,60 113.6,60.1 114.1,60.2 114.5,60.3 115,60.3 115.5,60.3 116.1,60.3 116.7,60.3 117.2,60.2 
		117.8,60.1 118.3,59.8 118.7,59.6 119.2,59.3 119.6,59 120,58.6 120.3,58.3 120.6,57.9 120.8,57.6 121,57.2 121.2,56.9 121.3,56.6 
		121.4,56.3 121.4,55.7 121.4,55.2 121.4,54.7 121.3,54.2 121.2,53.7 121,53.3 120.8,53 120.5,52.6 120.2,52.3 119.8,52 119.4,51.8 
		119,51.6 118.5,51.4 117.9,51.3 117.3,51.2 116.7,51.1 114.3,50.8 113.8,50.8 113.4,50.8 112.9,50.7 112.6,50.6 112.2,50.6 
		111.8,50.6 111.5,50.5 111.2,50.5 110.9,50.4 110.6,50.4 110.4,50.3 110.2,50.3 110,50.2 109.9,50.2 109.7,50.2 109.6,50.1 
		109.1,49.8 108.7,49.6 108.3,49.3 107.9,49 107.6,48.7 107.2,48.3 107,48 106.8,47.6 106.6,47.2 106.5,46.8 106.4,46.3 106.4,45.8 
		106.4,45.4 106.4,44.9 106.5,44.3 106.6,43.7 107,42.7 107.5,41.7 108.2,40.8 109,40.2 109.9,39.7 110.9,39.3 112,39.1 113.1,38.9 
		114.2,38.9 115.3,39 116.5,39.2 117.5,39.6 118.5,39.9 119.5,40.4 120.3,41 121.1,41.5 121.3,41.8 121.4,42 121.5,42.3 121.5,42.5 
		121.4,42.8 121.3,43.1 121.2,43.3 120.9,43.6 120.7,43.9 120.4,44.1 120.2,44.4 119.9,44.6 119.7,44.7 119.4,44.9 119.2,45 
		119.1,45.1 118.7,44.4 118,43.7 117.4,43.3 116.7,42.9 116,42.6 115.1,42.5 114.3,42.4 113.6,42.4 112.8,42.5 112.1,42.7 111.5,43 
		111,43.4 110.6,43.9 110.3,44.4 110.2,45 110.3,45.7 110.4,45.8 110.6,46 110.8,46.2 111,46.3 111.2,46.4 111.4,46.5 111.7,46.7 
		112,46.7 112.2,46.9 112.5,46.9 112.8,47 113.1,47.1 113.4,47.1 113.8,47.2 114.1,47.2 114.5,47.3 116.8,47.5 118.8,47.8 
		120.6,48.4 122,49.2 123.1,50.3 124.1,51.4 124.6,52.8 124.9,54.1 125.1,55.6 124.9,57 124.5,58.4 123.9,59.7 123.1,60.9 122.1,62 
		120.9,62.9 119.7,63.6 118.2,64 	"/>
	<polygon style="fill:#FFCB05;" points="140.4,41.7 138.3,41.1 138,41.1 137.7,41 137.5,41 137.2,41 136.9,41 136.7,41.1 
		136.5,41.1 136.2,41.1 136,41.2 135.7,41.2 135.5,41.3 135.3,41.3 135,41.4 134.8,41.5 134.5,41.5 134.3,41.6 134.1,59.4 
		134.1,59.5 134.1,59.5 134.1,59.5 134.1,59.6 134.1,59.6 134.1,59.6 134.1,59.7 134.1,59.7 134.1,59.7 134.1,59.8 134.1,59.8 
		134.1,59.8 134.2,59.8 134.6,61 129.8,61.8 130.3,60.7 130.3,60.6 130.3,60.6 130.3,60.6 130.3,60.6 130.3,60.6 130.3,60.6 
		130.3,60.5 130.3,60.5 130.3,60.4 130.3,60.4 130.3,60.3 130.3,60.3 130.4,60.3 130.6,41.8 130.4,41.7 130.1,41.6 129.9,41.5 
		129.6,41.5 129.2,41.5 128.9,41.4 128.6,41.4 128.2,41.4 127.8,41.4 127.4,41.4 127,41.5 126.6,41.5 126.2,41.5 125.7,41.5 
		125.3,41.6 124.9,41.7 124.8,41.7 124.7,41.7 124.6,41.8 124.5,41.8 124.3,41.9 124.2,41.9 124.1,42 124,42 123.9,42.1 123.8,42.2 
		123.7,42.3 123.6,42.3 123.5,42.4 123.4,42.5 123.3,42.5 123.2,42.5 123.2,38.5 140.4,37.5 140.4,41.7 	"/>
	<polygon style="fill:#FFCB05;" points="238.3,279.2 237.8,279.2 237.4,279.1 237,278.9 236.7,278.7 236.3,278.6 236,278.3 
		235.7,278 235.4,277.8 235.1,277.4 234.8,277.1 234.5,276.7 234.3,276.3 234.1,275.8 233.9,275.3 233.7,274.8 233.6,274.3 
		233.4,273.9 233.3,273.4 233.2,273 233,272.5 233,272.1 232.8,271.6 232.7,271.1 232.6,270.7 232.5,270.2 232.4,269.8 232.3,269.3 
		232.2,268.9 232,268.4 232,268 231.8,267.5 231.8,267 231.6,266.2 231.3,265.4 231.2,264.7 231,264 230.9,263.3 230.7,262.8 
		230.6,262.2 230.5,261.7 230.4,261.3 230.3,261 230.2,260.6 230.1,260.4 230.1,260.2 230.1,260 230,259.9 230,259.8 229.9,259.7 
		229.9,259.6 229.8,259.5 229.8,259.4 229.7,259.3 229.7,259.2 229.7,259.1 229.6,258.9 229.6,258.9 229.5,258.7 229.4,258.6 
		229.3,258.5 229.2,258.3 229,258.2 228.8,258.1 228.6,257.9 233.1,256.5 233,256.7 233,256.9 233,257.1 233,257.2 233,257.4 
		233,257.6 233,257.7 233,257.9 233.1,258.1 233.1,258.2 233.2,258.4 233.2,258.5 233.3,258.7 233.3,258.9 233.3,259 233.4,259.2 
		233.6,260.1 233.8,261 234,261.9 234.3,262.6 234.5,263.4 234.6,264.1 234.8,264.9 235,265.7 235.2,266.5 235.4,267.4 235.7,268.3 
		235.9,269.3 236.3,270.4 236.7,271.5 237.1,272.8 237.6,274.2 237.8,274.5 238,274.7 238.2,274.9 238.5,275.1 238.9,275.3 
		239.2,275.3 239.6,275.4 239.9,275.3 240.3,275.3 240.6,275.1 240.8,274.9 241.1,274.6 241.3,274.2 241.3,273.7 241.4,273.1 
		241.3,272.4 241.3,272.2 241.1,271.8 240.9,271.1 240.7,270.2 240.3,269.1 240,268 239.6,266.7 239.1,265.4 238.7,264.1 
		238.4,262.9 238,261.7 237.6,260.7 237.3,259.8 237.1,259.1 236.9,258.6 236.8,258.4 236.7,258.3 236.6,258.2 236.5,258 
		236.5,257.9 236.4,257.7 236.3,257.6 236.3,257.5 236.2,257.3 236.1,257.2 236.1,257 236,256.9 235.8,256.7 235.7,256.6 
		235.5,256.4 235.3,256.2 235.1,256 239.2,254.8 240.1,257.4 240.9,259.7 241.6,261.8 242.3,263.7 242.8,265.4 243.3,266.9 
		243.7,268.2 244,269.4 244.3,270.4 244.5,271.4 244.7,272.1 244.8,272.8 244.9,273.3 245,273.9 245,274.3 244.9,274.6 244.8,275.4 
		244.5,276 244.2,276.6 243.8,277.2 243.5,277.6 243,278 242.6,278.3 242.1,278.6 241.6,278.9 241.1,279 240.5,279.2 240,279.2 
		239.5,279.3 239.1,279.3 238.7,279.3 238.3,279.2 	"/>
	<polygon style="fill:#FFCB05;" points="244.8,73.9 245.1,74 245.4,74.2 245.7,74.3 245.9,74.4 246.1,74.5 246.3,74.7 246.5,74.9 
		246.7,75 246.9,75.2 247,75.3 247.2,75.5 247.3,75.7 247.4,75.9 247.5,76.1 247.7,76.3 247.9,76.5 247.9,76.7 247.9,77.1 
		247.7,77.5 247.4,78 247,78.4 246.5,78.9 245.7,79.4 245,79.8 244.2,80.1 243.3,80.3 242.3,80.4 241.3,80.4 240.2,80.1 239.1,79.8 
		238,79.2 236.9,78.3 236.3,77.8 235.8,77.3 235.3,76.7 234.9,76.2 234.5,75.6 234.1,75 233.8,74.3 233.5,73.7 233.2,73 233,72.3 
		232.8,71.6 232.6,70.9 232.5,70.1 232.4,69.3 232.3,68.5 232.3,67.7 232.4,64.9 232.8,62.5 233.4,60.4 234.3,58.7 235.2,57.3 
		236.3,56.2 237.4,55.4 238.7,54.7 240,54.5 241.3,54.5 242.5,54.6 243.7,55 244.8,55.6 245.8,56.4 246.7,57.3 247.4,58.4 
		247.2,58.8 247,59.2 246.8,59.5 246.6,59.8 246.4,60.1 246.2,60.4 246,60.7 245.8,61 245.6,61.2 245.4,61.4 245.2,61.6 245,61.7 
		244.8,61.9 244.5,62 244.3,62.1 244.2,62.2 244,61.1 243.8,60.1 243.4,59.4 242.9,58.8 242.2,58.4 241.5,58.2 240.8,58.3 240,58.5 
		239.2,59 238.5,59.7 237.8,60.6 237.2,61.8 236.7,63.3 236.4,65 236.2,66.9 236.3,69.2 236.6,70.8 237,72.2 237.6,73.3 238.2,74.3 
		238.8,75 239.6,75.6 240.3,76 241,76.3 241.7,76.4 242.4,76.4 243.1,76.3 243.6,76.1 244.1,75.9 244.5,75.5 244.7,75.1 244.8,74.7 
		244.8,73.9 	"/>
	<polygon style="fill:#FFCB05;" points="105.5,262.2 107.7,262.5 107.7,262.5 107.8,262.5 107.9,262.6 107.9,262.6 108,262.6 
		108.1,262.6 108.2,262.6 108.3,262.6 108.3,262.7 108.5,262.7 108.5,262.7 108.6,262.7 108.7,262.7 108.8,262.8 108.9,262.8 
		109.1,262.8 114.7,278.9 115.2,264.5 115.2,264.4 115.2,264.3 115.2,264.2 115.2,264.1 115.2,264 115.2,263.9 115.2,263.8 
		115.1,263.7 115.1,263.6 115.1,263.6 115.1,263.5 115.1,263.3 115,263.3 115,263.2 114.9,263.1 114.9,263 116,263.1 116.2,263.2 
		116.5,263.2 116.7,263.2 116.9,263.3 117.1,263.3 117.3,263.3 117.5,263.3 117.7,263.3 117.9,263.4 118.1,263.4 118.2,263.5 
		118.5,263.6 118.7,263.7 118.8,263.8 119,263.9 119.2,264.1 118.8,266.4 118.7,268.8 118.5,270.8 118.5,272.7 118.3,274.5 
		118.2,276.2 118.1,277.8 118,279.2 118,280.6 117.8,281.8 117.8,283 117.7,284 117.6,284.9 117.5,285.7 117.4,286.3 117.4,287 
		117.3,287.4 117.2,287.8 116.8,287.8 116.4,287.8 116.1,287.8 115.8,287.7 115.5,287.7 115.3,287.6 115.1,287.6 114.8,287.6 
		114.7,287.5 114.5,287.4 114.3,287.4 114.1,287.3 114,287.2 113.8,287.1 113.7,287 113.5,286.9 112.3,284.2 112,283.4 111.7,282.6 
		111.4,281.9 111.2,281.1 110.9,280.5 110.7,279.9 110.4,279.3 110.2,278.7 110,278.2 109.8,277.7 109.6,277.2 109.4,276.8 
		109.3,276.4 109.1,276.1 109,275.8 108.9,275.5 108.2,286.5 107.9,286.5 107.6,286.5 107.3,286.5 107,286.5 106.7,286.5 
		106.4,286.5 106.1,286.5 105.8,286.4 105.5,286.4 105.3,286.3 105,286.3 104.7,286.3 104.5,286.2 104.2,286.1 104,286 103.8,285.9 
		103.9,285.9 104,285.7 104.1,285.5 104.2,285.2 104.3,284.9 104.4,284.5 104.5,284.1 104.6,283.6 104.7,283.1 104.8,282.6 
		104.9,282 105,281.4 105,280.8 105.1,280.1 105.2,279.4 105.3,278.7 105.4,276.9 105.5,275.3 105.7,273.7 105.8,272.3 105.9,271 
		106,269.8 106,268.7 106.1,267.7 106.1,266.8 106.1,266 106.2,265.3 106.2,264.7 106.1,264.1 106.1,263.7 106,263.4 106,263.1 
		106,263.1 106,263.1 106,263 106,262.9 106,262.9 106,262.8 105.9,262.7 105.9,262.7 105.8,262.6 105.8,262.6 105.8,262.5 
		105.7,262.5 105.7,262.4 105.6,262.3 105.6,262.3 105.5,262.2 	"/>
	<polygon style="fill:#FFCB05;" points="90.8,68 90.9,67.8 91.1,67.6 91.1,67.4 91.3,67.3 91.4,67.2 91.4,67 91.5,66.8 91.5,66.7 
		91.6,66.5 91.6,66.4 91.6,66.2 91.7,66.1 91.7,65.9 91.7,65.7 91.7,65.6 91.7,65.5 91.7,46.9 91.7,46.7 91.7,46.6 91.7,46.4 
		91.6,46.2 91.6,46 91.6,45.9 91.5,45.7 91.5,45.6 91.4,45.4 91.3,45.2 91.1,45.1 91.1,45 90.9,44.8 90.7,44.7 90.5,44.6 90.3,44.5 
		103.5,41.5 103.5,41.7 103.5,41.8 103.5,42 103.5,42.3 103.6,42.5 103.6,42.7 103.6,42.9 103.6,43.1 103.7,43.3 103.7,43.6 
		103.7,43.9 103.8,44.2 103.8,44.4 103.9,44.7 103.9,45 104,45.2 103.9,45.2 103.9,45.2 103.8,45.2 103.7,45.2 103.6,45.2 
		103.5,45.2 103.4,45.2 103.3,45.2 103.1,45.2 103,45.1 102.9,45.1 102.8,45.1 102.7,45.1 102.7,45.1 102.6,45.1 102.1,45.1 
		101.6,45.1 101.1,45.1 100.7,45.1 100.3,45.2 99.9,45.2 99.6,45.2 99.2,45.4 98.8,45.4 98.4,45.6 98,45.7 97.5,45.9 97,46.1 
		96.4,46.3 95.8,46.5 95.1,46.8 95.1,51 95.3,51 95.6,51 95.9,51 96.2,51 96.6,50.9 97,50.8 97.3,50.8 97.7,50.7 98.1,50.6 
		98.4,50.5 98.8,50.4 99.2,50.3 99.6,50.1 99.9,50 100.2,49.8 100.6,49.7 100.6,49.8 100.6,49.8 100.7,50 100.8,50.1 100.8,50.3 
		100.9,50.4 100.9,50.6 101,50.9 101.1,51.1 101.1,51.4 101.2,51.8 101.2,52.1 101.3,52.5 101.4,52.9 101.4,53.3 101.6,53.7 
		101,53.7 100.6,53.8 100.1,53.8 99.6,53.9 99.2,53.9 98.7,54 98.3,54.1 97.9,54.2 97.5,54.3 97.1,54.4 96.7,54.5 96.3,54.7 
		96,54.9 95.7,55 95.4,55.2 95.1,55.4 95.1,56.2 95.1,56.9 95.1,57.6 95.1,58.2 95.1,58.8 95.1,59.3 95.1,59.8 95.2,60.3 95.2,60.7 
		95.2,61.1 95.2,61.5 95.2,61.8 95.2,62.2 95.3,62.5 95.3,62.8 95.4,63.1 95.8,63 96.3,63 96.8,62.8 97.4,62.8 98,62.6 98.6,62.4 
		99.2,62.2 99.9,62 100.5,61.8 101.1,61.6 101.8,61.4 102.5,61.2 103.1,61.1 103.8,60.9 104.4,60.8 105.1,60.6 105.1,61.1 105,61.6 
		105,62 105,62.5 105,62.8 104.9,63.2 104.8,63.5 104.8,63.8 104.6,64.1 104.5,64.3 104.4,64.5 104.3,64.7 104.1,64.9 104,65 
		103.8,65.1 103.7,65.1 90.8,68 	"/>
	<polygon style="fill:#FFCB05;" points="187.6,59 185.9,63.3 185.2,63.3 184.4,63.1 183.6,63 182.8,62.9 182,62.8 181,62.6 
		180.1,62.4 179.3,62.3 178.4,62 177.5,61.9 176.6,61.7 175.7,61.5 174.9,61.3 174.2,61.1 173.4,60.9 172.8,60.7 173.6,58.4 
		173.6,58.4 173.7,58.4 173.7,58.3 173.7,58.3 173.7,58.3 173.7,58.2 173.7,58.2 173.7,58.1 173.7,58.1 173.7,58.1 173.7,58.1 
		173.7,58 173.7,57.9 173.7,57.9 173.7,57.9 174,41.5 174,41.5 174,41.4 174,41.3 174,41.2 174,41.1 173.9,41 173.9,40.9 
		173.9,40.8 173.9,40.8 173.9,40.7 173.9,40.6 173.9,40.5 173.9,40.4 173.8,40.3 173.8,40.3 173.8,40.2 173.1,38.4 173.6,38.5 
		174.3,38.5 175.1,38.6 175.9,38.6 177,38.8 178,38.8 179.1,39 180.3,39.1 181.3,39.3 182.5,39.4 183.5,39.6 184.4,39.8 185.4,39.9 
		186.1,40.1 186.7,40.3 187.2,40.4 187.6,44.3 184.4,43 183.9,43 183.4,42.9 182.9,42.9 182.3,42.8 181.8,42.7 181.3,42.7 
		180.8,42.6 180.3,42.6 179.8,42.5 179.3,42.5 178.9,42.5 178.6,42.5 178.3,42.5 178,42.6 177.8,42.7 177.7,42.7 177.7,47.1 
		178,47.1 178.3,47.2 178.6,47.3 178.8,47.3 179.2,47.4 179.5,47.4 179.8,47.4 180.1,47.5 180.5,47.5 180.8,47.5 181.2,47.5 
		181.5,47.5 181.9,47.5 182.2,47.4 182.6,47.4 183,47.3 182.9,51.1 182.5,51 182.2,51 181.8,50.9 181.5,50.8 181.1,50.8 180.8,50.7 
		180.5,50.6 180.1,50.6 179.8,50.6 179.5,50.5 179.3,50.4 179,50.4 178.7,50.4 178.4,50.4 178.1,50.4 177.8,50.4 177.8,50.9 
		177.8,51.4 177.7,51.8 177.7,52.3 177.6,52.8 177.6,53.2 177.6,53.7 177.6,54.1 177.6,54.6 177.6,55.1 177.7,55.6 177.7,56 
		177.7,56.5 177.8,57 177.8,57.4 177.8,57.9 178,58 178.2,58.1 178.4,58.1 178.7,58.2 178.9,58.3 179.2,58.4 179.5,58.4 179.8,58.5 
		180.1,58.6 180.5,58.7 180.8,58.7 181.2,58.8 181.6,58.9 182,59 182.5,59.1 183,59.1 183.2,59.2 183.5,59.2 183.8,59.2 184.1,59.2 
		184.4,59.2 184.7,59.2 184.9,59.2 185.2,59.2 185.5,59.2 185.8,59.1 186.1,59.1 186.4,59.1 186.6,59.1 186.9,59.1 187.2,59 
		187.6,59 	"/>
	<polygon style="fill:#FFCB05;" points="101.4,285.9 90,284.4 90.1,284.3 90.3,284.2 90.4,284.1 90.6,284 90.6,283.9 90.8,283.8 
		90.9,283.7 90.9,283.6 91,283.6 91.1,283.4 91.1,283.3 91.2,283.2 91.3,283 91.4,282.9 91.4,282.7 91.5,282.5 91.6,282.1 
		91.7,281.4 91.8,280.3 92,279 92.2,277.5 92.3,275.8 92.5,274.1 92.7,272.3 92.9,270.6 93.1,268.8 93.2,267.2 93.3,265.7 
		93.3,264.4 93.4,263.3 93.3,262.6 93.3,262.2 92.9,260.6 103.8,262.2 103.8,262.3 103.8,262.5 103.8,262.6 103.8,262.8 103.8,263 
		103.9,263.2 103.9,263.5 103.9,263.7 103.9,264 104,264.3 104,264.6 104.1,265 104.1,265.3 104.1,265.7 104.2,266.1 104.3,266.5 
		101.9,265.3 101.8,265.3 101.6,265.2 101.4,265.2 101.1,265.2 100.7,265.1 100.3,265 99.8,265 99.4,265 98.9,264.9 98.5,264.9 
		98.1,264.8 97.7,264.8 97.5,264.9 97.2,264.9 97.1,265 97,265 96.4,270.9 96.5,270.9 96.7,270.9 96.9,270.9 97.1,271 97.3,271 
		97.5,271 97.7,271.1 98,271.1 98.2,271.1 98.5,271.2 98.8,271.3 99.2,271.4 99.5,271.4 99.9,271.5 100.3,271.6 100.7,271.6 
		100.7,271.9 100.7,272.1 100.7,272.4 100.7,272.6 100.6,272.9 100.6,273.1 100.6,273.3 100.6,273.5 100.6,273.7 100.5,273.9 
		100.5,274.1 100.4,274.3 100.4,274.6 100.4,274.8 100.3,275 100.3,275.1 100,275.1 99.7,275 99.5,274.9 99.2,274.9 98.9,274.8 
		98.7,274.8 98.4,274.7 98.1,274.7 97.9,274.6 97.6,274.6 97.3,274.6 97.1,274.5 96.8,274.5 96.6,274.5 96.3,274.4 96.1,274.4 
		95.3,281.6 100.7,282.3 100.7,282.3 100.8,282.3 100.9,282.4 101,282.4 101,282.4 101.1,282.4 101.2,282.4 101.3,282.4 
		101.4,282.4 101.5,282.4 101.6,282.3 101.7,282.3 101.9,282.2 101.9,282.2 102.1,282.1 102.3,282 101.6,284.6 101.5,284.7 
		101.5,284.8 101.5,284.9 101.5,284.9 101.4,285.1 101.4,285.1 101.4,285.2 101.4,285.3 101.4,285.3 101.4,285.4 101.4,285.5 
		101.4,285.5 101.4,285.7 101.4,285.7 101.4,285.8 101.4,285.9 	"/>
	<polygon style="fill:#FFCB05;" points="228.1,274.2 228.3,274.3 228.5,274.3 228.8,274.5 229,274.6 229.2,274.7 229.4,274.8 
		229.7,274.9 229.9,275 230.1,275.2 230.3,275.3 230.5,275.5 230.8,275.6 231,275.8 231.2,276 231.4,276.2 231.7,276.3 231.6,277 
		231.6,277.6 231.4,278.2 231.1,278.8 230.9,279.3 230.6,279.7 230.3,280.2 229.9,280.5 229.6,280.9 229.2,281.2 228.8,281.4 
		228.4,281.7 228.1,281.9 227.7,282 227.4,282.1 227.2,282.2 226.8,282.2 226.3,282.2 225.7,282.2 225,282 224.3,281.7 223.5,281.4 
		222.8,280.8 222,280.1 221.2,279.3 220.4,278.3 219.7,277 219.1,275.6 218.5,274 218,272 217.6,269.9 217.4,267.4 217.3,265.3 
		217.4,263.5 217.8,262 218.3,260.8 218.9,259.9 219.6,259.2 220.4,258.7 221.3,258.4 222.2,258.3 223.1,258.3 224,258.5 
		224.9,258.7 225.7,259.1 226.4,259.4 227,259.8 227.5,260.2 227.5,260.3 227.5,260.4 227.5,260.4 227.5,260.4 227.5,260.5 
		227.5,260.6 227.5,260.6 227.5,260.6 227.5,260.7 227.5,260.7 227.5,260.8 227.5,260.8 227.5,260.8 225.8,264.3 225.7,263.8 
		225.7,263.4 225.5,263.1 225.4,262.7 225.2,262.5 225,262.3 224.7,262.1 224.5,261.9 224.2,261.9 223.9,261.8 223.6,261.7 
		223.3,261.7 223.1,261.7 222.8,261.7 222.6,261.7 222.4,261.7 221.8,262.1 221.3,262.7 221,263.6 220.7,264.7 220.6,266 
		220.6,267.3 220.8,268.8 221.1,270.3 221.4,271.8 221.9,273.3 222.5,274.6 223.2,275.8 224,276.9 224.9,277.7 225.8,278.2 
		226.9,278.5 227,278.5 227.2,278.4 227.3,278.3 227.4,278.2 227.6,278.2 227.7,278 227.8,277.9 227.9,277.8 227.9,277.6 228,277.5 
		228,277.2 228.1,277 228.1,276.8 228.1,276.6 228.1,276.3 228.1,276 228.1,274.2 	"/>
	<polygon style="fill:#FFCB05;" points="37.6,92.1 37.6,92.1 37.7,92 37.7,91.9 37.8,91.7 37.9,91.6 37.9,91.5 37.9,91.4 38,91.3 
		38.1,91.1 38.1,91 38.1,90.9 38.1,90.7 38.2,90.6 38.2,90.4 38.2,90.3 38.3,90.1 38.4,66.4 38.4,66.3 38.4,66.2 38.3,65.9 
		38.2,65.8 38.2,65.7 38.1,65.5 38,65.4 37.9,65.3 37.9,65.2 37.7,65 37.6,64.9 37.5,64.9 37.4,64.8 37.2,64.7 37.1,64.7 36.9,64.6 
		37.6,64.2 38.4,63.9 39,63.5 39.6,63.2 40.3,62.8 40.8,62.6 41.4,62.3 41.9,62 42.4,61.8 42.9,61.6 43.3,61.3 43.7,61.1 44.2,60.9 
		44.7,60.7 45.1,60.5 45.5,60.3 45.8,60.1 46,60 46.3,59.9 46.7,59.7 46.9,59.6 47.3,59.5 47.6,59.3 47.9,59.2 48.1,59.1 48.5,58.9 
		48.8,58.7 49.1,58.6 49.4,58.4 49.7,58.3 50,58.1 50.2,57.9 50.3,62 50.1,62 49.8,62 49.5,62 49.2,62.1 48.9,62.3 48.6,62.4 
		48.2,62.6 47.7,62.8 47.3,63.1 46.8,63.4 46.2,63.8 45.6,64.1 44.8,64.5 44.1,64.9 43.2,65.3 42.3,65.8 42.2,66.1 42.1,66.4 
		42,66.7 42,67 41.9,67.2 41.9,67.5 41.8,67.8 41.8,68.2 41.8,68.4 41.7,68.8 41.7,69.1 41.7,69.5 41.7,69.9 41.7,70.2 41.7,70.6 
		41.7,71.1 42.1,70.9 42.5,70.7 42.8,70.6 43.2,70.4 43.5,70.3 43.8,70.1 44.2,70 44.4,69.9 44.7,69.8 44.9,69.7 45.1,69.6 
		45.3,69.6 45.4,69.5 45.6,69.5 45.6,69.4 45.7,69.4 47.7,68.3 47.8,68.6 47.9,68.9 47.9,69.1 48,69.4 48.1,69.6 48.1,69.9 
		48.2,70.1 48.2,70.3 48.3,70.6 48.3,70.8 48.3,71.1 48.3,71.3 48.3,71.5 48.3,71.7 48.3,71.9 48.3,72.1 47.9,72.2 47.5,72.3 
		47.1,72.4 46.7,72.5 46.4,72.6 45.9,72.7 45.6,72.8 45.2,73 44.7,73.2 44.4,73.3 44,73.5 43.5,73.7 43.1,73.9 42.7,74.1 42.3,74.4 
		41.9,74.6 41.9,87.5 41.9,87.7 41.9,87.7 41.9,87.8 41.9,87.9 41.9,88 41.9,88.1 41.9,88.2 42,88.2 42,88.3 42,88.4 42.1,88.4 
		42.2,88.5 42.3,88.6 42.3,88.7 42.4,88.7 42.5,88.7 37.6,92.1 	"/>
	<polygon style="fill:#FFCB05;" points="258.9,72.6 258.5,76.5 258.2,76.3 258,76.1 257.7,76 257.5,75.7 257.2,75.6 256.9,75.4 
		256.6,75.2 256.2,75 256,74.9 255.6,74.7 255.3,74.5 254.9,74.3 254.5,74.1 254.2,74 253.8,73.8 253.3,73.6 253.3,78.8 253.3,79.3 
		253.3,79.8 253.3,80.2 253.4,80.6 253.5,81 253.5,81.3 253.6,81.7 253.7,82 253.8,82.3 253.9,82.6 254,82.8 254.1,83 254.3,83.1 
		254.4,83.3 254.6,83.4 254.8,83.5 259.7,85.7 259.7,85.8 259.7,85.8 259.8,85.8 259.8,85.7 259.9,85.7 260,85.7 260.1,85.7 
		260.2,85.7 260.3,85.6 260.4,85.6 260.6,85.5 260.7,85.5 260.8,85.4 261,85.3 261.1,85.2 261.4,85.1 260.8,90.6 260.3,90.4 
		259.7,90.1 259.2,89.8 258.5,89.4 257.9,89.1 257.2,88.7 256.5,88.3 255.7,87.9 255,87.5 254.1,87 253.3,86.5 252.3,86.1 
		251.4,85.5 250.4,85 249.4,84.5 248.4,83.9 248.6,83.8 248.7,83.6 248.8,83.4 249,83.3 249.1,83.1 249.2,83 249.2,82.9 249.3,82.8 
		249.4,82.7 249.4,82.6 249.4,82.5 249.4,82.4 249.5,82.3 249.5,82.2 249.5,82.1 249.5,82.1 249.5,61 249.5,60.8 249.5,60.7 
		249.4,60.6 249.4,60.4 249.4,60.3 249.3,60.1 249.3,60 249.2,59.9 249.1,59.7 249,59.5 248.9,59.4 248.9,59.2 248.8,59 248.6,58.7 
		248.5,58.5 248.4,58.2 248.5,58.3 248.7,58.3 248.9,58.4 249.2,58.5 249.6,58.7 250,58.9 250.5,59.1 251.1,59.3 251.7,59.6 
		252.3,59.9 253.1,60.3 253.8,60.7 254.7,61.1 255.6,61.6 256.6,62 257.7,62.5 258.1,62.8 258.6,63.1 259,63.3 259.4,63.6 
		259.8,63.9 260.2,64.2 260.5,64.5 260.8,64.8 261,65.1 261.2,65.5 261.4,65.7 261.6,66.1 261.7,66.4 261.8,66.8 261.9,67.2 
		261.9,67.5 261.6,69.4 261.2,69.1 260.8,68.9 260.4,68.6 260,68.3 259.5,68 259.1,67.7 258.6,67.4 258.1,67.2 257.7,66.8 
		257.1,66.6 256.6,66.3 256,65.9 255.5,65.7 254.8,65.4 254.2,65.1 253.6,64.9 253.8,70.1 254.1,70.4 254.5,70.7 254.8,70.9 
		255.2,71.1 255.5,71.3 255.8,71.4 256.2,71.6 256.5,71.7 256.8,71.8 257.1,72 257.5,72.1 257.7,72.2 258.1,72.3 258.4,72.4 
		258.7,72.5 258.9,72.6 	"/>
	<polygon style="fill:#FFCB05;" points="196,272.6 196.6,282.4 196.6,282.7 196.5,283.1 196.3,283.5 196.1,283.8 195.8,284.3 
		195.4,284.7 195,285.1 194.6,285.5 194.2,285.9 193.7,286.2 193.2,286.5 192.6,286.8 192,287 191.5,287.1 190.9,287.2 190.3,287.2 
		189.2,287 188.2,286.5 187.4,285.8 186.5,285 185.8,284 185.2,282.9 184.7,281.6 184.2,280.2 183.9,278.9 183.6,277.4 183.4,275.9 
		183.3,274.4 183.2,272.9 183.2,271.6 183.2,270.2 183.4,268.9 183.6,267.5 183.9,266.3 184.3,265.2 184.8,264.3 185.3,263.6 
		185.9,262.9 186.5,262.5 187.2,262.1 187.8,261.9 188.5,261.7 189.2,261.6 189.8,261.6 190.5,261.7 191,261.9 191.5,262.1 
		192,262.3 192.6,262.6 193.1,263 193.5,263.3 193.9,263.7 194.1,264.1 194.3,264.5 194.4,264.9 194.4,265.3 194.4,265.8 
		194.3,266.2 194.1,266.7 193.9,267.2 193.5,267.7 193.1,268.3 192.6,268.9 192.1,269.6 191.9,269.2 191.8,268.8 191.7,268.4 
		191.6,268.1 191.5,267.7 191.3,267.5 191.3,267.2 191.1,266.9 191,266.7 190.9,266.5 190.8,266.3 190.7,266.2 190.5,266 
		190.4,265.9 190.3,265.8 190.2,265.8 189.2,265.7 188.5,265.9 187.9,266.5 187.5,267.4 187.2,268.4 187.1,269.7 187,271.1 
		187.1,272.6 187.2,274.1 187.4,275.6 187.6,277.1 188,278.5 188.3,279.7 188.7,280.8 189,281.6 189.4,282.1 189.5,282.4 
		189.7,282.6 189.8,282.8 190,283 190.3,283.1 190.5,283.2 190.7,283.3 191,283.4 191.3,283.4 191.5,283.4 191.7,283.3 191.9,283.2 
		192.1,283 192.3,282.8 192.5,282.6 192.6,282.2 192.6,277.3 192.6,277.2 192.6,277.2 192.6,277.2 192.6,277.1 192.5,277 192.5,277 
		192.5,277 192.5,276.9 192.5,276.9 192.5,276.8 192.5,276.8 192.5,276.8 192.4,276.8 192.4,276.7 192.3,276.7 192.3,276.7 
		192.1,276.7 191.9,276.7 191.7,276.7 191.5,276.7 191.4,276.7 191.2,276.7 191,276.8 190.9,276.8 190.7,276.8 190.5,276.8 
		190.3,276.9 190.2,277 190,277.1 189.8,277.2 189.7,277.3 189.6,277.4 189.4,276.2 189.4,273.3 189.4,273.3 189.4,273.3 
		189.4,273.2 189.4,273.2 189.4,273.1 189.4,273.1 189.4,273.1 189.4,273.1 189.5,273.1 189.5,273.1 189.6,273.1 189.6,273.1 
		189.6,273.1 189.7,273 196,272.6 	"/>
	<polygon style="fill:#FFCB05;" points="65.6,280.4 61,279.1 61.2,279 61.4,278.9 61.5,278.8 61.6,278.7 61.8,278.5 61.9,278.5 
		62,278.3 62,278.2 62.2,278 62.2,278 62.3,277.8 62.3,277.7 62.4,277.5 62.4,277.4 62.5,277.2 62.5,277 65.8,259.8 65.5,259.7 
		65.3,259.5 65.1,259.4 64.9,259.3 64.7,259.2 64.5,259.2 64.3,259.1 64,259 63.8,258.9 63.7,258.9 63.5,258.9 63.3,258.9 
		63.1,258.8 63,258.8 62.8,258.8 62.7,258.8 61.5,258.9 61.4,258.7 61.4,258.6 61.4,258.4 61.4,258.2 61.4,258 61.4,257.8 
		61.5,257.6 61.5,257.4 61.6,257.1 61.6,256.9 61.6,256.7 61.7,256.4 61.8,256.1 61.9,255.8 62,255.5 62.1,255.2 73.8,257.7 
		73.8,257.8 73.8,258 73.8,258.2 73.8,258.4 73.8,258.7 73.8,258.9 73.8,259.2 73.8,259.5 73.8,259.8 73.7,260.1 73.6,260.4 
		73.5,260.7 73.4,261 73.3,261.2 73.2,261.4 73.1,261.6 72.9,261.5 72.8,261.4 72.6,261.3 72.4,261.2 72.2,261.1 72,261.1 71.8,261 
		71.6,260.9 71.3,260.9 71.1,260.8 70.8,260.7 70.5,260.7 70.3,260.6 70,260.6 69.7,260.6 69.5,260.6 69.4,260.9 69.2,261.6 
		69,262.5 68.7,263.6 68.4,265 68.1,266.4 67.8,268 67.4,269.6 67.1,271.2 66.8,272.8 66.4,274.2 66.2,275.5 66,276.7 65.7,277.5 
		65.7,278.2 65.6,278.4 65.6,278.5 65.6,278.6 65.6,278.7 65.6,278.9 65.5,279 65.5,279.1 65.5,279.2 65.5,279.3 65.5,279.4 
		65.5,279.6 65.5,279.7 65.5,279.9 65.5,280 65.5,280.1 65.6,280.3 65.6,280.4 	"/>
	<polygon style="fill:#FFCB05;" points="128.9,288.2 123.9,288.2 124.1,288 124.1,287.8 124.3,287.7 124.3,287.5 124.5,287.4 
		124.5,287.3 124.6,287.1 124.6,287 124.7,286.9 124.7,286.8 124.7,286.7 124.7,286.5 124.8,286.4 124.8,286.3 124.8,286.2 
		124.8,286 125.3,267.4 124.9,267.4 124.6,267.3 124.3,267.2 124,267.2 123.7,267.2 123.4,267.2 123.2,267.1 122.9,267.1 
		122.7,267.1 122.4,267.1 122.2,267.1 122,267.2 121.7,267.2 121.4,267.2 121.2,267.2 120.9,267.2 120.9,267.2 120.9,267 
		120.8,266.9 120.8,266.7 120.7,266.6 120.7,266.4 120.7,266.2 120.7,265.9 120.7,265.7 120.7,265.4 120.6,265.2 120.6,264.8 
		120.6,264.6 120.7,264.2 120.7,263.8 120.7,263.4 133.5,264.3 133.6,264.6 133.6,264.9 133.6,265.2 133.6,265.4 133.6,265.7 
		133.6,266 133.6,266.3 133.6,266.5 133.6,266.8 133.6,267 133.6,267.2 133.6,267.5 133.6,267.7 133.6,268 133.6,268.2 133.6,268.4 
		133.3,268.3 133,268.2 132.7,268.1 132.4,268 132.2,267.9 131.9,267.7 131.6,267.7 131.3,267.6 131.1,267.6 130.7,267.5 
		130.5,267.5 130.2,267.5 129.8,267.5 129.5,267.5 129.2,267.5 128.8,267.5 128.2,285.9 128.2,286.1 128.2,286.2 128.2,286.3 
		128.2,286.4 128.2,286.5 128.2,286.7 128.2,286.8 128.2,286.9 128.3,287 128.3,287.2 128.4,287.3 128.5,287.5 128.5,287.6 
		128.6,287.8 128.7,288 128.9,288.2 	"/>
	<polygon style="fill:#FFCB05;" points="157.6,277 157.5,278.1 157.5,279.1 157.5,280 157.5,280.9 157.5,281.7 157.5,282.4 
		157.6,283.1 157.6,283.7 157.6,284.3 157.6,284.8 157.6,285.3 157.7,285.7 157.7,286.1 157.8,286.5 157.8,286.9 157.9,287.2 
		157.9,287.3 158,287.4 158,287.5 158,287.5 158,287.6 158.1,287.8 158.1,287.8 158.1,287.9 158.2,288 158.3,288.1 158.3,288.2 
		158.3,288.3 158.4,288.4 158.5,288.5 158.6,288.6 158.7,288.7 153.5,288.7 153.6,288.6 153.7,288.5 153.8,288.4 153.9,288.2 
		154,288.2 154.1,288.1 154.1,288 154.2,287.9 154.2,287.8 154.3,287.8 154.3,287.8 154.4,287.7 154.4,287.6 154.4,287.6 
		154.4,287.5 154.4,287.5 153.5,265.8 152.9,264.4 164.3,264.4 164.9,268.6 164.8,268.5 164.6,268.4 164.5,268.3 164.4,268.3 
		164.4,268.2 164.3,268.2 164.2,268.2 164.1,268.2 164,268.1 163.9,268.1 163.9,268.1 163.9,268.1 163.8,268.1 163.8,268.1 
		163.7,268.1 163.7,268.1 157.3,268.1 157.3,268.4 157.3,268.7 157.2,269.1 157.2,269.4 157.2,269.7 157.2,270 157.2,270.4 
		157.2,270.7 157.2,271.1 157.2,271.4 157.3,271.8 157.3,272.1 157.3,272.5 157.3,272.9 157.3,273.3 157.4,273.6 157.7,273.7 
		157.9,273.7 158.3,273.7 158.5,273.7 158.9,273.7 159.2,273.7 159.5,273.7 159.9,273.6 160.2,273.6 160.6,273.6 160.9,273.5 
		161.2,273.5 161.5,273.4 161.7,273.3 162,273.3 162.2,273.3 162,277 161.8,277 161.6,276.9 161.3,276.9 161,276.8 160.7,276.8 
		160.4,276.8 160.1,276.8 159.8,276.8 159.5,276.8 159.1,276.8 158.8,276.8 158.5,276.8 158.3,276.8 158,276.9 157.8,277 157.6,277 
			"/>
	<polygon style="fill:#FFCB05;" points="214,284.5 214.1,284.3 214.1,284.1 214.1,284 214.1,283.8 214.2,283.7 214.2,283.6 
		214.2,283.5 214.2,283.4 214.1,283.3 214.1,283.2 214.1,283.1 214.1,283 214.1,283 214.1,282.9 214,282.8 214,282.6 210,260.2 
		210.4,260.1 210.7,260 211.1,259.9 211.5,259.8 211.8,259.8 212.2,259.7 212.5,259.7 212.9,259.7 213.2,259.7 213.5,259.6 
		213.7,259.6 214,259.6 214.1,259.6 214.3,259.6 214.4,259.6 214.4,259.6 214.3,259.7 214.3,259.8 214.2,259.9 214.2,260 
		214.1,260.1 214.1,260.2 214.1,260.3 214.1,260.5 214,260.6 214,260.8 214,261.1 214,261.3 214.1,261.6 214.1,261.9 214.1,262.3 
		214.2,262.7 217.7,282 217.8,282.1 217.8,282.3 217.9,282.4 217.9,282.6 218,282.7 218,282.8 218.1,283 218.1,283.1 218.2,283.2 
		218.3,283.3 218.3,283.4 218.4,283.5 218.4,283.6 218.5,283.6 218.5,283.7 218.6,283.8 214,284.5 	"/>
	<polygon style="fill:#FFCB05;" points="230.1,75.8 225.7,74.3 225.9,74.2 226,74 226.1,73.9 226.2,73.8 226.3,73.6 226.4,73.5 
		226.4,73.4 226.5,73.3 226.6,73.2 226.6,73 226.6,72.9 226.7,72.8 226.7,72.7 226.7,72.6 226.8,72.4 226.8,72.3 226.7,52 
		226.6,51.8 226.6,51.7 226.6,51.5 226.6,51.3 226.6,51.2 226.6,51 226.6,50.8 226.6,50.7 226.5,50.6 226.4,50.4 226.4,50.2 
		226.3,50 226.2,49.8 226.1,49.6 226,49.3 225.9,49 230.7,51.1 230.3,51.8 230.2,52 230.1,52.3 230.1,52.9 230.1,53.5 230.1,54.4 
		230.1,55.5 230.1,56.7 230.1,58.1 230.1,59.6 230.1,61.4 230.2,63.3 230.3,65.5 230.3,67.7 230.3,70.2 230.4,72.8 230.5,75.7 
		230.5,75.7 230.5,75.7 230.5,75.8 230.5,75.8 230.4,75.8 230.4,75.9 230.3,75.9 230.3,75.9 230.3,75.9 230.3,75.9 230.2,75.9 
		230.2,75.9 230.1,75.9 230.1,75.9 230.1,75.9 230.1,75.8 	"/>
	<path style="fill:#FFCB05;" d="M45.7,214.7l-0.9,1.2l-1.2,1l-1.4,0.9l-1.6,0.7l-1.8,0.6l-1.9,0.5l-2,0.3l-2,0l-2-0.1l-1.9-0.4
		l-1.8-0.6l-1.7-0.8l-1.5-1.1l-1.2-1.3l-0.9-1.7l-0.6-2l0-0.3v-0.4V211v-0.4v-0.4l0-0.3v-0.4v-0.3l0-0.3l0-0.3l0-0.3l0-0.2v-0.2
		l0-0.2l0.1-0.2l0.1-0.2l0.1,0l0.1,0.1l0.2,0l0.1,0l0.1,0l0.2,0l0.1,0l0.1,0h0.1l0.1,0h0.1h0.1h0.1h0.1h0.1h0.1l19.8,0.2h0.1l0.2,0
		h0.1H44l0.2,0l0.1,0l0.1,0l0.2,0l0.1,0l0.2,0l0.1,0l0.1-0.1l0.1,0l0.1,0l0.1,0l0.1-0.1l0.1,0.5l0.1,0.5l0.1,0.4l0,0.5l0.1,0.5
		L46,210l0,0.4l0,0.5v0.5v0.5v0.5l-0.1,0.5l0,0.5l-0.1,0.5l-0.1,0.5L45.7,214.7L45.7,214.7z M24.7,211.3l0.2,1l0.4,0.8l0.5,0.7
		l0.6,0.6l0.7,0.5l0.7,0.5l0.8,0.3l0.8,0.2l0.8,0.2l0.9,0.2l0.9,0l0.8,0h0.8l0.8,0l0.7,0l0.7-0.1l0.8-0.2l0.8-0.2l0.7-0.2l0.7-0.2
		l0.6-0.2l0.5-0.3l0.5-0.2l0.4-0.3l0.4-0.3l0.3-0.3l0.2-0.3l0.2-0.3l0.1-0.3l0-0.4l0-0.4l-0.1-0.4l-1-0.1l-1.1-0.1l-1.1-0.1
		l-1.1-0.1l-1.2-0.1l-1.1,0l-1.2-0.1l-1.1,0l-1.2,0l-1.1,0h-1.2l-1.1,0h-1.1l-1,0.1l-1,0.1L24.7,211.3L24.7,211.3z"/>
	<path style="fill:#FFCB05;" d="M37.9,246.1l-0.6-0.2l-0.6-0.2l-0.6-0.2l-0.5-0.3l-0.5-0.3l-0.5-0.4l-0.4-0.4l-0.4-0.4l-0.4-0.5
		l-0.3-0.5l-0.3-0.6l-0.3-0.6l-0.3-0.7L32,240l-0.2-0.8l-0.2-0.8l-0.7,0h-0.7h-0.7h-0.7H28h-0.6l-0.6,0.1l-0.6,0.1l-0.6,0l-0.5,0.1
		l-0.5,0.1L24,239l-0.5,0.2l-0.5,0.2l-0.5,0.2l-0.4,0.2l-0.1-0.2l-0.1-0.3l-0.1-0.3l-0.1-0.4l-0.1-0.4l-0.1-0.4l-0.1-0.4l0-0.4
		l-0.1-0.4l0-0.4l0-0.4l0-0.2l0-0.3V235v-0.2l0-0.1l0.1,0.1l0.1,0l0.1,0l0.1,0h0.1H22h0.1h0.1h0.1h0.1h0.1h0h0.1h0h0.1H23l4.7-0.2
		l15.2-1.6H43h0.2l0.2,0h0.2l0.2,0l0.2,0l0.2,0l0.2,0l0.2,0l0.2-0.1l0.2-0.1l0.2-0.1l0.2-0.1l0.2-0.1l0.2-0.1l0.2-0.2l1.1,6.3v0.2
		v0.1l0,0.2v0.1l0,0.2v0.2v0.2l0,0.1v0.2l0,0.2v0.2l0,0.2v0.2l0,0.2l-0.1,0.2v0.2l-0.2,0.5l-0.2,0.4l-0.2,0.5l-0.3,0.5l-0.3,0.5
		l-0.4,0.4l-0.5,0.4l-0.5,0.4l-0.6,0.4l-0.6,0.3l-0.7,0.3l-0.8,0.2l-0.8,0.2l-0.9,0.1h-0.9L37.9,246.1L37.9,246.1z M35.8,237.9
		l0,0.8l0.1,0.7l0.2,0.6l0.2,0.5l0.4,0.5l0.4,0.3l0.5,0.3l0.5,0.2l0.5,0.1l0.5,0.1h0.5l0.5-0.1l0.5-0.1l0.5-0.2l0.5-0.2l0.4-0.3
		l0.2-0.2l0.2-0.2l0.2-0.3l0.1-0.3l0.1-0.3l0.1-0.3l0-0.3l0-0.4v-0.3v-0.3l0-0.3l0-0.2l-0.1-0.2l-0.1-0.1l-0.1-0.1l-0.1,0
		L35.8,237.9L35.8,237.9z"/>
	<path style="fill:#FFCB05;" d="M36.1,265.9l-0.2-0.1l-0.2-0.1l-0.2-0.2l-0.3-0.2l-0.2-0.2l-0.2-0.2l-0.2-0.3l-0.2-0.3l-0.2-0.3
		l-0.2-0.2l-0.2-0.3l-0.2-0.3l-0.2-0.2l-0.2-0.3l-0.2-0.2l-0.1-0.2l0.2-0.1l0.2-0.1l0.2-0.2l0.2-0.2l0.2-0.2l0.2-0.2l0.2-0.2
		l0.2-0.2l0.2-0.2l0.2-0.2l0.2-0.2l0.1-0.2l0.2-0.2l0.1-0.2l0.1-0.2l0.1-0.2l-1.4-1.7l-0.1-0.1l0-0.1l-0.1-0.2l-0.1-0.2l-0.1-0.1
		l-0.1-0.2l-0.1-0.2l-0.2-0.2l-0.2-0.2l-0.2-0.3l-0.2-0.2l-0.2-0.3l-0.2-0.3l-0.2-0.4l-0.2-0.4l-0.2-0.4l-0.3,0h-0.3l-0.3,0l-0.3,0
		l-0.2,0l-0.2,0l-0.2,0.1l-0.2,0l-0.2,0l-0.2,0.1l-0.2,0.1l-0.2,0l-0.2,0.1l-0.2,0.1l-0.2,0l-0.1,0.1l-0.3-0.5l-0.3-0.5l-0.2-0.5
		l-0.2-0.4l-0.2-0.4l-0.2-0.4l-0.2-0.3l-0.1-0.3l-0.1-0.3l-0.1-0.2l-0.1-0.2l0-0.2l-0.1-0.2l0-0.2l0-0.2l0-0.2l0.2,0.1l0.2,0l0.2,0
		l0.2,0.1l0.2,0.1h0.2l0.2,0.1l0.2,0l0.2,0l0.2,0h0.2h0.2h0.2H28h0.2l0.2,0l15.8-3.7l2.2-0.6l0.1,0h0.2l0.2-0.1l0.1-0.1l0.2,0
		l0.1-0.1l0.2-0.1l0.1-0.1l0.1-0.1l0.2-0.1l0.1-0.1l0.1-0.1l0.1-0.1l0.1-0.1l0.1-0.1l0.1-0.1l0.2,0.2l0.2,0.2l0.2,0.2l0.2,0.2
		l0.2,0.2l0.2,0.2l0.2,0.3l0.2,0.3l0.2,0.2l0.2,0.3l0.2,0.3l0.1,0.2l0.1,0.3l0.2,0.2l0.1,0.2l0.1,0.2l-0.6,0.5l-0.7,0.6l-0.8,0.8
		l-0.9,1l-1,1l-1,1.1l-1.1,1.2l-1.1,1.2l-1.1,1.2l-1,1.2l-1.1,1.2l-1,1.2l-0.9,1.1l-0.8,1l-0.7,0.9l-0.6,0.7l-0.1,0.2l-0.1,0.1
		l-0.1,0.2l0,0.1l-0.1,0.1l0,0.2l0,0.1v0.1l0,0.1l0,0.1l0,0.1v0.1l0,0.1v0L36.1,265.9L36.1,265.9L36.1,265.9z M45,249.7l-10.1,2.7
		l0.2,0.3l0.2,0.3l0.2,0.3l0.2,0.3l0.2,0.3l0.2,0.3l0.2,0.3l0.2,0.2l0.2,0.3l0.2,0.2l0.2,0.2l0.2,0.3l0.2,0.3l0.2,0.2l0.2,0.3
		l0.3,0.3l0.2-0.2l0.3-0.2l0.3-0.4l0.5-0.4l0.5-0.5l0.5-0.5l0.5-0.6l0.6-0.6l0.6-0.6l0.5-0.6l0.5-0.6l0.5-0.5l0.4-0.5l0.4-0.4
		l0.2-0.3L45,249.7L45,249.7z"/>
	<path style="fill:#FFCB05;" d="M53,276.9l-0.1,0l-0.1,0l-0.1,0l-0.2,0l-0.2,0l-0.2-0.1l-0.2-0.1l-0.2-0.1l-0.2-0.1l-0.3-0.2
		l-0.3-0.1l-0.4-0.2l-0.3-0.2l-0.4-0.2l-0.4-0.2l-0.4-0.3l0.1,0l0.1-0.1l0.2-0.1l0.1-0.1l0.1-0.1l0-0.1l0.1-0.1l0-0.1l0-0.1l0-0.1v0
		v-0.1v-0.1v-0.1v-0.1v-0.2l0.5-9.3l-0.2,0l-0.2,0l-0.1,0l-0.2-0.1h-0.1l-0.2-0.1l-0.1,0l-0.2-0.1l-0.1,0l-0.1-0.1l-0.2-0.1
		l-0.1-0.1l-0.1-0.1l-0.2-0.1l-0.2-0.1l-0.1-0.1l-0.2,0.3l-0.2,0.3l-0.2,0.3l-0.2,0.3l-0.2,0.2l-0.2,0.2l-0.2,0.2l-0.1,0.2l-0.1,0.2
		l-0.2,0.2l-0.1,0.2l-0.1,0.2l-0.1,0.2l-0.1,0.2l-0.1,0.1l-0.1,0.2l-0.3,0.5l-0.3,0.4l-0.2,0.4l-0.2,0.3l-0.2,0.3L44,269l-0.2,0.3
		l-0.2,0.2l-0.1,0.2l-0.1,0.2l-0.1,0.2l-0.1,0.3l0,0.2l0,0.2v0.3l0,0.3h-0.1l-0.2-0.1l-0.2-0.1l-0.2-0.2l-0.2-0.1l-0.3-0.2l-0.3-0.2
		l-0.4-0.2l-0.3-0.2l-0.3-0.2l-0.4-0.3l-0.3-0.3l-0.3-0.2l-0.3-0.2l-0.2-0.3l-0.2-0.2l0.2,0l0.2,0l0.2-0.1l0.2-0.1L40,268l0.2-0.1
		l0.1-0.1l0.2-0.1l0.2-0.2l0.1-0.1l0.2-0.2l0.1-0.1L41,267l0-0.1l0.1-0.1l0-0.1l2.7-3.6l1-1.4l0.9-1.3l0.9-1.2l0.8-1.1l0.7-1.1
		l0.7-1l0.6-0.9l0.6-0.8l0.5-0.7l0.4-0.6l0.4-0.6l0.3-0.5l0.2-0.4l0.2-0.3l0.1-0.2l0-0.2v-0.1l0,0l0-0.1l0-0.1l0-0.1l0-0.1l0-0.1
		l0-0.1v-0.1l0-0.1l0-0.2v-0.2v-0.2v-0.2l0-0.3v-0.2l3.7,3l1.2,1l1,1l0.7,1.1l0.5,1L60,257l0.1,1l-0.1,1l-0.2,1l-0.4,0.9l-0.5,0.9
		l-0.7,0.8l-0.8,0.7l-0.9,0.6l-1,0.5l-1,0.4l-1.2,0.3l0,1.2l-0.1,1.1l-0.1,1l0,1l0,0.9l0,0.8l0,0.8l0,0.7l0,0.6v0.5l0,0.4v0.4l0,0.3
		v0.2v0.1v0l0,0.1v0v0.1v0.1v0.1v0.1v0.1v0.1v0.1l0,0.1v0.1l0,0.1l0,0.1v0.1l0,0.2L53,276.9L53,276.9z M53.7,255l-0.1,0.1l-0.1,0.2
		l-0.2,0.3l-0.2,0.3l-0.3,0.4l-0.3,0.4l-0.3,0.5l-0.3,0.5l-0.3,0.5l-0.3,0.5l-0.2,0.5l-0.2,0.4l-0.2,0.4l-0.2,0.3l0,0.2v0.2l0,0l0,0
		v0v0l0,0l0,0h0.1l0,0l0,0.1l0,0l0.1,0l0,0l0.1,0l0.1,0l0.1,0l0.5,0.2l0.6,0.1l0.5,0l0.5-0.1l0.5-0.1l0.5-0.2l0.5-0.3l0.4-0.3
		l0.3-0.4l0.3-0.4l0.2-0.5l0.2-0.5l0-0.5v-0.5l-0.1-0.5l-0.2-0.5l-0.1-0.2l-0.1-0.2l-0.1-0.1l-0.1-0.2l-0.2-0.1l-0.1-0.1l-0.2-0.2
		l-0.1-0.1l-0.1-0.1l-0.2-0.1l-0.2-0.1l-0.1,0l-0.2,0L54,255h-0.2L53.7,255L53.7,255z"/>
	<path style="fill:#FFCB05;" d="M143.7,288.8l-0.5-0.1l-0.5-0.2l-0.5-0.2l-0.4-0.2l-0.4-0.3l-0.4-0.3l-0.3-0.4l-0.4-0.4l-0.3-0.5
		l-0.3-0.5l-0.2-0.5l-0.2-0.6l-0.2-0.6l-0.2-0.7l-0.2-0.7l-0.2-0.7l-0.1-0.7l-0.1-0.7l-0.1-0.7l0-0.7l-0.1-0.7l-0.1-0.7l0-0.6v-0.6
		V276v-0.6v-0.6l0-0.6l0.1-0.6l0.1-0.6l0.1-0.5l0.1-0.6l0.2-0.9l0.2-0.9l0.2-0.8l0.3-0.7l0.3-0.7l0.3-0.7l0.3-0.6l0.4-0.5l0.4-0.5
		l0.4-0.4l0.5-0.4l0.5-0.3l0.5-0.2l0.5-0.2l0.6-0.2l0.6-0.1l1.7,0.1l1.5,0.7l1.2,1.2l1,1.7l0.7,2l0.5,2.2l0.3,2.4l0.1,2.5l-0.2,2.5
		l-0.4,2.4l-0.7,2.2l-0.9,1.9l-1.1,1.6l-1.3,1.1l-1.6,0.6L143.7,288.8L143.7,288.8z M144.3,268l-0.5,0.3l-0.5,0.6l-0.4,0.8l-0.4,1
		l-0.3,1.2l-0.2,1.4l-0.2,1.4l-0.1,1.5l0,1.5l0.1,1.5l0.2,1.4l0.3,1.3l0.4,1.1l0.5,1l0.6,0.7l0.8,0.4l0.9-0.3l0.7-0.7l0.6-1l0.5-1.2
		l0.4-1.4l0.2-1.5l0.1-1.6l0-1.6l-0.1-1.6l-0.2-1.5l-0.3-1.4l-0.4-1.2l-0.5-1l-0.6-0.7L145,268L144.3,268L144.3,268z"/>
	<path style="fill:#FFCB05;" d="M176.8,263.6v0.2l0,0.2v0.2l0.1,0.3l0,0.2l0,0.3l0,0.3l0.1,0.2l0.1,0.3l0,0.3l0.1,0.4l0.1,0.3
		l0.1,0.3l0.1,0.4l0.1,0.4l0.1,0.4l0.2,0.8l0.3,1l0.3,1l0.3,1.1l0.3,1.2l0.3,1.2l0.4,1.2l0.3,1.3l0.4,1.3l0.4,1.3l0.3,1.2l0.4,1.1
		l0.3,1.1l0.3,1l0.3,0.9l0.3,0.7v0.1v0.1l0.1,0l0,0.1l0.1,0l0,0.1l0.1,0.1l0.1,0.1l0,0.1l0.1,0.1l0,0.1l0.1,0.1l0,0.1l0.1,0v0h0.1
		l-4.5,0.4l-0.6-3.1l-5.7,0.2l-0.9,3.5h-4.5l0.2-0.2l0.2-0.2l0.1-0.1l0.1-0.1l0.1-0.2l0.1-0.1l0-0.1l0.1-0.2l0.1-0.1l0-0.2l0-0.1
		l0-0.1l0.1-0.2v-0.1l0-0.2l0-0.2l3.9-18.2l0-0.3l0.1-0.4l0-0.2l0-0.3v-0.3v-0.2V266v-0.2v-0.2v-0.2v-0.2l0-0.2l0-0.2l-0.1-0.2
		l0-0.2l0-0.2l0.2-0.1l0.2-0.1l0.2-0.1l0.3-0.1l0.2-0.1l0.3,0l0.2,0l0.2,0h0.2l0.2,0h0.2l0.2,0h0.2h0.2l0.2,0.1L176.8,263.6
		L176.8,263.6z M175.6,273.5l-1.7,7.3l0.2,0.1l0.2,0l0.2,0l0.2,0l0.3,0h0.2h0.3h0.2h0.2h0.2l0.2,0l0.3,0l0.2,0h0.2l0.2,0l0.3-0.1
		L175.6,273.5L175.6,273.5z"/>
	<path style="fill:#FFCB05;" d="M204.4,285.9l-5.4,0.4l0-0.1l0.1-0.1l0-0.1V286l0.1-0.1l0-0.1l0-0.1l0-0.1v-0.1v-0.1l0-0.1v-0.1
		l0-0.1v-0.1v-0.1l0-0.1v-0.2V284v-0.4l0-0.5l0-0.6l0-0.7l-0.1-0.8l-0.1-1l-0.1-1l-0.2-1.2l-0.1-1.2l-0.1-1.4l-0.2-1.5l-0.2-1.6
		l-0.2-1.7l-0.2-1.9l-0.1-0.7l-0.1-0.6l-0.1-0.6l-0.1-0.6l-0.1-0.5l-0.1-0.5l-0.1-0.5l-0.1-0.4l-0.1-0.4l-0.1-0.4l-0.1-0.4l-0.1-0.3
		l-0.1-0.3l-0.1-0.2l-0.1-0.2l-0.1-0.2l2.5-0.3l2.4-0.2l1.7-0.1l1.5,0.1l1.2,0.2l1.1,0.4l1,0.6l0.7,0.7l0.6,0.8l0.5,0.8l0.3,0.9
		l0.2,0.9l0.1,1v0.9l-0.1,0.9l-0.2,0.8l-0.2,0.7l-0.3,0.6l-0.1,0.2l-0.1,0.1l-0.1,0.2l-0.1,0.1l-0.1,0.1l0,0.1l-0.1,0.1l0,0.2
		l-0.1,0.1l-0.1,0.1l-0.1,0.2l-0.1,0.1l-0.2,0.1l-0.1,0.2l-0.2,0.1l-0.1,0.1l1.4,3l2.1,5.3l0.1,0.2l0.1,0.2l0.1,0.2l0.1,0.2l0.1,0.2
		l0.1,0.2l0.1,0.2l0.1,0.2l0.1,0.2l0.1,0.2l0.1,0.2l0.1,0.1l0.1,0.2l0.1,0.1l0.1,0.1l0.1,0.1l-0.2,0.1l-0.2,0h-0.2l-0.3,0l-0.2,0
		l-0.3,0.1l-0.3,0H211l-0.4,0l-0.3,0.1l-0.4,0l-0.4,0l-0.4,0l-0.4,0l-0.4,0l-0.4,0l-0.2-1l-0.2-1l-0.2-0.9l-0.3-0.8l-0.2-0.8
		l-0.3-0.7l-0.3-0.7l-0.2-0.6l-0.3-0.6l-0.3-0.5l-0.3-0.5l-0.3-0.4l-0.4-0.4l-0.3-0.3l-0.3-0.2l-0.4-0.2l0,0l0,0h0h0h0h0l0,0h0v0
		l0,0v0h0v0l0,0.5v0.6v0.5v0.5v0.5v0.5v0.5l0,0.5l0,0.5l0,0.5l0.1,0.5l0.1,0.5l0,0.5l0.2,0.5l0.1,0.6l0.2,0.6v0v0.1l0,0.1v0.1l0,0.1
		l0,0.1l0,0.1l0,0.1l0,0.1l0.1,0.1l0,0.1l0,0.2l0.1,0.1l0.1,0.1l0.1,0.1L204.4,285.9L204.4,285.9z M201.3,264.7l1.1,6.9h0.9l0.7-0.2
		l0.6-0.3l0.6-0.4l0.4-0.5l0.2-0.6l0.2-0.6l0.1-0.7v-0.6l-0.1-0.7l-0.2-0.6l-0.3-0.6l-0.3-0.5L205,265l-0.5-0.2l-0.5-0.1
		L201.3,264.7L201.3,264.7z"/>
	<path style="fill:#FFCB05;" d="M254,233.5l0-8.8l0.1-0.9l0.4-0.9l0.5-0.8l0.7-0.7l0.8-0.7l1-0.5l1-0.5l1.1-0.3l1.1-0.1l1.1,0
		l1.1,0.2l1.1,0.5l1,0.7l0.9,0.9l0.7,1.2l0.6,1.4h0.1h0.2l0.2,0l0.2,0l0.2,0l0.2,0l0.3-0.1l0.3-0.1l0.4,0l0.4-0.1l0.4-0.1l0.5-0.1
		l0.5-0.1l0.5-0.1l0.5-0.1l0.5-0.2l0.3,0l0.3-0.1l0.3-0.1l0.4,0l0.3-0.1l0.4,0l0.3-0.1l0.3-0.1l0.3-0.1l0.3-0.1l0.3-0.2l0.3-0.1
		l0.2-0.2l0.2-0.1l0.2-0.2l0.2-0.2l0,0.2l0,0.2l0,0.2v0.2l0,0.2v0.2l0,0.2v0.2v0.2v0.3v0.3l0,0.4l0,0.4v0.5l0,0.5l0,0.6l-0.3,0
		l-0.4,0l-0.4,0.1l-0.5,0l-0.5,0.1l-0.5,0.1l-0.5,0.1l-0.6,0.1l-0.6,0.1l-0.6,0.1l-0.7,0.2l-0.7,0.2l-0.8,0.2l-0.8,0.2l-0.9,0.2
		l-0.9,0.2l0,2h0.3l0.5,0l0.6,0l0.7,0l0.7,0.1h0.8l0.8,0.1l0.8,0l0.8,0l0.8,0h0.7l0.7,0l0.5,0l0.5-0.1l0.3-0.1l0.2-0.2l-0.2,5.5
		l-0.1-0.1l-0.1-0.1l-0.1-0.1l-0.1-0.1l-0.1-0.1l-0.1,0l-0.1-0.1l-0.1,0l-0.1,0l-0.2,0l-0.1,0l-0.1,0h-0.1l-0.1,0h-0.2l-0.1,0
		l-18.3-1.5h-0.2l-0.2,0h-0.2l-0.2,0h-0.1l-0.2,0h-0.2h-0.2l-0.2,0h-0.2l-0.2,0l-0.2,0.1l-0.2,0l-0.3,0.1l-0.3,0.1L254,233.5
		L254,233.5z M259.9,222.9l-0.2,0.1l-0.2,0h-0.2l-0.1,0.1l-0.2,0.1l-0.1,0l-0.2,0.1l-0.1,0.1l-0.1,0l-0.1,0.1l-0.1,0.1l-0.1,0.2
		L258,224l-0.1,0.1l-0.1,0.1l-0.1,0.1l-0.1,0.3l-0.1,0.2l0,0.3l-0.1,0.3l0,0.4l0,0.4v0.4v0.4l0,0.4v0.4l0.1,0.4l0,0.4l0,0.3l0,0.3
		l0.1,0.2l0.1,0.2l6.1,0.3l0.1-0.1l0.1-0.3l0.1-0.4l0.1-0.5l0-0.6v-0.7v-0.7l-0.1-0.7l-0.2-0.7l-0.2-0.6l-0.3-0.6l-0.4-0.5l-0.5-0.4
		l-0.7-0.2l-0.8-0.1L259.9,222.9L259.9,222.9z"/>
	<path style="fill:#FFCB05;" d="M206.9,68.2l-5.5-1.7l-0.3-0.7l-0.2-0.7l-0.2-0.7l-0.2-0.6l-0.2-0.6l-0.1-0.6L200,62l-0.2-0.6
		l-0.1-0.6l-0.1-0.6l-0.2-0.7l-0.2-0.7l-0.2-0.8l-0.2-0.8l-0.3-0.9l-0.3-1l-0.3-0.1l-0.3-0.1l-0.2-0.1L197,55l-0.3,0l-0.2,0l-0.2,0
		l-0.3,0h-0.2h-0.2h-0.2l-0.2,0h-0.1l-0.1,0l0,0l0,0l0.1,10l-5.1-1.1l0.8-1.2l0,0l0,0l0-0.1l0,0v0l0,0v-0.1v-0.1h0v-0.1V62v0v0v-0.1
		v-0.1v0l0.1-18.3v-0.2l0-0.2v-0.2l0-0.2v-0.2l0-0.2l-0.1-0.2l-0.1-0.2l0-0.2l-0.1-0.2l-0.1-0.2l-0.1-0.2l-0.1-0.2l-0.1-0.2
		l-0.1-0.2l-0.1-0.2l0.3,0h0.3l0.4,0l0.4,0l0.5,0.1l0.5,0l0.5,0l0.6,0.1l0.6,0l0.6,0.1l0.7,0.1l0.7,0.2l0.7,0.1l0.7,0.2l0.8,0.1
		l0.8,0.1l1.2,0.2l1.1,0.4l1,0.5l0.9,0.6l0.7,0.7l0.5,0.8l0.5,0.9l0.2,0.9l0.1,1l0,1l-0.2,1l-0.3,1l-0.5,1l-0.7,1l-0.9,1l-1,0.8
		l0.1,0.9l0.1,0.8l0.2,0.8l0.2,0.7l0.1,0.7l0.2,0.7l0.2,0.6l0.2,0.6l0.2,0.6l0.2,0.6l0.2,0.6l0.3,0.6l0.3,0.6l0.2,0.6l0.3,0.6
		l0.3,0.6L206.9,68.2L206.9,68.2z M194.9,44.3v6.4l0,0.1h0.1l0.2,0l0.2,0.1l0.3,0l0.3,0h0.4l0.3,0l0.4,0h0.4h0.4h0.5h0.5l0.4,0
		l0.5,0l0.4-0.1l0.2-0.1l0.3-0.1l0.2-0.2l0.3-0.3l0.2-0.3l0.2-0.4l0.1-0.4l0.1-0.5l0-0.5l0-0.4l0-0.5l-0.2-0.5l-0.2-0.4l-0.3-0.4
		l-0.4-0.3l-0.5-0.3l-0.1,0l-0.2-0.1l-0.2-0.1l-0.4-0.1l-0.4-0.1l-0.4-0.1l-0.5-0.1l-0.5-0.1l-0.5,0l-0.5-0.1l-0.4,0l-0.4,0l-0.4,0
		h-0.2H194.9L194.9,44.3L194.9,44.3z"/>
	<path style="fill:#FFCB05;" d="M71.8,74.7l0.1-0.1l0.1-0.1l0-0.2l0.1-0.2l0.1-0.1l0-0.1l0.1-0.1l0-0.1l0-0.2v-0.1v-0.1l0-0.2v-0.1
		v-0.1v-0.2l0-0.2l0-20.8v-0.2l0-0.2v-0.2l-0.1-0.2v-0.1l-0.1-0.2l-0.1-0.1l0-0.2L72,50.3l-0.1-0.1l-0.1,0l-0.2-0.1L71.4,50h-0.2
		L71,49.9l-0.2-0.1l1.2-0.4l1.1-0.4l1.1-0.4l1-0.3L76,48l0.9-0.3l0.8-0.2l0.7-0.2l0.7-0.2l0.7-0.1l0.7-0.1l0.6,0l0.6,0h0.6l0.6,0
		h0.5l0.6,0.2l0.6,0.3l0.5,0.4l0.5,0.5l0.4,0.5l0.3,0.6l0.3,0.6l0.2,0.7l0.1,0.7l0,0.8L86.9,53l-0.2,0.8l-0.3,0.8L86,55.4l-0.5,0.8
		l-0.7,0.7L83,58.3l0,0.1l0.1,0.2l0.1,0.4l0.2,0.5l0.2,0.5l0.2,0.7l0.3,0.7l0.3,0.8l0.4,0.8l0.4,0.8l0.4,0.9l0.5,0.9l0.4,0.9
		l0.5,0.8l0.5,0.7l0.5,0.7h0v0l-4.2,1.4l-0.1-0.6l-0.2-0.6l-0.1-0.6l-0.2-0.6l-0.2-0.6l-0.2-0.6L82.4,66l-0.2-0.7l-0.3-0.7l-0.3-0.6
		l-0.4-0.7l-0.3-0.7L80.4,62L80,61.4l-0.5-0.7l-0.5-0.7L79,60h-0.1l-0.2,0l-0.2,0l-0.2,0l-0.3,0l-0.2,0.1l-0.3,0.1l-0.3,0.1
		l-0.2,0.1l-0.2,0.1l-0.2,0.1l-0.2,0.1L76.2,61l-0.1,0.2v0.2l0.1,11.8l-0.1,0.1l-0.2,0.1l-0.2,0.1l-0.3,0.2l-0.3,0.1l-0.3,0.2
		L74.5,74L74.2,74l-0.3,0.2l-0.4,0.1l-0.3,0.1l-0.3,0.1l-0.3,0.1l-0.3,0.1H72H71.8L71.8,74.7z M81.8,50.5h-0.4h-0.4h-0.4l-0.3,0
		l-0.4,0l-0.4,0l-0.4,0.1l-0.3,0.1l-0.4,0.1L78.2,51l-0.4,0.1l-0.3,0.1l-0.4,0.2l-0.4,0.2l-0.4,0.2L76,52v4.3l0.2,0.1l0.2,0h0.3
		l0.3,0h0.4l0.4-0.1l0.5-0.1l0.4-0.1l0.5-0.1l0.4-0.1l0.4-0.1l0.4-0.2l0.3-0.2l0.3-0.1l0.2-0.1l0.2-0.2l0.4-0.3l0.4-0.4l0.3-0.3
		l0.2-0.4l0.1-0.3l0.1-0.4l0.1-0.4v-0.3l0-0.3l0-0.3l-0.2-0.3L82.7,51l-0.2-0.2l-0.2-0.2l-0.2-0.1L81.8,50.5L81.8,50.5z"/>
	<path style="fill:#FFCB05;" d="M60.6,80.5L60,80.6l-0.5,0h-0.5h-0.5l-0.5,0l-0.5-0.1l-0.4-0.1l-0.5-0.1l-0.4-0.2L56,79.9l-0.4-0.2
		l-0.4-0.3l-0.4-0.3l-0.3-0.3l-0.4-0.3L53.7,78l-0.2-0.3l-0.2-0.3l-0.2-0.3l-0.2-0.3l-0.2-0.4L52.5,76l-0.2-0.4l-0.1-0.4L52,74.7
		L52,74.3l-0.1-0.5l-0.1-0.5l-0.1-0.5l-0.1-0.5l-0.1-0.5l0-0.6l-0.2-3.5l0.3-3.2l0.6-2.8l0.9-2.3l1.1-2l1.3-1.5l1.5-1.1l1.5-0.7
		l1.6-0.3l1.6,0.1l1.5,0.5l1.4,0.9l1.3,1.2l1,1.7l0.8,2.1l0.5,2.5l0,0.6v0.8v1v1.2l-0.1,1.3L68,69.1l-0.2,1.5L67.5,72l-0.4,1.5
		l-0.5,1.4L66,76.2l-0.8,1.2l-0.9,1.1l-1.1,0.9l-1.2,0.7L60.6,80.5L60.6,80.5z M61,57.7l-1.4-0.2l-1.2,0.3l-1,0.7l-0.8,1L55.8,61
		l-0.5,1.5l-0.4,1.7l-0.2,1.8l0,1.9l0.1,1.9l0.3,1.7l0.4,1.7l0.5,1.5l0.7,1.2l0.8,0.8l1,0.5l1.2,0l1-0.3l1-0.7l0.8-1.1l0.7-1.3
		l0.6-1.5l0.5-1.7l0.2-1.8l0.2-1.8l0-1.8l-0.2-1.7l-0.4-1.6l-0.5-1.5l-0.7-1.2L62,58.3L61,57.7L61,57.7z"/>
</g>
</svg>
