<?xml version="1.0" encoding="utf-8"?>
<!-- Generator: Adobe Illustrator 21.0.0, SVG Export Plug-In . SVG Version: 6.00 Build 0)  -->
<svg version="1.1" id="Layer_1" xmlns="http://www.w3.org/2000/svg" xmlns:xlink="http://www.w3.org/1999/xlink" x="0px" y="0px"
	 viewBox="0 0 183.46 164.68" style="enable-background:new 0 0 183.46 164.68;" xml:space="preserve">
<g>
	<path d="M14.4,98.01v8.79c0,2.2-1.67,3.96-4.4,3.96c-2.1,0-4.26-1.19-4.26-4.3V98.3l2.34-0.28v8.11c0,1.07,0.2,2.38,2.02,2.38
		c1.63,0,1.95-1.12,1.95-2.58V98.3L14.4,98.01z"/>
	<polygon points="21.61,110.76 21.61,98.01 21.67,98.01 28.95,105.38 28.95,98.3 31.29,98.01 31.29,110.76 31.24,110.76 
		23.96,103.48 23.96,110.48 	"/>
	<polygon points="38.61,110.62 38.61,98.3 40.96,98.01 40.96,110.48 	"/>
	<polygon points="51.97,105.66 54.96,98.01 57.32,98.3 51.99,110.76 51.96,110.76 46.77,98.3 49.27,98.01 	"/>
	<polygon points="63.06,110.48 63.06,98.3 69.61,98.3 70,100.55 65.4,100.55 65.4,102.98 69.1,102.98 69.1,105.24 65.4,105.24 
		65.4,108.22 70.57,108.22 69.82,110.48 	"/>
	<path d="M76.92,98.3h3.91c2.34,0,4.19,1.14,4.19,3.75c0,1.51-0.91,2.73-2.34,3.2l3.32,4.9l-2.56,0.62l-4.14-6.37h-0.04v6.09
		l-2.34,0.14V98.3z M79.26,103.82h0.85c1.15,0,2.27-0.34,2.27-1.71c0-1.4-1.07-1.56-2.22-1.56h-0.91V103.82z"/>
	<path d="M92.66,107.19c0.6,0.67,1.03,1.31,2.34,1.31c0.84,0,1.56-0.66,1.56-1.4c0-2.41-5.31-1.05-5.31-5.36
		c0-2.33,1.74-3.73,4.15-3.73c1.21,0,2.68,0.67,3.41,1.65l-1.46,1.7c-0.57-0.6-1.44-1.1-2.1-1.1c-0.82,0-1.56,0.36-1.56,1.47
		c0,2.08,5.31,0.59,5.31,5.38c0,2.22-1.85,3.64-4.14,3.64c-1.53,0-2.81-0.64-3.84-1.9L92.66,107.19z"/>
	<polygon points="105.74,110.62 105.74,98.3 108.09,98.01 108.09,110.48 	"/>
	<polygon points="114.61,98.3 122.74,98.3 122.74,100.55 119.71,100.55 119.71,110.48 117.36,110.62 117.36,100.55 114.04,100.55 	
		"/>
	<polygon points="127.96,98.65 130.24,98.01 133.06,103.62 135.46,98.01 137.77,98.65 132.33,110.76 129.92,110.26 131.91,106.11 	
		"/>
	<path d="M158.91,98.01c3.51,0,6.43,2.84,6.43,6.37c0,3.53-2.91,6.37-6.43,6.37c-3.52,0-6.43-2.84-6.43-6.37
		C152.48,100.85,155.4,98.01,158.91,98.01 M158.91,108.36c2.17,0,3.98-1.81,3.98-3.98c0-2.17-1.81-3.98-3.98-3.98
		c-2.17,0-3.98,1.81-3.98,3.98C154.94,106.55,156.75,108.36,158.91,108.36"/>
	<polygon points="171.96,98.3 178.22,98.3 178.74,100.55 174.3,100.55 174.3,103.34 177.58,103.34 177.58,105.59 174.3,105.59 
		174.3,110.48 171.96,110.76 	"/>
	<path d="M4.89,141.84l13.61-27.5h0.08l14.13,27.5l-5.56,0.83l-3.24-6.86H13.53l-3.16,6.86L4.89,141.84z M15.59,131.23h6.08
		l-3.12-7.34L15.59,131.23z"/>
	<polygon points="40.6,142.04 40.6,114.97 45.8,114.34 45.8,137.03 55.67,137.03 54.37,142.04 	"/>
	<path d="M61.64,141.84l13.61-27.5h0.08l14.13,27.5l-5.56,0.83l-3.24-6.86H70.28l-3.16,6.86L61.64,141.84z M72.33,131.23h6.08
		l-3.12-7.34L72.33,131.23z"/>
	<path d="M99.37,134.74c1.34,1.5,2.29,2.92,5.21,2.92c1.85,0,3.47-1.46,3.47-3.12c0-5.37-11.8-2.33-11.8-11.92
		c0-5.17,3.87-8.29,9.23-8.29c2.68,0,5.96,1.5,7.58,3.67l-3.24,3.79c-1.26-1.34-3.2-2.45-4.66-2.45c-1.82,0-3.47,0.79-3.47,3.28
		c0,4.62,11.8,1.3,11.8,11.96c0,4.93-4.1,8.09-9.19,8.09c-3.39,0-6.23-1.42-8.52-4.22L99.37,134.74z"/>
	<polygon points="138.2,114.34 143.22,116.4 134.46,127.64 143.53,140.74 138.17,142.67 128.7,128.07 128.62,128.07 128.62,142.04 
		123.41,142.36 123.41,114.97 128.62,114.34 128.62,126.89 128.7,126.89 	"/>
	<path d="M149.59,141.84l13.61-27.5h0.08l14.13,27.5l-5.56,0.83l-3.24-6.86h-10.38l-3.16,6.86L149.59,141.84z M160.29,131.23h6.08
		l-3.12-7.34L160.29,131.23z"/>
	<polygon points="5.28,149.22 12.25,149.22 12.82,151.73 7.89,151.73 7.89,154.83 11.54,154.83 11.54,157.33 7.89,157.33 
		7.89,162.76 5.28,163.07 	"/>
	<path d="M21.24,162.66l6.81-13.75h0.04l7.06,13.75l-2.78,0.41l-1.62-3.43h-5.19l-1.58,3.43L21.24,162.66z M26.59,157.35h3.04
		l-1.56-3.67L26.59,157.35z"/>
	<polygon points="46.04,162.92 46.04,149.22 48.64,148.91 48.64,162.76 	"/>
	<path d="M61.24,149.22h4.34c2.6,0,4.66,1.26,4.66,4.16c0,1.68-1.01,3.04-2.6,3.55l3.69,5.45l-2.84,0.69l-4.6-7.08h-0.04v6.77
		l-2.6,0.16V149.22z M63.85,155.36h0.95c1.28,0,2.53-0.37,2.53-1.89c0-1.56-1.18-1.74-2.47-1.74h-1.01V155.36z"/>
	<path d="M82.29,149.22h4.66c3.24,0,3.95,2.43,3.95,3.71c0,1.24-0.69,2.27-1.82,2.78c1.48,0.51,2.51,1.68,2.51,3.31
		c0,2.05-1.6,3.73-4.18,3.73h-5.11V149.22z M84.9,154.77h1.44c1.03,0,1.74-0.65,1.74-1.52s-0.71-1.52-1.74-1.52H84.9V154.77z
		 M84.9,160.25h1.36c1.78,0,2.41-0.53,2.41-1.7c0-1.16-0.63-1.7-2.41-1.7H84.9V160.25z"/>
	<path d="M101.36,162.66l6.81-13.75h0.04l7.06,13.75l-2.78,0.41l-1.62-3.43h-5.19l-1.58,3.43L101.36,162.66z M106.7,157.35h3.04
		l-1.56-3.67L106.7,157.35z"/>
	<polygon points="126.03,163.07 126.03,148.91 126.09,148.91 134.18,157.09 134.18,149.22 136.78,148.91 136.78,163.07 
		136.73,163.07 128.64,154.99 128.64,162.76 	"/>
	<polygon points="156.69,148.91 159.19,149.93 154.81,155.56 159.35,162.11 156.67,163.07 151.93,155.77 151.89,155.77 
		151.89,162.76 149.29,162.92 149.29,149.22 151.89,148.91 151.89,155.18 151.93,155.18 	"/>
	<path d="M171.25,159.11c0.67,0.75,1.14,1.46,2.6,1.46c0.93,0,1.73-0.73,1.73-1.56c0-2.68-5.9-1.16-5.9-5.96
		c0-2.58,1.93-4.14,4.62-4.14c1.34,0,2.98,0.75,3.79,1.83l-1.62,1.89c-0.63-0.67-1.6-1.22-2.33-1.22c-0.91,0-1.73,0.4-1.73,1.64
		c0,2.31,5.9,0.65,5.9,5.98c0,2.47-2.05,4.05-4.6,4.05c-1.7,0-3.12-0.71-4.26-2.11L171.25,159.11z"/>
	<polygon points="149.93,89.49 134.83,89.49 120.37,42.89 120.37,1.7 181.23,1.7 181.23,21.16 150.15,21.16 150.15,28.86 
		173.97,28.86 173.97,48.5 149.93,48.5 	"/>
	<polygon style="fill:none;stroke:#FFFFFF;stroke-width:2;stroke-miterlimit:3.864;" points="149.93,89.49 134.83,89.49 
		120.37,42.89 120.37,1.7 181.23,1.7 181.23,21.16 150.15,21.16 150.15,28.86 173.97,28.86 173.97,48.5 149.93,48.5 	"/>
	<path d="M29.81,1.61l0,57.97c0,0-0.29,3.86,2.94,3.86c3.59,0,3.26-3.84,3.26-3.84L35.98,1.61h27.2V41l-16.4,48.4h2.17
		c-3.72,0.64-8.41,1.04-14.32,1.04c-30.8,0-32.4-10.03-32.4-10.03V1.61H29.81z"/>
	<path style="fill:none;stroke:#FFFFFF;stroke-width:2;stroke-miterlimit:3.864;" d="M29.81,1.61l0,57.97c0,0-0.29,3.86,2.94,3.86
		c3.59,0,3.26-3.84,3.26-3.84L35.98,1.61h27.2V41l-16.4,48.4h2.17c-3.72,0.64-8.41,1.04-14.32,1.04c-30.8,0-32.4-10.03-32.4-10.03
		V1.61H29.81z"/>
	<polygon points="46.89,89.47 134.54,89.48 107.21,1.71 76.47,1.71 	"/>
	<polygon style="fill:none;stroke:#FFFFFF;stroke-width:2;stroke-miterlimit:3.864;" points="46.89,89.47 134.54,89.48 107.21,1.71 
		76.47,1.71 	"/>
	<path style="fill-rule:evenodd;clip-rule:evenodd;fill:#FFFFFF;" d="M116.58,84.47h13.06l-0.78-2.49h-11.83
		c0.21-1.21,0.44-2.6,0.65-4.1h9.9l-0.78-2.49h-8.79c0.16-1.33,0.3-2.71,0.41-4.1h7.1l-0.78-2.49h-6.16
		c0.22-4.97-0.11-9.71-1.72-12.26C111.3,47.77,99,44.79,92.78,42.76l-0.72,2.56l-2.26-0.85l0.72-2.55c0.99-2.9,0.37-5.12,6.65-4.56
		c0.54-0.52,2.06-3.52,1.73-4.19c-1.74-0.89-5.98-1.85-5.98-1.85s-0.9-1.26-2.03-1.73c-2.5-1.02-5.17-1.2-7.96-0.1
		c-0.28-0.16-1.42-0.64-2.38-0.18c-1.54,0.74-1.25,1.97-1.24,2.02c-0.3,0.24-0.36,0.37-0.61,0.64c-1.81,1.95-3.04,4.05-4.09,6.47
		c-0.19,0.45-2.41,4.89-3.27,8.25c-1.7,6.62-1.74,11.9,0,17.51c0.5,1.61,0.71,3.15,0.94,4.67H57.08l-0.85,2.49H72.7
		c0.31,1.37,0.76,2.73,1.6,4.1H54.83l-0.85,2.49h22.21c0.84,0.99,1.82,2.1,2.64,3.01c2.03-0.96,3.32-2.63,4.06-4.94l-1.33-9.91
		l-1.48-0.96l1.85-2l1.77,1.44l1.51,11.62c-0.75,2.5-1.72,4.32-3.23,5.59H52.65l-0.85,2.49h24.73l-13.28,5.03h59.4l-6.51-2.7
		C116.14,86.64,116.32,85.83,116.58,84.47 M100.24,81.96l1.99-3.83l-0.86-4.15l-4.95-2.07c-0.58,2.84-1.49,5.71-2.71,8.92
		l-2.61,0.26c2.93-6.84,4.17-13.58,3.74-20.21l2.27,0.35c0.19,3,0.09,5.71-0.3,8.38l6.55,2.73l2.25,11.38L100.24,81.96z"/>
	<polygon points="157.17,83.64 158.56,83.64 158.56,87.83 159.54,87.77 159.54,83.64 160.8,83.64 160.8,82.7 157.41,82.7 	"/>
	<polygon points="161.88,87.89 162.26,85.31 162.28,85.31 163.54,87.89 163.56,87.89 164.8,85.31 164.82,85.31 165.22,87.89 
		166.18,87.77 165.21,82.58 165.2,82.58 163.55,85.98 161.9,82.58 161.89,82.58 160.94,87.77 	"/>
</g>
</svg>
