<?xml version="1.0" encoding="utf-8"?>
<!-- Generator: Adobe Illustrator 21.0.0, SVG Export Plug-In . SVG Version: 6.00 Build 0)  -->
<svg version="1.1" id="Layer_1" xmlns="http://www.w3.org/2000/svg" xmlns:xlink="http://www.w3.org/1999/xlink" x="0px" y="0px"
	 viewBox="0 0 354.69 125.34" style="enable-background:new 0 0 354.69 125.34;" xml:space="preserve">
<g>
	<path style="fill:#00A886;" d="M76.75,39.17c0,0,0.13,0,0.25,0c0,0.13,0,0.25,0,0.25C77,60,60.26,76.75,39.68,76.75
		S2.35,60,2.35,39.42c0,0,0-0.13,0-0.25c0.45,0,8.22,0,8.67,0c0,0.13,0,0.25,0,0.25c0,15.8,12.86,28.67,28.67,28.67
		c15.8,0,28.66-12.86,28.66-28.67c0,0,0-0.13,0-0.25C68.8,39.17,76.75,39.17,76.75,39.17z"/>
	<path style="fill:#007AC2;" d="M39.24,62.71l0.36,0c-0.01,0,0.08,0,0.08,0l0.28,0c12.85,0,23.08-10.33,23.29-23.52
		c0.06-3.63-1.73-7.84-2.25-8.71L44.2,1.07h-9.21l-16.8,29.42c-0.51,0.86-2.3,5.06-2.25,8.7C16.15,52.37,26.39,62.71,39.24,62.71z
		 M24.72,39.17c0-2.58,1.05-4.96,1.97-6.75c0.02-0.03,12.13-20.54,12.91-21.86c0.78,1.32,12.92,21.87,12.92,21.87
		c0.91,1.76,1.96,4.15,1.96,6.73c0,8.09-6.52,14.67-14.53,14.67h-0.26c-0.02,0-0.09,0-0.09,0h-0.07c-0.02,0-0.28,0-0.28,0
		C31.23,53.84,24.72,47.26,24.72,39.17z"/>
	<g>
		<path style="fill:#007AC2;" d="M128.87,1.64v71.12h-7.3L95.77,8.63c0,0,0,0.01,0,0.02c-0.05-0.19-1.61-3.52-1.61-3.52l0.16,2.18
			v65.44h-3.87V1.64h7.3l25.79,64.54c0,0,0-0.01,0-0.02c0.05,0.2,1.6,3.7,1.6,3.7L125,67.39V1.64H128.87z"/>
		<path style="fill:#007AC2;" d="M144.65,5.37v29.29h9.12c13.25,0,13.63-13.67,13.63-15.23c0-9.33-4.72-14.06-14.02-14.06H144.65z
			 M155.12,1.64c10.31,0,16.71,6.73,16.71,17.57c0,13.96-9.46,16.91-12.37,17.38c0,0-0.42,0.14-2.08,0.32l0,0l2.11,0.33
			c2.88,0.63,4.97,3.07,6.05,6.36c-0.01-0.06,9.97,29.15,9.97,29.15h-4.3l-8.26-24.57c-2.09-6.52-4.09-9.63-9.74-9.63h-8.55v34.2
			h-4.03V1.64H155.12z"/>
		<path style="fill:#007AC2;" d="M177.46,36.94c0-13.26,5.93-35.87,28.17-35.87c2.75,0,7.05,0.55,10.24,2.06
			c-0.01,0.39-0.16,4.01-0.19,4.86c-2.48-1.53-6.53-2.99-10.54-2.99c-0.23,0-23.11,0.53-23.11,32.15
			c0,23.61,14.12,32.58,23.01,32.58c4.72,0,7.44-1.29,10.43-2.82c0.03,0.79,0.18,4.35,0.2,4.75c-3.39,1.32-6.9,1.99-10.44,1.99
			C183.31,73.64,177.46,50.51,177.46,36.94z"/>
		<path style="fill:#007AC2;" d="M246.34,55.45c0-9.05-4.92-12.78-13.08-18.68c-8.96-6.62-11.69-11.2-11.69-19.07
			c0-15.83,13.76-16.63,16.51-16.63c4.65,0,7.9,1.28,9.57,1.97c-0.02,0.42-0.19,4.77-0.2,4.93c-2.41-1.49-5.36-2.97-9.77-2.97
			c-4.05,0-11.71,2.46-11.71,11.77c0,7.73,3.81,10.93,9.58,15.52c11.79,9.39,15.19,12.68,15.19,22.22c0,11.27-6.99,19.13-17,19.13
			c-3.39,0-8.21-0.8-11.68-3.01c0.02-0.34,0.22-4.25,0.26-5.03c5.05,3.97,10.35,4.12,10.95,4.12
			C243.6,69.72,246.34,60.38,246.34,55.45z"/>
	</g>
	<g>
		<path style="fill:#007AC2;" d="M267.11,12.08c-0.08-1.96-0.1-5.77-0.1-11.25h1.24v12.61h-1.81c-2.65-5.55-4.43-9.33-5.23-11.25
			h-0.06c0.06,1.93,0.08,5.73,0.08,11.25H260V0.83h1.82c2.65,5.48,4.42,9.3,5.24,11.25H267.11z"/>
		<path style="fill:#007AC2;" d="M276.33,13.44c-0.18-0.21-0.24-0.48-0.26-0.77h-0.03c-0.54,0.58-1.53,0.98-2.43,0.98
			c-2,0-2.83-0.94-2.83-2.52c0-1.88,1.34-3.1,5.23-3.65V7.13c0-1.53-0.41-2.38-1.77-2.38c-1.19,0-1.72,0.92-1.83,1.82l-1.26-0.1
			c0.21-1.25,1-2.45,3.13-2.45c2.02,0,2.98,0.78,2.98,3.4v4.56c0,0.78,0.05,1.12,0.33,1.39v0.08H276.33z M276.01,8.16
			c-2.82,0.44-3.97,1.45-3.97,2.89c0,1.08,0.44,1.82,1.8,1.82c0.57,0,1.53-0.28,2.17-1.08V8.16z"/>
		<path style="fill:#007AC2;" d="M280.27,2.24h1.19v1.98h2.09v0.79h-2.09v5.35c0,1.72,0.51,2.48,1.28,2.48c0.5,0,0.9-0.23,1.14-0.39
			l0.24,0.77c-0.36,0.19-0.92,0.42-1.6,0.42c-1.34,0-2.24-0.74-2.24-2.87V5.01h-1.12V4.22h1.12V2.24z"/>
		<path style="fill:#007AC2;" d="M286.97,4.22v6.24c0,0.73,0.04,1.39,0.35,1.79c0.21,0.26,0.56,0.47,1.16,0.47
			c0.4,0,0.86-0.13,1.3-0.37c0.4-0.24,0.89-0.62,1.33-1.14v-7h1.23v9.21h-1.23l0.03-1.22h-0.07c-0.42,0.35-0.82,0.7-1.27,0.96
			c-0.52,0.29-1.1,0.47-1.71,0.47c-0.74,0-1.4-0.2-1.79-0.67c-0.37-0.45-0.56-1.08-0.56-2.11V4.22H286.97z"/>
		<path style="fill:#007AC2;" d="M296.01,5.16c0.27-0.32,0.54-0.61,0.87-0.82c0.31-0.19,0.64-0.32,1.05-0.32
			c0.23,0,0.44,0.03,0.64,0.1c0.16,0.06,0.28,0.13,0.42,0.23l-0.15,0.93c-0.11-0.11-0.23-0.19-0.36-0.25
			c-0.18-0.07-0.35-0.11-0.58-0.11c-0.3,0-0.61,0.12-0.96,0.4c-0.32,0.25-0.65,0.62-0.94,1.06v7.06h-1.2V4.22h1.2l-0.03,0.94H296.01
			z"/>
		<path style="fill:#007AC2;" d="M305.89,13.44c-0.18-0.21-0.24-0.48-0.26-0.77h-0.03c-0.54,0.58-1.53,0.98-2.44,0.98
			c-2,0-2.82-0.94-2.82-2.52c0-1.88,1.34-3.1,5.23-3.65V7.13c0-1.53-0.41-2.38-1.77-2.38c-1.19,0-1.72,0.92-1.83,1.82l-1.26-0.1
			c0.21-1.25,1-2.45,3.13-2.45c2.02,0,2.98,0.78,2.98,3.4v4.56c0,0.78,0.05,1.12,0.33,1.39v0.08H305.89z M305.58,8.16
			c-2.82,0.44-3.97,1.45-3.97,2.89c0,1.08,0.44,1.82,1.8,1.82c0.57,0,1.53-0.28,2.17-1.08V8.16z"/>
		<path style="fill:#007AC2;" d="M309.86,13.44V0.85h1.27v12.59H309.86z"/>
		<path style="fill:#007AC2;" d="M267.89,33.14h-1.6l-3.32-5.42h-1.78v5.42h-1.31V20.53h2.97c2.54,0,4.33,0.88,4.33,3.57
			c0,2.29-1.36,3.23-2.96,3.45L267.89,33.14z M263.17,26.82c1.68,0,2.67-0.92,2.67-2.7c0-1.75-0.74-2.69-3.03-2.69h-1.63v5.38
			H263.17z"/>
		<path style="fill:#007AC2;" d="M270.32,28.69c0.06,3.04,1.15,3.93,2.26,3.93c0.98,0,1.63-0.57,2.02-1.71l1.25,0.1
			c-0.17,0.56-0.48,1.15-1.01,1.6c-0.52,0.45-1.24,0.74-2.28,0.74c-0.97,0-1.88-0.29-2.52-1.07c-0.61-0.75-0.97-1.97-0.97-3.84
			c0-1.65,0.34-2.92,1.03-3.71c0.6-0.68,1.41-1.02,2.43-1.02c0.92,0,1.71,0.35,2.31,1.05c0.67,0.87,1.02,2.22,1.02,3.92H270.32z
			 M274.6,28.02c-0.1-2.32-0.97-3.57-2.08-3.57c-1.12,0-2.14,0.81-2.2,3.57H274.6z"/>
		<path style="fill:#007AC2;" d="M281.76,25.43c-0.16-0.51-0.64-0.99-1.5-0.99c-0.43,0-0.85,0.11-1.13,0.33
			c-0.25,0.23-0.4,0.61-0.4,1.07c0,0.35,0.13,0.74,0.36,1.01c0.29,0.35,0.59,0.52,1.63,0.96c1,0.44,1.52,0.77,1.88,1.23
			c0.29,0.35,0.48,0.86,0.48,1.54c0,0.82-0.22,1.46-0.71,1.97c-0.49,0.48-1.21,0.79-2.12,0.79c-0.69,0-1.32-0.1-1.82-0.41
			c-0.46-0.24-0.83-0.71-1.02-1.31l1.12-0.1c0.21,0.71,0.84,1.1,1.68,1.1c0.47,0,0.93-0.16,1.26-0.51c0.25-0.29,0.4-0.74,0.4-1.41
			c0-0.39-0.11-0.81-0.36-1.13c-0.3-0.41-0.75-0.67-1.69-1.02c-0.98-0.41-1.43-0.71-1.79-1.19c-0.31-0.4-0.47-0.9-0.47-1.42
			c0-0.72,0.29-1.32,0.77-1.68c0.48-0.36,1.09-0.55,1.93-0.55c0.72,0,1.33,0.16,1.8,0.49c0.38,0.27,0.65,0.63,0.78,1.13
			L281.76,25.43z"/>
		<path style="fill:#007AC2;" d="M292.08,28.55c0,3.11-1.21,4.79-3.69,4.79c-2.5,0-3.7-1.59-3.7-4.81c0-3.59,1.6-4.82,3.7-4.82
			c2.09,0,3.69,1.22,3.69,4.82V28.55z M288.4,32.57c1.48,0,2.42-1.29,2.42-4.03c0-3.02-1.15-4.03-2.44-4.03
			c-1.3,0-2.44,1.02-2.44,4.03c0,2.88,0.97,4.03,2.44,4.03H288.4z"/>
		<path style="fill:#007AC2;" d="M295.44,23.93v6.24c0,0.73,0.04,1.39,0.35,1.79c0.21,0.26,0.56,0.47,1.16,0.47
			c0.4,0,0.86-0.13,1.3-0.37c0.4-0.24,0.89-0.62,1.33-1.14v-7h1.23v9.21h-1.23l0.03-1.22h-0.07c-0.42,0.35-0.82,0.7-1.27,0.96
			c-0.52,0.29-1.1,0.47-1.71,0.47c-0.74,0-1.4-0.2-1.79-0.67c-0.37-0.45-0.56-1.08-0.56-2.11v-6.64H295.44z"/>
		<path style="fill:#007AC2;" d="M304.48,24.86c0.27-0.32,0.54-0.61,0.87-0.82c0.31-0.19,0.64-0.32,1.05-0.32
			c0.23,0,0.44,0.03,0.64,0.1c0.16,0.06,0.29,0.13,0.42,0.23l-0.15,0.93c-0.11-0.11-0.23-0.18-0.36-0.25
			c-0.18-0.07-0.35-0.11-0.58-0.11c-0.3,0-0.61,0.12-0.96,0.4c-0.32,0.25-0.65,0.62-0.94,1.06v7.06h-1.2v-9.21h1.2l-0.03,0.94
			H304.48z"/>
		<path style="fill:#007AC2;" d="M313.4,25.89c-0.24-0.8-0.63-1.4-1.47-1.4c-1.1,0-2,1.23-2,4.02c0,3.21,0.91,4.06,1.98,4.06
			c0.87,0,1.34-0.62,1.56-1.71l1.21,0.09c-0.26,1.52-1.22,2.4-2.78,2.4c-1.99,0-3.2-1.28-3.2-4.84c0-3.38,1.32-4.79,3.24-4.79
			c1.56,0,2.38,0.88,2.65,2.09L313.4,25.89z"/>
		<path style="fill:#007AC2;" d="M317.51,28.69c0.06,3.04,1.15,3.93,2.26,3.93c0.98,0,1.63-0.57,2.02-1.71l1.25,0.1
			c-0.17,0.56-0.48,1.15-1.01,1.6c-0.52,0.45-1.24,0.74-2.28,0.74c-0.97,0-1.88-0.29-2.52-1.07c-0.62-0.75-0.97-1.97-0.97-3.84
			c0-1.65,0.35-2.92,1.03-3.71c0.6-0.68,1.41-1.02,2.43-1.02c0.92,0,1.71,0.35,2.31,1.05c0.67,0.87,1.02,2.22,1.02,3.92H317.51z
			 M321.79,28.02c-0.1-2.32-0.97-3.57-2.08-3.57c-1.12,0-2.14,0.81-2.21,3.57H321.79z"/>
		<path style="fill:#007AC2;" d="M328.96,25.43c-0.16-0.51-0.64-0.99-1.5-0.99c-0.43,0-0.85,0.11-1.13,0.33
			c-0.25,0.23-0.4,0.61-0.4,1.07c0,0.35,0.13,0.74,0.36,1.01c0.29,0.35,0.59,0.52,1.63,0.96c1,0.44,1.52,0.77,1.88,1.23
			c0.29,0.35,0.48,0.86,0.48,1.54c0,0.82-0.22,1.46-0.71,1.97c-0.49,0.48-1.21,0.79-2.12,0.79c-0.69,0-1.32-0.1-1.82-0.41
			c-0.46-0.24-0.83-0.71-1.03-1.31l1.12-0.1c0.21,0.71,0.84,1.1,1.68,1.1c0.47,0,0.93-0.16,1.26-0.51c0.25-0.29,0.4-0.74,0.4-1.41
			c0-0.39-0.11-0.81-0.36-1.13c-0.3-0.41-0.75-0.67-1.69-1.02c-0.98-0.41-1.43-0.71-1.79-1.19c-0.31-0.4-0.47-0.9-0.47-1.42
			c0-0.72,0.29-1.32,0.77-1.68c0.48-0.36,1.09-0.55,1.93-0.55c0.72,0,1.33,0.16,1.8,0.49c0.38,0.27,0.65,0.63,0.78,1.13
			L328.96,25.43z"/>
		<path style="fill:#007AC2;" d="M267.63,49.67c-0.47,1.83-1.87,3.42-3.83,3.42c-1.29,0-2.42-0.51-3.15-1.52
			c-0.82-1.05-1.31-2.67-1.31-5.06c0-2.12,0.46-3.8,1.3-4.92c0.79-1.03,1.86-1.6,3.2-1.6c1.83,0,3.16,1.09,3.6,3.18l-1.29,0.14
			c-0.34-1.5-1.04-2.43-2.32-2.43c-1.59,0-3.15,1.31-3.15,5.68c0,4.43,1.52,5.65,3.11,5.65c1.47,0,2.27-1.49,2.54-2.7L267.63,49.67z
			"/>
		<path style="fill:#007AC2;" d="M276.62,48.26c0,3.11-1.21,4.79-3.69,4.79c-2.5,0-3.7-1.59-3.7-4.81c0-3.59,1.6-4.81,3.7-4.81
			c2.09,0,3.69,1.22,3.69,4.81V48.26z M272.94,52.27c1.48,0,2.42-1.29,2.42-4.03c0-3.02-1.15-4.03-2.44-4.03
			c-1.3,0-2.44,1.02-2.44,4.03c0,2.88,0.97,4.03,2.44,4.03H272.94z"/>
		<path style="fill:#007AC2;" d="M284.17,52.85v-6.26c0-0.72-0.05-1.36-0.35-1.76c-0.23-0.28-0.56-0.48-1.16-0.48
			c-0.4,0-0.81,0.13-1.24,0.36c-0.43,0.24-1,0.69-1.39,1.17v6.98h-1.23v-9.21h1.23l-0.03,1.19h0.07c0.45-0.37,0.93-0.72,1.42-0.99
			c0.48-0.25,1.01-0.42,1.56-0.42c0.75,0,1.38,0.2,1.78,0.67c0.37,0.45,0.56,1.08,0.56,2.11v6.64H284.17z"/>
		<path style="fill:#007AC2;" d="M291.75,45.14c-0.16-0.51-0.64-0.99-1.5-0.99c-0.43,0-0.85,0.11-1.13,0.33
			c-0.25,0.23-0.4,0.61-0.4,1.07c0,0.35,0.13,0.74,0.36,1.01c0.29,0.35,0.59,0.52,1.63,0.96c1,0.44,1.52,0.77,1.88,1.23
			c0.29,0.35,0.48,0.86,0.48,1.55c0,0.82-0.22,1.46-0.71,1.97c-0.49,0.48-1.21,0.79-2.12,0.79c-0.69,0-1.32-0.1-1.82-0.41
			c-0.46-0.24-0.83-0.71-1.03-1.31l1.12-0.1c0.21,0.71,0.84,1.1,1.68,1.1c0.47,0,0.93-0.16,1.26-0.51c0.25-0.29,0.4-0.74,0.4-1.41
			c0-0.39-0.11-0.81-0.36-1.13c-0.3-0.41-0.75-0.67-1.69-1.02c-0.98-0.41-1.43-0.71-1.79-1.19c-0.31-0.4-0.47-0.9-0.47-1.42
			c0-0.72,0.29-1.32,0.77-1.68c0.48-0.36,1.09-0.55,1.93-0.55c0.72,0,1.32,0.16,1.8,0.49c0.38,0.27,0.65,0.63,0.78,1.13
			L291.75,45.14z"/>
		<path style="fill:#007AC2;" d="M295.91,48.39c0.06,3.04,1.15,3.93,2.26,3.93c0.98,0,1.63-0.57,2.02-1.71l1.25,0.1
			c-0.17,0.56-0.48,1.15-1.01,1.6c-0.52,0.45-1.24,0.74-2.28,0.74c-0.97,0-1.88-0.29-2.52-1.07c-0.62-0.75-0.97-1.97-0.97-3.84
			c0-1.65,0.34-2.92,1.03-3.71c0.6-0.68,1.41-1.02,2.43-1.02c0.92,0,1.71,0.35,2.31,1.05c0.67,0.87,1.02,2.22,1.02,3.92H295.91z
			 M300.19,47.73c-0.1-2.32-0.97-3.57-2.08-3.57c-1.11,0-2.14,0.81-2.2,3.57H300.19z"/>
		<path style="fill:#007AC2;" d="M304.62,44.57c0.27-0.32,0.54-0.61,0.87-0.82c0.31-0.19,0.64-0.32,1.05-0.32
			c0.23,0,0.44,0.03,0.64,0.1c0.16,0.06,0.29,0.13,0.42,0.23l-0.15,0.93c-0.11-0.11-0.23-0.19-0.36-0.25
			c-0.18-0.07-0.35-0.11-0.58-0.11c-0.3,0-0.61,0.12-0.96,0.4c-0.32,0.25-0.65,0.62-0.94,1.06v7.06h-1.2v-9.21h1.2l-0.03,0.94
			H304.62z"/>
		<path style="fill:#007AC2;" d="M312.17,52.07c0.37-1.6,0.72-2.63,1.13-4.4l1.13-4.04h1.33l-2.92,9.21h-1.43l-2.9-9.21h1.33
			l1.13,4.06c0.38,1.37,0.76,2.8,1.13,4.38H312.17z"/>
		<path style="fill:#007AC2;" d="M322.65,52.85c-0.18-0.21-0.24-0.48-0.26-0.77h-0.03c-0.54,0.58-1.53,0.98-2.43,0.98
			c-2,0-2.82-0.94-2.82-2.52c0-1.88,1.34-3.1,5.23-3.65v-0.34c0-1.53-0.41-2.38-1.77-2.38c-1.19,0-1.72,0.92-1.83,1.82l-1.26-0.1
			c0.21-1.25,1-2.45,3.13-2.45c2.02,0,2.98,0.78,2.98,3.4v4.56c0,0.78,0.05,1.12,0.33,1.39v0.08H322.65z M322.34,47.57
			c-2.82,0.44-3.97,1.45-3.97,2.89c0,1.08,0.44,1.82,1.8,1.82c0.57,0,1.53-0.28,2.17-1.08V47.57z"/>
		<path style="fill:#007AC2;" d="M326.6,41.65h1.19v1.98h2.09v0.79h-2.09v5.36c0,1.72,0.51,2.48,1.28,2.48c0.5,0,0.9-0.23,1.14-0.39
			l0.24,0.77c-0.36,0.19-0.92,0.42-1.6,0.42c-1.35,0-2.24-0.74-2.24-2.87v-5.77h-1.12v-0.79h1.12V41.65z"/>
		<path style="fill:#007AC2;" d="M332.42,41.7v-1.49h1.27v1.49H332.42z M333.68,52.85h-1.27v-9.21h1.27V52.85z"/>
		<path style="fill:#007AC2;" d="M343.55,48.26c0,3.11-1.21,4.79-3.69,4.79c-2.5,0-3.7-1.59-3.7-4.81c0-3.59,1.6-4.81,3.7-4.81
			c2.09,0,3.69,1.22,3.69,4.81V48.26z M339.88,52.27c1.48,0,2.42-1.29,2.42-4.03c0-3.02-1.15-4.03-2.44-4.03
			c-1.3,0-2.44,1.02-2.44,4.03c0,2.88,0.97,4.03,2.44,4.03H339.88z"/>
		<path style="fill:#007AC2;" d="M351.11,52.85v-6.26c0-0.72-0.05-1.36-0.35-1.76c-0.23-0.28-0.56-0.48-1.16-0.48
			c-0.4,0-0.81,0.13-1.24,0.36c-0.43,0.24-1,0.69-1.39,1.17v6.98h-1.23v-9.21h1.23l-0.03,1.19h0.07c0.45-0.37,0.93-0.72,1.42-0.99
			c0.48-0.25,1.01-0.42,1.56-0.42c0.75,0,1.38,0.2,1.78,0.67c0.37,0.45,0.56,1.08,0.56,2.11v6.64H351.11z"/>
		<path style="fill:#007AC2;" d="M264.48,62.08c-0.19-0.59-0.64-1.5-1.83-1.5c-0.62,0-1.18,0.3-1.51,0.68
			c-0.3,0.33-0.44,0.79-0.44,1.31c0,0.67,0.24,1.26,0.65,1.65c0.4,0.4,0.85,0.76,1.94,1.42c1.04,0.72,1.57,1.08,1.97,1.5
			c0.42,0.51,0.79,1.21,0.79,2.19c0,0.79-0.25,1.58-0.79,2.19c-0.53,0.57-1.33,1.28-2.72,1.28c-2.1,0-3.04-1.05-3.34-2.42l1.25-0.1
			c0.25,0.72,0.82,1.63,2.09,1.63c0.82,0,1.36-0.46,1.72-0.9c0.31-0.41,0.48-0.98,0.48-1.54c0-0.74-0.28-1.25-0.61-1.66
			c-0.33-0.33-0.73-0.61-1.88-1.39c-1.17-0.73-1.64-1.13-2.03-1.6c-0.42-0.5-0.79-1.21-0.79-2.18c0-0.74,0.22-1.44,0.76-1.95
			c0.55-0.59,1.34-1,2.51-1c1.9,0,2.78,1.09,3.02,2.32L264.48,62.08z"/>
		<path style="fill:#007AC2;" d="M268.96,68.1c0.06,3.04,1.15,3.93,2.26,3.93c0.98,0,1.63-0.57,2.02-1.71l1.25,0.1
			c-0.17,0.56-0.48,1.15-1.01,1.6c-0.52,0.45-1.24,0.74-2.28,0.74c-0.97,0-1.88-0.29-2.52-1.07c-0.61-0.75-0.97-1.97-0.97-3.84
			c0-1.65,0.34-2.92,1.03-3.71c0.6-0.68,1.41-1.02,2.43-1.02c0.92,0,1.71,0.35,2.31,1.05c0.67,0.87,1.02,2.22,1.02,3.92H268.96z
			 M273.24,67.43c-0.1-2.32-0.97-3.57-2.08-3.57c-1.12,0-2.14,0.81-2.2,3.57H273.24z"/>
		<path style="fill:#007AC2;" d="M277.67,64.27c0.27-0.32,0.54-0.61,0.87-0.82c0.31-0.19,0.64-0.32,1.05-0.32
			c0.23,0,0.44,0.03,0.64,0.1c0.16,0.06,0.28,0.13,0.42,0.23l-0.15,0.93c-0.11-0.11-0.23-0.18-0.36-0.25
			c-0.18-0.07-0.35-0.11-0.58-0.11c-0.3,0-0.61,0.12-0.96,0.4c-0.32,0.25-0.65,0.63-0.94,1.06v7.06h-1.2v-9.21h1.2l-0.03,0.94
			H277.67z"/>
		<path style="fill:#007AC2;" d="M285.22,71.77c0.37-1.6,0.72-2.63,1.13-4.4l1.13-4.04h1.33l-2.92,9.21h-1.43l-2.9-9.21h1.33
			l1.13,4.06c0.38,1.37,0.76,2.8,1.13,4.38H285.22z"/>
		<path style="fill:#007AC2;" d="M290.85,61.4v-1.49h1.27v1.49H290.85z M292.12,72.55h-1.27v-9.21h1.27V72.55z"/>
		<path style="fill:#007AC2;" d="M299.2,65.3c-0.24-0.8-0.63-1.4-1.47-1.4c-1.1,0-2,1.23-2,4.02c0,3.21,0.91,4.06,1.98,4.06
			c0.86,0,1.34-0.62,1.56-1.71l1.21,0.09c-0.26,1.52-1.22,2.4-2.78,2.4c-1.99,0-3.2-1.28-3.2-4.84c0-3.38,1.32-4.79,3.24-4.79
			c1.56,0,2.38,0.88,2.65,2.09L299.2,65.3z"/>
		<path style="fill:#007AC2;" d="M303.31,68.1c0.06,3.04,1.15,3.93,2.26,3.93c0.98,0,1.63-0.57,2.02-1.71l1.25,0.1
			c-0.17,0.56-0.48,1.15-1.01,1.6c-0.52,0.45-1.24,0.74-2.28,0.74c-0.97,0-1.88-0.29-2.52-1.07c-0.62-0.75-0.97-1.97-0.97-3.84
			c0-1.65,0.34-2.92,1.03-3.71c0.6-0.68,1.41-1.02,2.43-1.02c0.92,0,1.71,0.35,2.31,1.05c0.67,0.87,1.02,2.22,1.02,3.92H303.31z
			 M307.59,67.43c-0.1-2.32-0.97-3.57-2.08-3.57c-1.12,0-2.14,0.81-2.2,3.57H307.59z"/>
	</g>
	<path style="fill:#00A886;" d="M25.58,119.04H15.42L14.01,124H4.88l10.88-30.03h9.76L36.39,124h-9.37L25.58,119.04z M23.72,112.55
		l-3.19-10.8l-3.16,10.8H23.72z"/>
	<path style="fill:#00A886;" d="M66.2,93.97h8.94v22.64H89.1v7.4H66.2V93.97z"/>
	<path style="fill:#00A886;" d="M137.94,119.04h-10.15l-1.41,4.96h-9.13l10.88-30.03h9.76L148.75,124h-9.37L137.94,119.04z
		 M136.08,112.55l-3.19-10.8l-3.16,10.8H136.08z"/>
	<path style="fill:#00A886;" d="M177,114.06l8.51-0.55c0.18,1.43,0.56,2.53,1.13,3.28c0.92,1.22,2.24,1.82,3.95,1.82
		c1.28,0,2.26-0.31,2.95-0.93c0.69-0.62,1.04-1.34,1.04-2.16c0-0.78-0.33-1.47-0.99-2.09c-0.66-0.61-2.19-1.19-4.58-1.74
		c-3.92-0.91-6.72-2.13-8.39-3.65c-1.69-1.52-2.53-3.45-2.53-5.8c0-1.54,0.43-3,1.29-4.37c0.86-1.37,2.16-2.45,3.89-3.24
		c1.73-0.78,4.1-1.18,7.12-1.18c3.7,0,6.52,0.71,8.46,2.14c1.94,1.43,3.1,3.7,3.46,6.81l-8.43,0.51c-0.22-1.35-0.69-2.33-1.41-2.95
		c-0.72-0.61-1.71-0.92-2.97-0.92c-1.04,0-1.82,0.23-2.35,0.69c-0.53,0.46-0.79,1.01-0.79,1.67c0,0.48,0.22,0.91,0.65,1.29
		c0.42,0.4,1.42,0.77,3,1.11c3.91,0.87,6.71,1.76,8.4,2.65c1.69,0.9,2.92,2,3.69,3.33c0.77,1.33,1.16,2.81,1.16,4.45
		c0,1.93-0.51,3.7-1.54,5.33c-1.03,1.63-2.46,2.86-4.3,3.7c-1.84,0.84-4.17,1.26-6.97,1.26c-4.92,0-8.33-0.98-10.23-2.95
		C178.32,119.59,177.25,117.09,177,114.06z"/>
	<path style="fill:#00A886;" d="M234.77,93.97h8.94v11.35l9.37-11.35h11.9l-10.56,11.33l11.04,18.7h-11.01l-6.1-12.35l-4.62,5.02
		V124h-8.94V93.97z"/>
	<path style="fill:#00A886;" d="M313.17,119.04h-10.15l-1.41,4.96h-9.13l10.88-30.03h9.76L323.99,124h-9.37L313.17,119.04z
		 M311.32,112.55l-3.19-10.8l-3.16,10.8H311.32z"/>
</g>
</svg>
