<?xml version="1.0" encoding="utf-8"?>
<!-- Generator: Adobe Illustrator 21.0.0, SVG Export Plug-In . SVG Version: 6.00 Build 0)  -->
<svg version="1.1" xmlns="http://www.w3.org/2000/svg" xmlns:xlink="http://www.w3.org/1999/xlink" x="0px" y="0px"
	 viewBox="0 0 318.88 121.29" style="enable-background:new 0 0 318.88 121.29;" xml:space="preserve">
<g id="Logo">
</g>
<g id="Guides">
</g>
<g id="Program_name">
	<g>
		<g>
			<path style="fill:#FFFFFF;" d="M279.41,13.69c-0.26,1.5-0.36,5.2,1.8,4.73c2.88-0.62,2.51-0.92,4.08-2.29
				c1.05-0.92,3.63,1.6,0.04,5.6c-1.96,2.2-2.39,2.87-1.34,4.14c1.09,1.32,3.94,1.82,3.94,5.88c0,3.56,4.57,0.98,5.68-0.41
				c1.08-1.36,1.88-7.55,4.96-3.04c2.19,3.21-1.55,10.08,2.95,10.75c3.69,0.56,4.34,4.76,4.44,5.83c0.01,0.15,0.02,0.25,0.02,0.25
				c9.44-9.06,3.15-20.78,2.92-22.21c-0.41-2.54,0.96-1.61,2.65-0.05c-6.96-13.05-20.69-21.93-36.49-21.93
				c-2.73,0-5.4,0.27-7.98,0.78C275.21,1.88,280.9,5.14,279.41,13.69z"/>
			<path style="fill:#FFFFFF;" d="M301.08,63.52c-2.54,1.02-3.64-0.61-5.52,1.23c-2.07,2.02,4.55,5.99-7.64,3.21
				c-5.44-1.24-4.7,4.68-10.81,1.57c-1.69-4.03-1.74-6.4-0.3-8.92c1.69-2.95,2.29-1.96,1.27-5.21c-0.4-1.27-0.01-1.83,0.66-3.6
				c0.67-1.77-0.19-4.22-2.68-4.08c-3.31,0.18-2.93,1.69-4.97,3.06c-1.37,0.92-3.68-3.75,1.16-7.94c2.65-2.29,3.27-3.03,2.4-4.79
				c-0.91-1.83-2.59-1.17-3.26-3.28c-0.52-1.62,0.29-4.66-2.04-5.39c-2.64-0.82-4.75,2.95-6.27,4.43c-1.78,1.72-3.71,4.8-4.67,2.34
				c-1.69-4.36,6.09-10.87,1.29-12.59c-4.52-1.62-5.99-6.37-5.99-6.37c-12.41,9.2-6.53,17.3-7.57,18.73
				c-1.03,1.43-3.02-1.74-4.69-0.22c-1.29,1.17-2.44,8.7,5.51,13.47c3.01,1.81,4,2.27,3.28,3.37c-0.58,0.87-2.99,0.14-2.95,2.12
				c0.08,3.99,6.48,2.79,7.64,7.78c1.09,4.67,20.93,7.46,20.93,7.46c-0.02-0.02,0.09,0.01,0.25,0.06l0.94,0.52
				c0.3,1.23,1.48,4.05,4.24,5.47c4.57,2.35-0.28,1.22,0.34,2.88c0.32,0.84,3.56,3.03,9.32,1.7c7.96-3.32,14.66-9.07,19.18-16.32
				C305.2,60.37,304.83,61.17,301.08,63.52z"/>
			<g>
				<path style="fill:#49A942;" d="M276.11,69.97c-0.16-0.05-0.27-0.08-0.25-0.06c0,0-19.84-2.79-20.93-7.46
					c-1.16-4.99-7.56-3.8-7.64-7.78c-0.03-1.99,2.38-1.26,2.95-2.12c0.72-1.09-0.26-1.56-3.28-3.37c-7.95-4.77-6.8-12.3-5.51-13.47
					c1.67-1.52,3.66,1.66,4.69,0.22c1.03-1.43-4.84-9.53,7.57-18.73c0,0,1.47,4.75,5.99,6.37c4.8,1.73-2.99,8.23-1.29,12.59
					c0.95,2.45,2.89-0.62,4.67-2.34c1.52-1.48,3.63-5.25,6.27-4.43c2.33,0.73,1.52,3.77,2.04,5.39c0.68,2.1,2.36,1.44,3.26,3.28
					c0.88,1.76,0.25,2.5-2.4,4.79c-4.84,4.19-2.53,8.85-1.16,7.94c2.04-1.37,1.66-2.87,4.97-3.06c2.49-0.14,3.34,2.31,2.68,4.08
					c-0.67,1.77-1.06,2.33-0.66,3.6c1.02,3.25,0.42,2.26-1.27,5.21c-1.44,2.52-1.39,4.89,0.3,8.92c6.11,3.11,5.37-2.81,10.81-1.57
					c12.18,2.78,5.56-1.19,7.64-3.21c1.88-1.84,2.99-0.21,5.52-1.23c3.76-2.36,4.12-3.16,9.07,0.72c3.98-6.36,6.29-13.87,6.29-21.92
					c0-7-1.75-13.6-4.82-19.39c-1.73-1.61-3.15-2.61-2.73-0.02c0.23,1.43,6.52,13.15-2.92,22.21c0,0-0.01-0.1-0.02-0.25
					c-0.1-1.07-0.75-5.28-4.44-5.83c-4.49-0.67-0.76-7.54-2.95-10.75c-3.08-4.51-3.88,1.68-4.96,3.04
					c-1.11,1.39-5.68,3.97-5.68,0.41c0-4.06-2.85-4.56-3.94-5.88c-1.05-1.27-0.62-1.94,1.34-4.14c3.59-4.01,1.01-6.53-0.04-5.6
					c-1.58,1.38-1.2,1.67-4.08,2.29c-2.16,0.47-2.06-3.22-1.8-4.73c1.49-8.56-4.21-11.82-12.37-11.98
					c-19.03,3.73-33.39,20.49-33.39,40.62c0,22.86,18.53,41.4,41.39,41.4c5.64,0,11.02-1.14,15.92-3.18
					c-5.77,1.34-9.02-0.85-9.34-1.7c-0.62-1.66,4.23-0.53-0.34-2.88c-2.76-1.42-3.94-4.24-4.24-5.47L276.11,69.97z"/>
			</g>
			<path style="fill:#49A942;" d="M278.44,71.24c0,0-27.21-10.56-28.16-37.34C250.28,33.9,252.91,54.26,278.44,71.24z"/>
			<path style="fill:#49A942;" d="M278.24,0.99c0.78,0.09,6.64,0.87,12.83,4.82c2.3,2.16,5.56,7.44,0.53,18.28
				c0,0,6.44-8.7,4.82-13.97c5.4,5.42,9.94,14.01,10.12,27.63C306.52,37.74,312.53,3.63,278.24,0.99z"/>
			<path style="fill:#49A942;" d="M305.43,68.66c-2.07,1.26-5.44,4.23-10.95,2.49c0,0,2.15,1.66,5.62,1.57
				c-4.42,2.28-9.21,2.83-16.79,0.93c0,0,15.35,9.05,26.07-8.27C309.39,65.37,306.73,67.87,305.43,68.66z"/>
		</g>
		<g>
			<path d="M15.64,32.1c0,2.98,0.57,3.81,2.69,3.81v0.74H9.53v-0.74c1.78,0,2.82-0.52,2.82-3.94V13.05h-3.6
				c-3.33,0-4.85,0.95-5.06,3.55H2.95v-5.67h0.74c0.35,0.3,0.74,0.52,1.34,0.69c0.56,0.14,1.34,0.22,2.38,0.22H20.4
				c2.16,0,3.16-0.26,3.94-0.91h0.78v5.67h-0.47c-0.48-2.07-1.3-3.55-5.24-3.55h-3.77V32.1z"/>
			<path d="M42.41,32.96c0,2.34,0.43,2.95,2.46,2.95v0.74H36.9v-0.74c2.08,0,2.56-0.48,2.56-2.47v-7.57c0-2.04-1.21-3.34-3.07-3.34
				c-1.74,0-2.99,0.82-4.46,2.9v8.4c0,1.6,0.65,2.07,2.55,2.07v0.74h-8.22v-0.74c2.29-0.04,2.73-0.48,2.73-2.95V13
				c0-1.99-0.57-2.29-2.73-2.29V9.97l4.94-0.52h0.74v14.51c1.95-2.25,3.38-3.07,5.36-3.07c2.56,0,5.11,1.69,5.11,5.32V32.96z"/>
			<path d="M49.57,27.29c-0.08,6.88,4.03,8.62,6.11,8.62c2.13,0,3.2-0.74,5.41-3.2v1.13c-1.86,2.38-3.64,3.28-6.32,3.28
				c-4.81,0-8.27-3.33-8.27-7.97c0-4.63,3.38-8.27,7.71-8.27c3.55,0,6.84,2.86,6.63,6.41H49.57z M57.93,26.56
				c0.13-3.38-2.17-4.76-4.11-4.76c-2.55,0-4.07,1.9-4.24,4.76H57.93z"/>
			<path d="M100.65,45.95h-1.17L71.75,11.77h-0.14v27.59c0,3.98,1.58,5.42,5.15,5.42v1.17H64.82v-1.17c3.29,0,4.87-1.03,4.87-6.72
				V15.07c0-4.39-1.17-6.86-5.83-7.28V6.63h10.09l24.57,30.61h0.14V14.24c0-5.15-1.37-6.45-4.8-6.45V6.63h11.87v1.16
				c-3.84,0-5.08,1.58-5.08,6.18V45.95z"/>
			<path d="M136.93,21.59h8.44v1.78h-8.44v15.65c0,3.36,1.72,5.08,4.39,5.08c1.79,0,3.09-0.69,4.53-2.33l0.75,0.89
				c-2.13,2.68-4.6,4.05-7.34,4.05c-4.12,0-7-2.88-7-7.07V23.37h-4.6V22.2c3.29-1.65,6.04-4.6,8.1-8.79h1.16V21.59z"/>
			<path d="M173.04,41.35c0,2.68,0.89,3.43,4.18,3.43v1.17l-8.85,0.48v-4.46h-0.14c-2.4,3.16-5.22,4.73-8.51,4.73
				c-4.81,0-7.96-3.64-7.96-8.17V26.11c0-2.33-0.82-3.23-4.33-3.23v-1.17l7.83-0.76h1.17v17.36c0,3.43,2.2,5.49,5.49,5.49
				c2.33,0,4.46-1.3,6.45-3.98V26.73c0-3.36-0.55-3.77-4.74-3.84v-1.17l8.23-0.76h1.17V41.35z"/>
			<path d="M188.12,41.35c0,2.68,0.82,3.43,4.05,3.43v1.17h-12.83v-1.17c3.71,0,4.12-0.96,4.12-4.67V26.87
				c0-3.57-0.89-3.98-5.01-3.98v-1.17l8.51-0.76h1.17v5.28c4.53-3.91,6.66-5.28,8.3-5.28c1.37,0,3.23,0.82,4.46,1.92l-1.86,4.32
				c-1.99-1.1-4.12-2.13-5.76-2.13c-1.58,0-2.95,0.82-5.15,2.95V41.35z"/>
			<path d="M206.14,31.13c-0.14,10.91,6.38,13.66,9.68,13.66c3.36,0,5.08-1.17,8.58-5.08v1.79c-2.95,3.77-5.77,5.21-10.02,5.21
				c-7.62,0-13.11-5.28-13.11-12.63s5.35-13.11,12.22-13.11c5.63,0,10.84,4.53,10.5,10.16H206.14z M219.39,29.96
				c0.21-5.35-3.43-7.55-6.52-7.55c-4.05,0-6.45,3.02-6.73,7.55H219.39z"/>
			<path d="M27.41,55.59c-1.44-5.55-4.47-7.97-9.55-7.97c-7.09,0-10.9,5.7-10.9,13.26c0,8.83,4.57,14.64,11.2,14.64
				c4.62,0,8.07-2.16,10.28-6.47l0.77,0.72c-1.95,4.68-6.63,7.6-12.28,7.6c-7.09,0-14.49-4.83-14.49-14.64
				c0-9.35,6.42-16.24,15.21-16.24c3.7,0,6.47,1.23,8.22,1.23c0.77,0,1.28-0.31,1.59-0.93h0.82v8.79H27.41z"/>
			<path d="M41.02,77.22c-5.7,0-9.97-4.11-9.97-9.61c0-5.55,4.26-9.66,9.97-9.66c5.7,0,9.97,4.11,9.97,9.66
				C50.98,73.11,46.72,77.22,41.02,77.22z M41.02,58.98c-3.85,0-6.17,3.39-6.17,8.63c0,4.68,1.95,8.58,6.17,8.58
				c4.31,0,6.17-4.16,6.17-8.58C47.18,63.04,45.23,58.98,41.02,58.98z"/>
			<path d="M72.09,72.7c0,2.36,0.51,3.08,3.08,3.08v0.88h-9.71v-0.88c2.46,0,3.13-0.56,3.13-2.26v-9.51c0-2.92-2.11-4.16-4.06-4.16
				c-1.8,0-3.39,1.13-5.19,3.54v8.89c0,2.77,0.36,3.49,3.08,3.49v0.88h-9.61v-0.88c2.41,0,3.03-0.21,3.03-3.49V62.07
				c0-2.21-0.56-2.67-3.03-2.67v-0.87l5.65-0.57h0.88v3.64c2.16-2.46,4.26-3.64,6.58-3.64c3.03,0,6.17,2.16,6.17,6.53V72.7z"/>
			<path d="M87.13,63.56c-0.36-3.03-2.36-4.57-4.52-4.57c-1.8,0-3.03,0.98-3.03,2.46c0,4.63,9.56,3.39,9.56,10.17
				c0,3.03-2.62,5.6-5.75,5.6c-2,0-3.75-1.34-4.63-1.34c-0.67,0-1.13,0.57-1.18,1.23H76.7V70.9h0.87c0.77,3.8,3.6,5.29,5.86,5.29
				c1.8,0,3.19-1.34,3.19-3.14c0-5.08-9.66-3.7-9.66-9.86c0-2.83,2.52-5.24,5.55-5.24c1.9,0,2.47,0.88,3.7,0.88
				c0.46,0,0.82-0.26,1.08-0.88h0.88v5.6H87.13z"/>
			<path d="M94.72,65.56c-0.1,8.17,4.78,10.22,7.25,10.22c2.52,0,3.8-0.87,6.42-3.8v1.33c-2.21,2.83-4.32,3.91-7.5,3.91
				c-5.7,0-9.81-3.96-9.81-9.46c0-5.5,4.01-9.81,9.15-9.81c4.21,0,8.12,3.39,7.86,7.6H94.72z M104.64,64.69
				c0.15-4.01-2.57-5.65-4.88-5.65c-3.03,0-4.83,2.26-5.04,5.65H104.64z"/>
			<path d="M117.13,73.22c0,2,0.62,2.57,3.03,2.57v0.88h-9.61v-0.88c2.77,0,3.08-0.72,3.08-3.49v-9.92c0-2.67-0.67-2.98-3.75-2.98
				v-0.87l6.37-0.57h0.88v3.96c3.39-2.93,4.98-3.96,6.22-3.96c1.03,0,2.41,0.62,3.34,1.44l-1.39,3.23
				c-1.49-0.82-3.08-1.59-4.32-1.59c-1.18,0-2.21,0.62-3.85,2.21V73.22z"/>
			<path d="M138.82,72.24l3.55-9.2c0.88-2.36,0.88-3.44-1.8-3.64v-0.87h6.68v0.87c-2.11,0.21-2.62,0.67-3.5,2.62l-5.86,15.06h-0.87
				l-5.81-14.28c-1.23-2.98-1.7-3.29-3.85-3.39v-0.87h8.79v0.87c-1.75,0.16-2.21,1.13-1.39,3.13L138.82,72.24z"/>
			<path d="M183.51,72.7c0,2.36,0.52,3.08,3.08,3.08v0.88h-9.71v-0.88c2.47,0,3.13-0.56,3.13-2.26v-9.51c0-2.92-2.11-4.16-4.06-4.16
				c-1.8,0-3.39,1.13-5.19,3.54v8.89c0,2.77,0.36,3.49,3.09,3.49v0.88h-9.61v-0.88c2.42,0,3.03-0.21,3.03-3.49V62.07
				c0-2.21-0.57-2.67-3.03-2.67v-0.87l5.65-0.57h0.87v3.64c2.16-2.46,4.27-3.64,6.58-3.64c3.04,0,6.17,2.16,6.17,6.53V72.7z"/>
			<path d="M203.73,64.38h-0.88c-0.77-3.28-3.08-5.39-6.12-5.39c-3.59,0-6.11,3.08-6.11,7.55c0,4.98,3.13,9.15,6.83,9.15
				c2.21,0,4.88-1.18,6.78-3.8v1.34c-1.95,2.67-4.73,4.01-8.01,4.01c-5.4,0-9.15-3.75-9.15-9.2c0-5.6,4.22-10.07,9.4-10.07
				c2.72,0,4.21,1.03,5.14,1.03c0.46,0,0.93-0.36,1.23-1.03h0.88V64.38z"/>
			<path d="M216.78,72.44l3.19-9.61c0.72-2.16,0.56-3.34-1.44-3.44v-0.87h6.42v0.87c-1.95,0-3.13,1.23-4.16,4.26l-7.25,21.42
				c-1.44,4.21-3.8,6.63-6.01,6.63c-0.77,0-1.33-0.2-2.26-0.77l1.18-3.13c0.72,0.31,1.13,0.41,1.74,0.41c2.21,0,3.5-1.28,4.63-4.47
				l2.37-6.58l-6.53-15.05c-0.93-2.11-1.6-2.67-3.7-2.72v-0.87h8.73v0.87c-1.39,0.21-1.95,1.23-1.28,2.77L216.78,72.44z"/>
			<path d="M124.33,40.66l0.01-10.77c0-6.59-4.73-8.92-8.79-8.92c-4.39,0-7.96,2.95-8.99,7.48l1.24,0.34
				c1.03-3.5,3.71-5.21,6.45-5.21c3.43,0,5.42,2.47,5.42,5.9v1.78c-3.98,2.34-13.45,2.06-13.45,8.99c0,3.57,3.16,6.45,6.93,6.45
				c2.54,0,4.41-1,6.81-3.61l0.01-0.01v2.92h8.53v-1.18C125.02,44.82,124.33,43.85,124.33,40.66z M119.67,41.01
				c-0.96,2.06-3.57,3.09-5.01,3.09c-1.99,0-3.71-1.99-3.71-4.46c0-4.94,4.12-4.87,8.72-6.86V41.01z"/>
			<path d="M160.48,72.68l0.01-7.98c0-4.88-3.51-6.61-6.52-6.61c-3.25,0-5.9,2.19-6.66,5.55l0.92,0.25
				c0.76-2.59,2.74-3.87,4.78-3.87c2.54,0,4.02,1.83,4.02,4.38v1.32c-2.95,1.73-9.97,1.53-9.97,6.67c0,2.65,2.34,4.78,5.14,4.78
				c1.88,0,3.27-0.75,5.05-2.68l0.01-0.01v2.17h6.32v-0.88C161,75.77,160.48,75.05,160.48,72.68z M157.03,72.94
				c-0.71,1.53-2.65,2.29-3.71,2.29c-1.48,0-2.75-1.48-2.75-3.31c0-3.66,3.05-3.61,6.46-5.09V72.94z"/>
		</g>
		<path style="fill:#808285;" d="M85.23,115.88V98.9h9.87v2.76h-6.65v4.04h5.12l0.44,2.73h-5.56v4.7h6.89v2.76H85.23z"/>
		<path style="fill:#808285;" d="M111.79,115.88v-7.78c0-1.03-0.37-1.75-1.45-1.75c-0.91,0-1.77,0.59-2.63,1.48v8.05h-2.95v-7.78
			c0-1.03-0.39-1.75-1.48-1.75c-0.91,0-1.77,0.59-2.63,1.48v8.05h-2.95v-11.89h2.51l0.27,1.67c1.11-1.06,2.31-1.92,3.91-1.92
			c1.7,0,2.61,0.76,3.05,1.92c1.06-1.06,2.36-1.92,3.96-1.92c2.24,0,3.35,1.35,3.35,3.57v8.56H111.79z"/>
		<path style="fill:#808285;" d="M122.89,116.13c-3.32,0-5.81-1.9-5.81-6.18c0-3.86,2.31-6.2,5.41-6.2c3.57,0,5.17,2.68,5.17,6.05
			c0,0.25-0.03,0.54-0.03,0.71h-7.65c0.15,2.34,1.4,3.32,3.22,3.32c1.53,0,2.78-0.57,4.09-1.48l0.34,2.31
			C126.36,115.56,124.81,116.13,122.89,116.13z M120.04,108.67h4.75c-0.2-1.85-0.93-2.88-2.36-2.88
			C121.24,105.79,120.26,106.75,120.04,108.67z"/>
		<path style="fill:#808285;" d="M133.01,109.06v6.82h-2.95v-11.89h2.51l0.37,2.39c0.79-1.38,1.97-2.53,3.81-2.63l0.47,2.93
			C135.37,106.8,133.85,107.78,133.01,109.06z"/>
		<path style="fill:#808285;" d="M145.56,115.88l-0.25-1.55c-0.96,1.01-2.19,1.8-3.96,1.8c-2.02,0-3.37-1.23-3.37-3.3
			c0-2.88,2.36-4.13,7.16-4.6v-0.34c0-1.28-0.74-1.77-2.04-1.77c-1.38,0-2.68,0.39-3.96,0.96l-0.37-2.36
			c1.38-0.54,2.83-0.96,4.73-0.96c3.08,0,4.6,1.13,4.6,3.99v8.15H145.56z M145.14,109.95c-3.42,0.42-4.23,1.43-4.23,2.56
			c0,0.86,0.54,1.38,1.45,1.38c1.01,0,1.97-0.47,2.78-1.28V109.95z"/>
		<path style="fill:#808285;" d="M151.15,115.88v-17.3l2.95-0.47v17.77H151.15z"/>
		<path style="fill:#808285;" d="M165.01,115.88l-0.25-1.65c-0.84,1.01-1.99,1.9-3.64,1.9c-2.49,0-4.48-1.85-4.48-5.86
			c0-4.43,2.44-6.4,5.19-6.4c1.13,0,2.04,0.2,2.76,0.44v-5.73l2.95-0.47v17.77H165.01z M164.59,106.75
			c-0.74-0.35-1.3-0.52-2.31-0.52c-1.55,0-2.68,1.26-2.68,3.86c0,2.31,0.98,3.4,2.29,3.4c1.08,0,1.92-0.64,2.71-1.62V106.75z"/>
		<path style="fill:#808285;" d="M176.11,115.88V98.9h9.87v2.76h-6.64v4.04h5.12l0.44,2.73h-5.56v4.7h6.89v2.76H176.11z"/>
		<path style="fill:#808285;" d="M196.2,115.88l-0.25-1.65c-0.84,1.01-1.99,1.9-3.64,1.9c-2.49,0-4.48-1.85-4.48-5.86
			c0-4.43,2.44-6.4,5.19-6.4c1.13,0,2.04,0.2,2.76,0.44v-5.73l2.95-0.47v17.77H196.2z M195.78,106.75c-0.74-0.35-1.3-0.52-2.31-0.52
			c-1.55,0-2.68,1.26-2.68,3.86c0,2.31,0.98,3.4,2.29,3.4c1.08,0,1.92-0.64,2.71-1.62V106.75z"/>
		<path style="fill:#808285;" d="M206.14,120.36c-3.22,0-5.66-0.98-5.66-2.95c0-1.13,0.76-1.97,2.24-2.78
			c-0.47-0.37-0.69-0.81-0.69-1.3c0-0.66,0.52-1.3,1.5-1.87c-1.4-0.66-2.24-1.92-2.24-3.49c0-2.58,2.12-4.21,4.77-4.21
			c1.35,0,2.51,0.39,3.37,1.11l2.9-1.03l0.39,2.36l-2.17,0.15c0.2,0.47,0.32,1.01,0.32,1.55c0,2.56-2.19,4.09-4.75,4.09
			c-0.34,0-0.69,0-0.98-0.05c-0.3,0.2-0.47,0.42-0.47,0.62c0,0.39,0.37,0.49,2.22,0.76l1.53,0.15c2.44,0.35,3.96,1.11,3.96,2.93
			C212.4,118.93,209.59,120.36,206.14,120.36z M204.3,115.31c-0.86,0.59-1.25,1.16-1.25,1.77c0,0.89,1.06,1.53,3.3,1.53
			c2.12,0,3.32-0.71,3.32-1.6c0-0.64-0.52-1.01-1.99-1.23l-1.6-0.2C205.26,115.49,204.86,115.44,204.3,115.31z M206.09,105.64
			c-1.3,0-2.07,1.01-2.07,2.31c0,1.23,0.79,2.17,2.07,2.17c1.3,0,2.09-0.96,2.09-2.24S207.35,105.64,206.09,105.64z"/>
		<path style="fill:#808285;" d="M219.46,116.13c-3.32,0-5.81-1.9-5.81-6.18c0-3.86,2.31-6.2,5.41-6.2c3.57,0,5.17,2.68,5.17,6.05
			c0,0.25-0.03,0.54-0.03,0.71h-7.65c0.15,2.34,1.4,3.32,3.22,3.32c1.53,0,2.78-0.57,4.09-1.48l0.34,2.31
			C222.93,115.56,221.38,116.13,219.46,116.13z M216.61,108.67h4.75c-0.2-1.85-0.93-2.88-2.36-2.88
			C217.81,105.79,216.83,106.75,216.61,108.67z"/>
	</g>
</g>
</svg>
