<svg id="Layer_1" data-name="Layer 1" xmlns="http://www.w3.org/2000/svg" viewBox="0 0 596.94 446.13"><defs><style>.cls-1,.cls-3{fill:#c9f2d0;fill-rule:evenodd;}.cls-2{fill:none;}.cls-2,.cls-3{stroke:#6e6e6e;stroke-linecap:round;stroke-linejoin:round;stroke-width:0.48px;}</style></defs><title>Artboard 2</title><path class="cls-1" d="M257.3,223.9c.31,2.43.2,3.7,2.16,5a49,49,0,0,0,7.32,3.48,41.16,41.16,0,0,0,7.08,2.52c1.34.23,1.9-.91,3.24-.36,1.11.45,1.79,2.16,2.52,3,5.37,6.21,1.22,8.09-.84,14.76-.57,1.84-.44,4-.84,5.88-.62,2.93-2.46,3.52-3.6,6-.93,2,0,2.93-.24,5-.16,1.37-.91,2.82-1.2,4.56-.88,5.19,0,6.15,2.52,10.56,1.63,2.85,1.35,1.81-.24,4.8-.8,1.49-1.72,3.23-2.52,4.8-2.65,5.17.13,4,3.84,5.76,2.08,1,3.37,2.89,5.52,4.08,2.68,1.49,4.88.34,7.92.24s4.93.9,7.44,1.56c1.56.41,5.18,2.06,6.48,1.56a29.93,29.93,0,0,1,.84,5.76c0,2.29-1.37,5.06.36,7-4-.66-3.7,8.43-4.32,10.8-.83,3.16-2.17,3.86-1,7.68.8,2.52,1.33,6.44,3.48,7.8,2.62,1.66,3.94.86,5.82,3.84.91,1.44,1.89,3.16,1.5,4.44-1.19,3.86-6.14,7.15-8.16,11.28-2.32,4.74,2.22,4.65,5.7,5.28a23.36,23.36,0,0,1,13.26,7.68c2.84,3.08,9.87,7.52,2.28,8.4-3.26.38-5,.63-7.8,2.4-2.67,1.67-7.68,3.49-9.12,6.48-1.1,2.29.6,3.29,0,5-.46,1.33-2.49,2.49-2.88,4.32a9.46,9.46,0,0,0,.48,5.4c.83,2.46,3.32,4.62,2.88,7.08-.13.72-1.77,1.13-1.86,2.28-.11,1.35,1.39,1.43,1.62,2.52.62,2.95-1.75,5.46-4.32,7.2-1,.65-2.17.33-3.12,1-1.53,1-1.94,2.73-3.66,3.54-4,1.88-7.62.39-11.22,3.3-1.43,1.16-2.75,4.33-4.32,4.92-.87.33-5.49-.64-6-1-1.39-.88-2.26-3.78-3.3-5.64-2.09-3.73-1.6-3.53-5.1-3.48a29.79,29.79,0,0,0-11.16,1.92c-4.34,1.72-7.83,5-11.88,6.72-2.2,1-5.21,1.09-7.56,1.92-2,.7-4.73,2.24-6.12,2.4-2.45.28-7.81-.75-9.84-2.4s-.6-1.55-.24-4.44c.11-.87-.59-1.78-.48-2.52.16-1.11,1.33-2.14,1.44-3.12a14.68,14.68,0,0,0-.72-5c-1.13-2.12-3.3-2.44-5.52-2-1,.19-2.15,1.21-3.12,1.32s-1.65-.61-2.64-.72c-2-.21-4.88,0-6.36-1.14-2.12-1.58-3.31-5.29-4.44-7.5a13.75,13.75,0,0,0-4.32-5.52c5-2.71,7.44-4.46,10.08-10,1.93-4,5-7.26,7.2-10.68,2.63-4.11,5.55-7.44,3.36-12.72a13.18,13.18,0,0,1-1.44-6.78c-.06-3.51-.92-1.86-2.76-4.38-3.29-4.5,4.47-6.14,1.68-11.4-3.94-7.42-2.31-13.56-2.52-21.6-.11-4.24-4-6.13-4-10.56,0-1.89.87-6.83,2.1-8.28,1.9-2.23,3.31,0,3.42-3.36.1-3-2.6-6.81-4.92-8-3.61-1.92-4.56-1.75-4.8-6.48a19.27,19.27,0,0,1,1.14-7.08c.65-2.27.51-4.45,2.46-5.4.93-.45,1.87.65,2.64.24,1.07-.57,1.13-1.67,1.68-2.64a33.92,33.92,0,0,0,3.12-7.2c.8-2.85,2.6-5.59,3.12-8.4,1.19-6.43-6.62-6.31-9.84-9.84-2.5-2.74.06-1.59.24-4.2.15-2.16-3-3.26-1.08-5.16,2.18-2.13,7.18.77,10.2-1.68,1.53-1.25,1-2.75,2.16-4,1.36-1.48,1.72,0,3.48-.48,3.89-1,2.14-2.55,3.12-4.56,1.07-2.18,4.45-4,6.6-5.64,3.11-2.44,1.11-2.5,1.2-5.52.07-2.44,2.3-3.95,3.12-6.48.53-1.63,2.45-7.34,2.16-8.76-.85-4.16-3.24-.81-5.52-.48-4.94.72-2.31-6,.24-7.32,2-1,3.81-.62,5.78-2.85,1.72-1.94,1.49-3.44,4.06-3.27,2.28.15,4.55,2.84,6,4.33,5.36,5.7-2.39,10.36,1.54,17.51C250,222.82,253.27,224.77,257.3,223.9Z"/><path class="cls-2" d="M257.3,223.9c.31,2.43.2,3.7,2.16,5a49,49,0,0,0,7.32,3.48,41.16,41.16,0,0,0,7.08,2.52c1.34.23,1.9-.91,3.24-.36,1.11.45,1.79,2.16,2.52,3,5.37,6.21,1.22,8.09-.84,14.76-.57,1.84-.44,4-.84,5.88-.62,2.93-2.46,3.52-3.6,6-.93,2,0,2.93-.24,5-.16,1.37-.91,2.82-1.2,4.56-.88,5.19,0,6.15,2.52,10.56,1.63,2.85,1.35,1.81-.24,4.8-.8,1.49-1.72,3.23-2.52,4.8-2.65,5.17.13,4,3.84,5.76,2.08,1,3.37,2.89,5.52,4.08,2.68,1.49,4.88.34,7.92.24s4.93.9,7.44,1.56c1.56.41,5.18,2.06,6.48,1.56a29.93,29.93,0,0,1,.84,5.76c0,2.29-1.37,5.06.36,7-4-.66-3.7,8.43-4.32,10.8-.83,3.16-2.17,3.86-1,7.68.8,2.52,1.33,6.44,3.48,7.8,2.62,1.66,3.94.86,5.82,3.84.91,1.44,1.89,3.16,1.5,4.44-1.19,3.86-6.14,7.15-8.16,11.28-2.32,4.74,2.22,4.65,5.7,5.28a23.36,23.36,0,0,1,13.26,7.68c2.84,3.08,9.87,7.52,2.28,8.4-3.26.38-5,.63-7.8,2.4-2.67,1.67-7.68,3.49-9.12,6.48-1.1,2.29.6,3.29,0,5-.46,1.33-2.49,2.49-2.88,4.32a9.46,9.46,0,0,0,.48,5.4c.83,2.46,3.32,4.62,2.88,7.08-.13.72-1.77,1.13-1.86,2.28-.11,1.35,1.39,1.43,1.62,2.52.62,2.95-1.75,5.46-4.32,7.2-1,.65-2.17.33-3.12,1-1.53,1-1.94,2.73-3.66,3.54-4,1.88-7.62.39-11.22,3.3-1.43,1.16-2.75,4.33-4.32,4.92-.87.33-5.49-.64-6-1-1.39-.88-2.26-3.78-3.3-5.64-2.09-3.73-1.6-3.53-5.1-3.48a29.79,29.79,0,0,0-11.16,1.92c-4.34,1.72-7.83,5-11.88,6.72-2.2,1-5.21,1.09-7.56,1.92-2,.7-4.73,2.24-6.12,2.4-2.45.28-7.81-.75-9.84-2.4s-.6-1.55-.24-4.44c.11-.87-.59-1.78-.48-2.52.16-1.11,1.33-2.14,1.44-3.12a14.68,14.68,0,0,0-.72-5c-1.13-2.12-3.3-2.44-5.52-2-1,.19-2.15,1.21-3.12,1.32s-1.65-.61-2.64-.72c-2-.21-4.88,0-6.36-1.14-2.12-1.58-3.31-5.29-4.44-7.5a13.75,13.75,0,0,0-4.32-5.52c5.59-3,8-5.58,11.16-11.52,2.48-4.68,5.19-8.49,7.8-13,.52-.89,1.53-1,2-2a7.54,7.54,0,0,0,.54-4.26c-.46-3.36-2.58-5.08-2.46-8.46.05-1.52.84-2.16.12-3.48-.51-.93-2.17-1-2.88-2.16-2-3.1.5-3.6,1.92-6,1.85-3.12.15-3.73-1.44-6.6-2.06-3.71-2.16-9.88-1.92-14.1.11-2,.77-3.89.72-5.94-.08-3.1-1-3.15-2.52-5.64-2.14-3.57-1.5-8.13.36-11.88,1.16-2.34,3.42-2.13,3.84-4,.77-3.35-3.2-7.78-5.64-9-3.83-1.92-4.28-3-4.2-7.68a24.62,24.62,0,0,1,1.68-7.92c1.51-4.42,2.6-1.3,5.16-3.3,1.54-1.2,3.71-6.79,4.2-8.7a32,32,0,0,1,1.44-5.4c.74-1.73,2.2-3.47,1.92-5.64-.53-4-4.28-3.41-6.72-5.76m0,0c-1.16-1.48-4.28-1.91-4.68-3.6s1.58-1.89,1.32-4.08c-.24-2-3-2.43-.3-4.14,2.28-1.42,5.88.7,8.7-.9,2.64-1.5,2.3-4.17,4.32-5.28.95-.52,2.63.65,4.08-.24,1.08-.66.94-1.4,1.44-2.4.15-.3-.26-1.64-.24-1.68.46-.92,1.31-.92,1.92-1.68,1.83-2.25,5.75-3.21,6.72-5.52.9-2.14-1.13-2.9-.9-4.68.26-2.05,2.63-3.54,3.3-5.64,1.16-3.63,4.52-11.81-1.56-10.32-1.84.45-3.72,2.76-4.68,0a19,19,0,0,1,1-4.44c1.32-1.92,1.84-.91,3.84-1.68,3.12-1.2,3.06-3.56,5.46-5.4,3.15-2.41,7.76,1.8,9.84,4.56,2.24,3,.85,4.25-.36,7.2-2.64,6.43,2.24,15.53,10,13.92"/><path class="cls-3" d="M516.05,286.06c-3.7,1-6.55,1.89-10.32,1.2-2-.37-5.19-1.14-4.2,2.16.51,1.71,3.58,3.21,4.44,5s1.27,4.87,2,6.24c.61,1.08.28,1.3,1.56,2.4,1,.9,3,.8,4.08,1.92.65.69,2.06,2.84,1.44,3.84-.92,1.48-2-.82-3.48-1.08-4.39-.76-4.18,3.46-7.08,4.68-.72.3-2.56-.73-3.84-.12a8.81,8.81,0,0,0-2,2.4c-1,1.58-1.37,1-1.32,3,0,1.33,2.2,3.29,1.68,4.56-1.13,2.8-5.93.39-7.44.24-1.3-.13-5.91-.31-7,.24-.63.33-.1,1.77-.48,2.16-.72.74-1.87,1.14-2.64,2-4,4.69-3.16,11.39-10.56,12.36-.77.1-2.14-.66-2.64-.48-.83.31-1.41,2.15-2.16,2.64-1.24.8-4.16.57-5.52,1.92-2,2-.41,3.83-4,1.68a27.72,27.72,0,0,1-4.44-3.6c-1.61-1.81-2-4.15-2.4-6.48a13.86,13.86,0,0,0-3.84-7.44c-2.3-2.59-6.29-6.61-7.44-10.32-.6-1.94.9-3.51.72-5.52-.27-2.93-2.35-3.23-1-6.12.73-1.53,2.83-3,3.48-5.16,1-3.33,1.16-7.31,1.62-10.5.19-1.31.1-2.82.66-4,.7-1.48,2.29-1.75,2.88-2.76,1.48-2.55-1.23-6.17,0-8.4,1.58-2.86,4.15.82,5.76.24,2.31-.83-.22-4.89-.12-6.72.17-3.06,1.78-4.71,4.14-6.12,2.69-1.61,5.68-4.3,8.54-5,3-.72,9.55,1.69,11.2-.18.06-.06-.38-2.11-.12-2.64.87-1.81,3.09-2.09,4.32-3.48,2.36-2.66,1.67-5,4.2-6.72a23.41,23.41,0,0,1,5-2c2.91-1,2.72-1.32,5,.72a20,20,0,0,1,4.21,5.9c1,2,.92,5.6,2.15,7.3,1.75,2.43,6.83,2.66,9.24,5.16,3.32,3.43,2.86,5.44,2.64,9.72-.15,3,1.62,5.28,1.92,8.28C515.35,281.86,514.84,283.71,516.05,286.06Z"/><path class="cls-3" d="M426.76,253.42c-2.57,3.65-6.84-1.87-8.88,3s-3.73,7.93-7.8,11.1c-3.32,2.58-8.12,6.34-7,10.62.65,2.41,3.32,8,5.4,10.08a16.35,16.35,0,0,0,10.08,4.32c2.58,0,3.88-.63,6,1.32,1.58,1.45,1.3,1.77,1.92,4,1,3.37,4.06,6.26,7,7.68s5.49,2.68,5.7,6.48c.08,1.49-1.1,2.77-1,4.2.16,1.59,2.39,3,2.16,4.2s-3.25,2.32-4.08,3.12c-1.19,1.15-1.9,2.65-3,3.84-2,2.11-5.26,2.51-7.2,5.52-1.79,2.79-.64,7-3.48,9.12-2.22,1.69-6.26,1.05-8.1,3.72-1.61,2.33-1.43,7.19-6.3,4.08s-7.4-8.25-10-13c-1.55-2.89-2.37-7.78-4.68-9.9-3.08-2.84-9.18-3.25-11.76-.84a27.46,27.46,0,0,0-4.56,6.12c-.64,1.28-.43,4.13-1.2,5.1-2.37,3-6.13.16-7.44-2.46-1.65-3.31-3.1-6.35-7.2-5-1.42.45-2.54,1.77-4.08,2.16-1.77-2.74-4.42-3.4-5.52-6.72-.62-1.86.66-5.79,0-7.08-2.08-4-10.17,4.42-11.28,5.16a46.56,46.56,0,0,1-7.08,2.64c-3.39.66-2.07-1.33-4.56-3.12-6.33-4.56-10.37,2.88-16.2,1.2-3.56-1-8-3.2-8.4-7-.38-3.33.12-6.5-.48-9.84,1.77.15,8.24-5.08,10.08-6.48,2.22-1.69,2.17-3.06,3.36-5.28,1-1.87,2.52-1.82,4-2.88,5.49-4,.35-5.79-1.92-10.26-2.68-5.27,3.7-12.29,8-14.82,3.28-1.91,6.09-1.76,7.08-5.76.36-1.44.61-2.65-.12-4-.88-1.56-3.63-1.47-4.32-2.64-1.51-2.57,2.4-4.18,4.32-5,3.56-1.58,3.54-.71,1.92-3.12s-2.18-5.89-3.6-8.16c-1.12-1.8-4.26-1.62-5-3.6-.28-.71,1.79-6,2-7.14a7.13,7.13,0,0,0-.24-5c-.61-1.29-3.82-2.65-2.52-4.44.86-1.18,2.55,0,3.6-.24a10,10,0,0,0,4.91-2.75c3-2.57,4.83-7.78,8.53-8.29,2.63-.36,7.83,3.18,7-2-.56-3.32-5.57-2.59-4.8-6.6a12,12,0,0,0,5.52-.24,18.09,18.09,0,0,0,3.72-1.44c2.58-1.19,3.66-.89,6.34-1.22,3.61-.44,4-.88,7.51.88s7.11,4.27,10.85,5.85c4.87,2.06,9.77-.8,14.06,1.69,1.77,1,4.6,2.42,5,3.6.38,1-.27,5.14-.48,6.36-.66,3.88-3.89,7-5.1,10.14-1.85,4.84,1.68,4.39,5.34,5.34s5.53,2.93,6.72,6.48c1.4,4.19-3.21,5.13,2,6.48,4.56,1.19,8,1.23,12.6,3.78a19.08,19.08,0,0,1,2.22,1c.45.49.18,1.29.66,1.8C424.26,250.46,426.16,251.8,426.76,253.42Z"/><path class="cls-3" d="M91.45,227.5c-4.1.7-11.9-4.74-12.12-9.12-.14-2.75,1.84-3.51,2.76-6,.78-2.11,2.55-7,2-9.12-1.47-6.11-9.37-11.24-11.64-16.56-.53-1.25.18-1.22-1-2.52A25.46,25.46,0,0,0,68,182.51c-2.25-1.15-4.87-2.26-6.84-3.48-.83-.51-1-1.68-2.16-1.92-.68-.14-2.63,1.12-3.12,1.2-4,.65-5-2.15-8.16-3.12-2.72-.84-6.14.1-8.88.24-2.45.12-7.59-.85-9.6.48-1.47,1-1.79,3.8-3.36,5-1.27,1-5.69,3.22-7.2,2.88-1-.22-6-4.66-6.48-5.52s0-2.59-.48-3.48c-.9-1.71-3.67-2.14-4.56-3.72-1.66-3,2.43-5.23,1.92-8.76-.63-4.35-6.25-4.28-7.92-7.8-1.18-2.49,1.19-3.34,2.16-6.24a19.69,19.69,0,0,0,1-7.92c3.75,1,6.45,2.66,10.2,3.06,4.48.47,7-1.23,10.92-4,2.22-1.59,4.31-5,7.56-5.52,3-.46,6.26,1.35,9.24,1.32s6.21.74,9.12.6c1.54-.08,3.62-.87,5-.24,1.22.54,2.69,3,4.08,4,5.56,3.69,13.31-2.41,19.62-2.46,1.78,0,4.39.54,6.06-.3,1.44-.73,1.45-2.34,2.88-3.12,2-1.1,4.45-.2,6.66-2.1,1.51-1.3,1.35-3.13,2.46-4.14,1.63-1.49,3.52-.6,5.28-1.2,2-.66,2.67-2.1,4.44-3.18,1.08-.66,2.56-.82,3.84-1.74s1.65-2.38,3.48-3.12a29.24,29.24,0,0,0,4.44-2,15.48,15.48,0,0,1,3.84-1.86,8.21,8.21,0,0,1,9,4.74c1.81,4.68.75,9.15,3.76,13.63,1,1.54,3.15,4.75,4.88,5.33,1.49.5,4.2-1.48,5.52-.24s-.85,1.29-.72,2.82,2.43,4.49,3.48,5.7c3.33,3.86,6.49,4,10.68,2,2.08-1,3.2-1.81,5.76-1.62,1,.07,2.24,1,3.06.9s1.18-1.11,2.22-1.14a10.89,10.89,0,0,1,4.92,1c.63.31,1,1.37,1.8,1.68s1.5-.35,2.4,0c1.84.73,2.52,2.17,4.8,2.16-3,2.95-4.32,2.7-3.3,7.32.75,3.41,1.65,4.1-.3,6.66-1.55,2-5,3.41-5.28,6.78-.1,1.08.82,2,1,3,.34,2.45-.1,4.52.72,7,1.49,4.43,6.13,6.91,4.08,11.28-.72,1.52-3.14,2.95-1.68,4.56,1,1.15,2.69-.69,3.6.72,2.18,3.39-6.21,10.34-8.4,11.76-3.92,2.54-9.07,5.83-13.44,3.6-2.52-1.29-2.31-2.46-4.08-4.32-1.52-1.59-3.8-1.81-5.52-2.88-2.93-1.83-3.93-5.28-6.84-2.4-1.39,1.38-1.47,4.24-2.76,5.52s-3.5,1.2-5.52,1.2c-1.81,0-5.27-.44-6.84.24-2.14.93-2.63,3.14-4.08,4.44-1.76,1.58-4.12,2.76-4.92,5.28-.56,1.79,0,4-.24,5.64-.7,5.81-6.18,4.58-11,4.32-3.29-.17-6.19-.29-9.12-1.68C97.85,227.66,95.2,226.63,91.45,227.5Z"/><path class="cls-3" d="M565.25,294.7c-2.14-1.24-2.09.73-3.48,1.38-2.09,1-3.82,1-6.3,1-4.68,0-9.73-3.71-14-1.44-2.73,1.46-1.4,3.09-2.88,4.8s-2.9-.68-5-2.64c-3.47-3.18-4.07-4.63-8-6.12a23.46,23.46,0,0,1-4-2.16c-.7-.42-.8-1.16-1.5-1.56s-1.95,0-2.76-.6c-3-2-1.7-5.71-2.16-8.7-.3-2-1.37-3.28-1.8-5.16-.53-2.31.9-4.25.6-6.54-.61-4.65-5.52-7.52-9.24-9.24-3.46-1.6-3-1.1-4-4.8a22,22,0,0,0-4.08-8.16c-2.76-3.54-3.17-4-7.08-2.52-1.84.68-4.13,1.07-5.52,2.28-1.24,1.08-1,2.37-2,4.32-1.23,2.41-4,2.78-5.28,4.92-.43.75-.12,3.48-.24,3.6-1,1-4.52-.21-5.88-.3-6.24-.43-8.77,2.06-13.68,5-3.13,1.86-4.71,4.46-4.2,8.4.16,1.25,2,3.31.48,4.32s-2.67-1.14-3.72-1.08c-4.86.29-.72,5.42-1.8,8.28-.55,1.47-2.21,1.75-3.12,3.12s-1.16,3.67-1.38,5.4c-.53,4.11-.8,8.12-2.7,11.88-.86,1.7-.32,2.15-2.16,3.24-2.31,1.37-1.3.74-3.72.12-3.43-.87-4.93-2.89-6.84-5.76-2-3-.75-5.61-4.62-7.08-3.17-1.21-6.43,0-9.78-1.8-4.14-2.19-5-3.75-7.32-7.8-1-1.76-4-5.15-3.72-7.32.39-3.34,6.76-7.1,8.88-8.64a19.43,19.43,0,0,0,4.44-5.28c1.44-2.13,1.35-3.81,2.28-5.82,1.55-3.36,4.54-1.58,7.92-2,1.1-.13,1-1,2.28-1,.61,0,1.22,1.14,2,1.32,1.06.23,2.08-.46,3.12-.24.88.19,2,1.31,3.24,1.44,1,.11,5.14,0,6.12-.72,1.81-1.33,0-2.47-.72-4.56-2.29-7,4.45-10,7.05-15.46.49-1,1.7-4.31,1.53-5.48-.26-1.71-2.14-2.41-2.58-4-.52-1.91.73-5.48,2.52-6.48,2.64-1.48,3.82.86,5.88,2.7,3.23,2.89,4,1.23,8.1,1.14,3.31-.07,3.16,1,5.34,2.16s4.13.83,6.48,1.92,2.13,1.78,4.32,1.32c1.88-.4,3-2.12,4.48-3.19,3.2-2.36,5-2.37,8.25.19s5.23,3,9.12,4.32c3.23,1.07,7.23,1.13,10.25,2.55,5.22,2.46,4,12.25,6.19,17.49,1.24,3,2.3,3.38,4.44,5.64,2.44,2.58,3.54,6.07,6.9,7.86,1.37.73,3.31,1.06,4.5,1.62s1.91,1.54,3.24,2c4.1,1.55,7.29-.75,11-.24.75.1,1,1.43,1.8,1.56,1.18.19,3.26-.65,4.2-.12,2.25,1.27.25,4.95.48,7.18a6.08,6.08,0,0,0,3.84,5.53c1.79.86,5.56.38,6.72,1.2,1.65,1.17,1.17,3.73.72,5.76S566,292.76,565.25,294.7Z"/><path class="cls-3" d="M346.11,198.71c-.76,4,3.94,3.19,4.8,6.24,1.5,5.32-4.14,2.23-6.48,2.4-3.84.28-5.18,4.42-7.91,7.19-1.14,1.16-2.36,2.63-3.91,3.25-1.38.55-3.13-.16-4.26.36-3.68,1.69,1.64,4.53,1.68,7.92,0,2.47-2.68,6.6-2.16,8.76s3.36,1.59,4.8,3.6c.38.53.5,2.89.72,3.6.7,2.26,1.71,3.1,2.88,4.92,1.63,2.53,1.45,1.56-2.16,3.24s-5.37,2.78-2.76,5.4,4.5,2.79,2.76,7c-1.61,3.86-5.34,3.68-8.64,6-5.1,3.58-8.61,10.5-4.68,15.54,1.61,2.06,3.92,3.52,2.88,6.3s-2.89,1.56-4.68,2.88-1.53,3.85-2.88,5.64-4,3-5.88,4.26c-1.4.91-3.32,2.8-4.8,3.54-2.5,1.25-3-.06-5.4-.84a63.35,63.35,0,0,0-6.6-1.44c-3-.61-5.44.62-8.34.36-3.34-.29-3.67-2.26-6.18-3.84-1.83-1.15-3.1-1.27-5-1.92-3.54-1.18-2.33-.64-1.2-3.36.72-1.72.84-3.56,1.92-5.28,1.55-2.46,2.34-2.81,1.44-5-.71-1.78-2.88-3.68-3.36-5-1.4-4,1-8.06,1.44-11.52.37-3.23-.41-3,1.68-6a14.67,14.67,0,0,0,2.4-6.72,22.5,22.5,0,0,1,1.86-6.3c1.07-2.31,3.2-5.1,2.7-7.86-1.3-7.14-8.75-7.31-13.68-9.12-3.21-1.18-13.11-3.2-11.52-8.16.76-2.36,7.46-6.81,10.19-8.91,4.84-3.72,7.62-3.54,13.33-2.85a40,40,0,0,0,15.12-.72,28,28,0,0,0-9.84-8.4c-2-.87-4.17-1.05-6.12-2-1-.49-1.47-1.61-2.52-1.8-3.07-.56-4.51,2.12-7.32-.36s-2.07-4.18-5.88-5.64c-4.07-1.56-3-1.9-3.6-6.06-.51-3.41-2.15-3.29.69-6.56,1.37-1.58,3.74-2.93,4.83-4.42.76-1,.56-2.71,1.2-3.6,1.24-1.74,4.74-3,7-3.36a37.68,37.68,0,0,0,6.12-1c2.51-.77,4.9.44,7.08-.24,3.95-1.24,7.26-12.32,13-3.84.76,1.13,1.59,4.45,2,6,1,3.46.55,3.77,3.72,6.24,3.34,2.61,4.9,4.95,9.36,5.28,1.52.11,1.86-.72,3.12,0,1.82,1,.4,2.1,2.64,2.64.94.23,2.46-1.29,3.6-.72s.08,1.65,1.08,2.88,2.42,1.29,3.72,2.16,2.42,2.36,3.72,3.48c1.79,1.54,3.13,3.87,5.52,4.8S344.44,196.74,346.11,198.71Z"/><path class="cls-1" d="M565.25,294.7c.7-1.68.44-3.78.78-5.46s1.4-2.94,1-5c-.73-3.42-2.79-2-6.06-3-3.56-1.13-5.61-2.94-5.76-7-.06-1.58,1.73-4.22.6-5.64s-2.9,0-4.44-.36-1.78-1.33-3.24-1.48c-3-.31-5.44,1.15-8.76.28-2-.53-2.76-1.24-4.56-2.16s-4.21-1.43-6.11-2.81c-2.19-1.59-3-3.73-4.57-5.71-1.11-1.36-2.61-1.94-3.72-3.24-2.13-2.49-2.82-6.39-3.36-9.63-1-6.21-.3-10.68-6.84-12-4.4-.91-10-1.35-14-3.54-3.77-2-5.4-6.85-10.39-3.71-1.85,1.16-2.77,3.57-5.21,4.07s-3.49-1.15-6-1.8c-2.12-.54-2.71-.37-4.44-1.32-1.1-.6-1.18-1.52-2.64-2-4.29-1.53-7.22,1.94-10.92-1.08-3.14-2.56-4.31-5.42-7.2-1.32-3.52,5,1.12,5.33,1,10.08-.19,5.67-6,8.45-8,13.08a9.19,9.19,0,0,0-.72,5.52c.13.66,2.19,4,2,4.56-1.49,5.1-14-1.1-16.8-.6-.49-1.32-1.69-1.65-2.4-2.64-.43-.6-1.06-2.69-1.44-3.12-1.51-1.67-6.56-3.4-8.88-4.08s-4.63-.2-7-1c-4.26-1.4-1-1.52-1-4.8a23.53,23.53,0,0,0-2.64-6.24c-2.34-2.45-6.39-1.27-8.88-2.88-4.36-2.81,2.8-9.4,3.84-13.44.46-1.78,1.17-7.37.48-8.4-.1-.16-4.27-2.52-4.92-2.88a9.23,9.23,0,0,0-3.24-1c-2.33-.24-4.45.8-6.84.6-3.4-.29-6.17-2.31-9-4a66.38,66.38,0,0,0-7-3.67c-2.9-1.25-3-.41-6-.17-3.68.3-4.74,1-8.16,2.16a18.73,18.73,0,0,1-4.32,1c-2.72.13-5-.73-7.68-1-3.39-.29-4.54-1.76-6.48-3.84-2.16-2.31-5.07-3.83-7.44-5.76-1-.85-1.53-3-1.92-3.36-1.07-.92-1.4-.3-3-.48-.8-.09-1.34.87-2.28.48s-.24-1.39-1-1.8c-2-1.16-1.39-.66-3.84-.84-7.06-.53-12.46-7.05-14.16-13.2-.79-2.85-1.26-7.73-6.24-7.44-1.47.09-2.69,2.34-3.6,2.4-2.68.18-3.22-2.42-3.48-4.2-.08-.55.91-.91.84-1.56s-1-1-1.08-1.56c-.11-1.31-1.14-2.32.6-3.72,2.69-2.18,8.1.8,6.24-5.28-.81-2.65-3.23-4.16-3.84-6.72-.23-1-.1-3.11-.36-3.72-1-2.35-1.45-.94-4.8-1.32-5.23-.59-6.5-6.65-5.16-11.28,1.46-5,3.66-5.1,7.92-5A27.38,27.38,0,0,1,304,124.43a35,35,0,0,1,6.24,5.52c1.63,1.77,3.39,4.87,5.4,6.36s5,1.57,7.2,2.88c1.74,1,5,4.13,7,4.08,2.73-.07,5.05-2.52,8.4-2.16a17,17,0,0,1,8.16,3.12,15.15,15.15,0,0,1,4.68,6.84c.33,1,.2,2.62.6,3.48.78,1.67,1.16,1.27,2.76,2.58,5.83,4.77,5.3,13.8,13.32,15.42,2.75.55,5.24.71,7.8,2.16,3.23,1.83,3.63,4.3,5.76,6.84,2.78,3.31,9.69,2.1,14.16,3.24a59.5,59.5,0,0,1,7.32,2.64c3.19,1.29,3.84.57,7.08-.36,5.46-1.57,10.27.57,14.28,4.2,2.92,2.64,11,6.6,14.88,5.28,2.33-.8,4-3.34,6.84-4a20.24,20.24,0,0,1,8.52.12,37.63,37.63,0,0,0,6,1.2c2.37.13,4.46-.45,7-.72,5.31-.57,10.71,1,15.24.12,6.67-1.3,10.09-.63,15.48,3.36,4.23,3.14,8.62,7.17,13,9.48a24.2,24.2,0,0,1,11.34,12.12c1.13,2.5,1.1,4.69,2.34,6.6.73,1.13,2.06,2,2.76,3.24.59,1.06.74,3.55,1.32,4.32,1.44,1.9,3.93.79,6.84,1.56,2.68.71,4.78,2.73,7.08,3.12,2.78.47,5.27-.52,8.16.48a30.7,30.7,0,0,1,6.24,3.12c2.4,1.48,3.87,3.72,6.36,4.56s5.15.85,7.8,2.16c4.73,2.33,8.87,2.82,13.92,4.08.82.2,6.78,1.62,7.2,2.4.91,1.68-2.81,8.35-3.15,10.34A25,25,0,0,0,589,269c0,1.75-.72,2.16.48,4,.93,1.4,2.84,1.47,3.48,3,.88,2.12-1.15,2.9-1.14,4.44,0,2.07,1.15,2.72,2.22,4.2s3.86,5.24,2.16,7.08c-2.09,2.25-5-2.44-7.08,0-.64.75-.11,2.71-.6,3.48s-2.21,1.21-2.76,1.68c-1.57,1.33-3.43,3.73-1.8,6,.75,1,2.31.81,3,2,.59,1,.43,4.14.12,5.4-.74,3-2.19,4.25,1.44,6.72-2.65.13-3.64.83-5.28-.48-1.24-1-.37-2.23-2.64-2.64-1.12-.2.53,2.25-1.92,0-1.67-1.53-1.43-2.4-2.52-4.2-1.54-2.53-2.95-6-4.92-8.28C569.54,299.4,565.45,297.41,565.25,294.7Z"/><path class="cls-2" d="M565.25,294.7c.7-1.68.44-3.78.78-5.46s1.4-2.94,1-5c-.73-3.42-2.79-2-6.06-3-3.56-1.13-5.61-2.94-5.76-7-.06-1.58,1.73-4.22.6-5.64s-2.9,0-4.44-.36-1.78-1.33-3.24-1.48c-3-.31-5.44,1.15-8.76.28-2-.53-2.76-1.24-4.56-2.16s-4.21-1.43-6.11-2.81c-2.19-1.59-3-3.73-4.57-5.71-1.11-1.36-2.61-1.94-3.72-3.24-2.13-2.49-2.82-6.39-3.36-9.63-1-6.21-.3-10.68-6.84-12-4.4-.91-10-1.35-14-3.54-3.77-2-5.4-6.85-10.39-3.71-1.85,1.16-2.77,3.57-5.21,4.07s-3.49-1.15-6-1.8c-2.12-.54-2.71-.37-4.44-1.32-1.1-.6-1.18-1.52-2.64-2-4.29-1.53-7.22,1.94-10.92-1.08-3.14-2.56-4.31-5.42-7.2-1.32-3.52,5,1.12,5.33,1,10.08-.19,5.67-6,8.45-8,13.08a9.19,9.19,0,0,0-.72,5.52c.13.66,2.19,4,2,4.56-1.49,5.1-14-1.1-16.8-.6-.52-1.52-2.71-3.42-3.84-4.56-.37-.37-.31-1.17-.84-1.68a30.24,30.24,0,0,0-3.24-1.68,24.68,24.68,0,0,0-7.92-2.4c-1-.15-3.74.17-4.8-.48-2.87-1.75-.22-1.9,0-4.56.15-1.76-1.5-3.77-2.4-5-1.5-2.13-1.94-2.7-5.16-3.48-1.81-.44-4.55-.12-5.4-1.8-1.62-3.18,4-8.37,5-11.28a20.56,20.56,0,0,0,.78-7.92c-.42-1.94.46-.57-.84-1.92-.32-.33-3.63-2.53-4.26-2.88-2.15-1.19-4.48-.58-6.78-.36-5.49.54-8.93-2-13.62-4.44-4.06-2.15-6.21-3.61-10.44-3.3-2.27.17-4.17-.07-6.38.75-1.83.67-3.16,1.62-5,2.07-2.52.61-4,0-6.24-.36-1.65-.24-4,.16-5.76-.36-2.17-.63-3.39-2.49-4.68-3.84a47.25,47.25,0,0,0-6-5.16c-1-.76-1.85-.7-2.76-1.8s.24-2.07-.84-2.64c-.7-.37-2,.3-2.76.24s-1,.86-1.92.48-.4-1.25-.72-1.44c-1.25-.73-1-1.34-2.4-1.68s-3.08.7-4.74.12c-2.32-.81-7.28-4.6-8.7-6.48-2.34-3.09-1.41-8.46-3.84-11.16-.84-.93-3.38-2.72-4.8-2.64s-2.24,1.76-3.12,1.92c-1.26.23-3.08.15-3.84-1.68-.7-1.68.91-2.33.72-3.6-.3-2-3.31-3-.48-5.28,2.44-2,6.31.91,6.72-3.6.24-2.59-2.3-4-3.36-5.76-.84-1.37-1.11-3.73-1.56-5.4-.58-2.15.9-1.35-.66-2.34s-4.69.59-6.66-.66c-2.88-1.84-3.31-7.37-2.4-10.56,1.72-6,7.07-5.89,12.24-5,9,1.48,15.6,7.93,20.82,14.46,2.76,3.45,7.42,4,11.16,6.3,2.27,1.41,3.41,2.3,5.58,2s4.18-1.79,6.66-1.68a16.33,16.33,0,0,1,11.82,6.42c1.46,2,1.74,4,2.52,6.3.33,1-.09,1.6.48,2.4.42.59,2.26,1.07,2.94,1.56,4.84,3.54,4,9.75,8.33,13.13,4.06,3.15,9.78,1.83,14.05,5.35,4.11,3.39,3.12,7.14,8.94,7.74,4.57.47,8.5.67,12.9,2.22,1.67.59,3,1.26,4.68,1.68,2.74.71,3,.24,5.88-.6a13.46,13.46,0,0,1,11.88,2.28c1.76,1.24,3.21,3.59,5,4.56,1.62.85,4,.81,5.76,1.32,2,.6,4.72,1.95,6.48,1.32s3.29-2.89,5.28-3.6c4-1.4,8.34-.59,12,.24,4.07.92,6.7.49,10.8,0s8.21.25,12,.48c4.1.25,8-2.28,12.48-1s7.41,5.28,11,7.92c1.84,1.33,3.79,2.23,5.64,3.72s2.94,1.68,5.16,2.76c3.74,1.83,6.68,6.69,8.64,10.32,1,1.8.69,4,1.44,5.64s2.83,3,4,5c1,1.75,1,4.9,2.28,5.64.69.4,5.15.15,6.24.24m0,0c2.17.69,3.65,2.7,5.64,3.24,1.73.47,4.39-.67,6.48-.36a24.88,24.88,0,0,1,11.4,5.52c2.2,1.83,2.39,2.15,5,2.88a36.58,36.58,0,0,1,6.54,2.1,43.51,43.51,0,0,0,12.18,3.9,34.76,34.76,0,0,1,5.16,1.32c4.22,1.4,3.94,1.39,2.47,6.2-1,3.45-2.46,7.43-2.17,11.07s2.78,3.25,4.14,5.88-1.35,4.47-.12,7.32c.7,1.61,3.28,3.63,3.72,5.88.55,2.8-.48,3.18-2.88,2.88-4-.49-2.74-1.92-4.74,1.32-.91,1.46-.61,1.64-1.74,2.76-.68.68-1.65.65-2.16,1.2-1.73,1.87-2.07,4.1-.6,6.06.77,1,2.09.72,2.76,2.1.52,1.06.3,4.16,0,5.4-.72,3-2.15,3.94,1.44,6.36-2.65.13-3.64.83-5.28-.48-1.24-1-.37-2.23-2.64-2.64-1.12-.2.53,2.25-1.92,0-1.67-1.53-1.43-2.4-2.52-4.2-1.54-2.53-2.95-6-4.92-8.28-1.72-2-5.81-4-6-6.72"/><path class="cls-1" d="M208.34,97.43c1.81,2.94,5.6-3.48,8.16-3.12.46.06,1.21,1.59,1.86,1.74,1.35.31,1.92-.23,3.18-.42a14.52,14.52,0,0,1,4.32-.36c5,.67,10.28,3.32,15.72,3.12a55.08,55.08,0,0,0,10.85-1.3c4.54-1.09,4.21-1.51,7.68,1.62L283.71,120c-3.22,2.54-3.83,7.46-2.82,11.16,1.47,5.39,3.37,3.78,7.92,4.92,3.11.78,1.38,1.21,2.1,4.56a21.61,21.61,0,0,0,2,4.32c.91,1.78,3.75,3.6,2,6.24-1.61,2.49-5,0-6.84,2.52-1.61,2.21.61,3.31.9,5.22.14.9-1.1,1.69-.54,3.06.65,1.59,3.3,1.49,3.36,2.88,0,.83-3.56,3.89-4.32,4.08-2,.5-3.84-.83-6-.24a34.15,34.15,0,0,1-5.76,1,20.19,20.19,0,0,0-6.36,1.86c-2.27,1.43-1.44,3.14-3,5.28s-6.59,4.25-6.84,7.44c-.09,1.13.87,4.26,1.08,5.4.81,4.4,1.71,3.21,5.22,4.74,2.93,1.28,2.77,4.37,5.34,5.82s4.22-.92,6.72-.36c.83.19,1.65,1.43,2.46,1.86,1.89,1,4,1.13,5.94,2a28.07,28.07,0,0,1,9.84,8.4,38.12,38.12,0,0,1-14.52.72c-4-.48-7.58-1.47-11.27.75-6.15,3.7-13.42,15.88-20.88,7.78a11,11,0,0,1-2.65-10.21c.86-2.89,3.25-4.19,1.56-7.44-1.24-2.4-6.73-7.3-9.48-6.24-2.4.93-3,4.65-5.64,5.76-2.38,1-3.39,0-4.8,2.16-.48.74-1.07,4.29-.72,4.8,2,2.81,3.89-1.49,6.12-1.14,3.5.56,1.4,3.82.84,5.82-.8,2.84-.92,5.42-2.4,8-.55,1-1.81,1.63-1.92,2.88-.08.9,1.18,1.6,1.2,2.52.06,3.63-2.42,3.38-5,5.4a23.48,23.48,0,0,0-2.88,2.64c-.65,1.16,0,1.49-.48,2.4a8.21,8.21,0,0,1-.84,2.16c-1.44,1.78-3.29.42-4.56,1-2.59,1.11-1.89,4.23-5.39,5.64-1.88.75-7.7-.64-8.89,1.08s1.6,3.11,1.44,5c-.22,2.59-2.71,1.3-.24,4.08,1.11,1.25,4.44,2.92,6.12,3.84,6.59,3.61,2.39,7.32.72,13-1.22,4.12-2.33,9.71-6,11.28-2.56,1.1-2.31-.57-3.48,2.88a30.3,30.3,0,0,0-1.68,6.36c-.31,2.84-.42,6.56,1.8,8.4,2.71,2.24,4.58,1.33,6.3,5,1.2,2.53,2.32,4.54.78,6.42a5.28,5.28,0,0,0-2.4.72c-.65.67-.7,2.24-1,3.12-1.15,3.82-2,6.85.12,10.44,2.46,4.1,2.52,5,2,10.08a46.52,46.52,0,0,0,.36,10.56c.48,3.52,2.59,5.08,3.48,8,1.44,4.78-6,5.63-1.86,10.68,1.87,2.26,2.17.67,2.1,4.2-.06,3.12.54,3.63,1.68,6.72,1.8,4.9-.93,7.9-3.12,11.76-2,3.46-5.26,6.43-7.2,10.32s-4.28,9.22-9.12,10c-2.35.36-2.39-.15-4.32-2.4-.61-.71-2.11-3.61-2.64-4-1.37-.92-3.3,1.08-4.62-.66-1.85-2.45.82-5.29-2.34-7.74-3.91-3-10.52-2.94-14.64-4.44-1.21-.44-2.12-1.75-3.36-2-1.4-.32-1.85.3-3.3.48-3.75.46-5.34.17-7.21-3.14a30.27,30.27,0,0,1-2.69-5.5c-.76-2.6.23-5.3-.44-7.95-.49-1.93-1.92-3.09-1.72-5.25s2.13-3.45,1.92-4.92a6.34,6.34,0,0,0-6.6-5c-1,.14-.68,1.54-2,1.44-1-.07-2.45-2.33-3.42-2.76-3.88-1.7-7.32.92-10.08-3.36a12.17,12.17,0,0,1-1.32-9c.46-1.92,1.36-3.49,1.68-5.4s.08-3.17,1-5c.81-1.54,2.08-2.05,2-4.09-.05-2.22-2.79-7.63-4.09-9.46-2.28-3.22-2.68-1.09-5.57-1.63-1.77-.33-3.13-2.57-4.92-3.36-2-.89-4.81-1-6.12-3.42s-.05-4.42-.24-6.9c-.69-9.17-7.67-7-13.44-3.6-2.86,1.7-5.18,3.09-9.12,2.4-6-1-3.2-3.61-4.68-7.44-.61-1.58-2.29-1.69-3-3.12-1-2.07.16-1.3.24-3.36.11-2.93-1.1-4.59-2-7.26-.78-2.2.09-3-.12-5s-1.64-2.87-2.4-4.56c-.39-.87-.75-.66-1-1.68s1-1.68.72-2.64c-.22-.68-3.18-3-4.08-3.48-2.82-1.57-11.69-.54-9.84-5.4.74-1.93,3.59-2.8,5.64-3.12a50.54,50.54,0,0,1,6.72-1c3.45.1,3.68,3,6.48.42,1.76-1.64,2-3.44.12-5,1.44-.77,2.38.35,3.84-.06,2.58-.72,3.6-3.31,4.68-5.46.54-1.08,1-2.61,1.32-3.36s1.24-1.7,1.86-2.94c2.86-5.68-4.7-13.62,4.14-12.9,3.43.28,6.55,2.55,10.08,2.88a76.54,76.54,0,0,0,9.24.3c3-.08,4.31.77,5.88-2.34,1.06-2.1.39-4.21.72-6.48.47-3.23,3-4.59,5.16-6.6.72-.67,1.13-2,2.1-2.76,1.61-1.25,1.63-.74,3.3-1.08,2.89-.58,5.4-.26,8-.66,3.19-.49,2.93-2.15,4.56-4.74,3.08-4.89,3.07-2.32,7.08.36,2,1.31,4.56,1.38,6.36,3.24s2.22,4.62,5.64,5.16c4.69.74,13.37-4.52,16.32-8.16,1.13-1.4,4.67-5.66,4-7.56-.93-2.5-2.46.23-3.84-1.38-1.64-1.92,2.5-4.35,2.76-5.94.43-2.64-2.6-5.18-3.78-7.32-1.48-2.7-1.62-4.84-2-7.8-.17-1.37-1-3.48-1-4.68.15-2,1.79-3.56,3.18-4.86.57-.53,3.51-2.55,3.78-3.18,1.07-2.48-2.8-6.28-1.92-9.06.63-2,2.55-2.33,3.84-3.66-2,0-4-1.4-5.64-2.16-1.16-.53-2.94-1-4.2-1.68-2.82-1.41-3.2-.37-5.7-.12-2,.21-4.53-1-6.9-.36-4.75,1.21-6.56,4.63-11.4,1-1.65-1.25-4.74-4.25-5-6.36-.21-1.46,1.36-2.94.6-3.72-1.28-1.33-4.34.8-5.88.24s-4.83-5.06-5.64-6.6c-2.27-4.31-.7-11.67-4.2-15s-8.64-1.41-2.88-5c1.49-.94,2.82-2.76,4.68-2.88,2.39-.16,4.5,2.37,7,2.28a36.57,36.57,0,0,0,4.92-.84c.85-.43,1-1.55,1.8-2s2.38-.56,3-1.08c3.31-2.79-1.43-9.19.48-13.68,3.7,2.33,12,3.18,16.08,1.2,5-2.39,7.83-5.2,13-1.2.8.63.79,1.86,1.68,2.4,1.06.65,2.67,0,3.72.6,2.5,1.44.44,3.51,1.92,5s11.4,2.14,12.9,1,.71-4.14,2.1-4.92C202.25,96.71,207,97.44,208.34,97.43Z"/><path class="cls-2" d="M208.34,97.43c1.81,2.94,5.6-3.48,8.16-3.12.46.06,1.21,1.59,1.86,1.74,1.35.31,1.92-.23,3.18-.42a14.52,14.52,0,0,1,4.32-.36c5,.67,10.28,3.32,15.72,3.12a55.08,55.08,0,0,0,10.85-1.3c4.54-1.09,4.21-1.51,7.68,1.62L283.71,120c-3.22,2.54-3.83,7.46-2.82,11.16,1.47,5.39,3.37,3.78,7.92,4.92,3.11.78,1.38,1.21,2.1,4.56a21.61,21.61,0,0,0,2,4.32c.91,1.78,3.75,3.6,2,6.24-1.61,2.49-5,0-6.84,2.52-1.61,2.21.61,3.31.9,5.22.14.9-1.1,1.69-.54,3.06.65,1.59,3.3,1.49,3.36,2.88,0,.83-3.56,3.89-4.32,4.08-2,.5-3.84-.83-6-.24a34.15,34.15,0,0,1-5.76,1,20.19,20.19,0,0,0-6.36,1.86c-2.27,1.43-1.44,3.14-3,5.28s-6.59,4.25-6.84,7.44c-.09,1.13.87,4.26,1.08,5.4.81,4.4,1.71,3.21,5.22,4.74,2.93,1.28,2.77,4.37,5.34,5.82s4.22-.92,6.72-.36c.83.19,1.65,1.43,2.46,1.86,1.89,1,4,1.13,5.94,2a28.07,28.07,0,0,1,9.84,8.4,36.93,36.93,0,0,1-14.22.72c-3.81-.48-7.65-1.48-11.22.48-6.14,3.36-12.38,15.09-20.16,9.12a11.59,11.59,0,0,1-4-10.08c.43-2.87,3-4.58,2.34-7.56-.58-2.51-5.76-7.27-8.4-7.44-3.11-.21-3.59,3.49-6.12,5.16-1.72,1.14-4.29.53-5.52,1.86a28.6,28.6,0,0,0-1.32,4.86c1.27,5.17,8.3-4.19,8.4,2.76,0,1.26-1.35,2.69-1.68,4-.4,1.52,0,3.06-.66,4.62-.91,2.31-2.87,3.63-2.94,5.94-.06,2.15,2.1,3.06-.24,5.28-1.76,1.67-6.11,2.67-7.44,5-.72,1.28.81,2.85-.9,4.44-1.46,1.36-3.18.14-4.26.6-2.15.92-.54.7-1.92,2.52-2.54,3.33-4.59,3.46-8.76,3.6-3.6.12-3.47.13-3.24,3,.07.94,1.14,1.31,1.08,2.4s-1.69,1.38-1.68,2c0,1.93,2.47,2.83,3.84,3.72,4.78,3.09,9.35,3.95,6.48,10.56-1.92,4.43-2.75,9.88-5.52,13.92-2,3-1.69.76-4.08,1.92-1.93.94-1.63,2.71-2.28,4.92-1.36,4.6-3.08,10.44,1.56,13.32,3.39,2.1,4.61,2.21,6,6.24.31.89,1.33,2.64,1,3.6-.67,1.71-1,.29-1.68,1a12.33,12.33,0,0,0-1.68,15.48c3.49,5.45.45,13.88,1.68,20.52.58,3.1,2.59,4.64,3.36,7.32.88,3.08-1,3-2.4,5.16-1.24,2-1.23,3.54.36,5.28,2,2.17,2.3.57,2.28,4,0,3.06,0,3.35,1.32,6.36,1,2.46,1.61,4.89.36,7.44s-4.3,5.87-6.24,8.4c-3,4-4.25,9-7.44,13a11.9,11.9,0,0,1-4.8,3.72c-2.64,1.1-1.95.77-4.08-.84-1.57-1.19-2.22-2.76-3.3-3.9-.72-.76-.39-1.42-1.14-1.74s-2.11,1-3,.6c-2.45-1.09-.33-4.62-1.44-6.72-1.2-2.28-5.34-3.45-7.68-4s-3.5-1.27-5.58-2c-1.34-.45-2.68-.06-3.9-.54s-2.12-2.15-3.48-2.4c-2.24-.41-5.11,2.09-7.68.84-2.06-1-4.67-7.32-5.16-9.42s.52-4.74-.08-7-2.21-3.52-1.6-6.09c.35-1.46,2.1-2.75,2-3.9a32.51,32.51,0,0,0-2.88-4.38c-3.5-3.06-3.35.83-5.76.72-.93,0-2.23-2.06-3.12-2.52-1.73-.9-3.22-.58-5.1-.84-4.24-.58-5.39-2.36-6.42-6-1.32-4.65.56-5.9,1.44-10.32.31-1.57-.43-3.12.24-4.8s2.45-2.23,2.76-4.32c.34-2.3-3.2-10.82-5.58-12.12-1.82-1-3.56.14-5.46-.6a52.57,52.57,0,0,1-5.16-2.88c-1.93-1.11-4.57-2.32-5.28-4.8-.58-2,.18-5-.3-7.14-2-8.63-8.42-4-13.5-.9-2.65,1.61-7.46,2.59-10.56,1-3.8-2-1.31-4.83-2.88-7.86-.58-1.13-2.23-1.19-2.76-2.58s.31-2,.48-3.84c.25-2.79-1.71-4.28-2.4-6.72-.54-1.91.46-3.11.24-4.8-.24-1.87-1.83-2.8-2.52-4.38-.36-.83-.64-.66-.84-1.62s1-1.69.72-2.64c-.18-.6-3-2.89-3.84-3.36-3.06-1.78-10.64-.51-10.08-4.8.66-5,7.75-3,11-4.08m0,0c2.67-2.08,4.78,1.91,7.44.24a3.27,3.27,0,0,0,.48-5.52c1.44-.77,2.38.35,3.84-.06,2.58-.72,3.6-3.31,4.68-5.46.54-1.08,1-2.61,1.32-3.36s1.24-1.7,1.86-2.94c2.86-5.68-4.7-13.62,4.14-12.9,3.43.28,6.55,2.55,10.08,2.88a76.54,76.54,0,0,0,9.24.3c3-.08,4.31.77,5.88-2.34,1.06-2.1.39-4.21.72-6.48.47-3.23,3-4.59,5.16-6.6.72-.67,1.13-2,2.1-2.76,1.61-1.25,1.63-.74,3.3-1.08,2.89-.58,5.4-.26,8-.66,3.19-.49,2.93-2.15,4.56-4.74,3.08-4.89,3.07-2.32,7.08.36,2,1.31,4.56,1.38,6.36,3.24s2.22,4.62,5.64,5.16c4.69.74,13.37-4.52,16.32-8.16,1.13-1.4,4.67-5.66,4-7.56-.93-2.5-2.46.23-3.84-1.38-1.64-1.92,2.5-4.35,2.76-5.94.43-2.64-2.6-5.18-3.78-7.32-1.48-2.7-1.62-4.84-2-7.8-.17-1.37-1-3.48-1-4.68.15-2,1.79-3.56,3.18-4.86.57-.53,3.51-2.55,3.78-3.18,1.07-2.48-2.8-6.28-1.92-9.06.63-2,2.55-2.33,3.84-3.66-2,0-4-1.4-5.64-2.16-1.16-.53-2.94-1-4.2-1.68-2.82-1.41-3.2-.37-5.7-.12-2,.21-4.53-1-6.9-.36-4.75,1.21-6.56,4.63-11.4,1-1.65-1.25-4.74-4.25-5-6.36-.21-1.46,1.36-2.94.6-3.72-1.28-1.33-4.34.8-5.88.24s-4.83-5.06-5.64-6.6c-2.27-4.31-.7-11.67-4.2-15s-8.64-1.41-2.88-5c1.49-.94,2.82-2.76,4.68-2.88,2.39-.16,4.5,2.37,7,2.28a36.57,36.57,0,0,0,4.92-.84c.85-.43,1-1.55,1.8-2s2.38-.56,3-1.08c3.31-2.79-1.43-9.19.48-13.68,3.7,2.33,12,3.18,16.08,1.2,5-2.39,7.83-5.2,13-1.2.8.63.79,1.86,1.68,2.4,1.06.65,2.67,0,3.72.6,2.5,1.44.44,3.51,1.92,5s11.4,2.14,12.9,1,.71-4.14,2.1-4.92c.87-.48,5.65.25,7,.24"/><path class="cls-3" d="M208.34,97.43c-1.55,0-5-.57-6.24-.12-2.17.76-.76,1.59-2.16,3.72s-9.22,1.82-12,.72c-3.35-1.32-.44-2.75-2.28-5-1-1.22-4.29-1.11-5.64-2-1.66-1.15-2.1-2.5-4.32-3.24-3.27-1.09-4.18-.32-6.94,1.36-5.08,3.09-13.79,3.62-18.74.32-1.78,4.2,1.16,6.95.84,11.16-.18,2.39-2.8,3.44-5,4.56-1.7.85-4.11,2-6.6,2-4.85-.11-5-3.46-9.48-.54-4,2.59-8.06,5.71-12.36,7.8-1.28.62-2.9.12-4.2,1.08s-1.59,2.13-2.88,3c-1.55,1.05-4.83,3.41-6.84,4.08-1.61.54-3.08-.33-4.62.9-1.31,1-.65,1.72-1.62,2.94-2.64,3.32-6.71,2.91-9.48,4.74-1.7,1.12-.82,1.72-3.48,2.22-1.72.32-3.22-.06-4.86,0a29.27,29.27,0,0,0-8,1.8c-2.45.79-6,2.42-8.64,2-3.11-.45-5.55-4.29-7.08-6.48a19.9,19.9,0,0,1-2.52-3.9c-.61-2,.56-2.54.6-4.5.06-3.15-2.78-4.55-4.08-7.68a24.55,24.55,0,0,1-1-4.26A18.06,18.06,0,0,0,47.4,111c-1.16-3.2-1.67-4.3,1.44-5.4,1.41-.5,4.05-.14,5.16-1.44.92-1.08.38-2.23.54-3.84.4-3.93,2.62-7.49,5.34-10.32s5.15-2.13,8.52-1.2c1.47.41,1.8,1.27,3.6,1s1.38-1.15,2.88-2.16a15.89,15.89,0,0,1,8.64-2.16c3.18.13,3.58-.49,6.24-1.32,3.18-1,6.37-.43,9.72-3.12,2.35-1.89,2.74-4.48,5.16-6,3.38-2.11,8-1.27,11.82-3.72,1.95-1.24,2.18-1.86,4.14-2.16,1-.16,2.46.67,4.08.12s3.16-1.82,4.92-2.46c1.37-.5,4-.23,5.16-1,1.52-1.07,1.28-1.1,1.14-3.36-.1-1.58-1.87-4-1.86-4.8,0-1.32,2.55-3.26,3.12-4.38.85-1.68.49-4.22,1.44-5.7,2.64-4.11,6.78,2.55,9.54,4,3.47,1.78,4.75-2.1,8.46-1.32s6.15,4.32,8.76,6.84,5.93,5.9,8.82,7.62c4.4,2.62,5.86-2.7,9.9-1.5,3.1.92,5.94,5.92,9.12,7.44,2.74,1.31,5.53-.7,8.12.06,1.45.42,2.89,3,4.1,4.13,1.67,1.57,5.16,2.6,6.44,4.15,1.87,2.27.24,3.44-.42,5.7-1.14,3.88-.9,3.83-4.32,5.64C201.55,93.2,207.2,94.22,208.34,97.43Z"/><path class="cls-3" d="M256.82,95.75c-4.74,2.55-13.84,3.49-19.06,2.52-4.29-.8-8.17-2.69-12.26-3.12-3-.31-5.22.8-8.16.12-1.89-.44-.9-1.17-3-.36-1.4.54-2.31,2.87-3.84,3.12-1.34.22-5.82-2.86-6-4.92-.3-3.55,4.79-2.52,6.24-5,.95-1.65,2.6-7,1.68-8.64-.64-1.16-4-2.59-5-3.36a28,28,0,0,1-3.36-2.4c-.58-.58-.57-1.75-1.44-2.28-2.34-1.41-4.69.55-7.44-.12-1.73-.42-3.36-1.76-4.8-2.88-2.15-1.67-4.77-5.08-7.44-5.28-3.93-.29-4.78,4.21-9.12,1.32a73.28,73.28,0,0,1-8.05-7c-2.7-2.54-4.87-5.95-8.51-7-3.38-1-3.89,1.36-6.48,1.68-4,.5-5.93-6.06-10.08-5.88-3,.13-2.68,5.55-4.32,8.16-.54.85-2.36,2.43-2.4,3.48,0,.64,1.9,3.28,1.92,4.8.06,4.16-1.7,2.8-5.46,3.9-3,.86-5.3,3.11-8.46,3.3-1.19.07-1.48-1.1-2.88-.72-1.87.51-4,3.06-6.24,3.84-3.38,1.18-6.47.35-9,2.88-1.69,1.7-2.44,3.89-4.68,5.52-4,2.94-10.63,3.65-14.4,4.08-3,.34-4.88.08-7.68,1.44s-3.55,3.37-6.72,2.88a46.11,46.11,0,0,1-7-1.86c-2.29-1.4-1.18-3.93-1.68-6.06-.35-1.48-3.11-4.71-2.88-6.48s3.49-3.78,4.8-5.16c3.1-3.27,7-4.21,11-6.84a14.83,14.83,0,0,0,5-6.72,41.81,41.81,0,0,1,3.6-6.72C85.67,46,88.07,41,86,36.78c-1.06-2.23-3.84-2.37-4.92-4.86-1.36-3.15-.08-7.74,2.64-9.12,1.72-.87,1.05-.14,2.4-.48s1.1.86,2.64-.72c1.33-1.37,1.3-5.3,1.8-7.32.42-1.72.34-3.59,1.23-4.87C93.59,6.9,98.47,4.88,101,3.12c.78,1.52,7.07,3.58,8.64,3.84a11.83,11.83,0,0,0,7.92-1.56C120.94,3,122.68.16,127.39.24a16,16,0,0,1,9.78,4.08c5.31,4.37,6.42,12.59,12.12,16.32,1.75,1.14,6.67.79,9.6,1.2,1.86.26,3.52,0,5.34.66,2,.71,3.19,2.6,4.74,3.42,3.63,1.92,6.48,2,9.72,5.16,2.35,2.26,4.93,4.59,7.44,6.9,5.15,4.75,5.32,13.23,11.64,17.46C200.67,57.37,204,58.08,207,60c1.71,1.1,3.19,1.42,5,2.34.69.36,4,3.18,4.26,3.18,1.2,0,5.51-4.85,7.8-5.52a20.28,20.28,0,0,1,9.78-.3c7.53,1.57,10.8,7.49,12.42,14.58.72,3.16-.22,2,2.7,3.42a18.31,18.31,0,0,1,4.74,2.7c2.91,2.72,3.63,6.53,3.6,10.32A14.39,14.39,0,0,1,256.82,95.75Z"/></svg>