<?xml version="1.0" encoding="utf-8"?>
<!-- Generator: Adobe Illustrator 21.0.0, SVG Export Plug-In . SVG Version: 6.00 Build 0)  -->
<svg version="1.1" id="Layer_1" xmlns="http://www.w3.org/2000/svg" xmlns:xlink="http://www.w3.org/1999/xlink" x="0px" y="0px"
	 viewBox="0 0 596.9 446.1" style="enable-background:new 0 0 596.9 446.1;" xml:space="preserve">
<style type="text/css">
	.st0{fill-rule:evenodd;clip-rule:evenodd;fill:#C9F2D0;}
	.st1{fill:none;stroke:#6E6E6E;stroke-width:0.48;stroke-linecap:round;stroke-linejoin:round;stroke-miterlimit:10;}
	
		.st2{fill-rule:evenodd;clip-rule:evenodd;fill:#C9F2D0;stroke:#6E6E6E;stroke-width:0.48;stroke-linecap:round;stroke-linejoin:round;stroke-miterlimit:10;}
</style>
<path class="st0" d="M257.3,223.9c0.3,2.4,0.2,3.7,2.2,5c1.8,1.2,5.4,2.7,7.3,3.5c1.9,0.8,5.1,2.2,7.1,2.5c1.3,0.2,1.9-0.9,3.2-0.4
	c1.1,0.5,1.8,2.2,2.5,3c5.4,6.2,1.2,8.1-0.8,14.8c-0.6,1.8-0.4,4-0.8,5.9c-0.6,2.9-2.5,3.5-3.6,6c-0.9,2,0,2.9-0.2,5
	c-0.2,1.4-0.9,2.8-1.2,4.6c-0.9,5.2,0,6.1,2.5,10.6c1.6,2.8,1.4,1.8-0.2,4.8c-0.8,1.5-1.7,3.2-2.5,4.8c-2.6,5.2,0.1,4,3.8,5.8
	c2.1,1,3.4,2.9,5.5,4.1c2.7,1.5,4.9,0.3,7.9,0.2c2.9-0.1,4.9,0.9,7.4,1.6c1.6,0.4,5.2,2.1,6.5,1.6c0.3,1.9,0.9,3.8,0.8,5.8
	c0,2.3-1.4,5.1,0.4,7c-4-0.7-3.7,8.4-4.3,10.8c-0.8,3.2-2.2,3.9-1,7.7c0.8,2.5,1.3,6.4,3.5,7.8c2.6,1.7,3.9,0.9,5.8,3.8
	c0.9,1.4,1.9,3.2,1.5,4.4c-1.2,3.9-6.1,7.1-8.2,11.3c-2.3,4.7,2.2,4.7,5.7,5.3c5.4,1,9.7,3.8,13.3,7.7c2.8,3.1,9.9,7.5,2.3,8.4
	c-3.3,0.4-5,0.6-7.8,2.4c-2.7,1.7-7.7,3.5-9.1,6.5c-1.1,2.3,0.6,3.3,0,5c-0.5,1.3-2.5,2.5-2.9,4.3c-0.4,2-0.2,3.5,0.5,5.4
	c0.8,2.5,3.3,4.6,2.9,7.1c-0.1,0.7-1.8,1.1-1.9,2.3c-0.1,1.3,1.4,1.4,1.6,2.5c0.6,2.9-1.7,5.5-4.3,7.2c-1,0.6-2.2,0.3-3.1,1
	c-1.5,1-1.9,2.7-3.7,3.5c-4,1.9-7.6,0.4-11.2,3.3c-1.4,1.2-2.7,4.3-4.3,4.9c-0.9,0.3-5.5-0.6-6-1c-1.4-0.9-2.3-3.8-3.3-5.6
	c-2.1-3.7-1.6-3.5-5.1-3.5c-3.9,0.1-7.3,0.4-11.2,1.9c-4.3,1.7-7.8,5-11.9,6.7c-2.2,1-5.2,1.1-7.6,1.9c-2,0.7-4.7,2.2-6.1,2.4
	c-2.4,0.3-7.8-0.8-9.8-2.4c-2-1.6-0.6-1.6-0.2-4.4c0.1-0.9-0.6-1.8-0.5-2.5c0.2-1.1,1.3-2.1,1.4-3.1c0.1-0.9-0.2-4.1-0.7-5
	c-1.1-2.1-3.3-2.4-5.5-2c-1,0.2-2.2,1.2-3.1,1.3c-1.1,0.1-1.6-0.6-2.6-0.7c-2-0.2-4.9,0-6.4-1.1c-2.1-1.6-3.3-5.3-4.4-7.5
	c-1.2-2.3-2.2-3.9-4.3-5.5c5-2.7,7.4-4.5,10.1-10c1.9-4,5-7.3,7.2-10.7c2.6-4.1,5.5-7.4,3.4-12.7c-1.3-3.2-1.4-3.6-1.4-6.8
	c-0.1-3.5-0.9-1.9-2.8-4.4c-3.3-4.5,4.5-6.1,1.7-11.4c-3.9-7.4-2.3-13.6-2.5-21.6c-0.1-4.2-4-6.1-4-10.6c0-1.9,0.9-6.8,2.1-8.3
	c1.9-2.2,3.3,0,3.4-3.4c0.1-3-2.6-6.8-4.9-8c-3.6-1.9-4.6-1.8-4.8-6.5c-0.1-2.8,0.4-4.6,1.1-7.1c0.7-2.3,0.5-4.5,2.5-5.4
	c0.9-0.4,1.9,0.6,2.6,0.2c1.1-0.6,1.1-1.7,1.7-2.6c1.2-2.1,2.4-4.7,3.1-7.2c0.8-2.8,2.6-5.6,3.1-8.4c1.2-6.4-6.6-6.3-9.8-9.8
	c-2.5-2.7,0.1-1.6,0.2-4.2c0.2-2.2-3-3.3-1.1-5.2c2.2-2.1,7.2,0.8,10.2-1.7c1.5-1.2,1-2.7,2.2-4c1.4-1.5,1.7,0,3.5-0.5
	c3.9-1,2.1-2.5,3.1-4.6c1.1-2.2,4.4-4,6.6-5.6c3.1-2.4,1.1-2.5,1.2-5.5c0.1-2.4,2.3-3.9,3.1-6.5c0.5-1.6,2.4-7.3,2.2-8.8
	c-0.8-4.2-3.2-0.8-5.5-0.5c-4.9,0.7-2.3-6,0.2-7.3c2-1,3.8-0.6,5.8-2.8c1.7-1.9,1.5-3.4,4.1-3.3c2.3,0.1,4.5,2.8,6,4.3
	c5.4,5.7-2.4,10.4,1.5,17.5C250,222.8,253.3,224.8,257.3,223.9z"/>
<path class="st1" d="M257.3,223.9c0.3,2.4,0.2,3.7,2.2,5c1.8,1.2,5.4,2.7,7.3,3.5c1.9,0.8,5.1,2.2,7.1,2.5c1.3,0.2,1.9-0.9,3.2-0.4
	c1.1,0.5,1.8,2.2,2.5,3c5.4,6.2,1.2,8.1-0.8,14.8c-0.6,1.8-0.4,4-0.8,5.9c-0.6,2.9-2.5,3.5-3.6,6c-0.9,2,0,2.9-0.2,5
	c-0.2,1.4-0.9,2.8-1.2,4.6c-0.9,5.2,0,6.1,2.5,10.6c1.6,2.8,1.4,1.8-0.2,4.8c-0.8,1.5-1.7,3.2-2.5,4.8c-2.6,5.2,0.1,4,3.8,5.8
	c2.1,1,3.4,2.9,5.5,4.1c2.7,1.5,4.9,0.3,7.9,0.2c2.9-0.1,4.9,0.9,7.4,1.6c1.6,0.4,5.2,2.1,6.5,1.6c0.3,1.9,0.9,3.8,0.8,5.8
	c0,2.3-1.4,5.1,0.4,7c-4-0.7-3.7,8.4-4.3,10.8c-0.8,3.2-2.2,3.9-1,7.7c0.8,2.5,1.3,6.4,3.5,7.8c2.6,1.7,3.9,0.9,5.8,3.8
	c0.9,1.4,1.9,3.2,1.5,4.4c-1.2,3.9-6.1,7.1-8.2,11.3c-2.3,4.7,2.2,4.7,5.7,5.3c5.4,1,9.7,3.8,13.3,7.7c2.8,3.1,9.9,7.5,2.3,8.4
	c-3.3,0.4-5,0.6-7.8,2.4c-2.7,1.7-7.7,3.5-9.1,6.5c-1.1,2.3,0.6,3.3,0,5c-0.5,1.3-2.5,2.5-2.9,4.3c-0.4,2-0.2,3.5,0.5,5.4
	c0.8,2.5,3.3,4.6,2.9,7.1c-0.1,0.7-1.8,1.1-1.9,2.3c-0.1,1.3,1.4,1.4,1.6,2.5c0.6,2.9-1.7,5.5-4.3,7.2c-1,0.6-2.2,0.3-3.1,1
	c-1.5,1-1.9,2.7-3.7,3.5c-4,1.9-7.6,0.4-11.2,3.3c-1.4,1.2-2.7,4.3-4.3,4.9c-0.9,0.3-5.5-0.6-6-1c-1.4-0.9-2.3-3.8-3.3-5.6
	c-2.1-3.7-1.6-3.5-5.1-3.5c-3.9,0.1-7.3,0.4-11.2,1.9c-4.3,1.7-7.8,5-11.9,6.7c-2.2,1-5.2,1.1-7.6,1.9c-2,0.7-4.7,2.2-6.1,2.4
	c-2.4,0.3-7.8-0.8-9.8-2.4c-2-1.6-0.6-1.6-0.2-4.4c0.1-0.9-0.6-1.8-0.5-2.5c0.2-1.1,1.3-2.1,1.4-3.1c0.1-0.9-0.2-4.1-0.7-5
	c-1.1-2.1-3.3-2.4-5.5-2c-1,0.2-2.2,1.2-3.1,1.3c-1.1,0.1-1.6-0.6-2.6-0.7c-2-0.2-4.9,0-6.4-1.1c-2.1-1.6-3.3-5.3-4.4-7.5
	c-1.2-2.3-2.2-3.9-4.3-5.5c5.6-3,8-5.6,11.2-11.5c2.5-4.7,5.2-8.5,7.8-13c0.5-0.9,1.5-1,2-2c0.6-1.3,0.7-2.9,0.5-4.3
	c-0.5-3.4-2.6-5.1-2.5-8.5c0.1-1.5,0.8-2.2,0.1-3.5c-0.5-0.9-2.2-1-2.9-2.2c-2-3.1,0.5-3.6,1.9-6c1.8-3.1,0.2-3.7-1.4-6.6
	c-2.1-3.7-2.2-9.9-1.9-14.1c0.1-2,0.8-3.9,0.7-5.9c-0.1-3.1-1-3.2-2.5-5.6c-2.1-3.6-1.5-8.1,0.4-11.9c1.2-2.3,3.4-2.1,3.8-4
	c0.8-3.4-3.2-7.8-5.6-9c-3.8-1.9-4.3-3-4.2-7.7c0.1-2.9,0.8-5.2,1.7-7.9c1.5-4.4,2.6-1.3,5.2-3.3c1.5-1.2,3.7-6.8,4.2-8.7
	c0.5-2,0.6-3.4,1.4-5.4c0.7-1.7,2.2-3.5,1.9-5.6c-0.5-4-4.3-3.4-6.7-5.8 M208.1,259.9c-1.2-1.5-4.3-1.9-4.7-3.6
	c-0.4-1.6,1.6-1.9,1.3-4.1c-0.2-2-3-2.4-0.3-4.1c2.3-1.4,5.9,0.7,8.7-0.9c2.6-1.5,2.3-4.2,4.3-5.3c0.9-0.5,2.6,0.6,4.1-0.2
	c1.1-0.7,0.9-1.4,1.4-2.4c0.1-0.3-0.3-1.6-0.2-1.7c0.5-0.9,1.3-0.9,1.9-1.7c1.8-2.3,5.8-3.2,6.7-5.5c0.9-2.1-1.1-2.9-0.9-4.7
	c0.3-2.1,2.6-3.5,3.3-5.6c1.2-3.6,4.5-11.8-1.6-10.3c-1.8,0.5-3.7,2.8-4.7,0c-0.1-0.4,0.8-4.1,1-4.4c1.3-1.9,1.8-0.9,3.8-1.7
	c3.1-1.2,3.1-3.6,5.5-5.4c3.2-2.4,7.8,1.8,9.8,4.6c2.2,3,0.9,4.2-0.4,7.2c-2.6,6.4,2.2,15.5,10,13.9"/>
<path class="st2" d="M516.1,286.1c-3.7,1-6.5,1.9-10.3,1.2c-2-0.4-5.2-1.1-4.2,2.2c0.5,1.7,3.6,3.2,4.4,5c0.9,1.9,1.3,4.9,2,6.2
	c0.6,1.1,0.3,1.3,1.6,2.4c1,0.9,3,0.8,4.1,1.9c0.6,0.7,2.1,2.8,1.4,3.8c-0.9,1.5-2-0.8-3.5-1.1c-4.4-0.8-4.2,3.5-7.1,4.7
	c-0.7,0.3-2.6-0.7-3.8-0.1c-0.6,0.3-1.7,1.8-2,2.4c-1,1.6-1.4,1-1.3,3c0,1.3,2.2,3.3,1.7,4.6c-1.1,2.8-5.9,0.4-7.4,0.2
	c-1.3-0.1-5.9-0.3-7,0.2c-0.6,0.3-0.1,1.8-0.5,2.2c-0.7,0.7-1.9,1.1-2.6,2c-4,4.7-3.2,11.4-10.6,12.4c-0.8,0.1-2.1-0.7-2.6-0.5
	c-0.8,0.3-1.4,2.2-2.2,2.6c-1.2,0.8-4.2,0.6-5.5,1.9c-2,2-0.4,3.8-4,1.7c-1.2-0.7-3.6-2.6-4.4-3.6c-1.6-1.8-2-4.1-2.4-6.5
	c-0.6-3.4-1.9-5.2-3.8-7.4c-2.3-2.6-6.3-6.6-7.4-10.3c-0.6-1.9,0.9-3.5,0.7-5.5c-0.3-2.9-2.3-3.2-1-6.1c0.7-1.5,2.8-3,3.5-5.2
	c1-3.3,1.2-7.3,1.6-10.5c0.2-1.3,0.1-2.8,0.7-4c0.7-1.5,2.3-1.7,2.9-2.8c1.5-2.6-1.2-6.2,0-8.4c1.6-2.9,4.2,0.8,5.8,0.2
	c2.3-0.8-0.2-4.9-0.1-6.7c0.2-3.1,1.8-4.7,4.1-6.1c2.7-1.6,5.7-4.3,8.5-5c3-0.7,9.6,1.7,11.2-0.2c0.1-0.1-0.4-2.1-0.1-2.6
	c0.9-1.8,3.1-2.1,4.3-3.5c2.4-2.7,1.7-5,4.2-6.7c1.4-0.9,3.3-1.4,5-2c2.9-1,2.7-1.3,5,0.7c1.8,1.5,3.2,3.9,4.2,5.9
	c1,2,0.9,5.6,2.1,7.3c1.7,2.4,6.8,2.7,9.2,5.2c3.3,3.4,2.9,5.4,2.6,9.7c-0.2,3,1.6,5.3,1.9,8.3C515.4,281.9,514.8,283.7,516.1,286.1
	z"/>
<path class="st2" d="M426.8,253.4c-2.6,3.7-6.8-1.9-8.9,3c-2.1,4.9-3.7,7.9-7.8,11.1c-3.3,2.6-8.1,6.3-7,10.6
	c0.7,2.4,3.3,8,5.4,10.1c2.4,2.4,6.7,4.3,10.1,4.3c2.6,0,3.9-0.6,6,1.3c1.6,1.5,1.3,1.8,1.9,4c1,3.4,4.1,6.3,7,7.7
	c2.8,1.4,5.5,2.7,5.7,6.5c0.1,1.5-1.1,2.8-1,4.2c0.2,1.6,2.4,3,2.2,4.2c-0.2,1.1-3.3,2.3-4.1,3.1c-1.2,1.1-1.9,2.7-3,3.8
	c-2,2.1-5.3,2.5-7.2,5.5c-1.8,2.8-0.6,7-3.5,9.1c-2.2,1.7-6.3,1.1-8.1,3.7c-1.6,2.3-1.4,7.2-6.3,4.1c-4.7-3-7.4-8.3-10-13
	c-1.5-2.9-2.4-7.8-4.7-9.9c-3.1-2.8-9.2-3.2-11.8-0.8c-1.4,1.3-3.6,4.3-4.6,6.1c-0.6,1.3-0.4,4.1-1.2,5.1c-2.4,3-6.1,0.2-7.4-2.5
	c-1.7-3.3-3.1-6.4-7.2-5c-1.4,0.5-2.5,1.8-4.1,2.2c-1.8-2.7-4.4-3.4-5.5-6.7c-0.6-1.9,0.7-5.8,0-7.1c-2.1-4-10.2,4.4-11.3,5.2
	c-0.7,0.5-5.8,2.4-7.1,2.6c-3.4,0.7-2.1-1.3-4.6-3.1c-6.3-4.6-10.4,2.9-16.2,1.2c-3.6-1-8-3.2-8.4-7c-0.4-3.3,0.1-6.5-0.5-9.8
	c1.8,0.2,8.2-5.1,10.1-6.5c2.2-1.7,2.2-3.1,3.4-5.3c1-1.9,2.5-1.8,4-2.9c5.5-4,0.3-5.8-1.9-10.3c-2.7-5.3,3.7-12.3,8-14.8
	c3.3-1.9,6.1-1.8,7.1-5.8c0.4-1.4,0.6-2.7-0.1-4c-0.9-1.6-3.6-1.5-4.3-2.6c-1.5-2.6,2.4-4.2,4.3-5c3.6-1.6,3.5-0.7,1.9-3.1
	c-1.7-2.5-2.2-5.9-3.6-8.2c-1.1-1.8-4.3-1.6-5-3.6c-0.3-0.7,1.8-6,2-7.1c0.4-1.9,0.6-3.3-0.2-5c-0.6-1.3-3.8-2.7-2.5-4.4
	c0.9-1.2,2.6,0,3.6-0.2c2.1-0.4,3.3-1.4,4.9-2.7c3-2.6,4.8-7.8,8.5-8.3c2.6-0.4,7.8,3.2,7-2c-0.6-3.3-5.6-2.6-4.8-6.6
	c1.9,0.4,3.7,0.2,5.5-0.2c1.5-0.4,2.3-0.8,3.7-1.4c2.6-1.2,3.7-0.9,6.3-1.2c3.6-0.4,4-0.9,7.5,0.9c3.7,1.8,7.1,4.3,10.9,5.8
	c4.9,2.1,9.8-0.8,14.1,1.7c1.8,1,4.6,2.4,5,3.6c0.4,1-0.3,5.1-0.5,6.4c-0.7,3.9-3.9,7-5.1,10.1c-1.8,4.8,1.7,4.4,5.3,5.3
	c3.6,0.9,5.5,2.9,6.7,6.5c1.4,4.2-3.2,5.1,2,6.5c4.6,1.2,8,1.2,12.6,3.8c0.4,0.2,2,0.8,2.2,1c0.5,0.5,0.2,1.3,0.7,1.8
	C424.3,250.5,426.2,251.8,426.8,253.4z"/>
<path class="st2" d="M91.4,227.5c-4.1,0.7-11.9-4.7-12.1-9.1c-0.1-2.7,1.8-3.5,2.8-6c0.8-2.1,2.6-7,2-9.1
	c-1.5-6.1-9.4-11.2-11.6-16.6c-0.5-1.2,0.2-1.2-1-2.5c-0.4-0.4-2.9-1.4-3.5-1.7c-2.2-1.1-4.9-2.3-6.8-3.5c-0.8-0.5-1-1.7-2.2-1.9
	c-0.7-0.1-2.6,1.1-3.1,1.2c-4,0.7-5-2.2-8.2-3.1c-2.7-0.8-6.1,0.1-8.9,0.2c-2.5,0.1-7.6-0.8-9.6,0.5c-1.5,1-1.8,3.8-3.4,5
	c-1.3,1-5.7,3.2-7.2,2.9c-1-0.2-6-4.7-6.5-5.5c-0.5-0.9,0-2.6-0.5-3.5c-0.9-1.7-3.7-2.1-4.6-3.7c-1.7-3,2.4-5.2,1.9-8.8
	c-0.6-4.3-6.3-4.3-7.9-7.8c-1.2-2.5,1.2-3.3,2.2-6.2c0.8-2.3,1.3-5.5,1-7.9c3.7,1,6.4,2.7,10.2,3.1c4.5,0.5,7-1.2,10.9-4
	c2.2-1.6,4.3-5,7.6-5.5c3-0.5,6.3,1.3,9.2,1.3c3,0,6.2,0.7,9.1,0.6c1.5-0.1,3.6-0.9,5-0.2c1.2,0.5,2.7,3,4.1,4
	c5.6,3.7,13.3-2.4,19.6-2.5c1.8,0,4.4,0.5,6.1-0.3c1.4-0.7,1.4-2.3,2.9-3.1c2-1.1,4.4-0.2,6.7-2.1c1.5-1.3,1.4-3.1,2.5-4.1
	c1.6-1.5,3.5-0.6,5.3-1.2c2-0.7,2.7-2.1,4.4-3.2c1.1-0.7,2.6-0.8,3.8-1.7c1.3-0.9,1.6-2.4,3.5-3.1c1.9-0.8,2.6-1,4.4-2
	c1.1-0.6,2.6-1.6,3.8-1.9c3.2-0.7,7.6,1.1,9,4.7c1.8,4.7,0.7,9.2,3.8,13.6c1,1.5,3.1,4.7,4.9,5.3c1.5,0.5,4.2-1.5,5.5-0.2
	c1.3,1.2-0.8,1.3-0.7,2.8c0.1,1.6,2.4,4.5,3.5,5.7c3.3,3.9,6.5,4,10.7,2c2.1-1,3.2-1.8,5.8-1.6c1,0.1,2.2,1,3.1,0.9
	c0.8-0.1,1.2-1.1,2.2-1.1c1.6-0.1,3.5,0.2,4.9,1c0.6,0.3,1,1.4,1.8,1.7c0.8,0.3,1.5-0.4,2.4,0c1.8,0.7,2.5,2.2,4.8,2.2
	c-3,2.9-4.3,2.7-3.3,7.3c0.8,3.4,1.6,4.1-0.3,6.7c-1.5,2-5,3.4-5.3,6.8c-0.1,1.1,0.8,2,1,3c0.3,2.4-0.1,4.5,0.7,7
	c1.5,4.4,6.1,6.9,4.1,11.3c-0.7,1.5-3.1,2.9-1.7,4.6c1,1.2,2.7-0.7,3.6,0.7c2.2,3.4-6.2,10.3-8.4,11.8c-3.9,2.5-9.1,5.8-13.4,3.6
	c-2.5-1.3-2.3-2.5-4.1-4.3c-1.5-1.6-3.8-1.8-5.5-2.9c-2.9-1.8-3.9-5.3-6.8-2.4c-1.4,1.4-1.5,4.2-2.8,5.5c-1.3,1.3-3.5,1.2-5.5,1.2
	c-1.8,0-5.3-0.4-6.8,0.2c-2.1,0.9-2.6,3.1-4.1,4.4c-1.8,1.6-4.1,2.8-4.9,5.3c-0.6,1.8,0,4-0.2,5.6c-0.7,5.8-6.2,4.6-11,4.3
	c-3.3-0.2-6.2-0.3-9.1-1.7C97.9,227.7,95.2,226.6,91.4,227.5z"/>
<path class="st2" d="M565.3,294.7c-2.1-1.2-2.1,0.7-3.5,1.4c-2.1,1-3.8,1-6.3,1c-4.7,0-9.7-3.7-14-1.4c-2.7,1.5-1.4,3.1-2.9,4.8
	c-1.4,1.6-2.9-0.7-5-2.6c-3.5-3.2-4.1-4.6-8-6.1c-1.5-0.6-2.6-1.3-4-2.2c-0.7-0.4-0.8-1.2-1.5-1.6c-0.7-0.4-1.9,0-2.8-0.6
	c-3-2-1.7-5.7-2.2-8.7c-0.3-2-1.4-3.3-1.8-5.2c-0.5-2.3,0.9-4.3,0.6-6.5c-0.6-4.6-5.5-7.5-9.2-9.2c-3.5-1.6-3-1.1-4-4.8
	c-0.8-3.1-2.1-5.6-4.1-8.2c-2.8-3.5-3.2-4-7.1-2.5c-1.8,0.7-4.1,1.1-5.5,2.3c-1.2,1.1-1,2.4-2,4.3c-1.2,2.4-4,2.8-5.3,4.9
	c-0.4,0.7-0.1,3.5-0.2,3.6c-1,1-4.5-0.2-5.9-0.3c-6.2-0.4-8.8,2.1-13.7,5c-3.1,1.9-4.7,4.5-4.2,8.4c0.2,1.2,2,3.3,0.5,4.3
	c-1.4,0.9-2.7-1.1-3.7-1.1c-4.9,0.3-0.7,5.4-1.8,8.3c-0.6,1.5-2.2,1.7-3.1,3.1c-1,1.5-1.2,3.7-1.4,5.4c-0.5,4.1-0.8,8.1-2.7,11.9
	c-0.9,1.7-0.3,2.1-2.2,3.2c-2.3,1.4-1.3,0.7-3.7,0.1c-3.4-0.9-4.9-2.9-6.8-5.8c-2-3-0.7-5.6-4.6-7.1c-3.2-1.2-6.4,0-9.8-1.8
	c-4.1-2.2-5-3.8-7.3-7.8c-1-1.8-4-5.1-3.7-7.3c0.4-3.3,6.8-7.1,8.9-8.6c1.9-1.4,3.1-3.3,4.4-5.3c1.4-2.1,1.4-3.8,2.3-5.8
	c1.5-3.4,4.5-1.6,7.9-2c1.1-0.1,1-1,2.3-1c0.6,0,1.2,1.1,2,1.3c1.1,0.2,2.1-0.5,3.1-0.2c0.9,0.2,2,1.3,3.2,1.4c1,0.1,5.1,0,6.1-0.7
	c1.8-1.3,0-2.5-0.7-4.6c-2.3-7,4.4-10,7.1-15.5c0.5-1,1.7-4.3,1.5-5.5c-0.3-1.7-2.1-2.4-2.6-4c-0.5-1.9,0.7-5.5,2.5-6.5
	c2.6-1.5,3.8,0.9,5.9,2.7c3.2,2.9,4,1.2,8.1,1.1c3.3-0.1,3.2,1,5.3,2.2c2.1,1.1,4.1,0.8,6.5,1.9c2.2,1,2.1,1.8,4.3,1.3
	c1.9-0.4,3-2.1,4.5-3.2c3.2-2.4,5-2.4,8.2,0.2c3.1,2.5,5.2,3,9.1,4.3c3.2,1.1,7.2,1.1,10.2,2.5c5.2,2.5,4,12.3,6.2,17.5
	c1.2,3,2.3,3.4,4.4,5.6c2.4,2.6,3.5,6.1,6.9,7.9c1.4,0.7,3.3,1.1,4.5,1.6c1.3,0.6,1.9,1.5,3.2,2c4.1,1.6,7.3-0.8,11-0.2
	c0.7,0.1,1,1.4,1.8,1.6c1.2,0.2,3.3-0.6,4.2-0.1c2.3,1.3,0.3,4.9,0.5,7.2c0.3,2.8,1.4,4.3,3.8,5.5c1.8,0.9,5.6,0.4,6.7,1.2
	c1.6,1.2,1.2,3.7,0.7,5.8C566.2,289.9,566,292.8,565.3,294.7z"/>
<path class="st2" d="M346.1,198.7c-0.8,4,3.9,3.2,4.8,6.2c1.5,5.3-4.1,2.2-6.5,2.4c-3.8,0.3-5.2,4.4-7.9,7.2
	c-1.1,1.2-2.4,2.6-3.9,3.2c-1.4,0.5-3.1-0.2-4.3,0.4c-3.7,1.7,1.6,4.5,1.7,7.9c0,2.5-2.7,6.6-2.2,8.8c0.5,2.3,3.4,1.6,4.8,3.6
	c0.4,0.5,0.5,2.9,0.7,3.6c0.7,2.3,1.7,3.1,2.9,4.9c1.6,2.5,1.5,1.6-2.2,3.2c-3.7,1.7-5.4,2.8-2.8,5.4c2.5,2.5,4.5,2.8,2.8,7
	c-1.6,3.9-5.3,3.7-8.6,6c-5.1,3.6-8.6,10.5-4.7,15.5c1.6,2.1,3.9,3.5,2.9,6.3c-1,2.7-2.9,1.6-4.7,2.9c-1.9,1.4-1.5,3.8-2.9,5.6
	c-1.3,1.8-4,3-5.9,4.3c-1.4,0.9-3.3,2.8-4.8,3.5c-2.5,1.3-3-0.1-5.4-0.8c-2.1-0.7-4.6-1-6.6-1.4c-3-0.6-5.4,0.6-8.3,0.4
	c-3.3-0.3-3.7-2.3-6.2-3.8c-1.8-1.2-3.1-1.3-5-1.9c-3.5-1.2-2.3-0.6-1.2-3.4c0.7-1.7,0.8-3.6,1.9-5.3c1.5-2.5,2.3-2.8,1.4-5
	c-0.7-1.8-2.9-3.7-3.4-5c-1.4-4,1-8.1,1.4-11.5c0.4-3.2-0.4-3,1.7-6c1.5-2.2,1.9-4,2.4-6.7c0.4-2.4,0.8-4.1,1.9-6.3
	c1.1-2.3,3.2-5.1,2.7-7.9c-1.3-7.1-8.8-7.3-13.7-9.1c-3.2-1.2-13.1-3.2-11.5-8.2c0.8-2.4,7.5-6.8,10.2-8.9c4.8-3.7,7.6-3.5,13.3-2.8
	c5.2,0.6,10,0.6,15.1-0.7c-2.1-3-6.3-6.9-9.8-8.4c-2-0.9-4.2-1.1-6.1-2c-1-0.5-1.5-1.6-2.5-1.8c-3.1-0.6-4.5,2.1-7.3-0.4
	c-2.8-2.4-2.1-4.2-5.9-5.6c-4.1-1.6-3-1.9-3.6-6.1c-0.5-3.4-2.1-3.3,0.7-6.6c1.4-1.6,3.7-2.9,4.8-4.4c0.8-1,0.6-2.7,1.2-3.6
	c1.2-1.7,4.7-3,7-3.4c2.3-0.3,4-0.3,6.1-1c2.5-0.8,4.9,0.4,7.1-0.2c3.9-1.2,7.3-12.3,13-3.8c0.8,1.1,1.6,4.5,2,6
	c1,3.5,0.5,3.8,3.7,6.2c3.3,2.6,4.9,4.9,9.4,5.3c1.5,0.1,1.9-0.7,3.1,0c1.8,1,0.4,2.1,2.6,2.6c0.9,0.2,2.5-1.3,3.6-0.7
	c1.3,0.6,0.1,1.7,1.1,2.9c1,1.2,2.4,1.3,3.7,2.2c1.2,0.8,2.4,2.4,3.7,3.5c1.8,1.5,3.1,3.9,5.5,4.8
	C341.6,198.5,344.4,196.7,346.1,198.7z"/>
<path class="st0" d="M565.3,294.7c0.7-1.7,0.4-3.8,0.8-5.5c0.4-1.8,1.4-2.9,1-5c-0.7-3.4-2.8-2-6.1-3c-3.6-1.1-5.6-2.9-5.8-7
	c-0.1-1.6,1.7-4.2,0.6-5.6c-1.1-1.3-2.9,0-4.4-0.4c-1.5-0.3-1.8-1.3-3.2-1.5c-3-0.3-5.4,1.1-8.8,0.3c-2-0.5-2.8-1.2-4.6-2.2
	c-1.8-0.9-4.2-1.4-6.1-2.8c-2.2-1.6-3-3.7-4.6-5.7c-1.1-1.4-2.6-1.9-3.7-3.2c-2.1-2.5-2.8-6.4-3.4-9.6c-1-6.2-0.3-10.7-6.8-12
	c-4.4-0.9-10-1.4-14-3.5c-3.8-2-5.4-6.8-10.4-3.7c-1.8,1.2-2.8,3.6-5.2,4.1c-2.4,0.5-3.5-1.2-6-1.8c-2.1-0.5-2.7-0.4-4.4-1.3
	c-1.1-0.6-1.2-1.5-2.6-2c-4.3-1.5-7.2,1.9-10.9-1.1c-3.1-2.6-4.3-5.4-7.2-1.3c-3.5,5,1.1,5.3,1,10.1c-0.2,5.7-6,8.5-8,13.1
	c-0.8,1.7-1.1,3.6-0.7,5.5c0.1,0.7,2.2,4,2,4.6c-1.5,5.1-14-1.1-16.8-0.6c-0.5-1.3-1.7-1.7-2.4-2.6c-0.4-0.6-1.1-2.7-1.4-3.1
	c-1.5-1.7-6.6-3.4-8.9-4.1c-2.3-0.7-4.6-0.2-7-1c-4.3-1.4-1-1.5-1-4.8c0-0.9-2.1-5.7-2.6-6.2c-2.3-2.4-6.4-1.3-8.9-2.9
	c-4.4-2.8,2.8-9.4,3.8-13.4c0.5-1.8,1.2-7.4,0.5-8.4c-0.1-0.2-4.3-2.5-4.9-2.9c-0.8-0.5-2.1-0.8-3.2-1c-2.3-0.2-4.5,0.8-6.8,0.6
	c-3.4-0.3-6.2-2.3-9-4c-2.2-1.3-4.6-2.6-7-3.7c-2.9-1.2-3-0.4-6-0.2c-3.7,0.3-4.7,1-8.2,2.2c-1.2,0.4-3.1,0.9-4.3,1
	c-2.7,0.1-5-0.7-7.7-1c-3.4-0.3-4.5-1.8-6.5-3.8c-2.2-2.3-5.1-3.8-7.4-5.8c-1-0.8-1.5-3-1.9-3.4c-1.1-0.9-1.4-0.3-3-0.5
	c-0.8-0.1-1.3,0.9-2.3,0.5c-1-0.4-0.2-1.4-1-1.8c-2-1.2-1.4-0.7-3.8-0.8c-7.1-0.5-12.5-7.1-14.2-13.2c-0.8-2.9-1.3-7.7-6.2-7.4
	c-1.5,0.1-2.7,2.3-3.6,2.4c-2.7,0.2-3.2-2.4-3.5-4.2c-0.1-0.6,0.9-0.9,0.8-1.6c-0.1-0.8-1-1-1.1-1.6c-0.1-1.3-1.1-2.3,0.6-3.7
	c2.7-2.2,8.1,0.8,6.2-5.3c-0.8-2.7-3.2-4.2-3.8-6.7c-0.2-1-0.1-3.1-0.4-3.7c-1-2.3-1.5-0.9-4.8-1.3c-5.2-0.6-6.5-6.6-5.2-11.3
	c1.5-5,3.7-5.1,7.9-5c5.5,0.1,10.7,1.6,15.2,4.7c2.4,1.7,4.2,3.4,6.2,5.5c1.6,1.8,3.4,4.9,5.4,6.4c2,1.5,5,1.6,7.2,2.9
	c1.7,1,5,4.1,7,4.1c2.7-0.1,5.1-2.5,8.4-2.2c2.7,0.3,6,1.4,8.2,3.1c2.1,1.6,3.9,4.3,4.7,6.8c0.3,1,0.2,2.6,0.6,3.5
	c0.8,1.7,1.2,1.3,2.8,2.6c5.8,4.8,5.3,13.8,13.3,15.4c2.7,0.6,5.2,0.7,7.8,2.2c3.2,1.8,3.6,4.3,5.8,6.8c2.8,3.3,9.7,2.1,14.2,3.2
	c2.5,0.6,5.1,1.7,7.3,2.6c3.2,1.3,3.8,0.6,7.1-0.4c5.5-1.6,10.3,0.6,14.3,4.2c2.9,2.6,11,6.6,14.9,5.3c2.3-0.8,4-3.3,6.8-4
	c2.8-0.6,5.8-0.5,8.5,0.1c1.7,0.4,3.9,1.1,6,1.2c2.4,0.1,4.5-0.5,7-0.7c5.3-0.6,10.7,1,15.2,0.1c6.7-1.3,10.1-0.6,15.5,3.4
	c4.2,3.1,8.6,7.2,13,9.5c5.3,2.8,8.8,6.5,11.3,12.1c1.1,2.5,1.1,4.7,2.3,6.6c0.7,1.1,2.1,2,2.8,3.2c0.6,1.1,0.7,3.6,1.3,4.3
	c1.4,1.9,3.9,0.8,6.8,1.6c2.7,0.7,4.8,2.7,7.1,3.1c2.8,0.5,5.3-0.5,8.2,0.5c2.2,0.8,4.2,1.8,6.2,3.1c2.4,1.5,3.9,3.7,6.4,4.6
	c2.6,0.9,5.2,0.9,7.8,2.2c4.7,2.3,8.9,2.8,13.9,4.1c0.8,0.2,6.8,1.6,7.2,2.4c0.9,1.7-2.8,8.3-3.1,10.3c-0.3,1.6-0.3,3.2-0.2,4.8
	c0,1.8-0.7,2.2,0.5,4c0.9,1.4,2.8,1.5,3.5,3c0.9,2.1-1.2,2.9-1.1,4.4c0,2.1,1.1,2.7,2.2,4.2c1.1,1.5,3.9,5.2,2.2,7.1
	c-2.1,2.3-5-2.4-7.1,0c-0.6,0.7-0.1,2.7-0.6,3.5c-0.5,0.8-2.2,1.2-2.8,1.7c-1.6,1.3-3.4,3.7-1.8,6c0.8,1,2.3,0.8,3,2
	c0.6,1,0.4,4.1,0.1,5.4c-0.7,3-2.2,4.3,1.4,6.7c-2.6,0.1-3.6,0.8-5.3-0.5c-1.2-1-0.4-2.2-2.6-2.6c-1.1-0.2,0.5,2.2-1.9,0
	c-1.7-1.5-1.4-2.4-2.5-4.2c-1.5-2.5-2.9-6-4.9-8.3C569.5,299.4,565.5,297.4,565.3,294.7z"/>
<path class="st1" d="M565.3,294.7c0.7-1.7,0.4-3.8,0.8-5.5c0.4-1.8,1.4-2.9,1-5c-0.7-3.4-2.8-2-6.1-3c-3.6-1.1-5.6-2.9-5.8-7
	c-0.1-1.6,1.7-4.2,0.6-5.6c-1.1-1.3-2.9,0-4.4-0.4c-1.5-0.3-1.8-1.3-3.2-1.5c-3-0.3-5.4,1.1-8.8,0.3c-2-0.5-2.8-1.2-4.6-2.2
	c-1.8-0.9-4.2-1.4-6.1-2.8c-2.2-1.6-3-3.7-4.6-5.7c-1.1-1.4-2.6-1.9-3.7-3.2c-2.1-2.5-2.8-6.4-3.4-9.6c-1-6.2-0.3-10.7-6.8-12
	c-4.4-0.9-10-1.4-14-3.5c-3.8-2-5.4-6.8-10.4-3.7c-1.8,1.2-2.8,3.6-5.2,4.1c-2.4,0.5-3.5-1.2-6-1.8c-2.1-0.5-2.7-0.4-4.4-1.3
	c-1.1-0.6-1.2-1.5-2.6-2c-4.3-1.5-7.2,1.9-10.9-1.1c-3.1-2.6-4.3-5.4-7.2-1.3c-3.5,5,1.1,5.3,1,10.1c-0.2,5.7-6,8.5-8,13.1
	c-0.8,1.7-1.1,3.6-0.7,5.5c0.1,0.7,2.2,4,2,4.6c-1.5,5.1-14-1.1-16.8-0.6c-0.5-1.5-2.7-3.4-3.8-4.6c-0.4-0.4-0.3-1.2-0.8-1.7
	c-0.3-0.3-2.7-1.4-3.2-1.7c-2.8-1.4-5-2-7.9-2.4c-1-0.2-3.7,0.2-4.8-0.5c-2.9-1.8-0.2-1.9,0-4.6c0.1-1.8-1.5-3.8-2.4-5
	c-1.5-2.1-1.9-2.7-5.2-3.5c-1.8-0.4-4.5-0.1-5.4-1.8c-1.6-3.2,4-8.4,5-11.3c0.7-1.8,1.2-6.2,0.8-7.9c-0.4-1.9,0.5-0.6-0.8-1.9
	c-0.3-0.3-3.6-2.5-4.3-2.9c-2.1-1.2-4.5-0.6-6.8-0.4c-5.5,0.5-8.9-2-13.6-4.4c-4.1-2.2-6.2-3.6-10.4-3.3c-2.3,0.2-4.2-0.1-6.4,0.7
	c-1.8,0.7-3.2,1.6-5,2.1c-2.5,0.6-4,0-6.2-0.4c-1.7-0.2-4,0.2-5.8-0.4c-2.2-0.6-3.4-2.5-4.7-3.8c-1.8-1.9-4-3.7-6-5.2
	c-1-0.8-1.9-0.7-2.8-1.8c-0.8-1,0.2-2.1-0.8-2.6c-0.7-0.4-2,0.3-2.8,0.2c-0.7-0.1-1,0.9-1.9,0.5c-0.8-0.3-0.4-1.3-0.7-1.4
	c-1.3-0.7-1-1.3-2.4-1.7c-1.4-0.3-3.1,0.7-4.7,0.1c-2.3-0.8-7.3-4.6-8.7-6.5c-2.3-3.1-1.4-8.5-3.8-11.2c-0.8-0.9-3.4-2.7-4.8-2.6
	c-1.3,0.1-2.2,1.8-3.1,1.9c-1.3,0.2-3.1,0.2-3.8-1.7c-0.7-1.7,0.9-2.3,0.7-3.6c-0.3-2-3.3-3-0.5-5.3c2.4-2,6.3,0.9,6.7-3.6
	c0.2-2.6-2.3-4-3.4-5.8c-0.8-1.4-1.1-3.7-1.6-5.4c-0.6-2.1,0.9-1.4-0.7-2.3c-1.6-1-4.7,0.6-6.7-0.7c-2.9-1.8-3.3-7.4-2.4-10.6
	c1.7-6,7.1-5.9,12.2-5c9,1.5,15.6,7.9,20.8,14.5c2.8,3.4,7.4,4,11.2,6.3c2.3,1.4,3.4,2.3,5.6,2c2.3-0.3,4.2-1.8,6.7-1.7
	c4.5,0.2,9.3,2.9,11.8,6.4c1.5,2,1.7,4,2.5,6.3c0.3,1-0.1,1.6,0.5,2.4c0.4,0.6,2.3,1.1,2.9,1.6c4.8,3.5,4,9.7,8.3,13.1
	c4.1,3.1,9.8,1.8,14.1,5.3c4.1,3.4,3.1,7.1,8.9,7.7c4.6,0.5,8.5,0.7,12.9,2.2c1.7,0.6,3,1.3,4.7,1.7c2.7,0.7,3,0.2,5.9-0.6
	c4.3-1.2,8.3-0.2,11.9,2.3c1.8,1.2,3.2,3.6,5,4.6c1.6,0.9,4,0.8,5.8,1.3c2,0.6,4.7,1.9,6.5,1.3c1.7-0.6,3.3-2.9,5.3-3.6
	c4-1.4,8.3-0.6,12,0.2c4.1,0.9,6.7,0.5,10.8,0c4.2-0.5,8.2,0.2,12,0.5c4.1,0.3,8-2.3,12.5-1c4.6,1.4,7.4,5.3,11,7.9
	c1.8,1.3,3.8,2.2,5.6,3.7c1.8,1.5,2.9,1.7,5.2,2.8c3.7,1.8,6.7,6.7,8.6,10.3c1,1.8,0.7,4,1.4,5.6c0.8,1.7,2.8,3,4,5
	c1,1.8,1,4.9,2.3,5.6c0.7,0.4,5.2,0.2,6.2,0.2 M536,234c2.2,0.7,3.6,2.7,5.6,3.2c1.7,0.5,4.4-0.7,6.5-0.4c4,0.6,8.3,2.9,11.4,5.5
	c2.2,1.8,2.4,2.1,5,2.9c2.2,0.6,4.4,1,6.5,2.1c4.2,2,7.6,3.1,12.2,3.9c1.9,0.3,3.3,0.7,5.2,1.3c4.2,1.4,3.9,1.4,2.5,6.2
	c-1,3.4-2.5,7.4-2.2,11.1c0.3,3.6,2.8,3.2,4.1,5.9c1.4,2.7-1.3,4.5-0.1,7.3c0.7,1.6,3.3,3.6,3.7,5.9c0.6,2.8-0.5,3.2-2.9,2.9
	c-4-0.5-2.7-1.9-4.7,1.3c-0.9,1.5-0.6,1.6-1.7,2.8c-0.7,0.7-1.6,0.6-2.2,1.2c-1.7,1.9-2.1,4.1-0.6,6.1c0.8,1,2.1,0.7,2.8,2.1
	c0.5,1.1,0.3,4.2,0,5.4c-0.7,3-2.1,3.9,1.4,6.4c-2.6,0.1-3.6,0.8-5.3-0.5c-1.2-1-0.4-2.2-2.6-2.6c-1.1-0.2,0.5,2.2-1.9,0
	c-1.7-1.5-1.4-2.4-2.5-4.2c-1.5-2.5-2.9-6-4.9-8.3c-1.7-2-5.8-4-6-6.7"/>
<path class="st0" d="M208.3,97.4c1.8,2.9,5.6-3.5,8.2-3.1c0.5,0.1,1.2,1.6,1.9,1.7c1.3,0.3,1.9-0.2,3.2-0.4c1.6-0.2,2.8-0.6,4.3-0.4
	c5,0.7,10.3,3.3,15.7,3.1c3.6-0.1,7.3-0.4,10.8-1.3c4.5-1.1,4.2-1.5,7.7,1.6c7.9,7.1,15.7,14.2,23.6,21.3c-3.2,2.5-3.8,7.5-2.8,11.2
	c1.5,5.4,3.4,3.8,7.9,4.9c3.1,0.8,1.4,1.2,2.1,4.6c0.3,1.3,1.4,3.1,2,4.3c0.9,1.8,3.8,3.6,2,6.2c-1.6,2.5-5,0-6.8,2.5
	c-1.6,2.2,0.6,3.3,0.9,5.2c0.1,0.9-1.1,1.7-0.5,3.1c0.7,1.6,3.3,1.5,3.4,2.9c0,0.8-3.6,3.9-4.3,4.1c-2,0.5-3.8-0.8-6-0.2
	c-2.1,0.6-3.4,0.7-5.8,1c-1.6,0.2-4.9,1-6.4,1.9c-2.3,1.4-1.4,3.1-3,5.3c-1.6,2.2-6.6,4.2-6.8,7.4c-0.1,1.1,0.9,4.3,1.1,5.4
	c0.8,4.4,1.7,3.2,5.2,4.7c2.9,1.3,2.8,4.4,5.3,5.8c2.4,1.4,4.2-0.9,6.7-0.4c0.8,0.2,1.6,1.4,2.5,1.9c1.9,1,4,1.1,5.9,2
	c3.5,1.5,7.7,5.4,9.8,8.4c-5,1.2-9.4,1.3-14.5,0.7c-4-0.5-7.6-1.5-11.3,0.8c-6.1,3.7-13.4,15.9-20.9,7.8c-2.5-2.7-3.7-6.7-2.7-10.2
	c0.9-2.9,3.2-4.2,1.6-7.4c-1.2-2.4-6.7-7.3-9.5-6.2c-2.4,0.9-3,4.7-5.6,5.8c-2.4,1-3.4,0-4.8,2.2c-0.5,0.7-1.1,4.3-0.7,4.8
	c2,2.8,3.9-1.5,6.1-1.1c3.5,0.6,1.4,3.8,0.8,5.8c-0.8,2.8-0.9,5.4-2.4,8c-0.6,1-1.8,1.6-1.9,2.9c-0.1,0.9,1.2,1.6,1.2,2.5
	c0.1,3.6-2.4,3.4-5,5.4c-0.4,0.3-2.6,2.2-2.9,2.6c-0.6,1.2,0,1.5-0.5,2.4c-0.3,0.6-0.3,1.5-0.8,2.2c-1.4,1.8-3.3,0.4-4.6,1
	c-2.6,1.1-1.9,4.2-5.4,5.6c-1.9,0.8-7.7-0.6-8.9,1.1c-1.2,1.8,1.6,3.1,1.4,5c-0.2,2.6-2.7,1.3-0.2,4.1c1.1,1.3,4.4,2.9,6.1,3.8
	c6.6,3.6,2.4,7.3,0.7,13c-1.2,4.1-2.3,9.7-6,11.3c-2.6,1.1-2.3-0.6-3.5,2.9c-0.7,2.1-1.4,4.2-1.7,6.4c-0.3,2.8-0.4,6.6,1.8,8.4
	c2.7,2.2,4.6,1.3,6.3,5c1.2,2.5,2.3,4.5,0.8,6.4c0,0-1.9,0.2-2.4,0.7c-0.7,0.7-0.7,2.2-1,3.1c-1.2,3.8-2,6.8,0.1,10.4
	c2.5,4.1,2.5,5,2,10.1c-0.3,3.5-0.1,7.1,0.4,10.6c0.5,3.5,2.6,5.1,3.5,8c1.4,4.8-6,5.6-1.9,10.7c1.9,2.3,2.2,0.7,2.1,4.2
	c-0.1,3.1,0.5,3.6,1.7,6.7c1.8,4.9-0.9,7.9-3.1,11.8c-2,3.5-5.3,6.4-7.2,10.3c-2,3.9-4.3,9.2-9.1,10c-2.4,0.4-2.4-0.1-4.3-2.4
	c-0.6-0.7-2.1-3.6-2.6-4c-1.4-0.9-3.3,1.1-4.6-0.7c-1.9-2.4,0.8-5.3-2.3-7.7c-3.9-3-10.5-2.9-14.6-4.4c-1.2-0.4-2.1-1.8-3.4-2
	c-1.4-0.3-1.8,0.3-3.3,0.5c-3.7,0.5-5.3,0.2-7.2-3.1c-0.9-1.6-2.2-3.8-2.7-5.5c-0.8-2.6,0.2-5.3-0.4-7.9c-0.5-1.9-1.9-3.1-1.7-5.2
	c0.2-2.1,2.1-3.4,1.9-4.9c-0.4-3.2-4-5.4-6.6-5c-1,0.1-0.7,1.5-2,1.4c-1-0.1-2.4-2.3-3.4-2.8c-3.9-1.7-7.3,0.9-10.1-3.4
	c-1.6-2.5-2-6.1-1.3-9c0.5-1.9,1.4-3.5,1.7-5.4c0.3-1.9,0.1-3.2,1-5c0.8-1.5,2.1-2.1,2-4.1c-0.1-2.2-2.8-7.6-4.1-9.5
	c-2.3-3.2-2.7-1.1-5.6-1.6c-1.8-0.3-3.1-2.6-4.9-3.4c-2-0.9-4.8-1-6.1-3.4c-1.2-2.3-0.1-4.4-0.2-6.9c-0.7-9.2-7.7-7-13.4-3.6
	c-2.9,1.7-5.2,3.1-9.1,2.4c-6-1-3.2-3.6-4.7-7.4c-0.6-1.6-2.3-1.7-3-3.1c-1-2.1,0.2-1.3,0.2-3.4c0.1-2.9-1.1-4.6-2-7.3
	c-0.8-2.2,0.1-3-0.1-5c-0.2-2-1.6-2.9-2.4-4.6c-0.4-0.9-0.7-0.7-1-1.7c-0.2-0.9,1-1.7,0.7-2.6c-0.2-0.7-3.2-3-4.1-3.5
	c-2.8-1.6-11.7-0.5-9.8-5.4c0.7-1.9,3.6-2.8,5.6-3.1c1.8-0.3,5.1-1,6.7-1c3.5,0.1,3.7,3,6.5,0.4c1.8-1.6,2-3.4,0.1-5
	c1.4-0.8,2.4,0.4,3.8-0.1c2.6-0.7,3.6-3.3,4.7-5.5c0.5-1.1,1-2.6,1.3-3.4c0.3-0.7,1.2-1.7,1.9-2.9c2.9-5.7-4.7-13.6,4.1-12.9
	c3.4,0.3,6.6,2.6,10.1,2.9c3.1,0.3,6.2,0.4,9.2,0.3c3-0.1,4.3,0.8,5.9-2.3c1.1-2.1,0.4-4.2,0.7-6.5c0.5-3.2,3-4.6,5.2-6.6
	c0.7-0.7,1.1-2,2.1-2.8c1.6-1.2,1.6-0.7,3.3-1.1c2.9-0.6,5.4-0.3,8-0.7c3.2-0.5,2.9-2.2,4.6-4.7c3.1-4.9,3.1-2.3,7.1,0.4
	c2,1.3,4.6,1.4,6.4,3.2c1.9,1.9,2.2,4.6,5.6,5.2c4.7,0.7,13.4-4.5,16.3-8.2c1.1-1.4,4.7-5.7,4-7.6c-0.9-2.5-2.5,0.2-3.8-1.4
	c-1.6-1.9,2.5-4.4,2.8-5.9c0.4-2.6-2.6-5.2-3.8-7.3c-1.5-2.7-1.6-4.8-2-7.8c-0.2-1.4-1-3.5-1-4.7c0.2-2,1.8-3.6,3.2-4.9
	c0.6-0.5,3.5-2.6,3.8-3.2c1.1-2.5-2.8-6.3-1.9-9.1c0.6-2,2.5-2.3,3.8-3.7c-2,0-4-1.4-5.6-2.2c-1.2-0.5-2.9-1-4.2-1.7
	c-2.8-1.4-3.2-0.4-5.7-0.1c-2,0.2-4.5-1-6.9-0.4c-4.7,1.2-6.6,4.6-11.4,1c-1.7-1.3-4.7-4.2-5-6.4c-0.2-1.5,1.4-2.9,0.6-3.7
	c-1.3-1.3-4.3,0.8-5.9,0.2c-1.6-0.6-4.8-5.1-5.6-6.6c-2.3-4.3-0.7-11.7-4.2-15c-3.3-3.2-8.6-1.4-2.9-5c1.5-0.9,2.8-2.8,4.7-2.9
	c2.4-0.2,4.5,2.4,7,2.3c0.8,0,4.6-0.7,4.9-0.8c0.9-0.4,1-1.6,1.8-2c0.9-0.5,2.4-0.6,3-1.1c3.3-2.8-1.4-9.2,0.5-13.7
	c3.7,2.3,12,3.2,16.1,1.2c5-2.4,7.8-5.2,13-1.2c0.8,0.6,0.8,1.9,1.7,2.4c1.1,0.6,2.7,0,3.7,0.6c2.5,1.4,0.4,3.5,1.9,5
	c1.3,1.3,11.4,2.1,12.9,1c1.3-1,0.7-4.1,2.1-4.9C202.2,96.7,207,97.4,208.3,97.4z"/>
<path class="st1" d="M208.3,97.4c1.8,2.9,5.6-3.5,8.2-3.1c0.5,0.1,1.2,1.6,1.9,1.7c1.3,0.3,1.9-0.2,3.2-0.4c1.6-0.2,2.8-0.6,4.3-0.4
	c5,0.7,10.3,3.3,15.7,3.1c3.6-0.1,7.3-0.4,10.8-1.3c4.5-1.1,4.2-1.5,7.7,1.6c7.9,7.1,15.7,14.2,23.6,21.3c-3.2,2.5-3.8,7.5-2.8,11.2
	c1.5,5.4,3.4,3.8,7.9,4.9c3.1,0.8,1.4,1.2,2.1,4.6c0.3,1.3,1.4,3.1,2,4.3c0.9,1.8,3.8,3.6,2,6.2c-1.6,2.5-5,0-6.8,2.5
	c-1.6,2.2,0.6,3.3,0.9,5.2c0.1,0.9-1.1,1.7-0.5,3.1c0.7,1.6,3.3,1.5,3.4,2.9c0,0.8-3.6,3.9-4.3,4.1c-2,0.5-3.8-0.8-6-0.2
	c-2.1,0.6-3.4,0.7-5.8,1c-1.6,0.2-4.9,1-6.4,1.9c-2.3,1.4-1.4,3.1-3,5.3c-1.6,2.2-6.6,4.2-6.8,7.4c-0.1,1.1,0.9,4.3,1.1,5.4
	c0.8,4.4,1.7,3.2,5.2,4.7c2.9,1.3,2.8,4.4,5.3,5.8c2.4,1.4,4.2-0.9,6.7-0.4c0.8,0.2,1.6,1.4,2.5,1.9c1.9,1,4,1.1,5.9,2
	c3.5,1.5,7.7,5.4,9.8,8.4c-4.9,1.2-9.2,1.3-14.2,0.7c-3.8-0.5-7.6-1.5-11.2,0.5c-6.1,3.4-12.4,15.1-20.2,9.1
	c-2.9-2.2-4.5-6.7-4-10.1c0.4-2.9,3-4.6,2.3-7.6c-0.6-2.5-5.8-7.3-8.4-7.4c-3.1-0.2-3.6,3.5-6.1,5.2c-1.7,1.1-4.3,0.5-5.5,1.9
	c-0.2,0.2-1.4,4.5-1.3,4.9c1.3,5.2,8.3-4.2,8.4,2.8c0,1.3-1.3,2.7-1.7,4c-0.4,1.5,0,3.1-0.7,4.6c-0.9,2.3-2.9,3.6-2.9,5.9
	c-0.1,2.2,2.1,3.1-0.2,5.3c-1.8,1.7-6.1,2.7-7.4,5c-0.7,1.3,0.8,2.9-0.9,4.4c-1.5,1.4-3.2,0.1-4.3,0.6c-2.2,0.9-0.5,0.7-1.9,2.5
	c-2.5,3.3-4.6,3.5-8.8,3.6c-3.6,0.1-3.5,0.1-3.2,3c0.1,0.9,1.1,1.3,1.1,2.4c-0.1,1.2-1.7,1.4-1.7,2c0,1.9,2.5,2.8,3.8,3.7
	c4.8,3.1,9.4,3.9,6.5,10.6c-1.9,4.4-2.8,9.9-5.5,13.9c-2,3-1.7,0.8-4.1,1.9c-1.9,0.9-1.6,2.7-2.3,4.9c-1.4,4.6-3.1,10.4,1.6,13.3
	c3.4,2.1,4.6,2.2,6,6.2c0.3,0.9,1.3,2.6,1,3.6c-0.7,1.7-1,0.3-1.7,1c-4,4.1-5,10.3-1.7,15.5c3.5,5.4,0.4,13.9,1.7,20.5
	c0.6,3.1,2.6,4.6,3.4,7.3c0.9,3.1-1,3-2.4,5.2c-1.2,2-1.2,3.5,0.4,5.3c2,2.2,2.3,0.6,2.3,4c0,3.1,0,3.4,1.3,6.4
	c1,2.5,1.6,4.9,0.4,7.4c-1.3,2.7-4.3,5.9-6.2,8.4c-3,4-4.2,9-7.4,13c-1.3,1.6-2.8,2.9-4.8,3.7c-2.6,1.1-1.9,0.8-4.1-0.8
	c-1.6-1.2-2.2-2.8-3.3-3.9c-0.7-0.8-0.4-1.4-1.1-1.7c-0.8-0.3-2.1,1-3,0.6c-2.4-1.1-0.3-4.6-1.4-6.7c-1.2-2.3-5.3-3.5-7.7-4
	c-2.4-0.5-3.5-1.3-5.6-2c-1.3-0.5-2.7-0.1-3.9-0.5c-1.2-0.5-2.1-2.2-3.5-2.4c-2.2-0.4-5.1,2.1-7.7,0.8c-2.1-1-4.7-7.3-5.2-9.4
	c-0.5-2.2,0.5-4.7-0.1-7c-0.6-2.3-2.2-3.5-1.6-6.1c0.3-1.5,2.1-2.7,2-3.9c0-0.3-2.5-4.1-2.9-4.4c-3.5-3.1-3.4,0.8-5.8,0.7
	c-0.9,0-2.2-2.1-3.1-2.5c-1.7-0.9-3.2-0.6-5.1-0.8c-4.2-0.6-5.4-2.4-6.4-6c-1.3-4.6,0.6-5.9,1.4-10.3c0.3-1.6-0.4-3.1,0.2-4.8
	c0.7-1.8,2.5-2.2,2.8-4.3c0.3-2.3-3.2-10.8-5.6-12.1c-1.8-1-3.6,0.1-5.5-0.6c-1.4-0.5-3.8-2.1-5.2-2.9c-1.9-1.1-4.6-2.3-5.3-4.8
	c-0.6-2,0.2-5-0.3-7.1c-2-8.6-8.4-4-13.5-0.9c-2.6,1.6-7.5,2.6-10.6,1c-3.8-2-1.3-4.8-2.9-7.9c-0.6-1.1-2.2-1.2-2.8-2.6
	c-0.5-1.4,0.3-2,0.5-3.8c0.2-2.8-1.7-4.3-2.4-6.7c-0.5-1.9,0.5-3.1,0.2-4.8c-0.2-1.9-1.8-2.8-2.5-4.4c-0.4-0.8-0.6-0.7-0.8-1.6
	c-0.2-0.9,1-1.7,0.7-2.6c-0.2-0.6-3-2.9-3.8-3.4c-3.1-1.8-10.6-0.5-10.1-4.8c0.7-5,7.8-3,11-4.1 M71.8,257.5
	c2.7-2.1,4.8,1.9,7.4,0.2c2.3-1.4,2.3-4,0.5-5.5c1.4-0.8,2.4,0.4,3.8-0.1c2.6-0.7,3.6-3.3,4.7-5.5c0.5-1.1,1-2.6,1.3-3.4
	c0.3-0.7,1.2-1.7,1.9-2.9c2.9-5.7-4.7-13.6,4.1-12.9c3.4,0.3,6.6,2.6,10.1,2.9c3.1,0.3,6.2,0.4,9.2,0.3c3-0.1,4.3,0.8,5.9-2.3
	c1.1-2.1,0.4-4.2,0.7-6.5c0.5-3.2,3-4.6,5.2-6.6c0.7-0.7,1.1-2,2.1-2.8c1.6-1.2,1.6-0.7,3.3-1.1c2.9-0.6,5.4-0.3,8-0.7
	c3.2-0.5,2.9-2.2,4.6-4.7c3.1-4.9,3.1-2.3,7.1,0.4c2,1.3,4.6,1.4,6.4,3.2c1.9,1.9,2.2,4.6,5.6,5.2c4.7,0.7,13.4-4.5,16.3-8.2
	c1.1-1.4,4.7-5.7,4-7.6c-0.9-2.5-2.5,0.2-3.8-1.4c-1.6-1.9,2.5-4.4,2.8-5.9c0.4-2.6-2.6-5.2-3.8-7.3c-1.5-2.7-1.6-4.8-2-7.8
	c-0.2-1.4-1-3.5-1-4.7c0.2-2,1.8-3.6,3.2-4.9c0.6-0.5,3.5-2.6,3.8-3.2c1.1-2.5-2.8-6.3-1.9-9.1c0.6-2,2.5-2.3,3.8-3.7
	c-2,0-4-1.4-5.6-2.2c-1.2-0.5-2.9-1-4.2-1.7c-2.8-1.4-3.2-0.4-5.7-0.1c-2,0.2-4.5-1-6.9-0.4c-4.7,1.2-6.6,4.6-11.4,1
	c-1.7-1.3-4.7-4.2-5-6.4c-0.2-1.5,1.4-2.9,0.6-3.7c-1.3-1.3-4.3,0.8-5.9,0.2c-1.6-0.6-4.8-5.1-5.6-6.6c-2.3-4.3-0.7-11.7-4.2-15
	c-3.3-3.2-8.6-1.4-2.9-5c1.5-0.9,2.8-2.8,4.7-2.9c2.4-0.2,4.5,2.4,7,2.3c0.8,0,4.6-0.7,4.9-0.8c0.9-0.4,1-1.6,1.8-2
	c0.9-0.5,2.4-0.6,3-1.1c3.3-2.8-1.4-9.2,0.5-13.7c3.7,2.3,12,3.2,16.1,1.2c5-2.4,7.8-5.2,13-1.2c0.8,0.6,0.8,1.9,1.7,2.4
	c1.1,0.6,2.7,0,3.7,0.6c2.5,1.4,0.4,3.5,1.9,5c1.3,1.3,11.4,2.1,12.9,1c1.3-1,0.7-4.1,2.1-4.9c0.9-0.5,5.7,0.3,7,0.2"/>
<path class="st2" d="M208.3,97.4c-1.6,0-5-0.6-6.2-0.1c-2.2,0.8-0.8,1.6-2.2,3.7c-1.5,2.2-9.2,1.8-12,0.7c-3.3-1.3-0.4-2.8-2.3-5
	c-1-1.2-4.3-1.1-5.6-2c-1.7-1.1-2.1-2.5-4.3-3.2c-3.3-1.1-4.2-0.3-6.9,1.4c-5.1,3.1-13.8,3.6-18.7,0.3c-1.8,4.2,1.2,6.9,0.8,11.2
	c-0.2,2.4-2.8,3.4-5,4.6c-1.7,0.8-4.1,2-6.6,2c-4.9-0.1-5-3.5-9.5-0.5c-4,2.6-8.1,5.7-12.4,7.8c-1.3,0.6-2.9,0.1-4.2,1.1
	c-1.3,0.9-1.6,2.1-2.9,3c-1.6,1.1-4.8,3.4-6.8,4.1c-1.6,0.5-3.1-0.3-4.6,0.9c-1.3,1-0.7,1.7-1.6,2.9c-2.6,3.3-6.7,2.9-9.5,4.7
	c-1.7,1.1-0.8,1.7-3.5,2.2c-1.7,0.3-3.2-0.1-4.9,0c-2.8,0.1-5.4,1-8,1.8c-2.5,0.8-6,2.4-8.6,2c-3.1-0.4-5.5-4.3-7.1-6.5
	c-0.7-1-2.2-2.8-2.5-3.9c-0.6-2,0.6-2.5,0.6-4.5c0.1-3.2-2.8-4.6-4.1-7.7c-0.6-1.5-0.6-2.7-1-4.3c-0.4-1.5-0.9-2-1.3-3.1
	c-1.2-3.2-1.7-4.3,1.4-5.4c1.4-0.5,4.1-0.1,5.2-1.4c0.9-1.1,0.4-2.2,0.5-3.8c0.4-3.9,2.6-7.5,5.3-10.3c2.7-2.8,5.1-2.1,8.5-1.2
	c1.5,0.4,1.8,1.3,3.6,1c1.8-0.3,1.4-1.1,2.9-2.2c2.4-1.6,6.1-2.3,8.6-2.2c3.2,0.1,3.6-0.5,6.2-1.3c3.2-1,6.4-0.4,9.7-3.1
	c2.3-1.9,2.7-4.5,5.2-6c3.4-2.1,8-1.3,11.8-3.7c1.9-1.2,2.2-1.9,4.1-2.2c1-0.2,2.5,0.7,4.1,0.1c1.8-0.6,3.2-1.8,4.9-2.5
	c1.4-0.5,4-0.2,5.2-1c1.5-1.1,1.3-1.1,1.1-3.4c-0.1-1.6-1.9-4-1.9-4.8c0-1.3,2.5-3.3,3.1-4.4c0.9-1.7,0.5-4.2,1.4-5.7
	c2.6-4.1,6.8,2.5,9.5,4c3.5,1.8,4.7-2.1,8.5-1.3c3.7,0.8,6.2,4.3,8.8,6.8c2.6,2.5,5.9,5.9,8.8,7.6c4.4,2.6,5.9-2.7,9.9-1.5
	c3.1,0.9,5.9,5.9,9.1,7.4c2.7,1.3,5.5-0.7,8.1,0.1c1.5,0.4,2.9,3,4.1,4.1c1.7,1.6,5.2,2.6,6.4,4.2c1.9,2.3,0.2,3.4-0.4,5.7
	c-1.1,3.9-0.9,3.8-4.3,5.6C201.5,93.2,207.2,94.2,208.3,97.4z"/>
<path class="st2" d="M256.8,95.8c-4.7,2.5-13.8,3.5-19.1,2.5c-4.3-0.8-8.2-2.7-12.3-3.1c-3-0.3-5.2,0.8-8.2,0.1
	c-1.9-0.4-0.9-1.2-3-0.4c-1.4,0.5-2.3,2.9-3.8,3.1c-1.3,0.2-5.8-2.9-6-4.9c-0.3-3.5,4.8-2.5,6.2-5c0.9-1.7,2.6-7,1.7-8.6
	c-0.6-1.2-4-2.6-5-3.4c-1.1-0.8-2.4-1.5-3.4-2.4c-0.6-0.6-0.6-1.8-1.4-2.3c-2.3-1.4-4.7,0.5-7.4-0.1c-1.7-0.4-3.4-1.8-4.8-2.9
	c-2.1-1.7-4.8-5.1-7.4-5.3c-3.9-0.3-4.8,4.2-9.1,1.3c-2.5-1.7-5.6-4.8-8.1-7c-2.7-2.5-4.9-5.9-8.5-7c-3.4-1-3.9,1.4-6.5,1.7
	c-4,0.5-5.9-6.1-10.1-5.9c-3,0.1-2.7,5.6-4.3,8.2c-0.5,0.9-2.4,2.4-2.4,3.5c0,0.6,1.9,3.3,1.9,4.8c0.1,4.2-1.7,2.8-5.5,3.9
	c-3,0.9-5.3,3.1-8.5,3.3c-1.2,0.1-1.5-1.1-2.9-0.7c-1.9,0.5-4,3.1-6.2,3.8c-3.4,1.2-6.5,0.3-9,2.9c-1.7,1.7-2.4,3.9-4.7,5.5
	c-4,2.9-10.6,3.6-14.4,4.1c-3,0.3-4.9,0.1-7.7,1.4c-2.7,1.3-3.6,3.4-6.7,2.9c-0.9-0.1-6.1-1.3-7-1.9c-2.3-1.4-1.2-3.9-1.7-6.1
	c-0.3-1.5-3.1-4.7-2.9-6.5c0.2-1.7,3.5-3.8,4.8-5.2c3.1-3.3,7-4.2,11-6.8c2.3-1.5,4.1-4.3,5-6.7c0.9-2.3,2-4,3.6-6.7
	C85.7,46,88.1,41,86,36.8c-1.1-2.2-3.8-2.4-4.9-4.9c-1.4-3.1-0.1-7.7,2.6-9.1c1.7-0.9,1.1-0.1,2.4-0.5c1.4-0.3,1.1,0.9,2.6-0.7
	c1.3-1.4,1.3-5.3,1.8-7.3c0.4-1.7,0.3-3.6,1.2-4.9c1.8-2.5,6.6-4.5,9.2-6.3c0.8,1.5,7.1,3.6,8.6,3.8c2.6,0.4,6.1-0.2,7.9-1.6
	c3.3-2.4,5.1-5.2,9.8-5.2c3.8,0.1,7.1,1.9,9.8,4.1c5.3,4.4,6.4,12.6,12.1,16.3c1.7,1.1,6.7,0.8,9.6,1.2c1.9,0.3,3.5,0,5.3,0.7
	c2,0.7,3.2,2.6,4.7,3.4c3.6,1.9,6.5,2,9.7,5.2c2.3,2.3,4.9,4.6,7.4,6.9c5.2,4.8,5.3,13.2,11.6,17.5c2.9,1.9,6.3,2.6,9.2,4.6
	c1.7,1.1,3.2,1.4,5,2.3c0.7,0.4,4,3.2,4.3,3.2c1.2,0,5.5-4.9,7.8-5.5c3.2-0.9,6.6-1,9.8-0.3c7.5,1.6,10.8,7.5,12.4,14.6
	c0.7,3.2-0.2,2,2.7,3.4c1.7,0.8,3.4,1.4,4.7,2.7c2.9,2.7,3.6,6.5,3.6,10.3C257.3,92.4,257.4,94.2,256.8,95.8z"/>
</svg>
