<svg xmlns="http://www.w3.org/2000/svg" viewBox="0 0 38.01 38.01"><defs><style>.cls-1{fill:#fff;}</style></defs><title>White</title><g id="Layer_2" data-name="Layer 2"><g id="Layer_1-2" data-name="Layer 1"><path id="White" class="cls-1" d="M36.43,0H1.58A1.58,1.58,0,0,0,0,1.58V36.43A1.58,1.58,0,0,0,1.58,38H20.19V23.76H15.44V17.82h4.75V13.07c0-4.91,3.11-7.33,7.49-7.33A40.64,40.64,0,0,1,32.11,6V11.1h-3c-2.38,0-2.94,1.13-2.94,2.79v3.93h5.94l-1.19,5.94H26.13L26.23,38h10.2A1.58,1.58,0,0,0,38,36.43V1.58A1.58,1.58,0,0,0,36.43,0Z"/></g></g></svg>